<?xml version="1.0" encoding="UTF-8" standalone="no"?>
<!-- Created with matplotlib (https://matplotlib.org/) -->

<svg
   height="291.96039pt"
   version="1.1"
   viewBox="0 0 978.49365 291.96039"
   width="978.49365pt"
   id="svg353"
   sodipodi:docname="genes.svg"
   inkscape:export-filename="/home/jmurga/mkt/201902/results/genes/genes.png"
   inkscape:export-xdpi="350"
   inkscape:export-ydpi="350"
   inkscape:version="1.1 (1:1.1+202105261518+ce6663b3b7)"
   xmlns:inkscape="http://www.inkscape.org/namespaces/inkscape"
   xmlns:sodipodi="http://sodipodi.sourceforge.net/DTD/sodipodi-0.dtd"
   xmlns:xlink="http://www.w3.org/1999/xlink"
   xmlns="http://www.w3.org/2000/svg"
   xmlns:svg="http://www.w3.org/2000/svg"
   xmlns:rdf="http://www.w3.org/1999/02/22-rdf-syntax-ns#"
   xmlns:cc="http://creativecommons.org/ns#"
   xmlns:dc="http://purl.org/dc/elements/1.1/">
  <sodipodi:namedview
     id="namedview355"
     pagecolor="#ffffff"
     bordercolor="#666666"
     borderopacity="1.0"
     inkscape:pageshadow="2"
     inkscape:pageopacity="0.0"
     inkscape:pagecheckerboard="0"
     inkscape:document-units="pt"
     showgrid="false"
     inkscape:zoom="0.64"
     inkscape:cx="403.125"
     inkscape:cy="369.53125"
     inkscape:window-width="1920"
     inkscape:window-height="1016"
     inkscape:window-x="0"
     inkscape:window-y="27"
     inkscape:window-maximized="1"
     inkscape:current-layer="svg353" />
  <metadata
     id="metadata2">
    <rdf:RDF>
      <cc:Work>
        <dc:type
           rdf:resource="http://purl.org/dc/dcmitype/StillImage" />
        <dc:date>2021-11-02T09:42:49.004571</dc:date>
        <dc:format>image/svg+xml</dc:format>
        <dc:creator>
          <cc:Agent>
            <dc:title>Matplotlib v3.3.4, https://matplotlib.org/</dc:title>
          </cc:Agent>
        </dc:creator>
      </cc:Work>
    </rdf:RDF>
  </metadata>
  <defs
     id="defs6">
    <style
       type="text/css"
       id="style4">*{stroke-linecap:butt;stroke-linejoin:round;}</style>
    <style
       type="text/css"
       id="style35100">*{stroke-linecap:butt;stroke-linejoin:round;}</style>
    <path
       d="m 33.015625,40.375 q -6.640625,0 -10.53125,-4.546875 -3.875,-4.53125 -3.875,-12.4375 0,-7.859375 3.875,-12.4375 3.890625,-4.5625 10.53125,-4.5625 6.640625,0 10.515625,4.5625 3.875,4.578125 3.875,12.4375 0,7.90625 -3.875,12.4375 Q 39.65625,40.375 33.015625,40.375 Z M 52.59375,71.296875 V 62.3125 q -3.71875,1.75 -7.5,2.671875 -3.78125,0.9375 -7.5,0.9375 -9.765625,0 -14.921875,-6.59375 -5.140625,-6.59375 -5.875,-19.921875 2.875,4.25 7.21875,6.515625 4.359375,2.265625 9.578125,2.265625 10.984375,0 17.359375,-6.671875 6.375,-6.65625 6.375,-18.125 0,-11.234375 -6.640625,-18.03125 -6.640625,-6.78125 -17.671875,-6.78125 -12.65625,0 -19.34375,9.6875 -6.6875,9.703125 -6.6875,28.109375 0,17.28125 8.203125,27.5625 8.203125,10.28125 22.015625,10.28125 3.71875,0 7.5,-0.734375 3.78125,-0.734375 7.890625,-2.1875 z"
       id="DejaVuSans-54" />
    <path
       d="M 10.984375,1.515625 V 10.5 Q 14.703125,8.734375 18.5,7.8125 q 3.8125,-0.921875 7.484375,-0.921875 9.765625,0 14.90625,6.5625 5.15625,6.5625 5.890625,19.953125 -2.828125,-4.203125 -7.1875,-6.453125 -4.34375,-2.25 -9.609375,-2.25 -10.9375,0 -17.3125,6.609375 -6.375,6.625 -6.375,18.109375 0,11.21875 6.640625,18 6.640625,6.796875 17.671875,6.796875 12.65625,0 19.3125,-9.703125 6.671875,-9.6875 6.671875,-28.140625 0,-17.234375 -8.1875,-27.515625 -8.171875,-10.28125 -21.984375,-10.28125 -3.71875,0 -7.53125,0.734375 -3.796875,0.734375 -7.90625,2.203125 z m 19.625,30.90625 q 6.640625,0 10.515625,4.53125 3.890625,4.546875 3.890625,12.46875 0,7.859375 -3.890625,12.421875 -3.875,4.5625 -10.515625,4.5625 -6.640625,0 -10.515625,-4.5625 -3.875,-4.5625 -3.875,-12.421875 0,-7.921875 3.875,-12.46875 3.875,-4.53125 10.515625,-4.53125 z"
       id="DejaVuSans-57" />
    <path
       d="m 12.40625,8.296875 h 16.109375 v 55.625 L 10.984375,60.40625 v 8.984375 l 17.4375,3.515625 H 38.28125 V 8.296875 H 54.390625 V 0 H 12.40625 Z"
       id="DejaVuSans-49" />
    <path
       d="m 31.78125,34.625 q -7.03125,0 -11.0625,-3.765625 -4.015625,-3.765625 -4.015625,-10.34375 0,-6.59375 4.015625,-10.359375 4.03125,-3.765625 11.0625,-3.765625 7.03125,0 11.078125,3.78125 4.0625,3.796875 4.0625,10.34375 0,6.578125 -4.03125,10.34375 Q 38.875,34.625 31.78125,34.625 Z m -9.859375,4.1875 Q 15.578125,40.375 12.03125,44.71875 8.5,49.078125 8.5,55.328125 q 0,8.734375 6.21875,13.8125 6.234375,5.078125 17.0625,5.078125 10.890625,0 17.09375,-5.078125 6.203125,-5.078125 6.203125,-13.8125 0,-6.25 -3.546875,-10.609375 Q 48,40.375 41.703125,38.8125 q 7.125,-1.65625 11.09375,-6.5 3.984375,-4.828125 3.984375,-11.796875 0,-10.609375 -6.46875,-16.28125 -6.46875,-5.65625 -18.53125,-5.65625 -12.046875,0 -18.53125,5.65625 -6.46875,5.671875 -6.46875,16.28125 0,6.96875 4,11.796875 4.015625,4.84375 11.140625,6.5 z M 18.3125,54.390625 q 0,-5.65625 3.53125,-8.828125 3.546875,-3.171875 9.9375,-3.171875 6.359375,0 9.9375,3.171875 3.59375,3.171875 3.59375,8.828125 0,5.671875 -3.59375,8.84375 -3.578125,3.171875 -9.9375,3.171875 -6.390625,0 -9.9375,-3.171875 Q 18.3125,60.0625 18.3125,54.390625 Z"
       id="DejaVuSans-56" />
    <path
       d="M 19.1875,8.296875 H 53.609375 V 0 H 7.328125 v 8.296875 q 5.609375,5.8125 15.296875,15.59375 9.703125,9.796875 12.1875,12.640625 4.734375,5.3125 6.609375,9 1.890625,3.6875 1.890625,7.25 0,5.8125 -4.078125,9.46875 -4.078125,3.671875 -10.625,3.671875 -4.640625,0 -9.796875,-1.609375 -5.140625,-1.609375 -11,-4.890625 v 9.96875 Q 13.765625,71.78125 18.9375,73 q 5.1875,1.21875 9.484375,1.21875 11.328125,0 18.0625,-5.671875 6.734375,-5.65625 6.734375,-15.125 0,-4.5 -1.6875,-8.53125 Q 49.859375,40.875 45.40625,35.40625 44.1875,33.984375 37.640625,27.21875 31.109375,20.453125 19.1875,8.296875 Z"
       id="DejaVuSans-50" />
    <path
       d="m 10.796875,72.90625 h 38.71875 v -8.3125 h -29.6875 V 46.734375 q 2.140625,0.734375 4.28125,1.09375 2.15625,0.359375 4.3125,0.359375 Q 40.625,48.1875 47.75,41.5 54.890625,34.8125 54.890625,23.390625 54.890625,11.625 47.5625,5.09375 40.234375,-1.421875 26.90625,-1.421875 q -4.59375,0 -9.359375,0.78125 -4.75,0.78125 -9.828125,2.34375 V 11.625 q 4.390625,-2.390625 9.078125,-3.5625 4.6875,-1.171875 9.90625,-1.171875 8.453125,0 13.375,4.4375 4.9375,4.4375 4.9375,12.0625 0,7.609375 -4.9375,12.046875 -4.921875,4.453125 -13.375,4.453125 -3.953125,0 -7.890625,-0.875 -3.921875,-0.875 -8.015625,-2.734375 z"
       id="DejaVuSans-53" />
    <path
       d="M 40.578125,39.3125 Q 47.65625,37.796875 51.625,33 q 3.984375,-4.78125 3.984375,-11.8125 0,-10.78125 -7.421875,-16.703125 -7.421875,-5.90625 -21.09375,-5.90625 -4.578125,0 -9.4375,0.90625 -4.859375,0.90625 -10.03125,2.71875 v 9.515625 q 4.09375,-2.390625 8.96875,-3.609375 4.890625,-1.21875 10.21875,-1.21875 9.265625,0 14.125,3.65625 4.859375,3.65625 4.859375,10.640625 0,6.453125 -4.515625,10.078125 -4.515625,3.640625 -12.5625,3.640625 h -8.5 v 8.109375 h 8.890625 q 7.265625,0 11.125,2.90625 3.859375,2.90625 3.859375,8.375 0,5.609375 -3.984375,8.609375 -3.96875,3.015625 -11.390625,3.015625 -4.0625,0 -8.703125,-0.890625 Q 15.375,64.15625 9.8125,62.3125 v 8.78125 q 5.625,1.5625 10.53125,2.34375 4.90625,0.78125 9.25,0.78125 11.234375,0 17.765625,-5.109375 6.546875,-5.09375 6.546875,-13.78125 0,-6.0625 -3.46875,-10.234375 -3.46875,-4.171875 -9.859375,-5.78125 z"
       id="DejaVuSans-51" />
    <path
       d="M 9.8125,72.90625 H 24.515625 L 43.109375,23.296875 61.8125,72.90625 H 76.515625 V 0 h -9.625 v 64.015625 l -18.796875,-50 H 38.1875 l -18.796875,50 V 0 H 9.8125 Z"
       id="DejaVuSans-77-1" />
    <path
       d="m 9.8125,72.90625 h 9.859375 v -30.8125 l 32.71875,30.8125 H 65.09375 L 28.90625,38.921875 67.671875,0 H 54.6875 L 19.671875,35.109375 V 0 H 9.8125 Z"
       id="DejaVuSans-75-9" />
    <path
       d="M -0.296875,72.90625 H 61.375 v -8.3125 H 35.5 V 0 H 25.59375 V 64.59375 H -0.296875 Z"
       id="DejaVuSans-84-6" />
    <path
       d="M 37.109375,75.984375 V 68.5 h -8.59375 q -4.828125,0 -6.71875,-1.953125 -1.875,-1.953125 -1.875,-7.03125 V 54.6875 H 34.71875 V 47.703125 H 19.921875 V 0 h -9.03125 V 47.703125 H 2.296875 V 54.6875 h 8.59375 V 58.5 q 0,9.125 4.25,13.296875 4.25,4.1875 13.46875,4.1875 z"
       id="DejaVuSans-102" />
    <path
       d="M 4.203125,54.6875 H 13.1875 L 24.421875,12.015625 35.59375,54.6875 H 46.1875 L 57.421875,12.015625 68.609375,54.6875 H 77.59375 L 63.28125,0 H 52.6875 L 40.921875,44.828125 29.109375,0 H 18.5 Z"
       id="DejaVuSans-119" />
    <path
       d="M 9.421875,54.6875 H 18.40625 V 0 H 9.421875 Z m 0,21.296875 H 18.40625 V 64.59375 H 9.421875 Z"
       id="DejaVuSans-105" />
    <path
       d="M 52,44.1875 Q 55.375,50.25 60.0625,53.125 64.75,56 71.09375,56 q 8.546875,0 13.1875,-5.984375 4.640625,-5.96875 4.640625,-17 V 0 h -9.03125 v 32.71875 q 0,7.859375 -2.796875,11.65625 -2.78125,3.8125 -8.484375,3.8125 -6.984375,0 -11.046875,-4.640625 -4.046875,-4.625 -4.046875,-12.640625 V 0 h -9.03125 v 32.71875 q 0,7.90625 -2.78125,11.6875 -2.78125,3.78125 -8.59375,3.78125 -6.890625,0 -10.953125,-4.65625 -4.046875,-4.65625 -4.046875,-12.625 V 0 h -9.03125 v 54.6875 h 9.03125 v -8.5 q 3.078125,5.03125 7.375,7.421875 Q 29.78125,56 35.6875,56 41.65625,56 45.828125,52.96875 50,49.953125 52,44.1875 Z"
       id="DejaVuSans-109" />
    <path
       d="m 18.109375,8.203125 v -29 H 9.078125 V 54.6875 h 9.03125 v -8.296875 q 2.84375,4.875 7.15625,7.234375 Q 29.59375,56 35.59375,56 q 9.96875,0 16.1875,-7.90625 6.234375,-7.90625 6.234375,-20.796875 0,-12.890625 -6.234375,-20.8125 -6.21875,-7.90625 -16.1875,-7.90625 -6,0 -10.328125,2.375 -4.3125,2.375 -7.15625,7.25 z M 48.6875,27.296875 q 0,9.90625 -4.078125,15.546875 -4.078125,5.640625 -11.203125,5.640625 -7.140625,0 -11.21875,-5.640625 -4.078125,-5.640625 -4.078125,-15.546875 0,-9.90625 4.078125,-15.546875 4.078125,-5.640625 11.21875,-5.640625 7.125,0 11.203125,5.640625 4.078125,5.640625 4.078125,15.546875 z"
       id="DejaVuSans-112" />
    <path
       d="M 9.8125,72.90625 H 23.09375 L 55.421875,11.921875 V 72.90625 h 9.5625 V 0 h -13.28125 l -32.3125,60.984375 V 0 H 9.8125 Z"
       id="DejaVuSans-78" />
    <path
       d="M 8.5,21.578125 V 54.6875 h 8.984375 V 21.921875 q 0,-7.765625 3.015625,-11.65625 3.03125,-3.875 9.09375,-3.875 7.265625,0 11.484375,4.640625 4.234375,4.640625 4.234375,12.65625 v 31 h 8.984375 V 0 H 45.3125 V 8.40625 Q 42.046875,3.421875 37.71875,1 33.40625,-1.421875 27.6875,-1.421875 18.265625,-1.421875 13.375,4.4375 8.5,10.296875 8.5,21.578125 Z M 31.109375,56 Z"
       id="DejaVuSans-117" />
    <path
       d="m 48.6875,27.296875 q 0,9.90625 -4.078125,15.546875 -4.078125,5.640625 -11.203125,5.640625 -7.140625,0 -11.21875,-5.640625 -4.078125,-5.640625 -4.078125,-15.546875 0,-9.90625 4.078125,-15.546875 4.078125,-5.640625 11.21875,-5.640625 7.125,0 11.203125,5.640625 4.078125,5.640625 4.078125,15.546875 z m -30.578125,19.09375 q 2.84375,4.875 7.15625,7.234375 Q 29.59375,56 35.59375,56 q 9.96875,0 16.1875,-7.90625 6.234375,-7.90625 6.234375,-20.796875 0,-12.890625 -6.234375,-20.8125 -6.21875,-7.90625 -16.1875,-7.90625 -6,0 -10.328125,2.375 -4.3125,2.375 -7.15625,7.25 V 0 h -9.03125 v 75.984375 h 9.03125 z"
       id="DejaVuSans-98" />
    <path
       d="m 56.203125,29.59375 v -4.390625 h -41.3125 q 0.59375,-9.28125 5.59375,-14.140625 5,-4.859375 13.9375,-4.859375 5.171875,0 10.03125,1.265625 4.859375,1.265625 9.65625,3.8125 v -8.5 q -4.84375,-2.046875 -9.921875,-3.125 -5.078125,-1.078125 -10.296875,-1.078125 -13.09375,0 -20.734375,7.609375 -7.640625,7.625 -7.640625,20.625 0,13.421875 7.25,21.296875 Q 20.015625,56 32.328125,56 q 11.03125,0 17.453125,-7.109375 6.421875,-7.09375 6.421875,-19.296875 z m -8.984375,2.640625 q -0.09375,7.359375 -4.125,11.75 -4.03125,4.40625 -10.671875,4.40625 -7.515625,0 -12.03125,-4.25 -4.515625,-4.25 -5.203125,-11.96875 z"
       id="DejaVuSans-101" />
    <path
       d="m 41.109375,46.296875 q -1.515625,0.875 -3.296875,1.28125 Q 36.03125,48 33.890625,48 26.265625,48 22.1875,43.046875 18.109375,38.09375 18.109375,28.8125 V 0 h -9.03125 v 54.6875 h 9.03125 v -8.5 q 2.84375,4.984375 7.375,7.390625 Q 30.03125,56 36.53125,56 q 0.921875,0 2.046875,-0.125 1.125,-0.109375 2.484375,-0.359375 z"
       id="DejaVuSans-114" />
    <path
       id="DejaVuSans-32"
       d="" />
    <path
       d="m 30.609375,48.390625 q -7.21875,0 -11.421875,-5.640625 -4.203125,-5.640625 -4.203125,-15.453125 0,-9.8125 4.171875,-15.453125 4.1875,-5.640625 11.453125,-5.640625 7.1875,0 11.375,5.65625 4.203125,5.671875 4.203125,15.4375 0,9.71875 -4.203125,15.40625 -4.1875,5.6875 -11.375,5.6875 z m 0,7.609375 q 11.71875,0 18.40625,-7.625 6.703125,-7.609375 6.703125,-21.078125 0,-13.421875 -6.703125,-21.078125 -6.6875,-7.640625 -18.40625,-7.640625 -11.765625,0 -18.4375,7.640625 -6.65625,7.65625 -6.65625,21.078125 0,13.46875 6.65625,21.078125 Q 18.84375,56 30.609375,56 Z"
       id="DejaVuSans-111" />
    <path
       d="m 44.28125,53.078125 v -8.5 Q 40.484375,46.53125 36.375,47.5 q -4.09375,0.984375 -8.5,0.984375 -6.6875,0 -10.03125,-2.046875 Q 14.5,44.390625 14.5,40.28125 q 0,-3.125 2.390625,-4.90625 2.390625,-1.78125 9.625,-3.390625 l 3.078125,-0.6875 Q 39.15625,29.25 43.1875,25.515625 47.21875,21.78125 47.21875,15.09375 q 0,-7.625 -6.03125,-12.078125 -6.03125,-4.4375 -16.578125,-4.4375 -4.390625,0 -9.15625,0.859375 Q 10.6875,0.296875 5.421875,2 v 9.28125 q 4.984375,-2.59375 9.8125,-3.890625 4.828125,-1.28125 9.578125,-1.28125 6.34375,0 9.75,2.171875 3.421875,2.171875 3.421875,6.125 0,3.65625 -2.46875,5.609375 -2.453125,1.953125 -10.8125,3.765625 l -3.125,0.734375 q -8.34375,1.75 -12.0625,5.390625 -3.703125,3.640625 -3.703125,9.984375 0,7.71875 5.46875,11.90625 Q 16.75,56 26.8125,56 q 4.96875,0 9.359375,-0.734375 4.40625,-0.71875 8.109375,-2.1875 z"
       id="DejaVuSans-115" />
    <path
       d="M 18.3125,70.21875 V 54.6875 h 18.5 v -6.984375 h -18.5 v -29.6875 q 0,-6.6875 1.828125,-8.59375 1.828125,-1.90625 7.453125,-1.90625 H 36.8125 V 0 H 27.59375 Q 17.1875,0 13.234375,3.875 9.28125,7.765625 9.28125,18.015625 v 29.6875 H 2.6875 V 54.6875 h 6.59375 v 15.53125 z"
       id="DejaVuSans-116" />
    <path
       d="m 34.28125,27.484375 q -10.890625,0 -15.09375,-2.484375 -4.203125,-2.484375 -4.203125,-8.5 0,-4.78125 3.15625,-7.59375 3.15625,-2.796875 8.5625,-2.796875 7.484375,0 12,5.296875 4.515625,5.296875 4.515625,14.078125 v 2 z m 17.921875,3.71875 V 0 H 43.21875 v 8.296875 q -3.078125,-4.96875 -7.671875,-7.34375 -4.59375,-2.375 -11.234375,-2.375 -8.390625,0 -13.359375,4.71875 Q 6,8.015625 6,15.921875 q 0,9.21875 6.171875,13.90625 6.1875,4.6875 18.4375,4.6875 H 43.21875 v 0.890625 q 0,6.203125 -4.078125,9.59375 -4.078125,3.390625 -11.453125,3.390625 -4.6875,0 -9.140625,-1.125 -4.4375,-1.125 -8.53125,-3.375 v 8.3125 q 4.921875,1.90625 9.5625,2.84375 Q 24.21875,56 28.609375,56 q 11.875,0 17.734375,-6.15625 5.859375,-6.140625 5.859375,-18.640625 z"
       id="DejaVuSans-97" />
    <path
       d="M 48.78125,52.59375 V 44.1875 q -3.8125,2.109375 -7.640625,3.15625 -3.828125,1.046875 -7.734375,1.046875 -8.75,0 -13.59375,-5.546875 -4.828125,-5.53125 -4.828125,-15.546875 0,-10.015625 4.828125,-15.5625 4.84375,-5.53125 13.59375,-5.53125 3.90625,0 7.734375,1.046875 3.828125,1.046875 7.640625,3.15625 v -8.3125 q -3.765625,-1.75 -7.796875,-2.625 -4.015625,-0.890625 -8.5625,-0.890625 -12.359375,0 -19.640625,7.765625 -7.265625,7.765625 -7.265625,20.953125 0,13.375 7.34375,21.03125 Q 20.21875,56 33.015625,56 q 4.140625,0 8.09375,-0.859375 3.953125,-0.84375 7.671875,-2.546875 z"
       id="DejaVuSans-99" />
    <path
       d="M 9.421875,75.984375 H 18.40625 V 0 H 9.421875 Z"
       id="DejaVuSans-108" />
    <path
       d="M 32.171875,-5.078125 Q 28.375,-14.84375 24.75,-17.8125 q -3.609375,-2.984375 -9.65625,-2.984375 h -7.1875 v 7.515625 h 5.28125 q 3.703125,0 5.75,1.765625 2.0625,1.75 4.546875,8.296875 L 25.09375,0.875 2.984375,54.6875 H 12.5 L 29.59375,11.921875 46.6875,54.6875 h 9.515625 z"
       id="DejaVuSans-121" />
    <path
       d="m 45.40625,27.984375 q 0,9.765625 -4.03125,15.125 -4.015625,5.375 -11.296875,5.375 -7.21875,0 -11.25,-5.375 -4.03125,-5.359375 -4.03125,-15.125 0,-9.71875 4.03125,-15.09375 4.03125,-5.375 11.25,-5.375 7.28125,0 11.296875,5.375 4.03125,5.375 4.03125,15.09375 z M 54.390625,6.78125 q 0,-13.953125 -6.203125,-20.765625 -6.1875,-6.8125 -18.984375,-6.8125 -4.734375,0 -8.9375,0.703125 -4.203125,0.703125 -8.15625,2.171875 V -9.1875 q 3.953125,-2.140625 7.8125,-3.15625 3.859375,-1.03125 7.859375,-1.03125 8.84375,0 13.234375,4.609375 4.390625,4.609375 4.390625,13.9375 V 9.625 Q 42.625,4.78125 38.28125,2.390625 33.9375,0 27.875,0 17.828125,0 11.671875,7.65625 q -6.15625,7.671875 -6.15625,20.328125 0,12.6875 6.15625,20.34375 Q 17.828125,56 27.875,56 q 6.0625,0 10.40625,-2.390625 4.34375,-2.390625 7.125,-7.21875 V 54.6875 h 8.984375 z"
       id="DejaVuSans-103" />
    <path
       d="M 54.890625,33.015625 V 0 H 45.90625 v 32.71875 q 0,7.765625 -3.03125,11.609375 -3.03125,3.859375 -9.078125,3.859375 -7.28125,0 -11.484375,-4.640625 -4.203125,-4.625 -4.203125,-12.640625 V 0 h -9.03125 v 54.6875 h 9.03125 v -8.5 q 3.234375,4.9375 7.59375,7.375 4.375,2.4375 10.09375,2.4375 9.421875,0 14.25,-5.828125 4.84375,-5.828125 4.84375,-17.15625 z"
       id="DejaVuSans-110" />
    <path
       d="M 2.984375,54.6875 H 12.5 L 29.59375,8.796875 46.6875,54.6875 h 9.515625 L 35.6875,0 H 23.484375 Z"
       id="DejaVuSans-118" />
    <path
       d="m 45.40625,46.390625 v 29.59375 h 8.984375 V 0 H 45.40625 v 8.203125 q -2.828125,-4.875 -7.15625,-7.25 -4.3125,-2.375 -10.375,-2.375 -9.90625,0 -16.140625,7.90625 -6.21875,7.921875 -6.21875,20.8125 0,12.890625 6.21875,20.796875 Q 17.96875,56 27.875,56 q 6.0625,0 10.375,-2.375 4.328125,-2.359375 7.15625,-7.234375 z M 14.796875,27.296875 q 0,-9.90625 4.078125,-15.546875 4.078125,-5.640625 11.203125,-5.640625 7.125,0 11.21875,5.640625 4.109375,5.640625 4.109375,15.546875 0,9.90625 -4.109375,15.546875 -4.09375,5.640625 -11.21875,5.640625 -7.125,0 -11.203125,-5.640625 -4.078125,-5.640625 -4.078125,-15.546875 z"
       id="DejaVuSans-100" />
    <path
       d="M 34.1875,63.1875 20.796875,26.90625 h 26.8125 z m -5.578125,9.71875 h 11.1875 L 67.578125,0 h -10.25 L 50.6875,18.703125 H 17.828125 L 11.1875,0 H 0.78125 Z"
       id="DejaVuSans-65" />
    <path
       d="m 9.8125,72.90625 h 41.890625 v -8.3125 H 19.671875 V 43.109375 h 28.90625 V 34.8125 H 19.671875 V 0 H 9.8125 Z"
       id="DejaVuSans-70" />
    <path
       d="m 44.390625,34.1875 q 3.171875,-1.078125 6.171875,-4.59375 3,-3.515625 6.03125,-9.671875 L 66.609375,0 H 56 l -9.3125,18.703125 q -3.625,7.328125 -7.015625,9.71875 -3.390625,2.390625 -9.25,2.390625 h -10.75 V 0 H 9.8125 v 72.90625 h 22.265625 q 12.5,0 18.65625,-5.234375 6.15625,-5.21875 6.15625,-15.765625 0,-6.890625 -3.203125,-11.4375 -3.203125,-4.53125 -9.296875,-6.28125 z m -24.71875,30.609375 v -25.875 h 12.40625 q 7.125,0 10.765625,3.296875 3.640625,3.296875 3.640625,9.6875 0,6.390625 -3.640625,9.640625 -3.640625,3.25 -10.765625,3.25 z"
       id="DejaVuSans-82" />
    <path
       d="M 54.890625,33.015625 V 0 H 45.90625 v 32.71875 q 0,7.765625 -3.03125,11.609375 -3.03125,3.859375 -9.078125,3.859375 -7.28125,0 -11.484375,-4.640625 -4.203125,-4.625 -4.203125,-12.640625 V 0 h -9.03125 v 75.984375 h 9.03125 V 46.1875 q 3.234375,4.9375 7.59375,7.375 4.375,2.4375 10.09375,2.4375 9.421875,0 14.25,-5.828125 4.84375,-5.828125 4.84375,-17.15625 z"
       id="DejaVuSans-104" />
    <clipPath
       id="pa2d6352148">
      <rect
         height="217.44"
         width="301.01572"
         x="70.892143"
         y="34.560001"
         id="rect35405" />
    </clipPath>
    <style
       type="text/css"
       id="style35748">*{stroke-linecap:butt;stroke-linejoin:round;}</style>
    <path
       d="m 33.015625,40.375 q -6.640625,0 -10.53125,-4.546875 -3.875,-4.53125 -3.875,-12.4375 0,-7.859375 3.875,-12.4375 3.890625,-4.5625 10.53125,-4.5625 6.640625,0 10.515625,4.5625 3.875,4.578125 3.875,12.4375 0,7.90625 -3.875,12.4375 Q 39.65625,40.375 33.015625,40.375 Z M 52.59375,71.296875 V 62.3125 q -3.71875,1.75 -7.5,2.671875 -3.78125,0.9375 -7.5,0.9375 -9.765625,0 -14.921875,-6.59375 -5.140625,-6.59375 -5.875,-19.921875 2.875,4.25 7.21875,6.515625 4.359375,2.265625 9.578125,2.265625 10.984375,0 17.359375,-6.671875 6.375,-6.65625 6.375,-18.125 0,-11.234375 -6.640625,-18.03125 -6.640625,-6.78125 -17.671875,-6.78125 -12.65625,0 -19.34375,9.6875 -6.6875,9.703125 -6.6875,28.109375 0,17.28125 8.203125,27.5625 8.203125,10.28125 22.015625,10.28125 3.71875,0 7.5,-0.734375 3.78125,-0.734375 7.890625,-2.1875 z"
       id="DejaVuSans-54-6" />
    <path
       d="M 10.984375,1.515625 V 10.5 Q 14.703125,8.734375 18.5,7.8125 q 3.8125,-0.921875 7.484375,-0.921875 9.765625,0 14.90625,6.5625 5.15625,6.5625 5.890625,19.953125 -2.828125,-4.203125 -7.1875,-6.453125 -4.34375,-2.25 -9.609375,-2.25 -10.9375,0 -17.3125,6.609375 -6.375,6.625 -6.375,18.109375 0,11.21875 6.640625,18 6.640625,6.796875 17.671875,6.796875 12.65625,0 19.3125,-9.703125 6.671875,-9.6875 6.671875,-28.140625 0,-17.234375 -8.1875,-27.515625 -8.171875,-10.28125 -21.984375,-10.28125 -3.71875,0 -7.53125,0.734375 -3.796875,0.734375 -7.90625,2.203125 z m 19.625,30.90625 q 6.640625,0 10.515625,4.53125 3.890625,4.546875 3.890625,12.46875 0,7.859375 -3.890625,12.421875 -3.875,4.5625 -10.515625,4.5625 -6.640625,0 -10.515625,-4.5625 -3.875,-4.5625 -3.875,-12.421875 0,-7.921875 3.875,-12.46875 3.875,-4.53125 10.515625,-4.53125 z"
       id="DejaVuSans-57-6" />
    <path
       d="m 12.40625,8.296875 h 16.109375 v 55.625 L 10.984375,60.40625 v 8.984375 l 17.4375,3.515625 H 38.28125 V 8.296875 H 54.390625 V 0 H 12.40625 Z"
       id="DejaVuSans-49-4" />
    <path
       d="m 31.78125,34.625 q -7.03125,0 -11.0625,-3.765625 -4.015625,-3.765625 -4.015625,-10.34375 0,-6.59375 4.015625,-10.359375 4.03125,-3.765625 11.0625,-3.765625 7.03125,0 11.078125,3.78125 4.0625,3.796875 4.0625,10.34375 0,6.578125 -4.03125,10.34375 Q 38.875,34.625 31.78125,34.625 Z m -9.859375,4.1875 Q 15.578125,40.375 12.03125,44.71875 8.5,49.078125 8.5,55.328125 q 0,8.734375 6.21875,13.8125 6.234375,5.078125 17.0625,5.078125 10.890625,0 17.09375,-5.078125 6.203125,-5.078125 6.203125,-13.8125 0,-6.25 -3.546875,-10.609375 Q 48,40.375 41.703125,38.8125 q 7.125,-1.65625 11.09375,-6.5 3.984375,-4.828125 3.984375,-11.796875 0,-10.609375 -6.46875,-16.28125 -6.46875,-5.65625 -18.53125,-5.65625 -12.046875,0 -18.53125,5.65625 -6.46875,5.671875 -6.46875,16.28125 0,6.96875 4,11.796875 4.015625,4.84375 11.140625,6.5 z M 18.3125,54.390625 q 0,-5.65625 3.53125,-8.828125 3.546875,-3.171875 9.9375,-3.171875 6.359375,0 9.9375,3.171875 3.59375,3.171875 3.59375,8.828125 0,5.671875 -3.59375,8.84375 -3.578125,3.171875 -9.9375,3.171875 -6.390625,0 -9.9375,-3.171875 Q 18.3125,60.0625 18.3125,54.390625 Z"
       id="DejaVuSans-56-0" />
    <path
       d="M 19.1875,8.296875 H 53.609375 V 0 H 7.328125 v 8.296875 q 5.609375,5.8125 15.296875,15.59375 9.703125,9.796875 12.1875,12.640625 4.734375,5.3125 6.609375,9 1.890625,3.6875 1.890625,7.25 0,5.8125 -4.078125,9.46875 -4.078125,3.671875 -10.625,3.671875 -4.640625,0 -9.796875,-1.609375 -5.140625,-1.609375 -11,-4.890625 v 9.96875 Q 13.765625,71.78125 18.9375,73 q 5.1875,1.21875 9.484375,1.21875 11.328125,0 18.0625,-5.671875 6.734375,-5.65625 6.734375,-15.125 0,-4.5 -1.6875,-8.53125 Q 49.859375,40.875 45.40625,35.40625 44.1875,33.984375 37.640625,27.21875 31.109375,20.453125 19.1875,8.296875 Z"
       id="DejaVuSans-50-0" />
    <path
       d="m 10.796875,72.90625 h 38.71875 v -8.3125 h -29.6875 V 46.734375 q 2.140625,0.734375 4.28125,1.09375 2.15625,0.359375 4.3125,0.359375 Q 40.625,48.1875 47.75,41.5 54.890625,34.8125 54.890625,23.390625 54.890625,11.625 47.5625,5.09375 40.234375,-1.421875 26.90625,-1.421875 q -4.59375,0 -9.359375,0.78125 -4.75,0.78125 -9.828125,2.34375 V 11.625 q 4.390625,-2.390625 9.078125,-3.5625 4.6875,-1.171875 9.90625,-1.171875 8.453125,0 13.375,4.4375 4.9375,4.4375 4.9375,12.0625 0,7.609375 -4.9375,12.046875 -4.921875,4.453125 -13.375,4.453125 -3.953125,0 -7.890625,-0.875 -3.921875,-0.875 -8.015625,-2.734375 z"
       id="DejaVuSans-53-4" />
    <path
       d="M 40.578125,39.3125 Q 47.65625,37.796875 51.625,33 q 3.984375,-4.78125 3.984375,-11.8125 0,-10.78125 -7.421875,-16.703125 -7.421875,-5.90625 -21.09375,-5.90625 -4.578125,0 -9.4375,0.90625 -4.859375,0.90625 -10.03125,2.71875 v 9.515625 q 4.09375,-2.390625 8.96875,-3.609375 4.890625,-1.21875 10.21875,-1.21875 9.265625,0 14.125,3.65625 4.859375,3.65625 4.859375,10.640625 0,6.453125 -4.515625,10.078125 -4.515625,3.640625 -12.5625,3.640625 h -8.5 v 8.109375 h 8.890625 q 7.265625,0 11.125,2.90625 3.859375,2.90625 3.859375,8.375 0,5.609375 -3.984375,8.609375 -3.96875,3.015625 -11.390625,3.015625 -4.0625,0 -8.703125,-0.890625 Q 15.375,64.15625 9.8125,62.3125 v 8.78125 q 5.625,1.5625 10.53125,2.34375 4.90625,0.78125 9.25,0.78125 11.234375,0 17.765625,-5.109375 6.546875,-5.09375 6.546875,-13.78125 0,-6.0625 -3.46875,-10.234375 -3.46875,-4.171875 -9.859375,-5.78125 z"
       id="DejaVuSans-51-6" />
    <path
       d="M 9.8125,72.90625 H 24.515625 L 43.109375,23.296875 61.8125,72.90625 H 76.515625 V 0 h -9.625 v 64.015625 l -18.796875,-50 H 38.1875 l -18.796875,50 V 0 H 9.8125 Z"
       id="DejaVuSans-77-6" />
    <path
       d="m 9.8125,72.90625 h 9.859375 v -30.8125 l 32.71875,30.8125 H 65.09375 L 28.90625,38.921875 67.671875,0 H 54.6875 L 19.671875,35.109375 V 0 H 9.8125 Z"
       id="DejaVuSans-75-7" />
    <path
       d="M -0.296875,72.90625 H 61.375 v -8.3125 H 35.5 V 0 H 25.59375 V 64.59375 H -0.296875 Z"
       id="DejaVuSans-84-5" />
    <path
       d="M 37.109375,75.984375 V 68.5 h -8.59375 q -4.828125,0 -6.71875,-1.953125 -1.875,-1.953125 -1.875,-7.03125 V 54.6875 H 34.71875 V 47.703125 H 19.921875 V 0 h -9.03125 V 47.703125 H 2.296875 V 54.6875 h 8.59375 V 58.5 q 0,9.125 4.25,13.296875 4.25,4.1875 13.46875,4.1875 z"
       id="DejaVuSans-102-6" />
    <path
       d="M 4.203125,54.6875 H 13.1875 L 24.421875,12.015625 35.59375,54.6875 H 46.1875 L 57.421875,12.015625 68.609375,54.6875 H 77.59375 L 63.28125,0 H 52.6875 L 40.921875,44.828125 29.109375,0 H 18.5 Z"
       id="DejaVuSans-119-9" />
    <path
       d="M 9.421875,54.6875 H 18.40625 V 0 H 9.421875 Z m 0,21.296875 H 18.40625 V 64.59375 H 9.421875 Z"
       id="DejaVuSans-105-8" />
    <path
       d="M 52,44.1875 Q 55.375,50.25 60.0625,53.125 64.75,56 71.09375,56 q 8.546875,0 13.1875,-5.984375 4.640625,-5.96875 4.640625,-17 V 0 h -9.03125 v 32.71875 q 0,7.859375 -2.796875,11.65625 -2.78125,3.8125 -8.484375,3.8125 -6.984375,0 -11.046875,-4.640625 -4.046875,-4.625 -4.046875,-12.640625 V 0 h -9.03125 v 32.71875 q 0,7.90625 -2.78125,11.6875 -2.78125,3.78125 -8.59375,3.78125 -6.890625,0 -10.953125,-4.65625 -4.046875,-4.65625 -4.046875,-12.625 V 0 h -9.03125 v 54.6875 h 9.03125 v -8.5 q 3.078125,5.03125 7.375,7.421875 Q 29.78125,56 35.6875,56 41.65625,56 45.828125,52.96875 50,49.953125 52,44.1875 Z"
       id="DejaVuSans-109-7" />
    <path
       d="m 18.109375,8.203125 v -29 H 9.078125 V 54.6875 h 9.03125 v -8.296875 q 2.84375,4.875 7.15625,7.234375 Q 29.59375,56 35.59375,56 q 9.96875,0 16.1875,-7.90625 6.234375,-7.90625 6.234375,-20.796875 0,-12.890625 -6.234375,-20.8125 -6.21875,-7.90625 -16.1875,-7.90625 -6,0 -10.328125,2.375 -4.3125,2.375 -7.15625,7.25 z M 48.6875,27.296875 q 0,9.90625 -4.078125,15.546875 -4.078125,5.640625 -11.203125,5.640625 -7.140625,0 -11.21875,-5.640625 -4.078125,-5.640625 -4.078125,-15.546875 0,-9.90625 4.078125,-15.546875 4.078125,-5.640625 11.21875,-5.640625 7.125,0 11.203125,5.640625 4.078125,5.640625 4.078125,15.546875 z"
       id="DejaVuSans-112-2" />
    <path
       d="M 9.8125,72.90625 H 23.09375 L 55.421875,11.921875 V 72.90625 h 9.5625 V 0 h -13.28125 l -32.3125,60.984375 V 0 H 9.8125 Z"
       id="DejaVuSans-78-8" />
    <path
       d="M 8.5,21.578125 V 54.6875 h 8.984375 V 21.921875 q 0,-7.765625 3.015625,-11.65625 3.03125,-3.875 9.09375,-3.875 7.265625,0 11.484375,4.640625 4.234375,4.640625 4.234375,12.65625 v 31 h 8.984375 V 0 H 45.3125 V 8.40625 Q 42.046875,3.421875 37.71875,1 33.40625,-1.421875 27.6875,-1.421875 18.265625,-1.421875 13.375,4.4375 8.5,10.296875 8.5,21.578125 Z M 31.109375,56 Z"
       id="DejaVuSans-117-2" />
    <path
       d="m 48.6875,27.296875 q 0,9.90625 -4.078125,15.546875 -4.078125,5.640625 -11.203125,5.640625 -7.140625,0 -11.21875,-5.640625 -4.078125,-5.640625 -4.078125,-15.546875 0,-9.90625 4.078125,-15.546875 4.078125,-5.640625 11.21875,-5.640625 7.125,0 11.203125,5.640625 4.078125,5.640625 4.078125,15.546875 z m -30.578125,19.09375 q 2.84375,4.875 7.15625,7.234375 Q 29.59375,56 35.59375,56 q 9.96875,0 16.1875,-7.90625 6.234375,-7.90625 6.234375,-20.796875 0,-12.890625 -6.234375,-20.8125 -6.21875,-7.90625 -16.1875,-7.90625 -6,0 -10.328125,2.375 -4.3125,2.375 -7.15625,7.25 V 0 h -9.03125 v 75.984375 h 9.03125 z"
       id="DejaVuSans-98-9" />
    <path
       d="m 56.203125,29.59375 v -4.390625 h -41.3125 q 0.59375,-9.28125 5.59375,-14.140625 5,-4.859375 13.9375,-4.859375 5.171875,0 10.03125,1.265625 4.859375,1.265625 9.65625,3.8125 v -8.5 q -4.84375,-2.046875 -9.921875,-3.125 -5.078125,-1.078125 -10.296875,-1.078125 -13.09375,0 -20.734375,7.609375 -7.640625,7.625 -7.640625,20.625 0,13.421875 7.25,21.296875 Q 20.015625,56 32.328125,56 q 11.03125,0 17.453125,-7.109375 6.421875,-7.09375 6.421875,-19.296875 z m -8.984375,2.640625 q -0.09375,7.359375 -4.125,11.75 -4.03125,4.40625 -10.671875,4.40625 -7.515625,0 -12.03125,-4.25 -4.515625,-4.25 -5.203125,-11.96875 z"
       id="DejaVuSans-101-9" />
    <path
       d="m 41.109375,46.296875 q -1.515625,0.875 -3.296875,1.28125 Q 36.03125,48 33.890625,48 26.265625,48 22.1875,43.046875 18.109375,38.09375 18.109375,28.8125 V 0 h -9.03125 v 54.6875 h 9.03125 v -8.5 q 2.84375,4.984375 7.375,7.390625 Q 30.03125,56 36.53125,56 q 0.921875,0 2.046875,-0.125 1.125,-0.109375 2.484375,-0.359375 z"
       id="DejaVuSans-114-6" />
    <path
       id="DejaVuSans-32-0"
       d="" />
    <path
       d="m 30.609375,48.390625 q -7.21875,0 -11.421875,-5.640625 -4.203125,-5.640625 -4.203125,-15.453125 0,-9.8125 4.171875,-15.453125 4.1875,-5.640625 11.453125,-5.640625 7.1875,0 11.375,5.65625 4.203125,5.671875 4.203125,15.4375 0,9.71875 -4.203125,15.40625 -4.1875,5.6875 -11.375,5.6875 z m 0,7.609375 q 11.71875,0 18.40625,-7.625 6.703125,-7.609375 6.703125,-21.078125 0,-13.421875 -6.703125,-21.078125 -6.6875,-7.640625 -18.40625,-7.640625 -11.765625,0 -18.4375,7.640625 -6.65625,7.65625 -6.65625,21.078125 0,13.46875 6.65625,21.078125 Q 18.84375,56 30.609375,56 Z"
       id="DejaVuSans-111-2" />
    <path
       d="m 44.28125,53.078125 v -8.5 Q 40.484375,46.53125 36.375,47.5 q -4.09375,0.984375 -8.5,0.984375 -6.6875,0 -10.03125,-2.046875 Q 14.5,44.390625 14.5,40.28125 q 0,-3.125 2.390625,-4.90625 2.390625,-1.78125 9.625,-3.390625 l 3.078125,-0.6875 Q 39.15625,29.25 43.1875,25.515625 47.21875,21.78125 47.21875,15.09375 q 0,-7.625 -6.03125,-12.078125 -6.03125,-4.4375 -16.578125,-4.4375 -4.390625,0 -9.15625,0.859375 Q 10.6875,0.296875 5.421875,2 v 9.28125 q 4.984375,-2.59375 9.8125,-3.890625 4.828125,-1.28125 9.578125,-1.28125 6.34375,0 9.75,2.171875 3.421875,2.171875 3.421875,6.125 0,3.65625 -2.46875,5.609375 -2.453125,1.953125 -10.8125,3.765625 l -3.125,0.734375 q -8.34375,1.75 -12.0625,5.390625 -3.703125,3.640625 -3.703125,9.984375 0,7.71875 5.46875,11.90625 Q 16.75,56 26.8125,56 q 4.96875,0 9.359375,-0.734375 4.40625,-0.71875 8.109375,-2.1875 z"
       id="DejaVuSans-115-7" />
    <path
       d="M 18.3125,70.21875 V 54.6875 h 18.5 v -6.984375 h -18.5 v -29.6875 q 0,-6.6875 1.828125,-8.59375 1.828125,-1.90625 7.453125,-1.90625 H 36.8125 V 0 H 27.59375 Q 17.1875,0 13.234375,3.875 9.28125,7.765625 9.28125,18.015625 v 29.6875 H 2.6875 V 54.6875 h 6.59375 v 15.53125 z"
       id="DejaVuSans-116-6" />
    <path
       d="m 34.28125,27.484375 q -10.890625,0 -15.09375,-2.484375 -4.203125,-2.484375 -4.203125,-8.5 0,-4.78125 3.15625,-7.59375 3.15625,-2.796875 8.5625,-2.796875 7.484375,0 12,5.296875 4.515625,5.296875 4.515625,14.078125 v 2 z m 17.921875,3.71875 V 0 H 43.21875 v 8.296875 q -3.078125,-4.96875 -7.671875,-7.34375 -4.59375,-2.375 -11.234375,-2.375 -8.390625,0 -13.359375,4.71875 Q 6,8.015625 6,15.921875 q 0,9.21875 6.171875,13.90625 6.1875,4.6875 18.4375,4.6875 H 43.21875 v 0.890625 q 0,6.203125 -4.078125,9.59375 -4.078125,3.390625 -11.453125,3.390625 -4.6875,0 -9.140625,-1.125 -4.4375,-1.125 -8.53125,-3.375 v 8.3125 q 4.921875,1.90625 9.5625,2.84375 Q 24.21875,56 28.609375,56 q 11.875,0 17.734375,-6.15625 5.859375,-6.140625 5.859375,-18.640625 z"
       id="DejaVuSans-97-1" />
    <path
       d="M 48.78125,52.59375 V 44.1875 q -3.8125,2.109375 -7.640625,3.15625 -3.828125,1.046875 -7.734375,1.046875 -8.75,0 -13.59375,-5.546875 -4.828125,-5.53125 -4.828125,-15.546875 0,-10.015625 4.828125,-15.5625 4.84375,-5.53125 13.59375,-5.53125 3.90625,0 7.734375,1.046875 3.828125,1.046875 7.640625,3.15625 v -8.3125 q -3.765625,-1.75 -7.796875,-2.625 -4.015625,-0.890625 -8.5625,-0.890625 -12.359375,0 -19.640625,7.765625 -7.265625,7.765625 -7.265625,20.953125 0,13.375 7.34375,21.03125 Q 20.21875,56 33.015625,56 q 4.140625,0 8.09375,-0.859375 3.953125,-0.84375 7.671875,-2.546875 z"
       id="DejaVuSans-99-3" />
    <path
       d="M 9.421875,75.984375 H 18.40625 V 0 H 9.421875 Z"
       id="DejaVuSans-108-2" />
    <path
       d="M 32.171875,-5.078125 Q 28.375,-14.84375 24.75,-17.8125 q -3.609375,-2.984375 -9.65625,-2.984375 h -7.1875 v 7.515625 h 5.28125 q 3.703125,0 5.75,1.765625 2.0625,1.75 4.546875,8.296875 L 25.09375,0.875 2.984375,54.6875 H 12.5 L 29.59375,11.921875 46.6875,54.6875 h 9.515625 z"
       id="DejaVuSans-121-1" />
    <path
       d="m 45.40625,27.984375 q 0,9.765625 -4.03125,15.125 -4.015625,5.375 -11.296875,5.375 -7.21875,0 -11.25,-5.375 -4.03125,-5.359375 -4.03125,-15.125 0,-9.71875 4.03125,-15.09375 4.03125,-5.375 11.25,-5.375 7.28125,0 11.296875,5.375 4.03125,5.375 4.03125,15.09375 z M 54.390625,6.78125 q 0,-13.953125 -6.203125,-20.765625 -6.1875,-6.8125 -18.984375,-6.8125 -4.734375,0 -8.9375,0.703125 -4.203125,0.703125 -8.15625,2.171875 V -9.1875 q 3.953125,-2.140625 7.8125,-3.15625 3.859375,-1.03125 7.859375,-1.03125 8.84375,0 13.234375,4.609375 4.390625,4.609375 4.390625,13.9375 V 9.625 Q 42.625,4.78125 38.28125,2.390625 33.9375,0 27.875,0 17.828125,0 11.671875,7.65625 q -6.15625,7.671875 -6.15625,20.328125 0,12.6875 6.15625,20.34375 Q 17.828125,56 27.875,56 q 6.0625,0 10.40625,-2.390625 4.34375,-2.390625 7.125,-7.21875 V 54.6875 h 8.984375 z"
       id="DejaVuSans-103-5" />
    <path
       d="M 54.890625,33.015625 V 0 H 45.90625 v 32.71875 q 0,7.765625 -3.03125,11.609375 -3.03125,3.859375 -9.078125,3.859375 -7.28125,0 -11.484375,-4.640625 -4.203125,-4.625 -4.203125,-12.640625 V 0 h -9.03125 v 54.6875 h 9.03125 v -8.5 q 3.234375,4.9375 7.59375,7.375 4.375,2.4375 10.09375,2.4375 9.421875,0 14.25,-5.828125 4.84375,-5.828125 4.84375,-17.15625 z"
       id="DejaVuSans-110-9" />
    <path
       d="M 2.984375,54.6875 H 12.5 L 29.59375,8.796875 46.6875,54.6875 h 9.515625 L 35.6875,0 H 23.484375 Z"
       id="DejaVuSans-118-9" />
    <path
       d="m 45.40625,46.390625 v 29.59375 h 8.984375 V 0 H 45.40625 v 8.203125 q -2.828125,-4.875 -7.15625,-7.25 -4.3125,-2.375 -10.375,-2.375 -9.90625,0 -16.140625,7.90625 -6.21875,7.921875 -6.21875,20.8125 0,12.890625 6.21875,20.796875 Q 17.96875,56 27.875,56 q 6.0625,0 10.375,-2.375 4.328125,-2.359375 7.15625,-7.234375 z M 14.796875,27.296875 q 0,-9.90625 4.078125,-15.546875 4.078125,-5.640625 11.203125,-5.640625 7.125,0 11.21875,5.640625 4.109375,5.640625 4.109375,15.546875 0,9.90625 -4.109375,15.546875 -4.09375,5.640625 -11.21875,5.640625 -7.125,0 -11.203125,-5.640625 -4.078125,-5.640625 -4.078125,-15.546875 z"
       id="DejaVuSans-100-1" />
    <path
       d="M 34.1875,63.1875 20.796875,26.90625 h 26.8125 z m -5.578125,9.71875 h 11.1875 L 67.578125,0 h -10.25 L 50.6875,18.703125 H 17.828125 L 11.1875,0 H 0.78125 Z"
       id="DejaVuSans-65-4" />
    <path
       d="m 9.8125,72.90625 h 41.890625 v -8.3125 H 19.671875 V 43.109375 h 28.90625 V 34.8125 H 19.671875 V 0 H 9.8125 Z"
       id="DejaVuSans-70-9" />
    <path
       d="m 44.390625,34.1875 q 3.171875,-1.078125 6.171875,-4.59375 3,-3.515625 6.03125,-9.671875 L 66.609375,0 H 56 l -9.3125,18.703125 q -3.625,7.328125 -7.015625,9.71875 -3.390625,2.390625 -9.25,2.390625 h -10.75 V 0 H 9.8125 v 72.90625 h 22.265625 q 12.5,0 18.65625,-5.234375 6.15625,-5.21875 6.15625,-15.765625 0,-6.890625 -3.203125,-11.4375 -3.203125,-4.53125 -9.296875,-6.28125 z m -24.71875,30.609375 v -25.875 h 12.40625 q 7.125,0 10.765625,3.296875 3.640625,3.296875 3.640625,9.6875 0,6.390625 -3.640625,9.640625 -3.640625,3.25 -10.765625,3.25 z"
       id="DejaVuSans-82-1" />
    <path
       d="M 54.890625,33.015625 V 0 H 45.90625 v 32.71875 q 0,7.765625 -3.03125,11.609375 -3.03125,3.859375 -9.078125,3.859375 -7.28125,0 -11.484375,-4.640625 -4.203125,-4.625 -4.203125,-12.640625 V 0 h -9.03125 v 75.984375 h 9.03125 V 46.1875 q 3.234375,4.9375 7.59375,7.375 4.375,2.4375 10.09375,2.4375 9.421875,0 14.25,-5.828125 4.84375,-5.828125 4.84375,-17.15625 z"
       id="DejaVuSans-104-0" />
    <clipPath
       id="pa2d6352148-7">
      <rect
         height="217.44"
         width="301.01572"
         x="70.892143"
         y="34.560001"
         id="rect36053" />
    </clipPath>
  </defs>
  <g
     id="patch_1"
     transform="translate(10.468369,3.9603806)">
    <path
       d="M 0,288 H 432 V 0 H 0 Z"
       style="fill:none"
       id="path8" />
  </g>
  <g
     id="patch_2"
     transform="translate(10.468369,3.9603806)">
    <path
       clip-path="url(#p739cc97b19)"
       d="m 229.87725,66.50485 c -7.83996,-6.265676 -16.95155,-10.748928 -26.69938,-13.137115 -9.74782,-2.388187 -19.89991,-2.624474 -29.74829,-0.692383 -9.84838,1.93209 -19.15869,5.986577 -27.28166,11.880721 -8.12297,5.894144 -14.8653,13.487673 -19.7568,22.251052 -4.8915,8.763379 -7.81577,18.488055 -8.56888,28.495875 -0.75311,10.00782 0.68285,20.06061 4.20777,29.45734 3.52491,9.39673 9.05487,17.91378 16.20426,24.95721 7.14939,7.04342 15.74806,12.4456 25.19638,15.82981 -5.45588,-12.00263 -8.03345,-25.1154 -7.52664,-38.29011 0.5068,-13.17471 4.08409,-26.05071 10.44591,-37.59874 6.36183,-11.548038 15.33404,-21.451975 26.19942,-28.920133 10.86538,-7.468158 23.32649,-12.296096 36.38725,-14.097888 0.15658,-0.02397 0.31326,-0.04726 0.47004,-0.06987 0.15677,-0.02261 0.31365,-0.04453 0.47062,-0.06577"
       style="fill:#30504f"
       id="path11" />
  </g>
  <g
     id="patch_3"
     transform="translate(10.468369,3.9603806)">
    <path
       clip-path="url(#p739cc97b19)"
       d="m 163.43065,185.54736 c 6.41775,14.1187 16.59315,26.20625 29.41069,34.93755 12.81755,8.7313 27.79109,13.77519 43.27913,14.57871 15.48804,0.80352 30.90314,-2.6638 44.5554,-10.02185 13.65226,-7.35805 25.02387,-18.32775 32.86819,-31.70653 7.84432,-13.37877 11.86384,-28.65919 11.6179,-44.16611 -0.24594,-15.50692 -4.748,-30.65219 -13.01264,-43.77548 -8.26464,-13.123291 -19.97839,-23.72686 -33.85712,-30.648272 -13.87873,-6.921413 -29.39603,-9.898151 -44.8508,-8.603885 7.60163,-0.523117 15.22914,0.554418 22.38839,3.162802 7.15925,2.608383 13.69224,6.690047 19.17575,11.980574 5.48351,5.290528 9.79651,11.673154 12.65961,18.734401 2.86309,7.06125 4.21309,14.64527 3.96254,22.26077 -0.25055,7.61549 -2.09613,15.09438 -5.41717,21.95217 -3.32104,6.85778 -8.04425,12.94311 -13.86364,17.86177 -5.8194,4.91865 -12.60654,8.56208 -19.92176,10.69425 -7.31522,2.13216 -14.99706,2.70601 -22.54787,1.68437 -9.21021,7.36078 -20.15273,12.24351 -31.78251,14.18186 -11.62978,1.93836 -23.56441,0.8686 -34.66409,-3.1071"
       style="fill:#ab2710"
       id="path14" />
  </g>
  <g
     id="patch_4"
     transform="translate(10.468369,3.9603806)">
    <path
       clip-path="url(#p739cc97b19)"
       d="m 163.43065,185.54736 c 11.09968,3.9757 23.03431,5.04546 34.66409,3.1071 11.62978,-1.93835 22.5723,-6.82108 31.78251,-14.18186 -12.97917,-1.75611 -24.89951,-8.13546 -33.56052,-17.96042 -8.66101,-9.82496 -13.49479,-22.45132 -13.60904,-35.54826 -0.11425,-13.09694 4.49853,-25.805712 12.98682,-35.780271 8.48829,-9.974559 20.29552,-16.560892 33.24208,-18.54316 -13.06076,1.801792 -25.52187,6.62973 -36.38725,14.097888 -10.86538,7.468158 -19.83759,17.372095 -26.19942,28.920133 -6.36182,11.54803 -9.93911,24.42403 -10.44591,37.59874 -0.50681,13.17471 2.07076,26.28748 7.52664,38.29011"
       style="fill:#995342"
       id="path17" />
  </g>
  <g
     id="patch_5"
     style="fill:#e2bd9a;fill-opacity:1"
     transform="translate(10.468369,3.9603806)">
    <path
       clip-path="url(#p739cc97b19)"
       d="m 229.88939,66.514553 c 8.09763,6.474594 14.63535,14.689257 19.12729,24.033478 4.49194,9.34422 6.82399,19.580629 6.82282,29.948469 -10e-4,10.36783 -2.33551,20.60372 -6.82955,29.94693 -4.49404,9.34321 -11.03361,17.5564 -19.1327,24.02917 7.55081,1.02164 15.23265,0.44779 22.54787,-1.68437 7.31522,-2.13217 14.10236,-5.7756 19.92176,-10.69425 5.81939,-4.91866 10.5426,-11.00399 13.86364,-17.86177 3.32104,-6.85779 5.16662,-14.33668 5.41717,-21.95217 0.25055,-7.6155 -1.09945,-15.19952 -3.96254,-22.26077 -2.8631,-7.061247 -7.1761,-13.443873 -12.65961,-18.734401 -5.48351,-5.290527 -12.0165,-9.372191 -19.17575,-11.980574 -7.15925,-2.608384 -14.78676,-3.685919 -22.38839,-3.162802 -0.59323,0.04968 -1.18592,0.105616 -1.77797,0.167798 -0.59206,0.06218 -1.18343,0.130606 -1.77404,0.205262"
       style="fill:#e2bd9a;fill-opacity:1"
       id="path20" />
  </g>
  <g
     id="patch_6"
     transform="translate(10.468369,3.9603806)">
    <path
       clip-path="url(#p739cc97b19)"
       d="m 228.93659,66.640489 c -12.94656,1.982268 -24.75379,8.568601 -33.24208,18.54316 -8.48829,9.974559 -13.10107,22.683331 -12.98682,35.780271 0.11425,13.09694 4.94803,25.7233 13.60904,35.54826 8.66101,9.82496 20.58135,16.20431 33.56052,17.96042 8.09909,-6.47277 14.63866,-14.68596 19.1327,-24.02917 4.49404,-9.34321 6.82838,-19.5791 6.82955,-29.94693 0.001,-10.36784 -2.33088,-20.604249 -6.82282,-29.948469 -4.49194,-9.344221 -11.02966,-17.558884 -19.12729,-24.033478 -0.15892,0.02009 -0.31778,0.04063 -0.47658,0.06162 -0.1588,0.02099 -0.31754,0.04243 -0.47622,0.06432"
       style="fill:#b27b64"
       id="path23" />
  </g>
  <g
     id="text_6"
     transform="translate(-36.543731,70.278662)">
    <!-- MKT -->
    <g
       transform="matrix(0.12,0,0,-0.12,127.55792,51.382672)"
       id="g100">
      <defs
         id="defs92">
        <path
           d="M 9.8125,72.90625 H 24.515625 L 43.109375,23.296875 61.8125,72.90625 H 76.515625 V 0 h -9.625 v 64.015625 l -18.796875,-50 H 38.1875 l -18.796875,50 V 0 H 9.8125 Z"
           id="DejaVuSans-77" />
        <path
           d="m 9.8125,72.90625 h 9.859375 v -30.8125 l 32.71875,30.8125 H 65.09375 L 28.90625,38.921875 67.671875,0 H 54.6875 L 19.671875,35.109375 V 0 H 9.8125 Z"
           id="DejaVuSans-75" />
        <path
           d="M -0.296875,72.90625 H 61.375 v -8.3125 H 35.5 V 0 H 25.59375 V 64.59375 H -0.296875 Z"
           id="DejaVuSans-84" />
      </defs>
      <use
         xlink:href="#DejaVuSans-77"
         id="use94"
         x="0"
         y="0"
         width="100%"
         height="100%" />
      <use
         x="86.279297"
         xlink:href="#DejaVuSans-75"
         id="use96"
         y="0"
         width="100%"
         height="100%" />
      <use
         x="144.10547"
         xlink:href="#DejaVuSans-84"
         id="use98"
         y="0"
         width="100%"
         height="100%" />
    </g>
  </g>
  <defs
     id="defs351">
    <clipPath
       id="p739cc97b19">
      <rect
         height="217.44"
         width="241.19055"
         x="100.80472"
         y="34.560001"
         id="rect348" />
    </clipPath>
  </defs>
  <text
     xml:space="preserve"
     style="font-size:16px;line-height:1.25;font-family:sans-serif;letter-spacing:0px;stroke-width:0.75"
     x="234.00781"
     y="12.15625"
     id="text1849"><tspan
       sodipodi:role="line"
       id="tspan1847"
       style="font-size:16px;text-align:center;text-anchor:middle;stroke-width:0.75"
       x="234.00781"
       y="12.15625">A. Number of statiscally significant positve selected genes</tspan><tspan
       sodipodi:role="line"
       style="font-size:16px;text-align:center;text-anchor:middle;stroke-width:0.75"
       x="234.00781"
       y="32.15625"
       id="tspan12839"> in<tspan
   style="font-style:italic"
   id="tspan20713"> D. melanogaster</tspan> ZI population</tspan></text>
  <text
     xml:space="preserve"
     style="font-size:16px;line-height:1.25;font-family:sans-serif;letter-spacing:0px;stroke-width:0.75;stroke-linecap:butt;stroke-linejoin:round"
     x="746.74756"
     y="15.30097"
     id="text1849-5"><tspan
       sodipodi:role="line"
       style="font-size:16px;text-align:center;text-anchor:middle;stroke-width:0.75"
       x="746.74756"
       y="15.30097"
       id="tspan12839-7">B. Number of statiscally significant positve selected genes </tspan><tspan
       sodipodi:role="line"
       style="font-size:16px;text-align:center;text-anchor:middle;stroke-width:0.75"
       x="746.74756"
       y="35.300968"
       id="tspan41976">human lineage African populations</tspan></text>
  <text
     xml:space="preserve"
     style="font-size:11.7396px;line-height:1.25;font-family:sans-serif;letter-spacing:0px;stroke-width:0.293491"
     x="232.31157"
     y="224.70364"
     id="text26682"><tspan
       sodipodi:role="line"
       id="tspan26680"
       style="stroke-width:0.293491"
       x="232.31157"
       y="224.70364">2244</tspan></text>
  <text
     xml:space="preserve"
     style="font-size:11.7396px;line-height:1.25;font-family:sans-serif;letter-spacing:0px;stroke-width:0.293491;stroke-linecap:butt;stroke-linejoin:round"
     x="264.80951"
     y="100.96702"
     id="text26682-0"><tspan
       sodipodi:role="line"
       id="tspan26680-2"
       style="stroke-width:0.293491"
       x="264.80951"
       y="100.96702">929</tspan></text>
  <text
     xml:space="preserve"
     style="font-size:11.7396px;line-height:1.25;font-family:sans-serif;letter-spacing:0px;stroke-width:0.293491;stroke-linecap:butt;stroke-linejoin:round"
     x="139.66193"
     y="120.64075"
     id="text26682-1"><tspan
       sodipodi:role="line"
       id="tspan26680-0"
       style="stroke-width:0.293491"
       x="139.66193"
       y="120.64075">1495</tspan><tspan
       sodipodi:role="line"
       style="stroke-width:0.293491"
       x="139.66193"
       y="135.31525"
       id="tspan28385" /></text>
  <text
     xml:space="preserve"
     style="font-size:12.1895px;line-height:1.25;font-family:sans-serif;letter-spacing:0px;stroke-width:0.304736"
     x="272.9783"
     y="70.193382"
     id="text29825"><tspan
       sodipodi:role="line"
       id="tspan29823"
       style="stroke-width:0.304736"
       x="272.9783"
       y="70.193382">fwwMKT 0.25</tspan></text>
  <text
     xml:space="preserve"
     style="font-size:12.1895px;line-height:1.25;font-family:sans-serif;letter-spacing:0px;stroke-width:0.304736;stroke-linecap:butt;stroke-linejoin:round"
     x="215.21661"
     y="256.53702"
     id="text29825-3"><tspan
       sodipodi:role="line"
       id="tspan29823-1"
       style="stroke-width:0.304736"
       x="215.21661"
       y="256.53702">impMKT 0.25</tspan></text>
  <text
     xml:space="preserve"
     style="font-size:30px;line-height:1.25;font-family:sans-serif;letter-spacing:0px;stroke-width:0.75"
     x="10.468369"
     y="3.9603806"
     id="text34818"><tspan
       sodipodi:role="line"
       id="tspan34816"
       style="stroke-width:0.75"
       x="10.468369"
       y="3.9603806"></tspan></text>
  <g
     id="patch_1-9"
     transform="translate(442.46837,3.9603806)">
    <path
       d="M 0,288 H 432 V 0 H 0 Z"
       style="fill:none"
       id="path35752" />
  </g>
  <g
     id="patch_2-3"
     transform="translate(480.47742,7.1725941)">
    <path
       clip-path="url(#pa2d6352148-7)"
       d="m 185.80268,96.87883 c 0.19253,-0.345051 0.39268,-0.685792 0.6003,-1.021971 0.20763,-0.33618 0.42269,-0.667715 0.64501,-0.994363 1.20488,-1.894756 2.48007,-3.743877 3.8229,-5.5435 1.34283,-1.799623 2.75237,-3.548494 4.22567,-5.242961 -2.57295,-4.95077 -5.87123,-9.489435 -9.78547,-13.465479 -3.91423,-3.976044 -8.40067,-7.345023 -13.31053,-9.99521 -4.90986,-2.650188 -10.18825,-4.55196 -15.66013,-5.642249 -5.47187,-1.090288 -11.07608,-1.356906 -16.62675,-0.791011 -5.55067,0.565894 -10.98576,1.957976 -16.12504,4.13008 -5.13927,2.172103 -9.92528,5.099948 -14.1993,8.686439 -4.27403,3.58649 -7.98829,7.791536 -11.019613,12.475685 -3.031325,4.684149 -5.345829,9.795042 -6.866755,15.163186 -1.520926,5.368144 -2.231274,10.933534 -2.107487,16.511604 0.123787,5.57807 1.080327,11.10647 2.837896,16.40185 1.75757,5.29539 4.296523,10.29858 7.532661,14.84364 3.236138,4.54506 7.133288,8.5812 11.562208,11.97455 4.42892,3.39336 9.3401,6.10601 14.57067,8.04798 5.23057,1.94198 10.72207,3.09158 16.29238,3.41068 5.57031,0.3191 11.15717,-0.19586 16.5753,-1.52782 5.41812,-1.33196 10.60695,-3.46602 15.3944,-6.33141 -1.72703,-10.4675 -1.5945,-21.15804 0.39148,-31.57951 1.98599,-10.42148 5.79449,-20.4115 11.2502,-29.51021"
       style="fill:#30504f"
       id="path35755" />
  </g>
  <g
     id="patch_3-3"
     transform="translate(480.47742,7.1725941)">
    <path
       clip-path="url(#pa2d6352148-7)"
       d="m 195.09656,84.076035 c 0.2054,0.395214 0.40607,0.792863 0.60198,1.192863 0.19591,0.400001 0.38704,0.802323 0.57335,1.206883 4.07092,-2.237689 8.6556,-3.376272 13.30041,-3.303097 4.64481,0.07318 9.19134,1.355615 13.18975,3.720429 3.99841,2.364815 7.31233,5.731351 9.61387,9.766516 2.30153,4.035161 3.51219,8.601331 3.51219,13.246721 0,4.64539 -1.21066,9.21156 -3.51219,13.24673 -2.30154,4.03516 -5.61546,7.4017 -9.61387,9.76651 -3.99841,2.36481 -8.54494,3.64725 -13.18975,3.72043 -4.64481,0.0732 -9.22949,-1.06541 -13.30041,-3.3031 -2.347,5.09627 -5.44645,9.81109 -9.19444,13.98637 -3.74799,4.17527 -8.10214,7.7638 -12.91645,10.64526 1.6576,10.04665 5.00395,19.74062 9.89699,28.6704 4.89304,8.92977 11.26255,16.9672 18.83816,23.7711 7.5756,6.8039 16.24857,12.27662 25.65074,16.18584 9.40217,3.90922 19.3986,6.19884 29.56495,6.77167 10.16635,0.57282 20.3567,-0.57937 30.1385,-3.40766 9.7818,-2.82829 19.01464,-7.2921 27.30661,-13.20193 8.29196,-5.90984 15.52403,-13.18088 21.38923,-21.50448 5.86519,-8.3236 10.27931,-17.5803 13.055,-27.37715 2.77569,-9.79686 3.8731,-19.99326 3.24565,-30.15639 -0.62745,-10.16312 -2.97075,-20.1471 -6.93044,-29.52813 -3.95969,-9.381026 -9.47893,-18.024457 -16.32344,-25.56339 -6.84451,-7.538932 -14.91605,-13.865162 -23.87199,-18.710148 -8.95595,-4.844987 -18.66775,-8.139191 -28.72316,-9.742778 -10.05542,-1.603587 -20.31011,-1.493542 -30.3288,0.325465 -10.01868,1.819008 -19.65756,5.320868 -28.50746,10.356934 -8.84991,5.036065 -16.78383,11.534053 -23.46498,19.218132"
       style="fill:#ab2710"
       id="path35758" />
  </g>
  <g
     id="patch_4-8"
     transform="translate(480.47742,7.1725941)">
    <path
       clip-path="url(#pa2d6352148-7)"
       d="m 196.27189,133.33692 c -3.08937,-1.69815 -5.8126,-3.99067 -8.01259,-6.7453 -2.19998,-2.75464 -3.8336,-5.91738 -4.8066,-9.30577 -0.97301,-3.3884 -1.26632,-6.93601 -0.86302,-10.4382 0.40329,-3.50219 1.49529,-6.890276 3.213,-9.96882 -5.45571,9.09871 -9.26421,19.08873 -11.2502,29.51021 -1.98598,10.42147 -2.11851,21.11201 -0.39148,31.57951 4.81431,-2.88146 9.16846,-6.46999 12.91645,-10.64526 3.74799,-4.17528 6.84744,-8.8901 9.19444,-13.98637 m 0,-46.861139 c -0.18631,-0.40456 -0.37744,-0.806882 -0.57335,-1.206883 -0.19591,-0.4 -0.39658,-0.797649 -0.60198,-1.192863 -1.4733,1.694467 -2.88284,3.443338 -4.22567,5.242961 -1.34283,1.799623 -2.61802,3.648744 -3.8229,5.5435 1.1813,-1.735622 2.56293,-3.326078 4.11631,-4.738472 1.55339,-1.412393 3.26774,-2.636917 5.10759,-3.648243"
       style="fill:#995342"
       id="path35761" />
  </g>
  <g
     id="patch_5-0"
     transform="translate(480.47742,7.1725941)"
     style="fill:#e2bd9a;fill-opacity:1">
    <path
       clip-path="url(#pa2d6352148-7)"
       d="m 196.27189,86.475781 c 3.38374,7.347434 5.13604,15.341409 5.13604,23.430569 0,8.08916 -1.7523,16.08314 -5.13604,23.43057 4.07092,2.23769 8.6556,3.37628 13.30041,3.3031 4.64481,-0.0732 9.19134,-1.35562 13.18975,-3.72043 3.99841,-2.36481 7.31233,-5.73135 9.61387,-9.76651 2.30153,-4.03517 3.51219,-8.60134 3.51219,-13.24673 0,-4.64539 -1.21066,-9.21156 -3.51219,-13.246721 -2.30154,-4.035165 -5.61546,-7.401701 -9.61387,-9.766516 -3.99841,-2.364814 -8.54494,-3.647253 -13.18975,-3.720429 -4.64481,-0.07318 -9.22949,1.065408 -13.30041,3.303097"
       style="fill:#e2bd9a;fill-opacity:1"
       id="path35764" />
  </g>
  <g
     id="patch_6-5"
     transform="translate(480.47742,7.1725941)">
    <path
       clip-path="url(#pa2d6352148-7)"
       d="m 196.27189,86.475781 c -1.83985,1.011326 -3.5542,2.23585 -5.10759,3.648243 -1.55338,1.412394 -2.93501,3.00285 -4.11631,4.738472 -0.21195,0.333312 -0.42172,0.668012 -0.62927,1.004078 -0.20756,0.336067 -0.41291,0.673492 -0.61604,1.012256 -1.71771,3.078544 -2.80971,6.46663 -3.213,9.96882 -0.4033,3.50219 -0.10999,7.0498 0.86302,10.4382 0.973,3.38839 2.60662,6.55113 4.8066,9.30577 2.19999,2.75463 4.92322,5.04715 8.01259,6.7453 3.38374,-7.34743 5.13604,-15.34141 5.13604,-23.43057 0,-8.08916 -1.7523,-16.083135 -5.13604,-23.430569"
       style="fill:#b27b64"
       id="path35767" />
  </g>
  <g
     id="text_6-2"
     transform="translate(436.11322,67.560084)">
    <!-- MKT -->
    <g
       transform="matrix(0.12,0,0,-0.12,92.765755,53.893237)"
       id="g35829">
      <defs
         id="defs35821">
        <path
           d="M 9.8125,72.90625 H 24.515625 L 43.109375,23.296875 61.8125,72.90625 H 76.515625 V 0 h -9.625 v 64.015625 l -18.796875,-50 H 38.1875 l -18.796875,50 V 0 H 9.8125 Z"
           id="path36150" />
        <path
           d="m 9.8125,72.90625 h 9.859375 v -30.8125 l 32.71875,30.8125 H 65.09375 L 28.90625,38.921875 67.671875,0 H 54.6875 L 19.671875,35.109375 V 0 H 9.8125 Z"
           id="path36152" />
        <path
           d="M -0.296875,72.90625 H 61.375 v -8.3125 H 35.5 V 0 H 25.59375 V 64.59375 H -0.296875 Z"
           id="path36154" />
      </defs>
      <use
         xlink:href="#DejaVuSans-77-6"
         id="use35823"
         x="0"
         y="0"
         width="100%"
         height="100%" />
      <use
         x="86.279297"
         xlink:href="#DejaVuSans-75-7"
         id="use35825"
         y="0"
         width="100%"
         height="100%" />
      <use
         x="144.10547"
         xlink:href="#DejaVuSans-84-5"
         id="use35827"
         y="0"
         width="100%"
         height="100%" />
    </g>
  </g>
  <text
     xml:space="preserve"
     style="font-size:12.1895px;line-height:1.25;font-family:sans-serif;letter-spacing:0px;stroke-width:0.304736;stroke-linecap:butt;stroke-linejoin:round"
     x="688.24316"
     y="88.243431"
     id="text29825-0"><tspan
       sodipodi:role="line"
       id="tspan29823-4"
       style="stroke-width:0.304736"
       x="688.24316"
       y="88.243431">fwwMKT 0.25</tspan></text>
  <text
     xml:space="preserve"
     style="font-size:12.1895px;line-height:1.25;font-family:sans-serif;letter-spacing:0px;stroke-width:0.304736;stroke-linecap:butt;stroke-linejoin:round"
     x="704.71368"
     y="267.19565"
     id="text29825-3-6"><tspan
       sodipodi:role="line"
       id="tspan29823-1-1"
       style="stroke-width:0.304736"
       x="704.71368"
       y="267.19565">impMKT 0.25</tspan></text>
  <text
     xml:space="preserve"
     style="font-size:11.7396px;line-height:1.25;font-family:sans-serif;letter-spacing:0px;stroke-width:0.293491;stroke-linecap:butt;stroke-linejoin:round"
     x="582.41058"
     y="119.89572"
     id="text26682-1-0"><tspan
       sodipodi:role="line"
       id="tspan26680-0-5"
       style="stroke-width:0.293491"
       x="582.41058"
       y="119.89572">79</tspan><tspan
       sodipodi:role="line"
       style="stroke-width:0.293491"
       x="582.41058"
       y="134.57022"
       id="tspan28385-5" /></text>
  <text
     xml:space="preserve"
     style="font-size:11.7396px;line-height:1.25;font-family:sans-serif;letter-spacing:0px;stroke-width:0.293491;stroke-linecap:butt;stroke-linejoin:round"
     x="690.26984"
     y="121.42192"
     id="text26682-1-0-2"><tspan
       sodipodi:role="line"
       id="tspan26680-0-5-9"
       style="stroke-width:0.293491"
       x="690.26984"
       y="121.42192">18</tspan><tspan
       sodipodi:role="line"
       style="stroke-width:0.293491"
       x="690.26984"
       y="136.09642"
       id="tspan28385-5-0" /></text>
  <text
     xml:space="preserve"
     style="font-size:11.7396px;line-height:1.25;font-family:sans-serif;letter-spacing:0px;stroke-width:0.293491;stroke-linecap:butt;stroke-linejoin:round"
     x="740.47003"
     y="202.40193"
     id="text26682-1-0-2-2"><tspan
       sodipodi:role="line"
       id="tspan26680-0-5-9-8"
       style="stroke-width:0.293491"
       x="740.47003"
       y="202.40193">205</tspan><tspan
       sodipodi:role="line"
       style="stroke-width:0.293491"
       x="740.47003"
       y="217.07643"
       id="tspan28385-5-0-3" /></text>
</svg>
