<?xml version="1.0" encoding="utf-8" standalone="no"?>
<!DOCTYPE svg PUBLIC "-//W3C//DTD SVG 1.1//EN"
  "http://www.w3.org/Graphics/SVG/1.1/DTD/svg11.dtd">
<!-- Created with matplotlib (https://matplotlib.org/) -->
<svg height="300.507937pt" version="1.1" viewBox="0 0 535.482062 300.507937" width="535.482062pt" xmlns="http://www.w3.org/2000/svg" xmlns:xlink="http://www.w3.org/1999/xlink">
 <defs>
  <style type="text/css">
*{stroke-linecap:butt;stroke-linejoin:round;}
  </style>
 </defs>
 <g id="figure_1">
  <g id="patch_1">
   <path d="M 0 300.507937 
L 535.482062 300.507937 
L 535.482062 -0 
L 0 -0 
z
" style="fill:#ffffff;stroke:#ffffff;stroke-linejoin:miter;"/>
  </g>
  <g id="axes_1">
   <g id="patch_2">
    <path d="M 41.190688 273.312 
L 398.310688 273.312 
L 398.310688 7.2 
L 41.190688 7.2 
z
" style="fill:#ebebeb;"/>
   </g>
   <g id="matplotlib.axis_1">
    <g id="xtick_1">
     <g id="line2d_1">
      <path clip-path="url(#p90771f0a72)" d="M 219.750688 273.312 
L 219.750688 7.2 
" style="fill:none;stroke:#ffffff;"/>
     </g>
     <g id="line2d_2">
      <path d="M 219.750688 273.312 
" style="fill:none;stroke:#333333;stroke-width:1.5;"/>
      <defs>
       <path d="M 0 0 
L 0 2.75 
" id="mf0717b5a0d" style="stroke:#333333;"/>
      </defs>
      <g>
       <use style="fill:#333333;stroke:#333333;" x="219.750688" xlink:href="#mf0717b5a0d" y="273.312"/>
      </g>
     </g>
    </g>
    <g id="text_1">
     <!-- simulation -->
     <defs>
      <path d="M 44.28125 53.078125 
L 44.28125 44.578125 
Q 40.484375 46.53125 36.375 47.5 
Q 32.28125 48.484375 27.875 48.484375 
Q 21.1875 48.484375 17.84375 46.4375 
Q 14.5 44.390625 14.5 40.28125 
Q 14.5 37.15625 16.890625 35.375 
Q 19.28125 33.59375 26.515625 31.984375 
L 29.59375 31.296875 
Q 39.15625 29.25 43.1875 25.515625 
Q 47.21875 21.78125 47.21875 15.09375 
Q 47.21875 7.46875 41.1875 3.015625 
Q 35.15625 -1.421875 24.609375 -1.421875 
Q 20.21875 -1.421875 15.453125 -0.5625 
Q 10.6875 0.296875 5.421875 2 
L 5.421875 11.28125 
Q 10.40625 8.6875 15.234375 7.390625 
Q 20.0625 6.109375 24.8125 6.109375 
Q 31.15625 6.109375 34.5625 8.28125 
Q 37.984375 10.453125 37.984375 14.40625 
Q 37.984375 18.0625 35.515625 20.015625 
Q 33.0625 21.96875 24.703125 23.78125 
L 21.578125 24.515625 
Q 13.234375 26.265625 9.515625 29.90625 
Q 5.8125 33.546875 5.8125 39.890625 
Q 5.8125 47.609375 11.28125 51.796875 
Q 16.75 56 26.8125 56 
Q 31.78125 56 36.171875 55.265625 
Q 40.578125 54.546875 44.28125 53.078125 
z
" id="DejaVuSans-115"/>
      <path d="M 9.421875 54.6875 
L 18.40625 54.6875 
L 18.40625 0 
L 9.421875 0 
z
M 9.421875 75.984375 
L 18.40625 75.984375 
L 18.40625 64.59375 
L 9.421875 64.59375 
z
" id="DejaVuSans-105"/>
      <path d="M 52 44.1875 
Q 55.375 50.25 60.0625 53.125 
Q 64.75 56 71.09375 56 
Q 79.640625 56 84.28125 50.015625 
Q 88.921875 44.046875 88.921875 33.015625 
L 88.921875 0 
L 79.890625 0 
L 79.890625 32.71875 
Q 79.890625 40.578125 77.09375 44.375 
Q 74.3125 48.1875 68.609375 48.1875 
Q 61.625 48.1875 57.5625 43.546875 
Q 53.515625 38.921875 53.515625 30.90625 
L 53.515625 0 
L 44.484375 0 
L 44.484375 32.71875 
Q 44.484375 40.625 41.703125 44.40625 
Q 38.921875 48.1875 33.109375 48.1875 
Q 26.21875 48.1875 22.15625 43.53125 
Q 18.109375 38.875 18.109375 30.90625 
L 18.109375 0 
L 9.078125 0 
L 9.078125 54.6875 
L 18.109375 54.6875 
L 18.109375 46.1875 
Q 21.1875 51.21875 25.484375 53.609375 
Q 29.78125 56 35.6875 56 
Q 41.65625 56 45.828125 52.96875 
Q 50 49.953125 52 44.1875 
z
" id="DejaVuSans-109"/>
      <path d="M 8.5 21.578125 
L 8.5 54.6875 
L 17.484375 54.6875 
L 17.484375 21.921875 
Q 17.484375 14.15625 20.5 10.265625 
Q 23.53125 6.390625 29.59375 6.390625 
Q 36.859375 6.390625 41.078125 11.03125 
Q 45.3125 15.671875 45.3125 23.6875 
L 45.3125 54.6875 
L 54.296875 54.6875 
L 54.296875 0 
L 45.3125 0 
L 45.3125 8.40625 
Q 42.046875 3.421875 37.71875 1 
Q 33.40625 -1.421875 27.6875 -1.421875 
Q 18.265625 -1.421875 13.375 4.4375 
Q 8.5 10.296875 8.5 21.578125 
z
M 31.109375 56 
z
" id="DejaVuSans-117"/>
      <path d="M 9.421875 75.984375 
L 18.40625 75.984375 
L 18.40625 0 
L 9.421875 0 
z
" id="DejaVuSans-108"/>
      <path d="M 34.28125 27.484375 
Q 23.390625 27.484375 19.1875 25 
Q 14.984375 22.515625 14.984375 16.5 
Q 14.984375 11.71875 18.140625 8.90625 
Q 21.296875 6.109375 26.703125 6.109375 
Q 34.1875 6.109375 38.703125 11.40625 
Q 43.21875 16.703125 43.21875 25.484375 
L 43.21875 27.484375 
z
M 52.203125 31.203125 
L 52.203125 0 
L 43.21875 0 
L 43.21875 8.296875 
Q 40.140625 3.328125 35.546875 0.953125 
Q 30.953125 -1.421875 24.3125 -1.421875 
Q 15.921875 -1.421875 10.953125 3.296875 
Q 6 8.015625 6 15.921875 
Q 6 25.140625 12.171875 29.828125 
Q 18.359375 34.515625 30.609375 34.515625 
L 43.21875 34.515625 
L 43.21875 35.40625 
Q 43.21875 41.609375 39.140625 45 
Q 35.0625 48.390625 27.6875 48.390625 
Q 23 48.390625 18.546875 47.265625 
Q 14.109375 46.140625 10.015625 43.890625 
L 10.015625 52.203125 
Q 14.9375 54.109375 19.578125 55.046875 
Q 24.21875 56 28.609375 56 
Q 40.484375 56 46.34375 49.84375 
Q 52.203125 43.703125 52.203125 31.203125 
z
" id="DejaVuSans-97"/>
      <path d="M 18.3125 70.21875 
L 18.3125 54.6875 
L 36.8125 54.6875 
L 36.8125 47.703125 
L 18.3125 47.703125 
L 18.3125 18.015625 
Q 18.3125 11.328125 20.140625 9.421875 
Q 21.96875 7.515625 27.59375 7.515625 
L 36.8125 7.515625 
L 36.8125 0 
L 27.59375 0 
Q 17.1875 0 13.234375 3.875 
Q 9.28125 7.765625 9.28125 18.015625 
L 9.28125 47.703125 
L 2.6875 47.703125 
L 2.6875 54.6875 
L 9.28125 54.6875 
L 9.28125 70.21875 
z
" id="DejaVuSans-116"/>
      <path d="M 30.609375 48.390625 
Q 23.390625 48.390625 19.1875 42.75 
Q 14.984375 37.109375 14.984375 27.296875 
Q 14.984375 17.484375 19.15625 11.84375 
Q 23.34375 6.203125 30.609375 6.203125 
Q 37.796875 6.203125 41.984375 11.859375 
Q 46.1875 17.53125 46.1875 27.296875 
Q 46.1875 37.015625 41.984375 42.703125 
Q 37.796875 48.390625 30.609375 48.390625 
z
M 30.609375 56 
Q 42.328125 56 49.015625 48.375 
Q 55.71875 40.765625 55.71875 27.296875 
Q 55.71875 13.875 49.015625 6.21875 
Q 42.328125 -1.421875 30.609375 -1.421875 
Q 18.84375 -1.421875 12.171875 6.21875 
Q 5.515625 13.875 5.515625 27.296875 
Q 5.515625 40.765625 12.171875 48.375 
Q 18.84375 56 30.609375 56 
z
" id="DejaVuSans-111"/>
      <path d="M 54.890625 33.015625 
L 54.890625 0 
L 45.90625 0 
L 45.90625 32.71875 
Q 45.90625 40.484375 42.875 44.328125 
Q 39.84375 48.1875 33.796875 48.1875 
Q 26.515625 48.1875 22.3125 43.546875 
Q 18.109375 38.921875 18.109375 30.90625 
L 18.109375 0 
L 9.078125 0 
L 9.078125 54.6875 
L 18.109375 54.6875 
L 18.109375 46.1875 
Q 21.34375 51.125 25.703125 53.5625 
Q 30.078125 56 35.796875 56 
Q 45.21875 56 50.046875 50.171875 
Q 54.890625 44.34375 54.890625 33.015625 
z
" id="DejaVuSans-110"/>
     </defs>
     <g transform="translate(185.321078 291.020281)scale(0.11 -0.11)">
      <use xlink:href="#DejaVuSans-115"/>
      <use x="52.099609" xlink:href="#DejaVuSans-105"/>
      <use x="79.882812" xlink:href="#DejaVuSans-109"/>
      <use x="177.294922" xlink:href="#DejaVuSans-117"/>
      <use x="240.673828" xlink:href="#DejaVuSans-108"/>
      <use x="268.457031" xlink:href="#DejaVuSans-97"/>
      <use x="329.736328" xlink:href="#DejaVuSans-116"/>
      <use x="368.945312" xlink:href="#DejaVuSans-105"/>
      <use x="396.728516" xlink:href="#DejaVuSans-111"/>
      <use x="457.910156" xlink:href="#DejaVuSans-110"/>
     </g>
    </g>
   </g>
   <g id="matplotlib.axis_2">
    <g id="ytick_1">
     <g id="line2d_3">
      <path clip-path="url(#p90771f0a72)" d="M 41.190688 257.430085 
L 398.310688 257.430085 
" style="fill:none;stroke:#ffffff;"/>
     </g>
     <g id="line2d_4">
      <path d="M 41.190688 257.430085 
" style="fill:none;stroke:#333333;stroke-width:1.5;"/>
      <defs>
       <path d="M 0 0 
L -2.75 0 
" id="m8f1645d36e" style="stroke:#333333;"/>
      </defs>
      <g>
       <use style="fill:#333333;stroke:#333333;" x="41.190688" xlink:href="#m8f1645d36e" y="257.430085"/>
      </g>
     </g>
     <g id="text_2">
      <!-- 0 -->
      <defs>
       <path d="M 31.78125 66.40625 
Q 24.171875 66.40625 20.328125 58.90625 
Q 16.5 51.421875 16.5 36.375 
Q 16.5 21.390625 20.328125 13.890625 
Q 24.171875 6.390625 31.78125 6.390625 
Q 39.453125 6.390625 43.28125 13.890625 
Q 47.125 21.390625 47.125 36.375 
Q 47.125 51.421875 43.28125 58.90625 
Q 39.453125 66.40625 31.78125 66.40625 
z
M 31.78125 74.21875 
Q 44.046875 74.21875 50.515625 64.515625 
Q 56.984375 54.828125 56.984375 36.375 
Q 56.984375 17.96875 50.515625 8.265625 
Q 44.046875 -1.421875 31.78125 -1.421875 
Q 19.53125 -1.421875 13.0625 8.265625 
Q 6.59375 17.96875 6.59375 36.375 
Q 6.59375 54.828125 13.0625 64.515625 
Q 19.53125 74.21875 31.78125 74.21875 
z
" id="DejaVuSans-48"/>
      </defs>
      <g style="fill:#4d4d4d;" transform="translate(30.641688 259.858335)scale(0.088 -0.088)">
       <use xlink:href="#DejaVuSans-48"/>
      </g>
     </g>
    </g>
    <g id="ytick_2">
     <g id="line2d_5">
      <path clip-path="url(#p90771f0a72)" d="M 41.190688 181.711775 
L 398.310688 181.711775 
" style="fill:none;stroke:#ffffff;"/>
     </g>
     <g id="line2d_6">
      <path d="M 41.190688 181.711775 
" style="fill:none;stroke:#333333;stroke-width:1.5;"/>
      <g>
       <use style="fill:#333333;stroke:#333333;" x="41.190688" xlink:href="#m8f1645d36e" y="181.711775"/>
      </g>
     </g>
     <g id="text_3">
      <!-- 0.2 -->
      <defs>
       <path d="M 10.6875 12.40625 
L 21 12.40625 
L 21 0 
L 10.6875 0 
z
" id="DejaVuSans-46"/>
       <path d="M 19.1875 8.296875 
L 53.609375 8.296875 
L 53.609375 0 
L 7.328125 0 
L 7.328125 8.296875 
Q 12.9375 14.109375 22.625 23.890625 
Q 32.328125 33.6875 34.8125 36.53125 
Q 39.546875 41.84375 41.421875 45.53125 
Q 43.3125 49.21875 43.3125 52.78125 
Q 43.3125 58.59375 39.234375 62.25 
Q 35.15625 65.921875 28.609375 65.921875 
Q 23.96875 65.921875 18.8125 64.3125 
Q 13.671875 62.703125 7.8125 59.421875 
L 7.8125 69.390625 
Q 13.765625 71.78125 18.9375 73 
Q 24.125 74.21875 28.421875 74.21875 
Q 39.75 74.21875 46.484375 68.546875 
Q 53.21875 62.890625 53.21875 53.421875 
Q 53.21875 48.921875 51.53125 44.890625 
Q 49.859375 40.875 45.40625 35.40625 
Q 44.1875 33.984375 37.640625 27.21875 
Q 31.109375 20.453125 19.1875 8.296875 
z
" id="DejaVuSans-50"/>
      </defs>
      <g style="fill:#4d4d4d;" transform="translate(22.245938 184.140025)scale(0.088 -0.088)">
       <use xlink:href="#DejaVuSans-48"/>
       <use x="63.623047" xlink:href="#DejaVuSans-46"/>
       <use x="95.410156" xlink:href="#DejaVuSans-50"/>
      </g>
     </g>
    </g>
    <g id="ytick_3">
     <g id="line2d_7">
      <path clip-path="url(#p90771f0a72)" d="M 41.190688 105.993465 
L 398.310688 105.993465 
" style="fill:none;stroke:#ffffff;"/>
     </g>
     <g id="line2d_8">
      <path d="M 41.190688 105.993465 
" style="fill:none;stroke:#333333;stroke-width:1.5;"/>
      <g>
       <use style="fill:#333333;stroke:#333333;" x="41.190688" xlink:href="#m8f1645d36e" y="105.993465"/>
      </g>
     </g>
     <g id="text_4">
      <!-- 0.4 -->
      <defs>
       <path d="M 37.796875 64.3125 
L 12.890625 25.390625 
L 37.796875 25.390625 
z
M 35.203125 72.90625 
L 47.609375 72.90625 
L 47.609375 25.390625 
L 58.015625 25.390625 
L 58.015625 17.1875 
L 47.609375 17.1875 
L 47.609375 0 
L 37.796875 0 
L 37.796875 17.1875 
L 4.890625 17.1875 
L 4.890625 26.703125 
z
" id="DejaVuSans-52"/>
      </defs>
      <g style="fill:#4d4d4d;" transform="translate(22.245938 108.421715)scale(0.088 -0.088)">
       <use xlink:href="#DejaVuSans-48"/>
       <use x="63.623047" xlink:href="#DejaVuSans-46"/>
       <use x="95.410156" xlink:href="#DejaVuSans-52"/>
      </g>
     </g>
    </g>
    <g id="ytick_4">
     <g id="line2d_9">
      <path clip-path="url(#p90771f0a72)" d="M 41.190688 30.275155 
L 398.310688 30.275155 
" style="fill:none;stroke:#ffffff;"/>
     </g>
     <g id="line2d_10">
      <path d="M 41.190688 30.275155 
" style="fill:none;stroke:#333333;stroke-width:1.5;"/>
      <g>
       <use style="fill:#333333;stroke:#333333;" x="41.190688" xlink:href="#m8f1645d36e" y="30.275155"/>
      </g>
     </g>
     <g id="text_5">
      <!-- 0.6 -->
      <defs>
       <path d="M 33.015625 40.375 
Q 26.375 40.375 22.484375 35.828125 
Q 18.609375 31.296875 18.609375 23.390625 
Q 18.609375 15.53125 22.484375 10.953125 
Q 26.375 6.390625 33.015625 6.390625 
Q 39.65625 6.390625 43.53125 10.953125 
Q 47.40625 15.53125 47.40625 23.390625 
Q 47.40625 31.296875 43.53125 35.828125 
Q 39.65625 40.375 33.015625 40.375 
z
M 52.59375 71.296875 
L 52.59375 62.3125 
Q 48.875 64.0625 45.09375 64.984375 
Q 41.3125 65.921875 37.59375 65.921875 
Q 27.828125 65.921875 22.671875 59.328125 
Q 17.53125 52.734375 16.796875 39.40625 
Q 19.671875 43.65625 24.015625 45.921875 
Q 28.375 48.1875 33.59375 48.1875 
Q 44.578125 48.1875 50.953125 41.515625 
Q 57.328125 34.859375 57.328125 23.390625 
Q 57.328125 12.15625 50.6875 5.359375 
Q 44.046875 -1.421875 33.015625 -1.421875 
Q 20.359375 -1.421875 13.671875 8.265625 
Q 6.984375 17.96875 6.984375 36.375 
Q 6.984375 53.65625 15.1875 63.9375 
Q 23.390625 74.21875 37.203125 74.21875 
Q 40.921875 74.21875 44.703125 73.484375 
Q 48.484375 72.75 52.59375 71.296875 
z
" id="DejaVuSans-54"/>
      </defs>
      <g style="fill:#4d4d4d;" transform="translate(22.245938 32.703405)scale(0.088 -0.088)">
       <use xlink:href="#DejaVuSans-48"/>
       <use x="63.623047" xlink:href="#DejaVuSans-46"/>
       <use x="95.410156" xlink:href="#DejaVuSans-54"/>
      </g>
     </g>
    </g>
    <g id="ytick_5">
     <g id="line2d_11">
      <path clip-path="url(#p90771f0a72)" d="M 41.190688 219.57093 
L 398.310688 219.57093 
" style="fill:none;stroke:#ffffff;stroke-width:0.5;"/>
     </g>
    </g>
    <g id="ytick_6">
     <g id="line2d_12">
      <path clip-path="url(#p90771f0a72)" d="M 41.190688 143.85262 
L 398.310688 143.85262 
" style="fill:none;stroke:#ffffff;stroke-width:0.5;"/>
     </g>
    </g>
    <g id="ytick_7">
     <g id="line2d_13">
      <path clip-path="url(#p90771f0a72)" d="M 41.190688 68.13431 
L 398.310688 68.13431 
" style="fill:none;stroke:#ffffff;stroke-width:0.5;"/>
     </g>
    </g>
    <g id="text_6">
     <!-- value -->
     <defs>
      <path d="M 2.984375 54.6875 
L 12.5 54.6875 
L 29.59375 8.796875 
L 46.6875 54.6875 
L 56.203125 54.6875 
L 35.6875 0 
L 23.484375 0 
z
" id="DejaVuSans-118"/>
      <path d="M 56.203125 29.59375 
L 56.203125 25.203125 
L 14.890625 25.203125 
Q 15.484375 15.921875 20.484375 11.0625 
Q 25.484375 6.203125 34.421875 6.203125 
Q 39.59375 6.203125 44.453125 7.46875 
Q 49.3125 8.734375 54.109375 11.28125 
L 54.109375 2.78125 
Q 49.265625 0.734375 44.1875 -0.34375 
Q 39.109375 -1.421875 33.890625 -1.421875 
Q 20.796875 -1.421875 13.15625 6.1875 
Q 5.515625 13.8125 5.515625 26.8125 
Q 5.515625 40.234375 12.765625 48.109375 
Q 20.015625 56 32.328125 56 
Q 43.359375 56 49.78125 48.890625 
Q 56.203125 41.796875 56.203125 29.59375 
z
M 47.21875 32.234375 
Q 47.125 39.59375 43.09375 43.984375 
Q 39.0625 48.390625 32.421875 48.390625 
Q 24.90625 48.390625 20.390625 44.140625 
Q 15.875 39.890625 15.1875 32.171875 
z
" id="DejaVuSans-101"/>
     </defs>
     <g transform="translate(15.558281 153.551594)rotate(-90)scale(0.11 -0.11)">
      <use xlink:href="#DejaVuSans-118"/>
      <use x="59.179688" xlink:href="#DejaVuSans-97"/>
      <use x="120.458984" xlink:href="#DejaVuSans-108"/>
      <use x="148.242188" xlink:href="#DejaVuSans-117"/>
      <use x="211.621094" xlink:href="#DejaVuSans-101"/>
     </g>
    </g>
   </g>
   <g id="PathCollection_1">
    <path clip-path="url(#p90771f0a72)" d="M 98.005233 262.988454 
C 98.475293 262.988454 98.926164 262.801697 99.258547 262.469314 
C 99.59093 262.136931 99.777687 261.68606 99.777687 261.216 
C 99.777687 260.74594 99.59093 260.295069 99.258547 259.962686 
C 98.926164 259.630303 98.475293 259.443546 98.005233 259.443546 
C 97.535173 259.443546 97.084302 259.630303 96.751919 259.962686 
C 96.419536 260.295069 96.232779 260.74594 96.232779 261.216 
C 96.232779 261.68606 96.419536 262.136931 96.751919 262.469314 
C 97.084302 262.801697 97.535173 262.988454 98.005233 262.988454 
z
" style="fill:#333333;stroke:#333333;stroke-width:0.886227;"/>
    <path clip-path="url(#p90771f0a72)" d="M 98.005233 235.729862 
C 98.475293 235.729862 98.926164 235.543105 99.258547 235.210723 
C 99.59093 234.87834 99.777687 234.427469 99.777687 233.957408 
C 99.777687 233.487348 99.59093 233.036477 99.258547 232.704094 
C 98.926164 232.371712 98.475293 232.184955 98.005233 232.184955 
C 97.535173 232.184955 97.084302 232.371712 96.751919 232.704094 
C 96.419536 233.036477 96.232779 233.487348 96.232779 233.957408 
C 96.232779 234.427469 96.419536 234.87834 96.751919 235.210723 
C 97.084302 235.543105 97.535173 235.729862 98.005233 235.729862 
z
" style="fill:#333333;stroke:#333333;stroke-width:0.886227;"/>
   </g>
   <g id="LineCollection_1">
    <path clip-path="url(#p90771f0a72)" d="M 98.005233 243.422197 
L 98.005233 236.228958 
" style="fill:none;stroke:#333333;stroke-width:0.886227;"/>
    <path clip-path="url(#p90771f0a72)" d="M 98.005233 249.57431 
L 98.005233 258.565859 
" style="fill:none;stroke:#333333;stroke-width:0.886227;"/>
   </g>
   <g id="PolyCollection_1">
    <defs>
     <path d="M 87.048142 -57.08574 
L 87.048142 -57.08574 
L 108.962324 -57.08574 
L 108.962324 -50.933628 
L 87.048142 -50.933628 
z
" id="mb11bd3fcee" style="stroke:#333333;stroke-width:0.886227;"/>
    </defs>
    <g clip-path="url(#p90771f0a72)">
     <use style="fill:#440154;stroke:#333333;stroke-width:0.886227;" x="0" xlink:href="#mb11bd3fcee" y="300.507937"/>
    </g>
   </g>
   <g id="LineCollection_2">
    <path clip-path="url(#p90771f0a72)" d="M 87.048142 246.45093 
L 108.962324 246.45093 
" style="fill:none;stroke:#333333;stroke-width:1.772454;"/>
   </g>
   <g id="PathCollection_2">
    <path clip-path="url(#p90771f0a72)" d="M 122.354324 208.092679 
C 122.824384 208.092679 123.275255 207.905922 123.607638 207.573539 
C 123.940021 207.241157 124.126778 206.790286 124.126778 206.320225 
C 124.126778 205.850165 123.940021 205.399294 123.607638 205.066911 
C 123.275255 204.734528 122.824384 204.547772 122.354324 204.547772 
C 121.884264 204.547772 121.433393 204.734528 121.10101 205.066911 
C 120.768627 205.399294 120.58187 205.850165 120.58187 206.320225 
C 120.58187 206.790286 120.768627 207.241157 121.10101 207.573539 
C 121.433393 207.905922 121.884264 208.092679 122.354324 208.092679 
z
" style="fill:#333333;stroke:#333333;stroke-width:0.886227;"/>
    <path clip-path="url(#p90771f0a72)" d="M 122.354324 208.092679 
C 122.824384 208.092679 123.275255 207.905922 123.607638 207.573539 
C 123.940021 207.241157 124.126778 206.790286 124.126778 206.320225 
C 124.126778 205.850165 123.940021 205.399294 123.607638 205.066911 
C 123.275255 204.734528 122.824384 204.547772 122.354324 204.547772 
C 121.884264 204.547772 121.433393 204.734528 121.10101 205.066911 
C 120.768627 205.399294 120.58187 205.850165 120.58187 206.320225 
C 120.58187 206.790286 120.768627 207.241157 121.10101 207.573539 
C 121.433393 207.905922 121.884264 208.092679 122.354324 208.092679 
z
" style="fill:#333333;stroke:#333333;stroke-width:0.886227;"/>
    <path clip-path="url(#p90771f0a72)" d="M 122.354324 181.212679 
C 122.824384 181.212679 123.275255 181.025922 123.607638 180.693539 
C 123.940021 180.361157 124.126778 179.910286 124.126778 179.440225 
C 124.126778 178.970165 123.940021 178.519294 123.607638 178.186911 
C 123.275255 177.854528 122.824384 177.667772 122.354324 177.667772 
C 121.884264 177.667772 121.433393 177.854528 121.10101 178.186911 
C 120.768627 178.519294 120.58187 178.970165 120.58187 179.440225 
C 120.58187 179.910286 120.768627 180.361157 121.10101 180.693539 
C 121.433393 181.025922 121.884264 181.212679 122.354324 181.212679 
z
" style="fill:#333333;stroke:#333333;stroke-width:0.886227;"/>
   </g>
   <g id="LineCollection_3">
    <path clip-path="url(#p90771f0a72)" d="M 122.354324 190.324732 
L 122.354324 184.740507 
" style="fill:none;stroke:#333333;stroke-width:0.886227;"/>
    <path clip-path="url(#p90771f0a72)" d="M 122.354324 196.476845 
L 122.354324 204.805859 
" style="fill:none;stroke:#333333;stroke-width:0.886227;"/>
   </g>
   <g id="PolyCollection_2">
    <defs>
     <path d="M 111.397233 -110.183205 
L 111.397233 -110.183205 
L 133.311415 -110.183205 
L 133.311415 -104.031092 
L 111.397233 -104.031092 
z
" id="m3141bf4caa" style="stroke:#333333;stroke-width:0.886227;"/>
    </defs>
    <g clip-path="url(#p90771f0a72)">
     <use style="fill:#482576;stroke:#333333;stroke-width:0.886227;" x="0" xlink:href="#m3141bf4caa" y="300.507937"/>
    </g>
   </g>
   <g id="LineCollection_4">
    <path clip-path="url(#p90771f0a72)" d="M 111.397233 193.448113 
L 133.311415 193.448113 
" style="fill:none;stroke:#333333;stroke-width:1.772454;"/>
   </g>
   <g id="PathCollection_3">
    <path clip-path="url(#p90771f0a72)" d="M 146.703415 198.249299 
C 147.173475 198.249299 147.624346 198.062542 147.956729 197.730159 
C 148.289112 197.397776 148.475869 196.946905 148.475869 196.476845 
C 148.475869 196.006785 148.289112 195.555914 147.956729 195.223531 
C 147.624346 194.891148 147.173475 194.704391 146.703415 194.704391 
C 146.233355 194.704391 145.782483 194.891148 145.450101 195.223531 
C 145.117718 195.555914 144.930961 196.006785 144.930961 196.476845 
C 144.930961 196.946905 145.117718 197.397776 145.450101 197.730159 
C 145.782483 198.062542 146.233355 198.249299 146.703415 198.249299 
z
" style="fill:#333333;stroke:#333333;stroke-width:0.886227;"/>
    <path clip-path="url(#p90771f0a72)" d="M 146.703415 200.89944 
C 147.173475 200.89944 147.624346 200.712683 147.956729 200.3803 
C 148.289112 200.047917 148.475869 199.597046 148.475869 199.126986 
C 148.475869 198.656926 148.289112 198.206055 147.956729 197.873672 
C 147.624346 197.541289 147.173475 197.354532 146.703415 197.354532 
C 146.233355 197.354532 145.782483 197.541289 145.450101 197.873672 
C 145.117718 198.206055 144.930961 198.656926 144.930961 199.126986 
C 144.930961 199.597046 145.117718 200.047917 145.450101 200.3803 
C 145.782483 200.712683 146.233355 200.89944 146.703415 200.89944 
z
" style="fill:#333333;stroke:#333333;stroke-width:0.886227;"/>
    <path clip-path="url(#p90771f0a72)" d="M 146.703415 199.385074 
C 147.173475 199.385074 147.624346 199.198317 147.956729 198.865934 
C 148.289112 198.533551 148.475869 198.08268 148.475869 197.61262 
C 148.475869 197.142559 148.289112 196.691688 147.956729 196.359306 
C 147.624346 196.026923 147.173475 195.840166 146.703415 195.840166 
C 146.233355 195.840166 145.782483 196.026923 145.450101 196.359306 
C 145.117718 196.691688 144.930961 197.142559 144.930961 197.61262 
C 144.930961 198.08268 145.117718 198.533551 145.450101 198.865934 
C 145.782483 199.198317 146.233355 199.385074 146.703415 199.385074 
z
" style="fill:#333333;stroke:#333333;stroke-width:0.886227;"/>
    <path clip-path="url(#p90771f0a72)" d="M 146.703415 201.278031 
C 147.173475 201.278031 147.624346 201.091274 147.956729 200.758892 
C 148.289112 200.426509 148.475869 199.975638 148.475869 199.505577 
C 148.475869 199.035517 148.289112 198.584646 147.956729 198.252263 
C 147.624346 197.919881 147.173475 197.733124 146.703415 197.733124 
C 146.233355 197.733124 145.782483 197.919881 145.450101 198.252263 
C 145.117718 198.584646 144.930961 199.035517 144.930961 199.505577 
C 144.930961 199.975638 145.117718 200.426509 145.450101 200.758892 
C 145.782483 201.091274 146.233355 201.278031 146.703415 201.278031 
z
" style="fill:#333333;stroke:#333333;stroke-width:0.886227;"/>
    <path clip-path="url(#p90771f0a72)" d="M 146.703415 178.562538 
C 147.173475 178.562538 147.624346 178.375781 147.956729 178.043399 
C 148.289112 177.711016 148.475869 177.260145 148.475869 176.790085 
C 148.475869 176.320024 148.289112 175.869153 147.956729 175.53677 
C 147.624346 175.204388 147.173475 175.017631 146.703415 175.017631 
C 146.233355 175.017631 145.782483 175.204388 145.450101 175.53677 
C 145.117718 175.869153 144.930961 176.320024 144.930961 176.790085 
C 144.930961 177.260145 145.117718 177.711016 145.450101 178.043399 
C 145.782483 178.375781 146.233355 178.562538 146.703415 178.562538 
z
" style="fill:#333333;stroke:#333333;stroke-width:0.886227;"/>
    <path clip-path="url(#p90771f0a72)" d="M 146.703415 177.048172 
C 147.173475 177.048172 147.624346 176.861415 147.956729 176.529032 
C 148.289112 176.19665 148.475869 175.745779 148.475869 175.275718 
C 148.475869 174.805658 148.289112 174.354787 147.956729 174.022404 
C 147.624346 173.690021 147.173475 173.503264 146.703415 173.503264 
C 146.233355 173.503264 145.782483 173.690021 145.450101 174.022404 
C 145.117718 174.354787 144.930961 174.805658 144.930961 175.275718 
C 144.930961 175.745779 145.117718 176.19665 145.450101 176.529032 
C 145.782483 176.861415 146.233355 177.048172 146.703415 177.048172 
z
" style="fill:#333333;stroke:#333333;stroke-width:0.886227;"/>
   </g>
   <g id="LineCollection_5">
    <path clip-path="url(#p90771f0a72)" d="M 146.703415 184.361915 
L 146.703415 179.440225 
" style="fill:none;stroke:#333333;stroke-width:0.886227;"/>
    <path clip-path="url(#p90771f0a72)" d="M 146.703415 188.999662 
L 146.703415 194.962479 
" style="fill:none;stroke:#333333;stroke-width:0.886227;"/>
   </g>
   <g id="PolyCollection_3">
    <defs>
     <path d="M 135.746324 -116.146022 
L 135.746324 -116.146022 
L 157.660506 -116.146022 
L 157.660506 -111.508276 
L 135.746324 -111.508276 
z
" id="mcbc5092135" style="stroke:#333333;stroke-width:0.886227;"/>
    </defs>
    <g clip-path="url(#p90771f0a72)">
     <use style="fill:#414487;stroke:#333333;stroke-width:0.886227;" x="0" xlink:href="#mcbc5092135" y="300.507937"/>
    </g>
   </g>
   <g id="LineCollection_6">
    <path clip-path="url(#p90771f0a72)" d="M 135.746324 187.012056 
L 157.660506 187.012056 
" style="fill:none;stroke:#333333;stroke-width:1.772454;"/>
   </g>
   <g id="PathCollection_4">
    <path clip-path="url(#p90771f0a72)" d="M 171.052506 189.920285 
C 171.522566 189.920285 171.973437 189.733528 172.30582 189.401145 
C 172.638203 189.068762 172.82496 188.617891 172.82496 188.147831 
C 172.82496 187.677771 172.638203 187.2269 172.30582 186.894517 
C 171.973437 186.562134 171.522566 186.375377 171.052506 186.375377 
C 170.582445 186.375377 170.131574 186.562134 169.799192 186.894517 
C 169.466809 187.2269 169.280052 187.677771 169.280052 188.147831 
C 169.280052 188.617891 169.466809 189.068762 169.799192 189.401145 
C 170.131574 189.733528 170.582445 189.920285 171.052506 189.920285 
z
" style="fill:#333333;stroke:#333333;stroke-width:0.886227;"/>
    <path clip-path="url(#p90771f0a72)" d="M 171.052506 189.541693 
C 171.522566 189.541693 171.973437 189.354936 172.30582 189.022554 
C 172.638203 188.690171 172.82496 188.2393 172.82496 187.769239 
C 172.82496 187.299179 172.638203 186.848308 172.30582 186.515925 
C 171.973437 186.183543 171.522566 185.996786 171.052506 185.996786 
C 170.582445 185.996786 170.131574 186.183543 169.799192 186.515925 
C 169.466809 186.848308 169.280052 187.299179 169.280052 187.769239 
C 169.280052 188.2393 169.466809 188.690171 169.799192 189.022554 
C 170.131574 189.354936 170.582445 189.541693 171.052506 189.541693 
z
" style="fill:#333333;stroke:#333333;stroke-width:0.886227;"/>
    <path clip-path="url(#p90771f0a72)" d="M 171.052506 162.283102 
C 171.522566 162.283102 171.973437 162.096345 172.30582 161.763962 
C 172.638203 161.431579 172.82496 160.980708 172.82496 160.510648 
C 172.82496 160.040588 172.638203 159.589717 172.30582 159.257334 
C 171.973437 158.924951 171.522566 158.738194 171.052506 158.738194 
C 170.582445 158.738194 170.131574 158.924951 169.799192 159.257334 
C 169.466809 159.589717 169.280052 160.040588 169.280052 160.510648 
C 169.280052 160.980708 169.466809 161.431579 169.799192 161.763962 
C 170.131574 162.096345 170.582445 162.283102 171.052506 162.283102 
z
" style="fill:#333333;stroke:#333333;stroke-width:0.886227;"/>
   </g>
   <g id="LineCollection_7">
    <path clip-path="url(#p90771f0a72)" d="M 171.052506 171.395155 
L 171.052506 165.81093 
" style="fill:none;stroke:#333333;stroke-width:0.886227;"/>
    <path clip-path="url(#p90771f0a72)" d="M 171.052506 177.263324 
L 171.052506 185.876282 
" style="fill:none;stroke:#333333;stroke-width:0.886227;"/>
   </g>
   <g id="PolyCollection_4">
    <defs>
     <path d="M 160.095415 -129.112783 
L 160.095415 -129.112783 
L 182.009597 -129.112783 
L 182.009597 -123.244614 
L 160.095415 -123.244614 
z
" id="m0d49081785" style="stroke:#333333;stroke-width:0.886227;"/>
    </defs>
    <g clip-path="url(#p90771f0a72)">
     <use style="fill:#355f8d;stroke:#333333;stroke-width:0.886227;" x="0" xlink:href="#m0d49081785" y="300.507937"/>
    </g>
   </g>
   <g id="LineCollection_8">
    <path clip-path="url(#p90771f0a72)" d="M 160.095415 174.707831 
L 182.009597 174.707831 
" style="fill:none;stroke:#333333;stroke-width:1.772454;"/>
   </g>
   <g id="PathCollection_5">
    <path clip-path="url(#p90771f0a72)" d="M 195.401597 125.18113 
C 195.871657 125.18113 196.322528 124.994373 196.654911 124.66199 
C 196.987294 124.329607 197.17405 123.878736 197.17405 123.408676 
C 197.17405 122.938616 196.987294 122.487745 196.654911 122.155362 
C 196.322528 121.822979 195.871657 121.636222 195.401597 121.636222 
C 194.931536 121.636222 194.480665 121.822979 194.148282 122.155362 
C 193.8159 122.487745 193.629143 122.938616 193.629143 123.408676 
C 193.629143 123.878736 193.8159 124.329607 194.148282 124.66199 
C 194.480665 124.994373 194.931536 125.18113 195.401597 125.18113 
z
" style="fill:#333333;stroke:#333333;stroke-width:0.886227;"/>
    <path clip-path="url(#p90771f0a72)" d="M 195.401597 124.802538 
C 195.871657 124.802538 196.322528 124.615781 196.654911 124.283399 
C 196.987294 123.951016 197.17405 123.500145 197.17405 123.030085 
C 197.17405 122.560024 196.987294 122.109153 196.654911 121.77677 
C 196.322528 121.444388 195.871657 121.257631 195.401597 121.257631 
C 194.931536 121.257631 194.480665 121.444388 194.148282 121.77677 
C 193.8159 122.109153 193.629143 122.560024 193.629143 123.030085 
C 193.629143 123.500145 193.8159 123.951016 194.148282 124.283399 
C 194.480665 124.615781 194.931536 124.802538 195.401597 124.802538 
z
" style="fill:#333333;stroke:#333333;stroke-width:0.886227;"/>
   </g>
   <g id="LineCollection_9">
    <path clip-path="url(#p90771f0a72)" d="M 195.401597 103.721915 
L 195.401597 96.528676 
" style="fill:none;stroke:#333333;stroke-width:0.886227;"/>
    <path clip-path="url(#p90771f0a72)" d="M 195.401597 110.631211 
L 195.401597 117.351211 
" style="fill:none;stroke:#333333;stroke-width:0.886227;"/>
   </g>
   <g id="PolyCollection_5">
    <defs>
     <path d="M 184.444506 -196.786022 
L 184.444506 -196.786022 
L 206.358687 -196.786022 
L 206.358687 -189.876726 
L 184.444506 -189.876726 
z
" id="m49a9e0a5f9" style="stroke:#333333;stroke-width:0.886227;"/>
    </defs>
    <g clip-path="url(#p90771f0a72)">
     <use style="fill:#2a788e;stroke:#333333;stroke-width:0.886227;" x="0" xlink:href="#m49a9e0a5f9" y="300.507937"/>
    </g>
   </g>
   <g id="LineCollection_10">
    <path clip-path="url(#p90771f0a72)" d="M 184.444506 106.372056 
L 206.358687 106.372056 
" style="fill:none;stroke:#333333;stroke-width:1.772454;"/>
   </g>
   <g id="PathCollection_6">
    <path clip-path="url(#p90771f0a72)" d="M 219.750687 189.920285 
C 220.220748 189.920285 220.671619 189.733528 221.004002 189.401145 
C 221.336384 189.068762 221.523141 188.617891 221.523141 188.147831 
C 221.523141 187.677771 221.336384 187.2269 221.004002 186.894517 
C 220.671619 186.562134 220.220748 186.375377 219.750687 186.375377 
C 219.280627 186.375377 218.829756 186.562134 218.497373 186.894517 
C 218.164991 187.2269 217.978234 187.677771 217.978234 188.147831 
C 217.978234 188.617891 218.164991 189.068762 218.497373 189.401145 
C 218.829756 189.733528 219.280627 189.920285 219.750687 189.920285 
z
" style="fill:#333333;stroke:#333333;stroke-width:0.886227;"/>
    <path clip-path="url(#p90771f0a72)" d="M 219.750687 189.541693 
C 220.220748 189.541693 220.671619 189.354936 221.004002 189.022554 
C 221.336384 188.690171 221.523141 188.2393 221.523141 187.769239 
C 221.523141 187.299179 221.336384 186.848308 221.004002 186.515925 
C 220.671619 186.183543 220.220748 185.996786 219.750687 185.996786 
C 219.280627 185.996786 218.829756 186.183543 218.497373 186.515925 
C 218.164991 186.848308 217.978234 187.299179 217.978234 187.769239 
C 217.978234 188.2393 218.164991 188.690171 218.497373 189.022554 
C 218.829756 189.354936 219.280627 189.541693 219.750687 189.541693 
z
" style="fill:#333333;stroke:#333333;stroke-width:0.886227;"/>
    <path clip-path="url(#p90771f0a72)" d="M 219.750687 162.283102 
C 220.220748 162.283102 220.671619 162.096345 221.004002 161.763962 
C 221.336384 161.431579 221.523141 160.980708 221.523141 160.510648 
C 221.523141 160.040588 221.336384 159.589717 221.004002 159.257334 
C 220.671619 158.924951 220.220748 158.738194 219.750687 158.738194 
C 219.280627 158.738194 218.829756 158.924951 218.497373 159.257334 
C 218.164991 159.589717 217.978234 160.040588 217.978234 160.510648 
C 217.978234 160.980708 218.164991 161.431579 218.497373 161.763962 
C 218.829756 162.096345 219.280627 162.283102 219.750687 162.283102 
z
" style="fill:#333333;stroke:#333333;stroke-width:0.886227;"/>
   </g>
   <g id="LineCollection_11">
    <path clip-path="url(#p90771f0a72)" d="M 219.750687 171.395155 
L 219.750687 165.81093 
" style="fill:none;stroke:#333333;stroke-width:0.886227;"/>
    <path clip-path="url(#p90771f0a72)" d="M 219.750687 177.263324 
L 219.750687 185.876282 
" style="fill:none;stroke:#333333;stroke-width:0.886227;"/>
   </g>
   <g id="PolyCollection_6">
    <defs>
     <path d="M 208.793597 -129.112783 
L 208.793597 -129.112783 
L 230.707778 -129.112783 
L 230.707778 -123.244614 
L 208.793597 -123.244614 
z
" id="m574a8e2732" style="stroke:#333333;stroke-width:0.886227;"/>
    </defs>
    <g clip-path="url(#p90771f0a72)">
     <use style="fill:#21918c;stroke:#333333;stroke-width:0.886227;" x="0" xlink:href="#m574a8e2732" y="300.507937"/>
    </g>
   </g>
   <g id="LineCollection_12">
    <path clip-path="url(#p90771f0a72)" d="M 208.793597 174.707831 
L 230.707778 174.707831 
" style="fill:none;stroke:#333333;stroke-width:1.772454;"/>
   </g>
   <g id="PathCollection_7">
    <path clip-path="url(#p90771f0a72)" d="M 244.099778 125.18113 
C 244.569839 125.18113 245.02071 124.994373 245.353093 124.66199 
C 245.685475 124.329607 245.872232 123.878736 245.872232 123.408676 
C 245.872232 122.938616 245.685475 122.487745 245.353093 122.155362 
C 245.02071 121.822979 244.569839 121.636222 244.099778 121.636222 
C 243.629718 121.636222 243.178847 121.822979 242.846464 122.155362 
C 242.514081 122.487745 242.327325 122.938616 242.327325 123.408676 
C 242.327325 123.878736 242.514081 124.329607 242.846464 124.66199 
C 243.178847 124.994373 243.629718 125.18113 244.099778 125.18113 
z
" style="fill:#333333;stroke:#333333;stroke-width:0.886227;"/>
    <path clip-path="url(#p90771f0a72)" d="M 244.099778 124.802538 
C 244.569839 124.802538 245.02071 124.615781 245.353093 124.283399 
C 245.685475 123.951016 245.872232 123.500145 245.872232 123.030085 
C 245.872232 122.560024 245.685475 122.109153 245.353093 121.77677 
C 245.02071 121.444388 244.569839 121.257631 244.099778 121.257631 
C 243.629718 121.257631 243.178847 121.444388 242.846464 121.77677 
C 242.514081 122.109153 242.327325 122.560024 242.327325 123.030085 
C 242.327325 123.500145 242.514081 123.951016 242.846464 124.283399 
C 243.178847 124.615781 243.629718 124.802538 244.099778 124.802538 
z
" style="fill:#333333;stroke:#333333;stroke-width:0.886227;"/>
   </g>
   <g id="LineCollection_13">
    <path clip-path="url(#p90771f0a72)" d="M 244.099778 103.721915 
L 244.099778 96.528676 
" style="fill:none;stroke:#333333;stroke-width:0.886227;"/>
    <path clip-path="url(#p90771f0a72)" d="M 244.099778 110.631211 
L 244.099778 117.351211 
" style="fill:none;stroke:#333333;stroke-width:0.886227;"/>
   </g>
   <g id="PolyCollection_7">
    <defs>
     <path d="M 233.142687 -196.786022 
L 233.142687 -196.786022 
L 255.056869 -196.786022 
L 255.056869 -189.876726 
L 233.142687 -189.876726 
z
" id="m907ba5ec25" style="stroke:#333333;stroke-width:0.886227;"/>
    </defs>
    <g clip-path="url(#p90771f0a72)">
     <use style="fill:#22a884;stroke:#333333;stroke-width:0.886227;" x="0" xlink:href="#m907ba5ec25" y="300.507937"/>
    </g>
   </g>
   <g id="LineCollection_14">
    <path clip-path="url(#p90771f0a72)" d="M 233.142687 106.372056 
L 255.056869 106.372056 
" style="fill:none;stroke:#333333;stroke-width:1.772454;"/>
   </g>
   <g id="PathCollection_8">
    <defs>
     <path d="M 0 1.772454 
C 0.47006 1.772454 0.920931 1.585697 1.253314 1.253314 
C 1.585697 0.920931 1.772454 0.47006 1.772454 0 
C 1.772454 -0.47006 1.585697 -0.920931 1.253314 -1.253314 
C 0.920931 -1.585697 0.47006 -1.772454 0 -1.772454 
C -0.47006 -1.772454 -0.920931 -1.585697 -1.253314 -1.253314 
C -1.585697 -0.920931 -1.772454 -0.47006 -1.772454 0 
C -1.772454 0.47006 -1.585697 0.920931 -1.253314 1.253314 
C -0.920931 1.585697 -0.47006 1.772454 0 1.772454 
z
" id="m292a3245b0" style="stroke:#333333;stroke-width:0.886227;"/>
    </defs>
    <g clip-path="url(#p90771f0a72)">
     <use style="fill:#333333;stroke:#333333;stroke-width:0.886227;" x="268.448869" xlink:href="#m292a3245b0" y="19.296"/>
    </g>
   </g>
   <g id="LineCollection_15">
    <path clip-path="url(#p90771f0a72)" d="M 268.448869 53.653183 
L 268.448869 34.439662 
" style="fill:none;stroke:#333333;stroke-width:0.886227;"/>
    <path clip-path="url(#p90771f0a72)" d="M 268.448869 72.014873 
L 268.448869 91.228394 
" style="fill:none;stroke:#333333;stroke-width:0.886227;"/>
   </g>
   <g id="PolyCollection_8">
    <defs>
     <path d="M 257.491778 -246.854754 
L 257.491778 -246.854754 
L 279.40596 -246.854754 
L 279.40596 -228.493064 
L 257.491778 -228.493064 
z
" id="mc78dc6ce67" style="stroke:#333333;stroke-width:0.886227;"/>
    </defs>
    <g clip-path="url(#p90771f0a72)">
     <use style="fill:#42be71;stroke:#333333;stroke-width:0.886227;" x="0" xlink:href="#mc78dc6ce67" y="300.507937"/>
    </g>
   </g>
   <g id="LineCollection_16">
    <path clip-path="url(#p90771f0a72)" d="M 257.491778 64.726986 
L 279.40596 64.726986 
" style="fill:none;stroke:#333333;stroke-width:1.772454;"/>
   </g>
   <g id="LineCollection_17">
    <path clip-path="url(#p90771f0a72)" d="M 292.79796 49.77262 
L 292.79796 19.296 
" style="fill:none;stroke:#333333;stroke-width:0.886227;"/>
    <path clip-path="url(#p90771f0a72)" d="M 292.79796 71.25769 
L 292.79796 90.849803 
" style="fill:none;stroke:#333333;stroke-width:0.886227;"/>
   </g>
   <g id="PolyCollection_9">
    <defs>
     <path d="M 281.840869 -250.735318 
L 281.840869 -250.735318 
L 303.755051 -250.735318 
L 303.755051 -229.250247 
L 281.840869 -229.250247 
z
" id="m2862773347" style="stroke:#333333;stroke-width:0.886227;"/>
    </defs>
    <g clip-path="url(#p90771f0a72)">
     <use style="fill:#7ad151;stroke:#333333;stroke-width:0.886227;" x="0" xlink:href="#m2862773347" y="300.507937"/>
    </g>
   </g>
   <g id="LineCollection_18">
    <path clip-path="url(#p90771f0a72)" d="M 281.840869 60.94107 
L 303.755051 60.94107 
" style="fill:none;stroke:#333333;stroke-width:1.772454;"/>
   </g>
   <g id="PathCollection_9">
    <path clip-path="url(#p90771f0a72)" d="M 317.147051 73.692679 
C 317.617111 73.692679 318.067982 73.505922 318.400365 73.173539 
C 318.732748 72.841157 318.919505 72.390286 318.919505 71.920225 
C 318.919505 71.450165 318.732748 70.999294 318.400365 70.666911 
C 318.067982 70.334528 317.617111 70.147772 317.147051 70.147772 
C 316.676991 70.147772 316.22612 70.334528 315.893737 70.666911 
C 315.561354 70.999294 315.374597 71.450165 315.374597 71.920225 
C 315.374597 72.390286 315.561354 72.841157 315.893737 73.173539 
C 316.22612 73.505922 316.676991 73.692679 317.147051 73.692679 
z
" style="fill:#333333;stroke:#333333;stroke-width:0.886227;"/>
    <path clip-path="url(#p90771f0a72)" d="M 317.147051 71.799721 
C 317.617111 71.799721 318.067982 71.612965 318.400365 71.280582 
C 318.732748 70.948199 318.919505 70.497328 318.919505 70.027268 
C 318.919505 69.557207 318.732748 69.106336 318.400365 68.773953 
C 318.067982 68.441571 317.617111 68.254814 317.147051 68.254814 
C 316.676991 68.254814 316.22612 68.441571 315.893737 68.773953 
C 315.561354 69.106336 315.374597 69.557207 315.374597 70.027268 
C 315.374597 70.497328 315.561354 70.948199 315.893737 71.280582 
C 316.22612 71.612965 316.676991 71.799721 317.147051 71.799721 
z
" style="fill:#333333;stroke:#333333;stroke-width:0.886227;"/>
    <path clip-path="url(#p90771f0a72)" d="M 317.147051 43.783947 
C 317.617111 43.783947 318.067982 43.59719 318.400365 43.264807 
C 318.732748 42.932424 318.919505 42.481553 318.919505 42.011493 
C 318.919505 41.541433 318.732748 41.090562 318.400365 40.758179 
C 318.067982 40.425796 317.617111 40.239039 317.147051 40.239039 
C 316.676991 40.239039 316.22612 40.425796 315.893737 40.758179 
C 315.561354 41.090562 315.374597 41.541433 315.374597 42.011493 
C 315.374597 42.481553 315.561354 42.932424 315.893737 43.264807 
C 316.22612 43.59719 316.676991 43.783947 317.147051 43.783947 
z
" style="fill:#333333;stroke:#333333;stroke-width:0.886227;"/>
   </g>
   <g id="LineCollection_19">
    <path clip-path="url(#p90771f0a72)" d="M 317.147051 50.719099 
L 317.147051 42.768676 
" style="fill:none;stroke:#333333;stroke-width:0.886227;"/>
    <path clip-path="url(#p90771f0a72)" d="M 317.147051 56.114028 
L 317.147051 63.591211 
" style="fill:none;stroke:#333333;stroke-width:0.886227;"/>
   </g>
   <g id="PolyCollection_10">
    <defs>
     <path d="M 306.18996 -249.788839 
L 306.18996 -249.788839 
L 328.104142 -249.788839 
L 328.104142 -244.393909 
L 306.18996 -244.393909 
z
" id="m4dd383f712" style="stroke:#333333;stroke-width:0.886227;"/>
    </defs>
    <g clip-path="url(#p90771f0a72)">
     <use style="fill:#bddf26;stroke:#333333;stroke-width:0.886227;" x="0" xlink:href="#m4dd383f712" y="300.507937"/>
    </g>
   </g>
   <g id="LineCollection_20">
    <path clip-path="url(#p90771f0a72)" d="M 306.18996 52.990648 
L 328.104142 52.990648 
" style="fill:none;stroke:#333333;stroke-width:1.772454;"/>
   </g>
   <g id="PathCollection_10">
    <path clip-path="url(#p90771f0a72)" d="M 341.496142 72.556905 
C 341.966202 72.556905 342.417073 72.370148 342.749456 72.037765 
C 343.081839 71.705382 343.268596 71.254511 343.268596 70.784451 
C 343.268596 70.31439 343.081839 69.863519 342.749456 69.531137 
C 342.417073 69.198754 341.966202 69.011997 341.496142 69.011997 
C 341.026082 69.011997 340.575211 69.198754 340.242828 69.531137 
C 339.910445 69.863519 339.723688 70.31439 339.723688 70.784451 
C 339.723688 71.254511 339.910445 71.705382 340.242828 72.037765 
C 340.575211 72.370148 341.026082 72.556905 341.496142 72.556905 
z
" style="fill:#333333;stroke:#333333;stroke-width:0.886227;"/>
    <path clip-path="url(#p90771f0a72)" d="M 341.496142 72.935496 
C 341.966202 72.935496 342.417073 72.748739 342.749456 72.416356 
C 343.081839 72.083974 343.268596 71.633103 343.268596 71.163042 
C 343.268596 70.692982 343.081839 70.242111 342.749456 69.909728 
C 342.417073 69.577345 341.966202 69.390588 341.496142 69.390588 
C 341.026082 69.390588 340.575211 69.577345 340.242828 69.909728 
C 339.910445 70.242111 339.723688 70.692982 339.723688 71.163042 
C 339.723688 71.633103 339.910445 72.083974 340.242828 72.416356 
C 340.575211 72.748739 341.026082 72.935496 341.496142 72.935496 
z
" style="fill:#333333;stroke:#333333;stroke-width:0.886227;"/>
    <path clip-path="url(#p90771f0a72)" d="M 341.496142 72.556905 
C 341.966202 72.556905 342.417073 72.370148 342.749456 72.037765 
C 343.081839 71.705382 343.268596 71.254511 343.268596 70.784451 
C 343.268596 70.31439 343.081839 69.863519 342.749456 69.531137 
C 342.417073 69.198754 341.966202 69.011997 341.496142 69.011997 
C 341.026082 69.011997 340.575211 69.198754 340.242828 69.531137 
C 339.910445 69.863519 339.723688 70.31439 339.723688 70.784451 
C 339.723688 71.254511 339.910445 71.705382 340.242828 72.037765 
C 340.575211 72.370148 341.026082 72.556905 341.496142 72.556905 
z
" style="fill:#333333;stroke:#333333;stroke-width:0.886227;"/>
    <path clip-path="url(#p90771f0a72)" d="M 341.496142 72.556905 
C 341.966202 72.556905 342.417073 72.370148 342.749456 72.037765 
C 343.081839 71.705382 343.268596 71.254511 343.268596 70.784451 
C 343.268596 70.31439 343.081839 69.863519 342.749456 69.531137 
C 342.417073 69.198754 341.966202 69.011997 341.496142 69.011997 
C 341.026082 69.011997 340.575211 69.198754 340.242828 69.531137 
C 339.910445 69.863519 339.723688 70.31439 339.723688 70.784451 
C 339.723688 71.254511 339.910445 71.705382 340.242828 72.037765 
C 340.575211 72.370148 341.026082 72.556905 341.496142 72.556905 
z
" style="fill:#333333;stroke:#333333;stroke-width:0.886227;"/>
    <path clip-path="url(#p90771f0a72)" d="M 341.496142 72.556905 
C 341.966202 72.556905 342.417073 72.370148 342.749456 72.037765 
C 343.081839 71.705382 343.268596 71.254511 343.268596 70.784451 
C 343.268596 70.31439 343.081839 69.863519 342.749456 69.531137 
C 342.417073 69.198754 341.966202 69.011997 341.496142 69.011997 
C 341.026082 69.011997 340.575211 69.198754 340.242828 69.531137 
C 339.910445 69.863519 339.723688 70.31439 339.723688 70.784451 
C 339.723688 71.254511 339.910445 71.705382 340.242828 72.037765 
C 340.575211 72.370148 341.026082 72.556905 341.496142 72.556905 
z
" style="fill:#333333;stroke:#333333;stroke-width:0.886227;"/>
    <path clip-path="url(#p90771f0a72)" d="M 341.496142 72.556905 
C 341.966202 72.556905 342.417073 72.370148 342.749456 72.037765 
C 343.081839 71.705382 343.268596 71.254511 343.268596 70.784451 
C 343.268596 70.31439 343.081839 69.863519 342.749456 69.531137 
C 342.417073 69.198754 341.966202 69.011997 341.496142 69.011997 
C 341.026082 69.011997 340.575211 69.198754 340.242828 69.531137 
C 339.910445 69.863519 339.723688 70.31439 339.723688 70.784451 
C 339.723688 71.254511 339.910445 71.705382 340.242828 72.037765 
C 340.575211 72.370148 341.026082 72.556905 341.496142 72.556905 
z
" style="fill:#333333;stroke:#333333;stroke-width:0.886227;"/>
    <path clip-path="url(#p90771f0a72)" d="M 341.496142 72.556905 
C 341.966202 72.556905 342.417073 72.370148 342.749456 72.037765 
C 343.081839 71.705382 343.268596 71.254511 343.268596 70.784451 
C 343.268596 70.31439 343.081839 69.863519 342.749456 69.531137 
C 342.417073 69.198754 341.966202 69.011997 341.496142 69.011997 
C 341.026082 69.011997 340.575211 69.198754 340.242828 69.531137 
C 339.910445 69.863519 339.723688 70.31439 339.723688 70.784451 
C 339.723688 71.254511 339.910445 71.705382 340.242828 72.037765 
C 340.575211 72.370148 341.026082 72.556905 341.496142 72.556905 
z
" style="fill:#333333;stroke:#333333;stroke-width:0.886227;"/>
    <path clip-path="url(#p90771f0a72)" d="M 341.496142 70.285355 
C 341.966202 70.285355 342.417073 70.098598 342.749456 69.766216 
C 343.081839 69.433833 343.268596 68.982962 343.268596 68.512901 
C 343.268596 68.042841 343.081839 67.59197 342.749456 67.259587 
C 342.417073 66.927204 341.966202 66.740448 341.496142 66.740448 
C 341.026082 66.740448 340.575211 66.927204 340.242828 67.259587 
C 339.910445 67.59197 339.723688 68.042841 339.723688 68.512901 
C 339.723688 68.982962 339.910445 69.433833 340.242828 69.766216 
C 340.575211 70.098598 341.026082 70.285355 341.496142 70.285355 
z
" style="fill:#333333;stroke:#333333;stroke-width:0.886227;"/>
   </g>
   <g id="LineCollection_21">
    <path clip-path="url(#p90771f0a72)" d="M 341.496142 69.554028 
L 341.496142 68.891493 
" style="fill:none;stroke:#333333;stroke-width:0.886227;"/>
    <path clip-path="url(#p90771f0a72)" d="M 341.496142 70.027268 
L 341.496142 70.405859 
" style="fill:none;stroke:#333333;stroke-width:0.886227;"/>
   </g>
   <g id="PolyCollection_11">
    <defs>
     <path d="M 330.539051 -230.953909 
L 330.539051 -230.953909 
L 352.453233 -230.953909 
L 352.453233 -230.48067 
L 330.539051 -230.48067 
z
" id="mab0ee24186" style="stroke:#333333;stroke-width:0.886227;"/>
    </defs>
    <g clip-path="url(#p90771f0a72)">
     <use style="fill:#fde725;stroke:#333333;stroke-width:0.886227;" x="0" xlink:href="#mab0ee24186" y="300.507937"/>
    </g>
   </g>
   <g id="LineCollection_22">
    <path clip-path="url(#p90771f0a72)" d="M 330.539051 69.648676 
L 352.453233 69.648676 
" style="fill:none;stroke:#333333;stroke-width:1.772454;"/>
   </g>
   <g id="patch_3">
    <path d="M 405.510688 255.370969 
L 528.282063 255.370969 
L 528.282063 21.685031 
L 405.510688 21.685031 
z
" style="fill:#ffffff;"/>
   </g>
   <g id="text_7">
    <!-- variable -->
    <defs>
     <path d="M 41.109375 46.296875 
Q 39.59375 47.171875 37.8125 47.578125 
Q 36.03125 48 33.890625 48 
Q 26.265625 48 22.1875 43.046875 
Q 18.109375 38.09375 18.109375 28.8125 
L 18.109375 0 
L 9.078125 0 
L 9.078125 54.6875 
L 18.109375 54.6875 
L 18.109375 46.1875 
Q 20.953125 51.171875 25.484375 53.578125 
Q 30.03125 56 36.53125 56 
Q 37.453125 56 38.578125 55.875 
Q 39.703125 55.765625 41.0625 55.515625 
z
" id="DejaVuSans-114"/>
     <path d="M 48.6875 27.296875 
Q 48.6875 37.203125 44.609375 42.84375 
Q 40.53125 48.484375 33.40625 48.484375 
Q 26.265625 48.484375 22.1875 42.84375 
Q 18.109375 37.203125 18.109375 27.296875 
Q 18.109375 17.390625 22.1875 11.75 
Q 26.265625 6.109375 33.40625 6.109375 
Q 40.53125 6.109375 44.609375 11.75 
Q 48.6875 17.390625 48.6875 27.296875 
z
M 18.109375 46.390625 
Q 20.953125 51.265625 25.265625 53.625 
Q 29.59375 56 35.59375 56 
Q 45.5625 56 51.78125 48.09375 
Q 58.015625 40.1875 58.015625 27.296875 
Q 58.015625 14.40625 51.78125 6.484375 
Q 45.5625 -1.421875 35.59375 -1.421875 
Q 29.59375 -1.421875 25.265625 0.953125 
Q 20.953125 3.328125 18.109375 8.203125 
L 18.109375 0 
L 9.078125 0 
L 9.078125 75.984375 
L 18.109375 75.984375 
z
" id="DejaVuSans-98"/>
    </defs>
    <g transform="translate(417.710688 45.278625)scale(0.11 -0.11)">
     <use xlink:href="#DejaVuSans-118"/>
     <use x="59.179688" xlink:href="#DejaVuSans-97"/>
     <use x="120.458984" xlink:href="#DejaVuSans-114"/>
     <use x="161.572266" xlink:href="#DejaVuSans-105"/>
     <use x="189.355469" xlink:href="#DejaVuSans-97"/>
     <use x="250.634766" xlink:href="#DejaVuSans-98"/>
     <use x="314.111328" xlink:href="#DejaVuSans-108"/>
     <use x="341.894531" xlink:href="#DejaVuSans-101"/>
    </g>
   </g>
   <g id="patch_4">
    <path clip-path="url(#p07a980a3df)" d="M 417.710688 64.770969 
L 433.550687 64.770969 
L 433.550687 48.930969 
L 417.710688 48.930969 
z
" style="fill:#f2f2f2;"/>
   </g>
   <g id="patch_5">
    <path clip-path="url(#p07a980a3df)" d="M 419.690688 60.810969 
L 431.570688 60.810969 
L 431.570688 52.890969 
L 419.690688 52.890969 
z
" style="fill:#440154;stroke:#333333;stroke-linecap:square;stroke-linejoin:miter;stroke-width:0.5;"/>
   </g>
   <g id="line2d_14">
    <path clip-path="url(#p07a980a3df)" d="M 419.690688 56.850969 
L 431.570688 56.850969 
" style="fill:none;stroke:#333333;stroke-width:0.886227;"/>
   </g>
   <g id="line2d_15">
    <path clip-path="url(#p07a980a3df)" d="M 425.630688 52.890969 
L 425.630688 50.514969 
" style="fill:none;stroke:#333333;stroke-width:0.886227;"/>
   </g>
   <g id="line2d_16">
    <path clip-path="url(#p07a980a3df)" d="M 425.630688 60.810969 
L 425.630688 63.186969 
" style="fill:none;stroke:#333333;stroke-width:0.886227;"/>
   </g>
   <g id="text_8">
    <!-- alphaStandard -->
    <defs>
     <path d="M 18.109375 8.203125 
L 18.109375 -20.796875 
L 9.078125 -20.796875 
L 9.078125 54.6875 
L 18.109375 54.6875 
L 18.109375 46.390625 
Q 20.953125 51.265625 25.265625 53.625 
Q 29.59375 56 35.59375 56 
Q 45.5625 56 51.78125 48.09375 
Q 58.015625 40.1875 58.015625 27.296875 
Q 58.015625 14.40625 51.78125 6.484375 
Q 45.5625 -1.421875 35.59375 -1.421875 
Q 29.59375 -1.421875 25.265625 0.953125 
Q 20.953125 3.328125 18.109375 8.203125 
z
M 48.6875 27.296875 
Q 48.6875 37.203125 44.609375 42.84375 
Q 40.53125 48.484375 33.40625 48.484375 
Q 26.265625 48.484375 22.1875 42.84375 
Q 18.109375 37.203125 18.109375 27.296875 
Q 18.109375 17.390625 22.1875 11.75 
Q 26.265625 6.109375 33.40625 6.109375 
Q 40.53125 6.109375 44.609375 11.75 
Q 48.6875 17.390625 48.6875 27.296875 
z
" id="DejaVuSans-112"/>
     <path d="M 54.890625 33.015625 
L 54.890625 0 
L 45.90625 0 
L 45.90625 32.71875 
Q 45.90625 40.484375 42.875 44.328125 
Q 39.84375 48.1875 33.796875 48.1875 
Q 26.515625 48.1875 22.3125 43.546875 
Q 18.109375 38.921875 18.109375 30.90625 
L 18.109375 0 
L 9.078125 0 
L 9.078125 75.984375 
L 18.109375 75.984375 
L 18.109375 46.1875 
Q 21.34375 51.125 25.703125 53.5625 
Q 30.078125 56 35.796875 56 
Q 45.21875 56 50.046875 50.171875 
Q 54.890625 44.34375 54.890625 33.015625 
z
" id="DejaVuSans-104"/>
     <path d="M 53.515625 70.515625 
L 53.515625 60.890625 
Q 47.90625 63.578125 42.921875 64.890625 
Q 37.9375 66.21875 33.296875 66.21875 
Q 25.25 66.21875 20.875 63.09375 
Q 16.5 59.96875 16.5 54.203125 
Q 16.5 49.359375 19.40625 46.890625 
Q 22.3125 44.4375 30.421875 42.921875 
L 36.375 41.703125 
Q 47.40625 39.59375 52.65625 34.296875 
Q 57.90625 29 57.90625 20.125 
Q 57.90625 9.515625 50.796875 4.046875 
Q 43.703125 -1.421875 29.984375 -1.421875 
Q 24.8125 -1.421875 18.96875 -0.25 
Q 13.140625 0.921875 6.890625 3.21875 
L 6.890625 13.375 
Q 12.890625 10.015625 18.65625 8.296875 
Q 24.421875 6.59375 29.984375 6.59375 
Q 38.421875 6.59375 43.015625 9.90625 
Q 47.609375 13.234375 47.609375 19.390625 
Q 47.609375 24.75 44.3125 27.78125 
Q 41.015625 30.8125 33.5 32.328125 
L 27.484375 33.5 
Q 16.453125 35.6875 11.515625 40.375 
Q 6.59375 45.0625 6.59375 53.421875 
Q 6.59375 63.09375 13.40625 68.65625 
Q 20.21875 74.21875 32.171875 74.21875 
Q 37.3125 74.21875 42.625 73.28125 
Q 47.953125 72.359375 53.515625 70.515625 
z
" id="DejaVuSans-83"/>
     <path d="M 45.40625 46.390625 
L 45.40625 75.984375 
L 54.390625 75.984375 
L 54.390625 0 
L 45.40625 0 
L 45.40625 8.203125 
Q 42.578125 3.328125 38.25 0.953125 
Q 33.9375 -1.421875 27.875 -1.421875 
Q 17.96875 -1.421875 11.734375 6.484375 
Q 5.515625 14.40625 5.515625 27.296875 
Q 5.515625 40.1875 11.734375 48.09375 
Q 17.96875 56 27.875 56 
Q 33.9375 56 38.25 53.625 
Q 42.578125 51.265625 45.40625 46.390625 
z
M 14.796875 27.296875 
Q 14.796875 17.390625 18.875 11.75 
Q 22.953125 6.109375 30.078125 6.109375 
Q 37.203125 6.109375 41.296875 11.75 
Q 45.40625 17.390625 45.40625 27.296875 
Q 45.40625 37.203125 41.296875 42.84375 
Q 37.203125 48.484375 30.078125 48.484375 
Q 22.953125 48.484375 18.875 42.84375 
Q 14.796875 37.203125 14.796875 27.296875 
z
" id="DejaVuSans-100"/>
    </defs>
    <g transform="translate(436.550687 59.279219)scale(0.088 -0.088)">
     <use xlink:href="#DejaVuSans-97"/>
     <use x="61.279297" xlink:href="#DejaVuSans-108"/>
     <use x="89.0625" xlink:href="#DejaVuSans-112"/>
     <use x="152.539062" xlink:href="#DejaVuSans-104"/>
     <use x="215.917969" xlink:href="#DejaVuSans-97"/>
     <use x="277.197266" xlink:href="#DejaVuSans-83"/>
     <use x="340.673828" xlink:href="#DejaVuSans-116"/>
     <use x="379.882812" xlink:href="#DejaVuSans-97"/>
     <use x="441.162109" xlink:href="#DejaVuSans-110"/>
     <use x="504.541016" xlink:href="#DejaVuSans-100"/>
     <use x="568.017578" xlink:href="#DejaVuSans-97"/>
     <use x="629.296875" xlink:href="#DejaVuSans-114"/>
     <use x="670.394531" xlink:href="#DejaVuSans-100"/>
    </g>
   </g>
   <g id="patch_6">
    <path clip-path="url(#p7ed151b7b5)" d="M 417.710688 82.610969 
L 433.550687 82.610969 
L 433.550687 66.770969 
L 417.710688 66.770969 
z
" style="fill:#f2f2f2;"/>
   </g>
   <g id="patch_7">
    <path clip-path="url(#p7ed151b7b5)" d="M 419.690688 78.650969 
L 431.570688 78.650969 
L 431.570688 70.730969 
L 419.690688 70.730969 
z
" style="fill:#482576;stroke:#333333;stroke-linecap:square;stroke-linejoin:miter;stroke-width:0.5;"/>
   </g>
   <g id="line2d_17">
    <path clip-path="url(#p7ed151b7b5)" d="M 419.690688 74.690969 
L 431.570688 74.690969 
" style="fill:none;stroke:#333333;stroke-width:0.886227;"/>
   </g>
   <g id="line2d_18">
    <path clip-path="url(#p7ed151b7b5)" d="M 425.630688 70.730969 
L 425.630688 68.354969 
" style="fill:none;stroke:#333333;stroke-width:0.886227;"/>
   </g>
   <g id="line2d_19">
    <path clip-path="url(#p7ed151b7b5)" d="M 425.630688 78.650969 
L 425.630688 81.026969 
" style="fill:none;stroke:#333333;stroke-width:0.886227;"/>
   </g>
   <g id="text_9">
    <!-- alphaEMKT1 -->
    <defs>
     <path d="M 9.8125 72.90625 
L 55.90625 72.90625 
L 55.90625 64.59375 
L 19.671875 64.59375 
L 19.671875 43.015625 
L 54.390625 43.015625 
L 54.390625 34.71875 
L 19.671875 34.71875 
L 19.671875 8.296875 
L 56.78125 8.296875 
L 56.78125 0 
L 9.8125 0 
z
" id="DejaVuSans-69"/>
     <path d="M 9.8125 72.90625 
L 24.515625 72.90625 
L 43.109375 23.296875 
L 61.8125 72.90625 
L 76.515625 72.90625 
L 76.515625 0 
L 66.890625 0 
L 66.890625 64.015625 
L 48.09375 14.015625 
L 38.1875 14.015625 
L 19.390625 64.015625 
L 19.390625 0 
L 9.8125 0 
z
" id="DejaVuSans-77"/>
     <path d="M 9.8125 72.90625 
L 19.671875 72.90625 
L 19.671875 42.09375 
L 52.390625 72.90625 
L 65.09375 72.90625 
L 28.90625 38.921875 
L 67.671875 0 
L 54.6875 0 
L 19.671875 35.109375 
L 19.671875 0 
L 9.8125 0 
z
" id="DejaVuSans-75"/>
     <path d="M -0.296875 72.90625 
L 61.375 72.90625 
L 61.375 64.59375 
L 35.5 64.59375 
L 35.5 0 
L 25.59375 0 
L 25.59375 64.59375 
L -0.296875 64.59375 
z
" id="DejaVuSans-84"/>
     <path d="M 12.40625 8.296875 
L 28.515625 8.296875 
L 28.515625 63.921875 
L 10.984375 60.40625 
L 10.984375 69.390625 
L 28.421875 72.90625 
L 38.28125 72.90625 
L 38.28125 8.296875 
L 54.390625 8.296875 
L 54.390625 0 
L 12.40625 0 
z
" id="DejaVuSans-49"/>
    </defs>
    <g transform="translate(436.550687 77.119219)scale(0.088 -0.088)">
     <use xlink:href="#DejaVuSans-97"/>
     <use x="61.279297" xlink:href="#DejaVuSans-108"/>
     <use x="89.0625" xlink:href="#DejaVuSans-112"/>
     <use x="152.539062" xlink:href="#DejaVuSans-104"/>
     <use x="215.917969" xlink:href="#DejaVuSans-97"/>
     <use x="277.197266" xlink:href="#DejaVuSans-69"/>
     <use x="340.380859" xlink:href="#DejaVuSans-77"/>
     <use x="426.660156" xlink:href="#DejaVuSans-75"/>
     <use x="492.126953" xlink:href="#DejaVuSans-84"/>
     <use x="553.210938" xlink:href="#DejaVuSans-49"/>
    </g>
   </g>
   <g id="patch_8">
    <path clip-path="url(#p53bd463284)" d="M 417.710688 100.450969 
L 433.550687 100.450969 
L 433.550687 84.610969 
L 417.710688 84.610969 
z
" style="fill:#f2f2f2;"/>
   </g>
   <g id="patch_9">
    <path clip-path="url(#p53bd463284)" d="M 419.690688 96.490969 
L 431.570688 96.490969 
L 431.570688 88.570969 
L 419.690688 88.570969 
z
" style="fill:#414487;stroke:#333333;stroke-linecap:square;stroke-linejoin:miter;stroke-width:0.5;"/>
   </g>
   <g id="line2d_20">
    <path clip-path="url(#p53bd463284)" d="M 419.690688 92.530969 
L 431.570688 92.530969 
" style="fill:none;stroke:#333333;stroke-width:0.886227;"/>
   </g>
   <g id="line2d_21">
    <path clip-path="url(#p53bd463284)" d="M 425.630688 88.570969 
L 425.630688 86.194969 
" style="fill:none;stroke:#333333;stroke-width:0.886227;"/>
   </g>
   <g id="line2d_22">
    <path clip-path="url(#p53bd463284)" d="M 425.630688 96.490969 
L 425.630688 98.866969 
" style="fill:none;stroke:#333333;stroke-width:0.886227;"/>
   </g>
   <g id="text_10">
    <!-- alphaEMKT2 -->
    <g transform="translate(436.550687 94.959219)scale(0.088 -0.088)">
     <use xlink:href="#DejaVuSans-97"/>
     <use x="61.279297" xlink:href="#DejaVuSans-108"/>
     <use x="89.0625" xlink:href="#DejaVuSans-112"/>
     <use x="152.539062" xlink:href="#DejaVuSans-104"/>
     <use x="215.917969" xlink:href="#DejaVuSans-97"/>
     <use x="277.197266" xlink:href="#DejaVuSans-69"/>
     <use x="340.380859" xlink:href="#DejaVuSans-77"/>
     <use x="426.660156" xlink:href="#DejaVuSans-75"/>
     <use x="492.126953" xlink:href="#DejaVuSans-84"/>
     <use x="553.210938" xlink:href="#DejaVuSans-50"/>
    </g>
   </g>
   <g id="patch_10">
    <path clip-path="url(#p7d38335c56)" d="M 417.710688 118.290969 
L 433.550687 118.290969 
L 433.550687 102.450969 
L 417.710688 102.450969 
z
" style="fill:#f2f2f2;"/>
   </g>
   <g id="patch_11">
    <path clip-path="url(#p7d38335c56)" d="M 419.690688 114.330969 
L 431.570688 114.330969 
L 431.570688 106.410969 
L 419.690688 106.410969 
z
" style="fill:#355f8d;stroke:#333333;stroke-linecap:square;stroke-linejoin:miter;stroke-width:0.5;"/>
   </g>
   <g id="line2d_23">
    <path clip-path="url(#p7d38335c56)" d="M 419.690688 110.370969 
L 431.570688 110.370969 
" style="fill:none;stroke:#333333;stroke-width:0.886227;"/>
   </g>
   <g id="line2d_24">
    <path clip-path="url(#p7d38335c56)" d="M 425.630688 106.410969 
L 425.630688 104.034969 
" style="fill:none;stroke:#333333;stroke-width:0.886227;"/>
   </g>
   <g id="line2d_25">
    <path clip-path="url(#p7d38335c56)" d="M 425.630688 114.330969 
L 425.630688 116.706969 
" style="fill:none;stroke:#333333;stroke-width:0.886227;"/>
   </g>
   <g id="text_11">
    <!-- alphaFWW1 -->
    <defs>
     <path d="M 9.8125 72.90625 
L 51.703125 72.90625 
L 51.703125 64.59375 
L 19.671875 64.59375 
L 19.671875 43.109375 
L 48.578125 43.109375 
L 48.578125 34.8125 
L 19.671875 34.8125 
L 19.671875 0 
L 9.8125 0 
z
" id="DejaVuSans-70"/>
     <path d="M 3.328125 72.90625 
L 13.28125 72.90625 
L 28.609375 11.28125 
L 43.890625 72.90625 
L 54.984375 72.90625 
L 70.3125 11.28125 
L 85.59375 72.90625 
L 95.609375 72.90625 
L 77.296875 0 
L 64.890625 0 
L 49.515625 63.28125 
L 33.984375 0 
L 21.578125 0 
z
" id="DejaVuSans-87"/>
    </defs>
    <g transform="translate(436.550687 112.799219)scale(0.088 -0.088)">
     <use xlink:href="#DejaVuSans-97"/>
     <use x="61.279297" xlink:href="#DejaVuSans-108"/>
     <use x="89.0625" xlink:href="#DejaVuSans-112"/>
     <use x="152.539062" xlink:href="#DejaVuSans-104"/>
     <use x="215.917969" xlink:href="#DejaVuSans-97"/>
     <use x="277.197266" xlink:href="#DejaVuSans-70"/>
     <use x="334.716797" xlink:href="#DejaVuSans-87"/>
     <use x="433.59375" xlink:href="#DejaVuSans-87"/>
     <use x="532.470703" xlink:href="#DejaVuSans-49"/>
    </g>
   </g>
   <g id="patch_12">
    <path clip-path="url(#p598f037640)" d="M 417.710688 136.130969 
L 433.550687 136.130969 
L 433.550687 120.290969 
L 417.710688 120.290969 
z
" style="fill:#f2f2f2;"/>
   </g>
   <g id="patch_13">
    <path clip-path="url(#p598f037640)" d="M 419.690688 132.170969 
L 431.570688 132.170969 
L 431.570688 124.250969 
L 419.690688 124.250969 
z
" style="fill:#2a788e;stroke:#333333;stroke-linecap:square;stroke-linejoin:miter;stroke-width:0.5;"/>
   </g>
   <g id="line2d_26">
    <path clip-path="url(#p598f037640)" d="M 419.690688 128.210969 
L 431.570688 128.210969 
" style="fill:none;stroke:#333333;stroke-width:0.886227;"/>
   </g>
   <g id="line2d_27">
    <path clip-path="url(#p598f037640)" d="M 425.630688 124.250969 
L 425.630688 121.874969 
" style="fill:none;stroke:#333333;stroke-width:0.886227;"/>
   </g>
   <g id="line2d_28">
    <path clip-path="url(#p598f037640)" d="M 425.630688 132.170969 
L 425.630688 134.546969 
" style="fill:none;stroke:#333333;stroke-width:0.886227;"/>
   </g>
   <g id="text_12">
    <!-- alphaFWW2 -->
    <g transform="translate(436.550687 130.639219)scale(0.088 -0.088)">
     <use xlink:href="#DejaVuSans-97"/>
     <use x="61.279297" xlink:href="#DejaVuSans-108"/>
     <use x="89.0625" xlink:href="#DejaVuSans-112"/>
     <use x="152.539062" xlink:href="#DejaVuSans-104"/>
     <use x="215.917969" xlink:href="#DejaVuSans-97"/>
     <use x="277.197266" xlink:href="#DejaVuSans-70"/>
     <use x="334.716797" xlink:href="#DejaVuSans-87"/>
     <use x="433.59375" xlink:href="#DejaVuSans-87"/>
     <use x="532.470703" xlink:href="#DejaVuSans-50"/>
    </g>
   </g>
   <g id="patch_14">
    <path clip-path="url(#pb32f1b7b41)" d="M 417.710688 153.970969 
L 433.550687 153.970969 
L 433.550687 138.130969 
L 417.710688 138.130969 
z
" style="fill:#f2f2f2;"/>
   </g>
   <g id="patch_15">
    <path clip-path="url(#pb32f1b7b41)" d="M 419.690688 150.010969 
L 431.570688 150.010969 
L 431.570688 142.090969 
L 419.690688 142.090969 
z
" style="fill:#21918c;stroke:#333333;stroke-linecap:square;stroke-linejoin:miter;stroke-width:0.5;"/>
   </g>
   <g id="line2d_29">
    <path clip-path="url(#pb32f1b7b41)" d="M 419.690688 146.050969 
L 431.570688 146.050969 
" style="fill:none;stroke:#333333;stroke-width:0.886227;"/>
   </g>
   <g id="line2d_30">
    <path clip-path="url(#pb32f1b7b41)" d="M 425.630688 142.090969 
L 425.630688 139.714969 
" style="fill:none;stroke:#333333;stroke-width:0.886227;"/>
   </g>
   <g id="line2d_31">
    <path clip-path="url(#pb32f1b7b41)" d="M 425.630688 150.010969 
L 425.630688 152.386969 
" style="fill:none;stroke:#333333;stroke-width:0.886227;"/>
   </g>
   <g id="text_13">
    <!-- alphaIMP1 -->
    <defs>
     <path d="M 9.8125 72.90625 
L 19.671875 72.90625 
L 19.671875 0 
L 9.8125 0 
z
" id="DejaVuSans-73"/>
     <path d="M 19.671875 64.796875 
L 19.671875 37.40625 
L 32.078125 37.40625 
Q 38.96875 37.40625 42.71875 40.96875 
Q 46.484375 44.53125 46.484375 51.125 
Q 46.484375 57.671875 42.71875 61.234375 
Q 38.96875 64.796875 32.078125 64.796875 
z
M 9.8125 72.90625 
L 32.078125 72.90625 
Q 44.34375 72.90625 50.609375 67.359375 
Q 56.890625 61.8125 56.890625 51.125 
Q 56.890625 40.328125 50.609375 34.8125 
Q 44.34375 29.296875 32.078125 29.296875 
L 19.671875 29.296875 
L 19.671875 0 
L 9.8125 0 
z
" id="DejaVuSans-80"/>
    </defs>
    <g transform="translate(436.550687 148.479219)scale(0.088 -0.088)">
     <use xlink:href="#DejaVuSans-97"/>
     <use x="61.279297" xlink:href="#DejaVuSans-108"/>
     <use x="89.0625" xlink:href="#DejaVuSans-112"/>
     <use x="152.539062" xlink:href="#DejaVuSans-104"/>
     <use x="215.917969" xlink:href="#DejaVuSans-97"/>
     <use x="277.197266" xlink:href="#DejaVuSans-73"/>
     <use x="306.689453" xlink:href="#DejaVuSans-77"/>
     <use x="392.96875" xlink:href="#DejaVuSans-80"/>
     <use x="453.271484" xlink:href="#DejaVuSans-49"/>
    </g>
   </g>
   <g id="patch_16">
    <path clip-path="url(#p4032f0b7a2)" d="M 417.710688 171.810969 
L 433.550687 171.810969 
L 433.550687 155.970969 
L 417.710688 155.970969 
z
" style="fill:#f2f2f2;"/>
   </g>
   <g id="patch_17">
    <path clip-path="url(#p4032f0b7a2)" d="M 419.690688 167.850969 
L 431.570688 167.850969 
L 431.570688 159.930969 
L 419.690688 159.930969 
z
" style="fill:#22a884;stroke:#333333;stroke-linecap:square;stroke-linejoin:miter;stroke-width:0.5;"/>
   </g>
   <g id="line2d_32">
    <path clip-path="url(#p4032f0b7a2)" d="M 419.690688 163.890969 
L 431.570688 163.890969 
" style="fill:none;stroke:#333333;stroke-width:0.886227;"/>
   </g>
   <g id="line2d_33">
    <path clip-path="url(#p4032f0b7a2)" d="M 425.630688 159.930969 
L 425.630688 157.554969 
" style="fill:none;stroke:#333333;stroke-width:0.886227;"/>
   </g>
   <g id="line2d_34">
    <path clip-path="url(#p4032f0b7a2)" d="M 425.630688 167.850969 
L 425.630688 170.226969 
" style="fill:none;stroke:#333333;stroke-width:0.886227;"/>
   </g>
   <g id="text_14">
    <!-- alphaIMP2 -->
    <g transform="translate(436.550687 166.319219)scale(0.088 -0.088)">
     <use xlink:href="#DejaVuSans-97"/>
     <use x="61.279297" xlink:href="#DejaVuSans-108"/>
     <use x="89.0625" xlink:href="#DejaVuSans-112"/>
     <use x="152.539062" xlink:href="#DejaVuSans-104"/>
     <use x="215.917969" xlink:href="#DejaVuSans-97"/>
     <use x="277.197266" xlink:href="#DejaVuSans-73"/>
     <use x="306.689453" xlink:href="#DejaVuSans-77"/>
     <use x="392.96875" xlink:href="#DejaVuSans-80"/>
     <use x="453.271484" xlink:href="#DejaVuSans-50"/>
    </g>
   </g>
   <g id="patch_18">
    <path clip-path="url(#pfe81c3b6ad)" d="M 417.710688 189.650969 
L 433.550687 189.650969 
L 433.550687 173.810969 
L 417.710688 173.810969 
z
" style="fill:#f2f2f2;"/>
   </g>
   <g id="patch_19">
    <path clip-path="url(#pfe81c3b6ad)" d="M 419.690688 185.690969 
L 431.570688 185.690969 
L 431.570688 177.770969 
L 419.690688 177.770969 
z
" style="fill:#42be71;stroke:#333333;stroke-linecap:square;stroke-linejoin:miter;stroke-width:0.5;"/>
   </g>
   <g id="line2d_35">
    <path clip-path="url(#pfe81c3b6ad)" d="M 419.690688 181.730969 
L 431.570688 181.730969 
" style="fill:none;stroke:#333333;stroke-width:0.886227;"/>
   </g>
   <g id="line2d_36">
    <path clip-path="url(#pfe81c3b6ad)" d="M 425.630688 177.770969 
L 425.630688 175.394969 
" style="fill:none;stroke:#333333;stroke-width:0.886227;"/>
   </g>
   <g id="line2d_37">
    <path clip-path="url(#pfe81c3b6ad)" d="M 425.630688 185.690969 
L 425.630688 188.066969 
" style="fill:none;stroke:#333333;stroke-width:0.886227;"/>
   </g>
   <g id="text_15">
    <!-- alphaAsymptotic1 -->
    <defs>
     <path d="M 34.1875 63.1875 
L 20.796875 26.90625 
L 47.609375 26.90625 
z
M 28.609375 72.90625 
L 39.796875 72.90625 
L 67.578125 0 
L 57.328125 0 
L 50.6875 18.703125 
L 17.828125 18.703125 
L 11.1875 0 
L 0.78125 0 
z
" id="DejaVuSans-65"/>
     <path d="M 32.171875 -5.078125 
Q 28.375 -14.84375 24.75 -17.8125 
Q 21.140625 -20.796875 15.09375 -20.796875 
L 7.90625 -20.796875 
L 7.90625 -13.28125 
L 13.1875 -13.28125 
Q 16.890625 -13.28125 18.9375 -11.515625 
Q 21 -9.765625 23.484375 -3.21875 
L 25.09375 0.875 
L 2.984375 54.6875 
L 12.5 54.6875 
L 29.59375 11.921875 
L 46.6875 54.6875 
L 56.203125 54.6875 
z
" id="DejaVuSans-121"/>
     <path d="M 48.78125 52.59375 
L 48.78125 44.1875 
Q 44.96875 46.296875 41.140625 47.34375 
Q 37.3125 48.390625 33.40625 48.390625 
Q 24.65625 48.390625 19.8125 42.84375 
Q 14.984375 37.3125 14.984375 27.296875 
Q 14.984375 17.28125 19.8125 11.734375 
Q 24.65625 6.203125 33.40625 6.203125 
Q 37.3125 6.203125 41.140625 7.25 
Q 44.96875 8.296875 48.78125 10.40625 
L 48.78125 2.09375 
Q 45.015625 0.34375 40.984375 -0.53125 
Q 36.96875 -1.421875 32.421875 -1.421875 
Q 20.0625 -1.421875 12.78125 6.34375 
Q 5.515625 14.109375 5.515625 27.296875 
Q 5.515625 40.671875 12.859375 48.328125 
Q 20.21875 56 33.015625 56 
Q 37.15625 56 41.109375 55.140625 
Q 45.0625 54.296875 48.78125 52.59375 
z
" id="DejaVuSans-99"/>
    </defs>
    <g transform="translate(436.550687 184.159219)scale(0.088 -0.088)">
     <use xlink:href="#DejaVuSans-97"/>
     <use x="61.279297" xlink:href="#DejaVuSans-108"/>
     <use x="89.0625" xlink:href="#DejaVuSans-112"/>
     <use x="152.539062" xlink:href="#DejaVuSans-104"/>
     <use x="215.917969" xlink:href="#DejaVuSans-97"/>
     <use x="277.197266" xlink:href="#DejaVuSans-65"/>
     <use x="345.605469" xlink:href="#DejaVuSans-115"/>
     <use x="397.705078" xlink:href="#DejaVuSans-121"/>
     <use x="456.884766" xlink:href="#DejaVuSans-109"/>
     <use x="554.296875" xlink:href="#DejaVuSans-112"/>
     <use x="617.773438" xlink:href="#DejaVuSans-116"/>
     <use x="656.982422" xlink:href="#DejaVuSans-111"/>
     <use x="718.164062" xlink:href="#DejaVuSans-116"/>
     <use x="757.373047" xlink:href="#DejaVuSans-105"/>
     <use x="785.15625" xlink:href="#DejaVuSans-99"/>
     <use x="840.136719" xlink:href="#DejaVuSans-49"/>
    </g>
   </g>
   <g id="patch_20">
    <path clip-path="url(#pe6587075d5)" d="M 417.710688 207.490969 
L 433.550687 207.490969 
L 433.550687 191.650969 
L 417.710688 191.650969 
z
" style="fill:#f2f2f2;"/>
   </g>
   <g id="patch_21">
    <path clip-path="url(#pe6587075d5)" d="M 419.690688 203.530969 
L 431.570688 203.530969 
L 431.570688 195.610969 
L 419.690688 195.610969 
z
" style="fill:#7ad151;stroke:#333333;stroke-linecap:square;stroke-linejoin:miter;stroke-width:0.5;"/>
   </g>
   <g id="line2d_38">
    <path clip-path="url(#pe6587075d5)" d="M 419.690688 199.570969 
L 431.570688 199.570969 
" style="fill:none;stroke:#333333;stroke-width:0.886227;"/>
   </g>
   <g id="line2d_39">
    <path clip-path="url(#pe6587075d5)" d="M 425.630688 195.610969 
L 425.630688 193.234969 
" style="fill:none;stroke:#333333;stroke-width:0.886227;"/>
   </g>
   <g id="line2d_40">
    <path clip-path="url(#pe6587075d5)" d="M 425.630688 203.530969 
L 425.630688 205.906969 
" style="fill:none;stroke:#333333;stroke-width:0.886227;"/>
   </g>
   <g id="text_16">
    <!-- alphaAsymptotic2 -->
    <g transform="translate(436.550687 201.999219)scale(0.088 -0.088)">
     <use xlink:href="#DejaVuSans-97"/>
     <use x="61.279297" xlink:href="#DejaVuSans-108"/>
     <use x="89.0625" xlink:href="#DejaVuSans-112"/>
     <use x="152.539062" xlink:href="#DejaVuSans-104"/>
     <use x="215.917969" xlink:href="#DejaVuSans-97"/>
     <use x="277.197266" xlink:href="#DejaVuSans-65"/>
     <use x="345.605469" xlink:href="#DejaVuSans-115"/>
     <use x="397.705078" xlink:href="#DejaVuSans-121"/>
     <use x="456.884766" xlink:href="#DejaVuSans-109"/>
     <use x="554.296875" xlink:href="#DejaVuSans-112"/>
     <use x="617.773438" xlink:href="#DejaVuSans-116"/>
     <use x="656.982422" xlink:href="#DejaVuSans-111"/>
     <use x="718.164062" xlink:href="#DejaVuSans-116"/>
     <use x="757.373047" xlink:href="#DejaVuSans-105"/>
     <use x="785.15625" xlink:href="#DejaVuSans-99"/>
     <use x="840.136719" xlink:href="#DejaVuSans-50"/>
    </g>
   </g>
   <g id="patch_22">
    <path clip-path="url(#p510fd4beda)" d="M 417.710688 225.330969 
L 433.550687 225.330969 
L 433.550687 209.490969 
L 417.710688 209.490969 
z
" style="fill:#f2f2f2;"/>
   </g>
   <g id="patch_23">
    <path clip-path="url(#p510fd4beda)" d="M 419.690688 221.370969 
L 431.570688 221.370969 
L 431.570688 213.450969 
L 419.690688 213.450969 
z
" style="fill:#bddf26;stroke:#333333;stroke-linecap:square;stroke-linejoin:miter;stroke-width:0.5;"/>
   </g>
   <g id="line2d_41">
    <path clip-path="url(#p510fd4beda)" d="M 419.690688 217.410969 
L 431.570688 217.410969 
" style="fill:none;stroke:#333333;stroke-width:0.886227;"/>
   </g>
   <g id="line2d_42">
    <path clip-path="url(#p510fd4beda)" d="M 425.630688 213.450969 
L 425.630688 211.074969 
" style="fill:none;stroke:#333333;stroke-width:0.886227;"/>
   </g>
   <g id="line2d_43">
    <path clip-path="url(#p510fd4beda)" d="M 425.630688 221.370969 
L 425.630688 223.746969 
" style="fill:none;stroke:#333333;stroke-width:0.886227;"/>
   </g>
   <g id="text_17">
    <!-- grapes -->
    <defs>
     <path d="M 45.40625 27.984375 
Q 45.40625 37.75 41.375 43.109375 
Q 37.359375 48.484375 30.078125 48.484375 
Q 22.859375 48.484375 18.828125 43.109375 
Q 14.796875 37.75 14.796875 27.984375 
Q 14.796875 18.265625 18.828125 12.890625 
Q 22.859375 7.515625 30.078125 7.515625 
Q 37.359375 7.515625 41.375 12.890625 
Q 45.40625 18.265625 45.40625 27.984375 
z
M 54.390625 6.78125 
Q 54.390625 -7.171875 48.1875 -13.984375 
Q 42 -20.796875 29.203125 -20.796875 
Q 24.46875 -20.796875 20.265625 -20.09375 
Q 16.0625 -19.390625 12.109375 -17.921875 
L 12.109375 -9.1875 
Q 16.0625 -11.328125 19.921875 -12.34375 
Q 23.78125 -13.375 27.78125 -13.375 
Q 36.625 -13.375 41.015625 -8.765625 
Q 45.40625 -4.15625 45.40625 5.171875 
L 45.40625 9.625 
Q 42.625 4.78125 38.28125 2.390625 
Q 33.9375 0 27.875 0 
Q 17.828125 0 11.671875 7.65625 
Q 5.515625 15.328125 5.515625 27.984375 
Q 5.515625 40.671875 11.671875 48.328125 
Q 17.828125 56 27.875 56 
Q 33.9375 56 38.28125 53.609375 
Q 42.625 51.21875 45.40625 46.390625 
L 45.40625 54.6875 
L 54.390625 54.6875 
z
" id="DejaVuSans-103"/>
    </defs>
    <g transform="translate(436.550687 219.839219)scale(0.088 -0.088)">
     <use xlink:href="#DejaVuSans-103"/>
     <use x="63.476562" xlink:href="#DejaVuSans-114"/>
     <use x="104.589844" xlink:href="#DejaVuSans-97"/>
     <use x="165.869141" xlink:href="#DejaVuSans-112"/>
     <use x="229.345703" xlink:href="#DejaVuSans-101"/>
     <use x="290.869141" xlink:href="#DejaVuSans-115"/>
    </g>
   </g>
   <g id="patch_24">
    <path clip-path="url(#p42b95a757f)" d="M 417.710688 243.170969 
L 433.550687 243.170969 
L 433.550687 227.330969 
L 417.710688 227.330969 
z
" style="fill:#f2f2f2;"/>
   </g>
   <g id="patch_25">
    <path clip-path="url(#p42b95a757f)" d="M 419.690688 239.210969 
L 431.570688 239.210969 
L 431.570688 231.290969 
L 419.690688 231.290969 
z
" style="fill:#fde725;stroke:#333333;stroke-linecap:square;stroke-linejoin:miter;stroke-width:0.5;"/>
   </g>
   <g id="line2d_44">
    <path clip-path="url(#p42b95a757f)" d="M 419.690688 235.250969 
L 431.570688 235.250969 
" style="fill:none;stroke:#333333;stroke-width:0.886227;"/>
   </g>
   <g id="line2d_45">
    <path clip-path="url(#p42b95a757f)" d="M 425.630688 231.290969 
L 425.630688 228.914969 
" style="fill:none;stroke:#333333;stroke-width:0.886227;"/>
   </g>
   <g id="line2d_46">
    <path clip-path="url(#p42b95a757f)" d="M 425.630688 239.210969 
L 425.630688 241.586969 
" style="fill:none;stroke:#333333;stroke-width:0.886227;"/>
   </g>
   <g id="text_18">
    <!-- trueAlpha -->
    <g transform="translate(436.550687 237.679219)scale(0.088 -0.088)">
     <use xlink:href="#DejaVuSans-116"/>
     <use x="39.208984" xlink:href="#DejaVuSans-114"/>
     <use x="80.322266" xlink:href="#DejaVuSans-117"/>
     <use x="143.701172" xlink:href="#DejaVuSans-101"/>
     <use x="205.224609" xlink:href="#DejaVuSans-65"/>
     <use x="273.632812" xlink:href="#DejaVuSans-108"/>
     <use x="301.416016" xlink:href="#DejaVuSans-112"/>
     <use x="364.892578" xlink:href="#DejaVuSans-104"/>
     <use x="428.271484" xlink:href="#DejaVuSans-97"/>
    </g>
   </g>
  </g>
 </g>
 <defs>
  <clipPath id="p90771f0a72">
   <rect height="266.112" width="357.12" x="41.190688" y="7.2"/>
  </clipPath>
  <clipPath id="p07a980a3df">
   <path d="M 417.710688 64.770969 
L 417.710688 48.930969 
L 433.550687 48.930969 
L 433.550687 64.770969 
"/>
  </clipPath>
  <clipPath id="p7ed151b7b5">
   <path d="M 417.710688 82.610969 
L 417.710688 66.770969 
L 433.550687 66.770969 
L 433.550687 82.610969 
"/>
  </clipPath>
  <clipPath id="p53bd463284">
   <path d="M 417.710688 100.450969 
L 417.710688 84.610969 
L 433.550687 84.610969 
L 433.550687 100.450969 
"/>
  </clipPath>
  <clipPath id="p7d38335c56">
   <path d="M 417.710688 118.290969 
L 417.710688 102.450969 
L 433.550687 102.450969 
L 433.550687 118.290969 
"/>
  </clipPath>
  <clipPath id="p598f037640">
   <path d="M 417.710688 136.130969 
L 417.710688 120.290969 
L 433.550687 120.290969 
L 433.550687 136.130969 
"/>
  </clipPath>
  <clipPath id="pb32f1b7b41">
   <path d="M 417.710688 153.970969 
L 417.710688 138.130969 
L 433.550687 138.130969 
L 433.550687 153.970969 
"/>
  </clipPath>
  <clipPath id="p4032f0b7a2">
   <path d="M 417.710688 171.810969 
L 417.710688 155.970969 
L 433.550687 155.970969 
L 433.550687 171.810969 
"/>
  </clipPath>
  <clipPath id="pfe81c3b6ad">
   <path d="M 417.710688 189.650969 
L 417.710688 173.810969 
L 433.550687 173.810969 
L 433.550687 189.650969 
"/>
  </clipPath>
  <clipPath id="pe6587075d5">
   <path d="M 417.710688 207.490969 
L 417.710688 191.650969 
L 433.550687 191.650969 
L 433.550687 207.490969 
"/>
  </clipPath>
  <clipPath id="p510fd4beda">
   <path d="M 417.710688 225.330969 
L 417.710688 209.490969 
L 433.550687 209.490969 
L 433.550687 225.330969 
"/>
  </clipPath>
  <clipPath id="p42b95a757f">
   <path d="M 417.710688 243.170969 
L 417.710688 227.330969 
L 433.550687 227.330969 
L 433.550687 243.170969 
"/>
  </clipPath>
 </defs>
</svg>
