<?xml version="1.0" encoding="utf-8" standalone="no"?>
<!DOCTYPE svg PUBLIC "-//W3C//DTD SVG 1.1//EN"
  "http://www.w3.org/Graphics/SVG/1.1/DTD/svg11.dtd">
<!-- Created with matplotlib (https://matplotlib.org/) -->
<svg height="300.507937pt" version="1.1" viewBox="0 0 548.455187 300.507937" width="548.455187pt" xmlns="http://www.w3.org/2000/svg" xmlns:xlink="http://www.w3.org/1999/xlink">
 <defs>
  <style type="text/css">
*{stroke-linecap:butt;stroke-linejoin:round;}
  </style>
 </defs>
 <g id="figure_1">
  <g id="patch_1">
   <path d="M 0 300.507937 
L 548.455187 300.507937 
L 548.455187 -0 
L 0 -0 
z
" style="fill:#ffffff;stroke:#ffffff;stroke-linejoin:miter;"/>
  </g>
  <g id="axes_1">
   <g id="patch_2">
    <path d="M 54.163813 273.312 
L 411.283813 273.312 
L 411.283813 7.2 
L 54.163813 7.2 
z
" style="fill:#ebebeb;"/>
   </g>
   <g id="matplotlib.axis_1">
    <g id="xtick_1">
     <g id="line2d_1">
      <path clip-path="url(#pda9d9859a6)" d="M 232.723813 273.312 
L 232.723813 7.2 
" style="fill:none;stroke:#ffffff;"/>
     </g>
     <g id="line2d_2">
      <path d="M 232.723813 273.312 
" style="fill:none;stroke:#333333;stroke-width:1.5;"/>
      <defs>
       <path d="M 0 0 
L 0 2.75 
" id="mfcc440a9e4" style="stroke:#333333;"/>
      </defs>
      <g>
       <use style="fill:#333333;stroke:#333333;" x="232.723813" xlink:href="#mfcc440a9e4" y="273.312"/>
      </g>
     </g>
    </g>
    <g id="text_1">
     <!-- simulation -->
     <defs>
      <path d="M 44.28125 53.078125 
L 44.28125 44.578125 
Q 40.484375 46.53125 36.375 47.5 
Q 32.28125 48.484375 27.875 48.484375 
Q 21.1875 48.484375 17.84375 46.4375 
Q 14.5 44.390625 14.5 40.28125 
Q 14.5 37.15625 16.890625 35.375 
Q 19.28125 33.59375 26.515625 31.984375 
L 29.59375 31.296875 
Q 39.15625 29.25 43.1875 25.515625 
Q 47.21875 21.78125 47.21875 15.09375 
Q 47.21875 7.46875 41.1875 3.015625 
Q 35.15625 -1.421875 24.609375 -1.421875 
Q 20.21875 -1.421875 15.453125 -0.5625 
Q 10.6875 0.296875 5.421875 2 
L 5.421875 11.28125 
Q 10.40625 8.6875 15.234375 7.390625 
Q 20.0625 6.109375 24.8125 6.109375 
Q 31.15625 6.109375 34.5625 8.28125 
Q 37.984375 10.453125 37.984375 14.40625 
Q 37.984375 18.0625 35.515625 20.015625 
Q 33.0625 21.96875 24.703125 23.78125 
L 21.578125 24.515625 
Q 13.234375 26.265625 9.515625 29.90625 
Q 5.8125 33.546875 5.8125 39.890625 
Q 5.8125 47.609375 11.28125 51.796875 
Q 16.75 56 26.8125 56 
Q 31.78125 56 36.171875 55.265625 
Q 40.578125 54.546875 44.28125 53.078125 
z
" id="DejaVuSans-115"/>
      <path d="M 9.421875 54.6875 
L 18.40625 54.6875 
L 18.40625 0 
L 9.421875 0 
z
M 9.421875 75.984375 
L 18.40625 75.984375 
L 18.40625 64.59375 
L 9.421875 64.59375 
z
" id="DejaVuSans-105"/>
      <path d="M 52 44.1875 
Q 55.375 50.25 60.0625 53.125 
Q 64.75 56 71.09375 56 
Q 79.640625 56 84.28125 50.015625 
Q 88.921875 44.046875 88.921875 33.015625 
L 88.921875 0 
L 79.890625 0 
L 79.890625 32.71875 
Q 79.890625 40.578125 77.09375 44.375 
Q 74.3125 48.1875 68.609375 48.1875 
Q 61.625 48.1875 57.5625 43.546875 
Q 53.515625 38.921875 53.515625 30.90625 
L 53.515625 0 
L 44.484375 0 
L 44.484375 32.71875 
Q 44.484375 40.625 41.703125 44.40625 
Q 38.921875 48.1875 33.109375 48.1875 
Q 26.21875 48.1875 22.15625 43.53125 
Q 18.109375 38.875 18.109375 30.90625 
L 18.109375 0 
L 9.078125 0 
L 9.078125 54.6875 
L 18.109375 54.6875 
L 18.109375 46.1875 
Q 21.1875 51.21875 25.484375 53.609375 
Q 29.78125 56 35.6875 56 
Q 41.65625 56 45.828125 52.96875 
Q 50 49.953125 52 44.1875 
z
" id="DejaVuSans-109"/>
      <path d="M 8.5 21.578125 
L 8.5 54.6875 
L 17.484375 54.6875 
L 17.484375 21.921875 
Q 17.484375 14.15625 20.5 10.265625 
Q 23.53125 6.390625 29.59375 6.390625 
Q 36.859375 6.390625 41.078125 11.03125 
Q 45.3125 15.671875 45.3125 23.6875 
L 45.3125 54.6875 
L 54.296875 54.6875 
L 54.296875 0 
L 45.3125 0 
L 45.3125 8.40625 
Q 42.046875 3.421875 37.71875 1 
Q 33.40625 -1.421875 27.6875 -1.421875 
Q 18.265625 -1.421875 13.375 4.4375 
Q 8.5 10.296875 8.5 21.578125 
z
M 31.109375 56 
z
" id="DejaVuSans-117"/>
      <path d="M 9.421875 75.984375 
L 18.40625 75.984375 
L 18.40625 0 
L 9.421875 0 
z
" id="DejaVuSans-108"/>
      <path d="M 34.28125 27.484375 
Q 23.390625 27.484375 19.1875 25 
Q 14.984375 22.515625 14.984375 16.5 
Q 14.984375 11.71875 18.140625 8.90625 
Q 21.296875 6.109375 26.703125 6.109375 
Q 34.1875 6.109375 38.703125 11.40625 
Q 43.21875 16.703125 43.21875 25.484375 
L 43.21875 27.484375 
z
M 52.203125 31.203125 
L 52.203125 0 
L 43.21875 0 
L 43.21875 8.296875 
Q 40.140625 3.328125 35.546875 0.953125 
Q 30.953125 -1.421875 24.3125 -1.421875 
Q 15.921875 -1.421875 10.953125 3.296875 
Q 6 8.015625 6 15.921875 
Q 6 25.140625 12.171875 29.828125 
Q 18.359375 34.515625 30.609375 34.515625 
L 43.21875 34.515625 
L 43.21875 35.40625 
Q 43.21875 41.609375 39.140625 45 
Q 35.0625 48.390625 27.6875 48.390625 
Q 23 48.390625 18.546875 47.265625 
Q 14.109375 46.140625 10.015625 43.890625 
L 10.015625 52.203125 
Q 14.9375 54.109375 19.578125 55.046875 
Q 24.21875 56 28.609375 56 
Q 40.484375 56 46.34375 49.84375 
Q 52.203125 43.703125 52.203125 31.203125 
z
" id="DejaVuSans-97"/>
      <path d="M 18.3125 70.21875 
L 18.3125 54.6875 
L 36.8125 54.6875 
L 36.8125 47.703125 
L 18.3125 47.703125 
L 18.3125 18.015625 
Q 18.3125 11.328125 20.140625 9.421875 
Q 21.96875 7.515625 27.59375 7.515625 
L 36.8125 7.515625 
L 36.8125 0 
L 27.59375 0 
Q 17.1875 0 13.234375 3.875 
Q 9.28125 7.765625 9.28125 18.015625 
L 9.28125 47.703125 
L 2.6875 47.703125 
L 2.6875 54.6875 
L 9.28125 54.6875 
L 9.28125 70.21875 
z
" id="DejaVuSans-116"/>
      <path d="M 30.609375 48.390625 
Q 23.390625 48.390625 19.1875 42.75 
Q 14.984375 37.109375 14.984375 27.296875 
Q 14.984375 17.484375 19.15625 11.84375 
Q 23.34375 6.203125 30.609375 6.203125 
Q 37.796875 6.203125 41.984375 11.859375 
Q 46.1875 17.53125 46.1875 27.296875 
Q 46.1875 37.015625 41.984375 42.703125 
Q 37.796875 48.390625 30.609375 48.390625 
z
M 30.609375 56 
Q 42.328125 56 49.015625 48.375 
Q 55.71875 40.765625 55.71875 27.296875 
Q 55.71875 13.875 49.015625 6.21875 
Q 42.328125 -1.421875 30.609375 -1.421875 
Q 18.84375 -1.421875 12.171875 6.21875 
Q 5.515625 13.875 5.515625 27.296875 
Q 5.515625 40.765625 12.171875 48.375 
Q 18.84375 56 30.609375 56 
z
" id="DejaVuSans-111"/>
      <path d="M 54.890625 33.015625 
L 54.890625 0 
L 45.90625 0 
L 45.90625 32.71875 
Q 45.90625 40.484375 42.875 44.328125 
Q 39.84375 48.1875 33.796875 48.1875 
Q 26.515625 48.1875 22.3125 43.546875 
Q 18.109375 38.921875 18.109375 30.90625 
L 18.109375 0 
L 9.078125 0 
L 9.078125 54.6875 
L 18.109375 54.6875 
L 18.109375 46.1875 
Q 21.34375 51.125 25.703125 53.5625 
Q 30.078125 56 35.796875 56 
Q 45.21875 56 50.046875 50.171875 
Q 54.890625 44.34375 54.890625 33.015625 
z
" id="DejaVuSans-110"/>
     </defs>
     <g transform="translate(198.294203 291.020281)scale(0.11 -0.11)">
      <use xlink:href="#DejaVuSans-115"/>
      <use x="52.099609" xlink:href="#DejaVuSans-105"/>
      <use x="79.882812" xlink:href="#DejaVuSans-109"/>
      <use x="177.294922" xlink:href="#DejaVuSans-117"/>
      <use x="240.673828" xlink:href="#DejaVuSans-108"/>
      <use x="268.457031" xlink:href="#DejaVuSans-97"/>
      <use x="329.736328" xlink:href="#DejaVuSans-116"/>
      <use x="368.945312" xlink:href="#DejaVuSans-105"/>
      <use x="396.728516" xlink:href="#DejaVuSans-111"/>
      <use x="457.910156" xlink:href="#DejaVuSans-110"/>
     </g>
    </g>
   </g>
   <g id="matplotlib.axis_2">
    <g id="ytick_1">
     <g id="line2d_3">
      <path clip-path="url(#pda9d9859a6)" d="M 54.163813 221.737031 
L 411.283813 221.737031 
" style="fill:none;stroke:#ffffff;"/>
     </g>
     <g id="line2d_4">
      <path d="M 54.163813 221.737031 
" style="fill:none;stroke:#333333;stroke-width:1.5;"/>
      <defs>
       <path d="M 0 0 
L -2.75 0 
" id="m117c405039" style="stroke:#333333;"/>
      </defs>
      <g>
       <use style="fill:#333333;stroke:#333333;" x="54.163813" xlink:href="#m117c405039" y="221.737031"/>
      </g>
     </g>
     <g id="text_2">
      <!-- −0.25 -->
      <defs>
       <path d="M 10.59375 35.5 
L 73.1875 35.5 
L 73.1875 27.203125 
L 10.59375 27.203125 
z
" id="DejaVuSans-8722"/>
       <path d="M 31.78125 66.40625 
Q 24.171875 66.40625 20.328125 58.90625 
Q 16.5 51.421875 16.5 36.375 
Q 16.5 21.390625 20.328125 13.890625 
Q 24.171875 6.390625 31.78125 6.390625 
Q 39.453125 6.390625 43.28125 13.890625 
Q 47.125 21.390625 47.125 36.375 
Q 47.125 51.421875 43.28125 58.90625 
Q 39.453125 66.40625 31.78125 66.40625 
z
M 31.78125 74.21875 
Q 44.046875 74.21875 50.515625 64.515625 
Q 56.984375 54.828125 56.984375 36.375 
Q 56.984375 17.96875 50.515625 8.265625 
Q 44.046875 -1.421875 31.78125 -1.421875 
Q 19.53125 -1.421875 13.0625 8.265625 
Q 6.59375 17.96875 6.59375 36.375 
Q 6.59375 54.828125 13.0625 64.515625 
Q 19.53125 74.21875 31.78125 74.21875 
z
" id="DejaVuSans-48"/>
       <path d="M 10.6875 12.40625 
L 21 12.40625 
L 21 0 
L 10.6875 0 
z
" id="DejaVuSans-46"/>
       <path d="M 19.1875 8.296875 
L 53.609375 8.296875 
L 53.609375 0 
L 7.328125 0 
L 7.328125 8.296875 
Q 12.9375 14.109375 22.625 23.890625 
Q 32.328125 33.6875 34.8125 36.53125 
Q 39.546875 41.84375 41.421875 45.53125 
Q 43.3125 49.21875 43.3125 52.78125 
Q 43.3125 58.59375 39.234375 62.25 
Q 35.15625 65.921875 28.609375 65.921875 
Q 23.96875 65.921875 18.8125 64.3125 
Q 13.671875 62.703125 7.8125 59.421875 
L 7.8125 69.390625 
Q 13.765625 71.78125 18.9375 73 
Q 24.125 74.21875 28.421875 74.21875 
Q 39.75 74.21875 46.484375 68.546875 
Q 53.21875 62.890625 53.21875 53.421875 
Q 53.21875 48.921875 51.53125 44.890625 
Q 49.859375 40.875 45.40625 35.40625 
Q 44.1875 33.984375 37.640625 27.21875 
Q 31.109375 20.453125 19.1875 8.296875 
z
" id="DejaVuSans-50"/>
       <path d="M 10.796875 72.90625 
L 49.515625 72.90625 
L 49.515625 64.59375 
L 19.828125 64.59375 
L 19.828125 46.734375 
Q 21.96875 47.46875 24.109375 47.828125 
Q 26.265625 48.1875 28.421875 48.1875 
Q 40.625 48.1875 47.75 41.5 
Q 54.890625 34.8125 54.890625 23.390625 
Q 54.890625 11.625 47.5625 5.09375 
Q 40.234375 -1.421875 26.90625 -1.421875 
Q 22.3125 -1.421875 17.546875 -0.640625 
Q 12.796875 0.140625 7.71875 1.703125 
L 7.71875 11.625 
Q 12.109375 9.234375 16.796875 8.0625 
Q 21.484375 6.890625 26.703125 6.890625 
Q 35.15625 6.890625 40.078125 11.328125 
Q 45.015625 15.765625 45.015625 23.390625 
Q 45.015625 31 40.078125 35.4375 
Q 35.15625 39.890625 26.703125 39.890625 
Q 22.75 39.890625 18.8125 39.015625 
Q 14.890625 38.140625 10.796875 36.28125 
z
" id="DejaVuSans-53"/>
      </defs>
      <g style="fill:#4d4d4d;" transform="translate(22.245938 224.165281)scale(0.088 -0.088)">
       <use xlink:href="#DejaVuSans-8722"/>
       <use x="83.789062" xlink:href="#DejaVuSans-48"/>
       <use x="147.412109" xlink:href="#DejaVuSans-46"/>
       <use x="179.199219" xlink:href="#DejaVuSans-50"/>
       <use x="242.822266" xlink:href="#DejaVuSans-53"/>
      </g>
     </g>
    </g>
    <g id="ytick_2">
     <g id="line2d_5">
      <path clip-path="url(#pda9d9859a6)" d="M 54.163813 147.528442 
L 411.283813 147.528442 
" style="fill:none;stroke:#ffffff;"/>
     </g>
     <g id="line2d_6">
      <path d="M 54.163813 147.528442 
" style="fill:none;stroke:#333333;stroke-width:1.5;"/>
      <g>
       <use style="fill:#333333;stroke:#333333;" x="54.163813" xlink:href="#m117c405039" y="147.528442"/>
      </g>
     </g>
     <g id="text_3">
      <!-- 0 -->
      <g style="fill:#4d4d4d;" transform="translate(43.614813 149.956692)scale(0.088 -0.088)">
       <use xlink:href="#DejaVuSans-48"/>
      </g>
     </g>
    </g>
    <g id="ytick_3">
     <g id="line2d_7">
      <path clip-path="url(#pda9d9859a6)" d="M 54.163813 73.319853 
L 411.283813 73.319853 
" style="fill:none;stroke:#ffffff;"/>
     </g>
     <g id="line2d_8">
      <path d="M 54.163813 73.319853 
" style="fill:none;stroke:#333333;stroke-width:1.5;"/>
      <g>
       <use style="fill:#333333;stroke:#333333;" x="54.163813" xlink:href="#m117c405039" y="73.319853"/>
      </g>
     </g>
     <g id="text_4">
      <!-- 0.25 -->
      <g style="fill:#4d4d4d;" transform="translate(29.620063 75.748103)scale(0.088 -0.088)">
       <use xlink:href="#DejaVuSans-48"/>
       <use x="63.623047" xlink:href="#DejaVuSans-46"/>
       <use x="95.410156" xlink:href="#DejaVuSans-50"/>
       <use x="159.033203" xlink:href="#DejaVuSans-53"/>
      </g>
     </g>
    </g>
    <g id="ytick_4">
     <g id="line2d_9">
      <path clip-path="url(#pda9d9859a6)" d="M 54.163813 258.841325 
L 411.283813 258.841325 
" style="fill:none;stroke:#ffffff;stroke-width:0.5;"/>
     </g>
    </g>
    <g id="ytick_5">
     <g id="line2d_10">
      <path clip-path="url(#pda9d9859a6)" d="M 54.163813 184.632736 
L 411.283813 184.632736 
" style="fill:none;stroke:#ffffff;stroke-width:0.5;"/>
     </g>
    </g>
    <g id="ytick_6">
     <g id="line2d_11">
      <path clip-path="url(#pda9d9859a6)" d="M 54.163813 110.424147 
L 411.283813 110.424147 
" style="fill:none;stroke:#ffffff;stroke-width:0.5;"/>
     </g>
    </g>
    <g id="ytick_7">
     <g id="line2d_12">
      <path clip-path="url(#pda9d9859a6)" d="M 54.163813 36.215558 
L 411.283813 36.215558 
" style="fill:none;stroke:#ffffff;stroke-width:0.5;"/>
     </g>
    </g>
    <g id="text_5">
     <!-- value -->
     <defs>
      <path d="M 2.984375 54.6875 
L 12.5 54.6875 
L 29.59375 8.796875 
L 46.6875 54.6875 
L 56.203125 54.6875 
L 35.6875 0 
L 23.484375 0 
z
" id="DejaVuSans-118"/>
      <path d="M 56.203125 29.59375 
L 56.203125 25.203125 
L 14.890625 25.203125 
Q 15.484375 15.921875 20.484375 11.0625 
Q 25.484375 6.203125 34.421875 6.203125 
Q 39.59375 6.203125 44.453125 7.46875 
Q 49.3125 8.734375 54.109375 11.28125 
L 54.109375 2.78125 
Q 49.265625 0.734375 44.1875 -0.34375 
Q 39.109375 -1.421875 33.890625 -1.421875 
Q 20.796875 -1.421875 13.15625 6.1875 
Q 5.515625 13.8125 5.515625 26.8125 
Q 5.515625 40.234375 12.765625 48.109375 
Q 20.015625 56 32.328125 56 
Q 43.359375 56 49.78125 48.890625 
Q 56.203125 41.796875 56.203125 29.59375 
z
M 47.21875 32.234375 
Q 47.125 39.59375 43.09375 43.984375 
Q 39.0625 48.390625 32.421875 48.390625 
Q 24.90625 48.390625 20.390625 44.140625 
Q 15.875 39.890625 15.1875 32.171875 
z
" id="DejaVuSans-101"/>
     </defs>
     <g transform="translate(15.558281 153.551594)rotate(-90)scale(0.11 -0.11)">
      <use xlink:href="#DejaVuSans-118"/>
      <use x="59.179688" xlink:href="#DejaVuSans-97"/>
      <use x="120.458984" xlink:href="#DejaVuSans-108"/>
      <use x="148.242188" xlink:href="#DejaVuSans-117"/>
      <use x="211.621094" xlink:href="#DejaVuSans-101"/>
     </g>
    </g>
   </g>
   <g id="LineCollection_1">
    <path clip-path="url(#pda9d9859a6)" d="M 110.978358 247.190577 
L 110.978358 240.734429 
" style="fill:none;stroke:#333333;stroke-width:0.886227;"/>
    <path clip-path="url(#pda9d9859a6)" d="M 110.978358 253.498307 
L 110.978358 261.216 
" style="fill:none;stroke:#333333;stroke-width:0.886227;"/>
   </g>
   <g id="PolyCollection_1">
    <defs>
     <path d="M 100.021267 -53.317361 
L 100.021267 -53.317361 
L 121.935449 -53.317361 
L 121.935449 -47.009631 
L 100.021267 -47.009631 
z
" id="me78713f453" style="stroke:#333333;stroke-width:0.886227;"/>
    </defs>
    <g clip-path="url(#pda9d9859a6)">
     <use style="fill:#440154;stroke:#333333;stroke-width:0.886227;" x="0" xlink:href="#me78713f453" y="300.507937"/>
    </g>
   </g>
   <g id="LineCollection_2">
    <path clip-path="url(#pda9d9859a6)" d="M 100.021267 250.529963 
L 121.935449 250.529963 
" style="fill:none;stroke:#333333;stroke-width:1.772454;"/>
   </g>
   <g id="LineCollection_3">
    <path clip-path="url(#pda9d9859a6)" d="M 135.327449 187.304245 
L 135.327449 180.77389 
" style="fill:none;stroke:#333333;stroke-width:0.886227;"/>
    <path clip-path="url(#pda9d9859a6)" d="M 135.327449 193.018307 
L 135.327449 199.474454 
" style="fill:none;stroke:#333333;stroke-width:0.886227;"/>
   </g>
   <g id="PolyCollection_2">
    <defs>
     <path d="M 124.370358 -113.203692 
L 124.370358 -113.203692 
L 146.28454 -113.203692 
L 146.28454 -107.489631 
L 124.370358 -107.489631 
z
" id="m06d2997529" style="stroke:#333333;stroke-width:0.886227;"/>
    </defs>
    <g clip-path="url(#pda9d9859a6)">
     <use style="fill:#482576;stroke:#333333;stroke-width:0.886227;" x="0" xlink:href="#m06d2997529" y="300.507937"/>
    </g>
   </g>
   <g id="LineCollection_4">
    <path clip-path="url(#pda9d9859a6)" d="M 124.370358 190.124172 
L 146.28454 190.124172 
" style="fill:none;stroke:#333333;stroke-width:1.772454;"/>
   </g>
   <g id="PathCollection_1">
    <path clip-path="url(#pda9d9859a6)" d="M 159.67654 201.840577 
C 160.1466 201.840577 160.597471 201.65382 160.929854 201.321437 
C 161.262237 200.989054 161.448994 200.538183 161.448994 200.068123 
C 161.448994 199.598062 161.262237 199.147191 160.929854 198.814809 
C 160.597471 198.482426 160.1466 198.295669 159.67654 198.295669 
C 159.20648 198.295669 158.755608 198.482426 158.423226 198.814809 
C 158.090843 199.147191 157.904086 199.598062 157.904086 200.068123 
C 157.904086 200.538183 158.090843 200.989054 158.423226 201.321437 
C 158.755608 201.65382 159.20648 201.840577 159.67654 201.840577 
z
" style="fill:#333333;stroke:#333333;stroke-width:0.886227;"/>
    <path clip-path="url(#pda9d9859a6)" d="M 159.67654 180.171669 
C 160.1466 180.171669 160.597471 179.984912 160.929854 179.652529 
C 161.262237 179.320146 161.448994 178.869275 161.448994 178.399215 
C 161.448994 177.929154 161.262237 177.478283 160.929854 177.145901 
C 160.597471 176.813518 160.1466 176.626761 159.67654 176.626761 
C 159.20648 176.626761 158.755608 176.813518 158.423226 177.145901 
C 158.090843 177.478283 157.904086 177.929154 157.904086 178.399215 
C 157.904086 178.869275 158.090843 179.320146 158.423226 179.652529 
C 158.755608 179.984912 159.20648 180.171669 159.67654 180.171669 
z
" style="fill:#333333;stroke:#333333;stroke-width:0.886227;"/>
   </g>
   <g id="LineCollection_5">
    <path clip-path="url(#pda9d9859a6)" d="M 159.67654 186.116908 
L 159.67654 178.992883 
" style="fill:none;stroke:#333333;stroke-width:0.886227;"/>
    <path clip-path="url(#pda9d9859a6)" d="M 159.67654 191.237301 
L 159.67654 198.880785 
" style="fill:none;stroke:#333333;stroke-width:0.886227;"/>
   </g>
   <g id="PolyCollection_3">
    <defs>
     <path d="M 148.719449 -114.39103 
L 148.719449 -114.39103 
L 170.633631 -114.39103 
L 170.633631 -109.270637 
L 148.719449 -109.270637 
z
" id="m181adad82e" style="stroke:#333333;stroke-width:0.886227;"/>
    </defs>
    <g clip-path="url(#pda9d9859a6)">
     <use style="fill:#414487;stroke:#333333;stroke-width:0.886227;" x="0" xlink:href="#m181adad82e" y="300.507937"/>
    </g>
   </g>
   <g id="LineCollection_6">
    <path clip-path="url(#pda9d9859a6)" d="M 148.719449 188.491583 
L 170.633631 188.491583 
" style="fill:none;stroke:#333333;stroke-width:1.772454;"/>
   </g>
   <g id="LineCollection_7">
    <path clip-path="url(#pda9d9859a6)" d="M 184.025631 166.451632 
L 184.025631 159.104982 
" style="fill:none;stroke:#333333;stroke-width:0.886227;"/>
    <path clip-path="url(#pda9d9859a6)" d="M 184.025631 172.759362 
L 184.025631 178.696049 
" style="fill:none;stroke:#333333;stroke-width:0.886227;"/>
   </g>
   <g id="PolyCollection_4">
    <defs>
     <path d="M 173.06854 -134.056306 
L 173.06854 -134.056306 
L 194.982722 -134.056306 
L 194.982722 -127.748576 
L 173.06854 -127.748576 
z
" id="m84e1a739eb" style="stroke:#333333;stroke-width:0.886227;"/>
    </defs>
    <g clip-path="url(#pda9d9859a6)">
     <use style="fill:#355f8d;stroke:#333333;stroke-width:0.886227;" x="0" xlink:href="#m84e1a739eb" y="300.507937"/>
    </g>
   </g>
   <g id="LineCollection_8">
    <path clip-path="url(#pda9d9859a6)" d="M 173.06854 169.642601 
L 194.982722 169.642601 
" style="fill:none;stroke:#333333;stroke-width:1.772454;"/>
   </g>
   <g id="PathCollection_2">
    <path clip-path="url(#pda9d9859a6)" d="M 208.374722 124.960478 
C 208.844782 124.960478 209.295653 124.773721 209.628036 124.441339 
C 209.960419 124.108956 210.147175 123.658085 210.147175 123.188025 
C 210.147175 122.717964 209.960419 122.267093 209.628036 121.93471 
C 209.295653 121.602328 208.844782 121.415571 208.374722 121.415571 
C 207.904661 121.415571 207.45379 121.602328 207.121407 121.93471 
C 206.789025 122.267093 206.602268 122.717964 206.602268 123.188025 
C 206.602268 123.658085 206.789025 124.108956 207.121407 124.441339 
C 207.45379 124.773721 207.904661 124.960478 208.374722 124.960478 
z
" style="fill:#333333;stroke:#333333;stroke-width:0.886227;"/>
    <path clip-path="url(#pda9d9859a6)" d="M 208.374722 96.167546 
C 208.844782 96.167546 209.295653 95.980789 209.628036 95.648406 
C 209.960419 95.316023 210.147175 94.865152 210.147175 94.395092 
C 210.147175 93.925032 209.960419 93.474161 209.628036 93.141778 
C 209.295653 92.809395 208.844782 92.622638 208.374722 92.622638 
C 207.904661 92.622638 207.45379 92.809395 207.121407 93.141778 
C 206.789025 93.474161 206.602268 93.925032 206.602268 94.395092 
C 206.602268 94.865152 206.789025 95.316023 207.121407 95.648406 
C 207.45379 95.980789 207.904661 96.167546 208.374722 96.167546 
z
" style="fill:#333333;stroke:#333333;stroke-width:0.886227;"/>
   </g>
   <g id="LineCollection_9">
    <path clip-path="url(#pda9d9859a6)" d="M 208.374722 105.081129 
L 208.374722 99.441276 
" style="fill:none;stroke:#333333;stroke-width:0.886227;"/>
    <path clip-path="url(#pda9d9859a6)" d="M 208.374722 111.908319 
L 208.374722 120.219681 
" style="fill:none;stroke:#333333;stroke-width:0.886227;"/>
   </g>
   <g id="PolyCollection_5">
    <defs>
     <path d="M 197.417631 -195.426809 
L 197.417631 -195.426809 
L 219.331812 -195.426809 
L 219.331812 -188.599618 
L 197.417631 -188.599618 
z
" id="mb006cfeba6" style="stroke:#333333;stroke-width:0.886227;"/>
    </defs>
    <g clip-path="url(#pda9d9859a6)">
     <use style="fill:#2a788e;stroke:#333333;stroke-width:0.886227;" x="0" xlink:href="#mb006cfeba6" y="300.507937"/>
    </g>
   </g>
   <g id="LineCollection_10">
    <path clip-path="url(#pda9d9859a6)" d="M 197.417631 108.643141 
L 219.331812 108.643141 
" style="fill:none;stroke:#333333;stroke-width:1.772454;"/>
   </g>
   <g id="LineCollection_11">
    <path clip-path="url(#pda9d9859a6)" d="M 232.723812 166.451632 
L 232.723812 159.104982 
" style="fill:none;stroke:#333333;stroke-width:0.886227;"/>
    <path clip-path="url(#pda9d9859a6)" d="M 232.723812 172.759362 
L 232.723812 178.696049 
" style="fill:none;stroke:#333333;stroke-width:0.886227;"/>
   </g>
   <g id="PolyCollection_6">
    <defs>
     <path d="M 221.766722 -134.056306 
L 221.766722 -134.056306 
L 243.680903 -134.056306 
L 243.680903 -127.748576 
L 221.766722 -127.748576 
z
" id="m60f56af65f" style="stroke:#333333;stroke-width:0.886227;"/>
    </defs>
    <g clip-path="url(#pda9d9859a6)">
     <use style="fill:#21918c;stroke:#333333;stroke-width:0.886227;" x="0" xlink:href="#m60f56af65f" y="300.507937"/>
    </g>
   </g>
   <g id="LineCollection_12">
    <path clip-path="url(#pda9d9859a6)" d="M 221.766722 169.642601 
L 243.680903 169.642601 
" style="fill:none;stroke:#333333;stroke-width:1.772454;"/>
   </g>
   <g id="PathCollection_3">
    <path clip-path="url(#pda9d9859a6)" d="M 257.072903 124.960478 
C 257.542964 124.960478 257.993835 124.773721 258.326218 124.441339 
C 258.6586 124.108956 258.845357 123.658085 258.845357 123.188025 
C 258.845357 122.717964 258.6586 122.267093 258.326218 121.93471 
C 257.993835 121.602328 257.542964 121.415571 257.072903 121.415571 
C 256.602843 121.415571 256.151972 121.602328 255.819589 121.93471 
C 255.487206 122.267093 255.30045 122.717964 255.30045 123.188025 
C 255.30045 123.658085 255.487206 124.108956 255.819589 124.441339 
C 256.151972 124.773721 256.602843 124.960478 257.072903 124.960478 
z
" style="fill:#333333;stroke:#333333;stroke-width:0.886227;"/>
    <path clip-path="url(#pda9d9859a6)" d="M 257.072903 96.167546 
C 257.542964 96.167546 257.993835 95.980789 258.326218 95.648406 
C 258.6586 95.316023 258.845357 94.865152 258.845357 94.395092 
C 258.845357 93.925032 258.6586 93.474161 258.326218 93.141778 
C 257.993835 92.809395 257.542964 92.622638 257.072903 92.622638 
C 256.602843 92.622638 256.151972 92.809395 255.819589 93.141778 
C 255.487206 93.474161 255.30045 93.925032 255.30045 94.395092 
C 255.30045 94.865152 255.487206 95.316023 255.819589 95.648406 
C 256.151972 95.980789 256.602843 96.167546 257.072903 96.167546 
z
" style="fill:#333333;stroke:#333333;stroke-width:0.886227;"/>
   </g>
   <g id="LineCollection_13">
    <path clip-path="url(#pda9d9859a6)" d="M 257.072903 105.081129 
L 257.072903 99.441276 
" style="fill:none;stroke:#333333;stroke-width:0.886227;"/>
    <path clip-path="url(#pda9d9859a6)" d="M 257.072903 111.908319 
L 257.072903 120.219681 
" style="fill:none;stroke:#333333;stroke-width:0.886227;"/>
   </g>
   <g id="PolyCollection_7">
    <defs>
     <path d="M 246.115812 -195.426809 
L 246.115812 -195.426809 
L 268.029994 -195.426809 
L 268.029994 -188.599618 
L 246.115812 -188.599618 
z
" id="md908e6ca11" style="stroke:#333333;stroke-width:0.886227;"/>
    </defs>
    <g clip-path="url(#pda9d9859a6)">
     <use style="fill:#22a884;stroke:#333333;stroke-width:0.886227;" x="0" xlink:href="#md908e6ca11" y="300.507937"/>
    </g>
   </g>
   <g id="LineCollection_14">
    <path clip-path="url(#pda9d9859a6)" d="M 246.115812 108.643141 
L 268.029994 108.643141 
" style="fill:none;stroke:#333333;stroke-width:1.772454;"/>
   </g>
   <g id="PathCollection_4">
    <path clip-path="url(#pda9d9859a6)" d="M 281.421994 98.542221 
C 281.892055 98.542221 282.342926 98.355464 282.675308 98.023081 
C 283.007691 97.690698 283.194448 97.239827 283.194448 96.769767 
C 283.194448 96.299707 283.007691 95.848836 282.675308 95.516453 
C 282.342926 95.18407 281.892055 94.997313 281.421994 94.997313 
C 280.951934 94.997313 280.501063 95.18407 280.16868 95.516453 
C 279.836297 95.848836 279.64954 96.299707 279.64954 96.769767 
C 279.64954 97.239827 279.836297 97.690698 280.16868 98.023081 
C 280.501063 98.355464 280.951934 98.542221 281.421994 98.542221 
z
" style="fill:#333333;stroke:#333333;stroke-width:0.886227;"/>
    <path clip-path="url(#pda9d9859a6)" d="M 281.421994 97.948552 
C 281.892055 97.948552 282.342926 97.761795 282.675308 97.429412 
C 283.007691 97.09703 283.194448 96.646158 283.194448 96.176098 
C 283.194448 95.706038 283.007691 95.255167 282.675308 94.922784 
C 282.342926 94.590401 281.892055 94.403644 281.421994 94.403644 
C 280.951934 94.403644 280.501063 94.590401 280.16868 94.922784 
C 279.836297 95.255167 279.64954 95.706038 279.64954 96.176098 
C 279.64954 96.646158 279.836297 97.09703 280.16868 97.429412 
C 280.501063 97.761795 280.951934 97.948552 281.421994 97.948552 
z
" style="fill:#333333;stroke:#333333;stroke-width:0.886227;"/>
    <path clip-path="url(#pda9d9859a6)" d="M 281.421994 104.478908 
C 281.892055 104.478908 282.342926 104.292151 282.675308 103.959768 
C 283.007691 103.627385 283.194448 103.176514 283.194448 102.706454 
C 283.194448 102.236394 283.007691 101.785523 282.675308 101.45314 
C 282.342926 101.120757 281.892055 100.934 281.421994 100.934 
C 280.951934 100.934 280.501063 101.120757 280.16868 101.45314 
C 279.836297 101.785523 279.64954 102.236394 279.64954 102.706454 
C 279.64954 103.176514 279.836297 103.627385 280.16868 103.959768 
C 280.501063 104.292151 280.951934 104.478908 281.421994 104.478908 
z
" style="fill:#333333;stroke:#333333;stroke-width:0.886227;"/>
    <path clip-path="url(#pda9d9859a6)" d="M 281.421994 28.786147 
C 281.892055 28.786147 282.342926 28.59939 282.675308 28.267007 
C 283.007691 27.934625 283.194448 27.483754 283.194448 27.013693 
C 283.194448 26.543633 283.007691 26.092762 282.675308 25.760379 
C 282.342926 25.427996 281.892055 25.241239 281.421994 25.241239 
C 280.951934 25.241239 280.501063 25.427996 280.16868 25.760379 
C 279.836297 26.092762 279.64954 26.543633 279.64954 27.013693 
C 279.64954 27.483754 279.836297 27.934625 280.16868 28.267007 
C 280.501063 28.59939 280.951934 28.786147 281.421994 28.786147 
z
" style="fill:#333333;stroke:#333333;stroke-width:0.886227;"/>
   </g>
   <g id="LineCollection_15">
    <path clip-path="url(#pda9d9859a6)" d="M 281.421994 60.110724 
L 281.421994 40.964908 
" style="fill:none;stroke:#333333;stroke-width:0.886227;"/>
    <path clip-path="url(#pda9d9859a6)" d="M 281.421994 74.061939 
L 281.421994 89.942577 
" style="fill:none;stroke:#333333;stroke-width:0.886227;"/>
   </g>
   <g id="PolyCollection_8">
    <defs>
     <path d="M 270.464903 -240.397214 
L 270.464903 -240.397214 
L 292.379085 -240.397214 
L 292.379085 -226.445999 
L 270.464903 -226.445999 
z
" id="m46625f6f02" style="stroke:#333333;stroke-width:0.886227;"/>
    </defs>
    <g clip-path="url(#pda9d9859a6)">
     <use style="fill:#42be71;stroke:#333333;stroke-width:0.886227;" x="0" xlink:href="#m46625f6f02" y="300.507937"/>
    </g>
   </g>
   <g id="LineCollection_16">
    <path clip-path="url(#pda9d9859a6)" d="M 270.464903 67.828417 
L 292.379085 67.828417 
" style="fill:none;stroke:#333333;stroke-width:1.772454;"/>
   </g>
   <g id="PathCollection_5">
    <defs>
     <path d="M 0 1.772454 
C 0.47006 1.772454 0.920931 1.585697 1.253314 1.253314 
C 1.585697 0.920931 1.772454 0.47006 1.772454 0 
C 1.772454 -0.47006 1.585697 -0.920931 1.253314 -1.253314 
C 0.920931 -1.585697 0.47006 -1.772454 0 -1.772454 
C -0.47006 -1.772454 -0.920931 -1.585697 -1.253314 -1.253314 
C -1.585697 -0.920931 -1.772454 -0.47006 -1.772454 0 
C -1.772454 0.47006 -1.585697 0.920931 -1.253314 1.253314 
C -0.920931 1.585697 -0.47006 1.772454 0 1.772454 
z
" id="mdc6843bf65" style="stroke:#333333;stroke-width:0.886227;"/>
    </defs>
    <g clip-path="url(#pda9d9859a6)">
     <use style="fill:#333333;stroke:#333333;stroke-width:0.886227;" x="305.771085" xlink:href="#mdc6843bf65" y="19.296"/>
    </g>
   </g>
   <g id="LineCollection_17">
    <path clip-path="url(#pda9d9859a6)" d="M 305.771085 56.400294 
L 305.771085 32.356712 
" style="fill:none;stroke:#333333;stroke-width:0.886227;"/>
    <path clip-path="url(#pda9d9859a6)" d="M 305.771085 73.616687 
L 305.771085 97.957104 
" style="fill:none;stroke:#333333;stroke-width:0.886227;"/>
   </g>
   <g id="PolyCollection_9">
    <defs>
     <path d="M 294.813994 -244.107643 
L 294.813994 -244.107643 
L 316.728176 -244.107643 
L 316.728176 -226.89125 
L 294.813994 -226.89125 
z
" id="md1250f390b" style="stroke:#333333;stroke-width:0.886227;"/>
    </defs>
    <g clip-path="url(#pda9d9859a6)">
     <use style="fill:#7ad151;stroke:#333333;stroke-width:0.886227;" x="0" xlink:href="#md1250f390b" y="300.507937"/>
    </g>
   </g>
   <g id="LineCollection_18">
    <path clip-path="url(#pda9d9859a6)" d="M 294.813994 65.898994 
L 316.728176 65.898994 
" style="fill:none;stroke:#333333;stroke-width:1.772454;"/>
   </g>
   <g id="LineCollection_19">
    <path clip-path="url(#pda9d9859a6)" d="M 330.120176 38.887067 
L 330.120176 30.278871 
" style="fill:none;stroke:#333333;stroke-width:0.886227;"/>
    <path clip-path="url(#pda9d9859a6)" d="M 330.120176 45.417423 
L 330.120176 54.322454 
" style="fill:none;stroke:#333333;stroke-width:0.886227;"/>
   </g>
   <g id="PolyCollection_10">
    <defs>
     <path d="M 319.163085 -261.62087 
L 319.163085 -261.62087 
L 341.077267 -261.62087 
L 341.077267 -255.090514 
L 319.163085 -255.090514 
z
" id="mcae062661c" style="stroke:#333333;stroke-width:0.886227;"/>
    </defs>
    <g clip-path="url(#pda9d9859a6)">
     <use style="fill:#bddf26;stroke:#333333;stroke-width:0.886227;" x="0" xlink:href="#mcae062661c" y="300.507937"/>
    </g>
   </g>
   <g id="LineCollection_20">
    <path clip-path="url(#pda9d9859a6)" d="M 319.163085 42.003828 
L 341.077267 42.003828 
" style="fill:none;stroke:#333333;stroke-width:1.772454;"/>
   </g>
   <g id="LineCollection_21">
    <path clip-path="url(#pda9d9859a6)" d="M 354.469267 53.431951 
L 354.469267 52.838282 
" style="fill:none;stroke:#333333;stroke-width:0.886227;"/>
    <path clip-path="url(#pda9d9859a6)" d="M 354.469267 54.02562 
L 354.469267 54.916123 
" style="fill:none;stroke:#333333;stroke-width:0.886227;"/>
   </g>
   <g id="PolyCollection_11">
    <defs>
     <path d="M 343.512176 -247.075987 
L 343.512176 -247.075987 
L 365.426358 -247.075987 
L 365.426358 -246.482318 
L 343.512176 -246.482318 
z
" id="m12bb1c50b9" style="stroke:#333333;stroke-width:0.886227;"/>
    </defs>
    <g clip-path="url(#pda9d9859a6)">
     <use style="fill:#fde725;stroke:#333333;stroke-width:0.886227;" x="0" xlink:href="#m12bb1c50b9" y="300.507937"/>
    </g>
   </g>
   <g id="LineCollection_22">
    <path clip-path="url(#pda9d9859a6)" d="M 343.512176 53.728785 
L 365.426358 53.728785 
" style="fill:none;stroke:#333333;stroke-width:1.772454;"/>
   </g>
   <g id="patch_3">
    <path d="M 418.483812 255.370969 
L 541.255188 255.370969 
L 541.255188 21.685031 
L 418.483812 21.685031 
z
" style="fill:#ffffff;"/>
   </g>
   <g id="text_6">
    <!-- variable -->
    <defs>
     <path d="M 41.109375 46.296875 
Q 39.59375 47.171875 37.8125 47.578125 
Q 36.03125 48 33.890625 48 
Q 26.265625 48 22.1875 43.046875 
Q 18.109375 38.09375 18.109375 28.8125 
L 18.109375 0 
L 9.078125 0 
L 9.078125 54.6875 
L 18.109375 54.6875 
L 18.109375 46.1875 
Q 20.953125 51.171875 25.484375 53.578125 
Q 30.03125 56 36.53125 56 
Q 37.453125 56 38.578125 55.875 
Q 39.703125 55.765625 41.0625 55.515625 
z
" id="DejaVuSans-114"/>
     <path d="M 48.6875 27.296875 
Q 48.6875 37.203125 44.609375 42.84375 
Q 40.53125 48.484375 33.40625 48.484375 
Q 26.265625 48.484375 22.1875 42.84375 
Q 18.109375 37.203125 18.109375 27.296875 
Q 18.109375 17.390625 22.1875 11.75 
Q 26.265625 6.109375 33.40625 6.109375 
Q 40.53125 6.109375 44.609375 11.75 
Q 48.6875 17.390625 48.6875 27.296875 
z
M 18.109375 46.390625 
Q 20.953125 51.265625 25.265625 53.625 
Q 29.59375 56 35.59375 56 
Q 45.5625 56 51.78125 48.09375 
Q 58.015625 40.1875 58.015625 27.296875 
Q 58.015625 14.40625 51.78125 6.484375 
Q 45.5625 -1.421875 35.59375 -1.421875 
Q 29.59375 -1.421875 25.265625 0.953125 
Q 20.953125 3.328125 18.109375 8.203125 
L 18.109375 0 
L 9.078125 0 
L 9.078125 75.984375 
L 18.109375 75.984375 
z
" id="DejaVuSans-98"/>
    </defs>
    <g transform="translate(430.683812 45.278625)scale(0.11 -0.11)">
     <use xlink:href="#DejaVuSans-118"/>
     <use x="59.179688" xlink:href="#DejaVuSans-97"/>
     <use x="120.458984" xlink:href="#DejaVuSans-114"/>
     <use x="161.572266" xlink:href="#DejaVuSans-105"/>
     <use x="189.355469" xlink:href="#DejaVuSans-97"/>
     <use x="250.634766" xlink:href="#DejaVuSans-98"/>
     <use x="314.111328" xlink:href="#DejaVuSans-108"/>
     <use x="341.894531" xlink:href="#DejaVuSans-101"/>
    </g>
   </g>
   <g id="patch_4">
    <path clip-path="url(#p6075c54a26)" d="M 430.683812 64.770969 
L 446.523812 64.770969 
L 446.523812 48.930969 
L 430.683812 48.930969 
z
" style="fill:#f2f2f2;"/>
   </g>
   <g id="patch_5">
    <path clip-path="url(#p6075c54a26)" d="M 432.663813 60.810969 
L 444.543813 60.810969 
L 444.543813 52.890969 
L 432.663813 52.890969 
z
" style="fill:#440154;stroke:#333333;stroke-linecap:square;stroke-linejoin:miter;stroke-width:0.5;"/>
   </g>
   <g id="line2d_13">
    <path clip-path="url(#p6075c54a26)" d="M 432.663813 56.850969 
L 444.543813 56.850969 
" style="fill:none;stroke:#333333;stroke-width:0.886227;"/>
   </g>
   <g id="line2d_14">
    <path clip-path="url(#p6075c54a26)" d="M 438.603813 52.890969 
L 438.603813 50.514969 
" style="fill:none;stroke:#333333;stroke-width:0.886227;"/>
   </g>
   <g id="line2d_15">
    <path clip-path="url(#p6075c54a26)" d="M 438.603813 60.810969 
L 438.603813 63.186969 
" style="fill:none;stroke:#333333;stroke-width:0.886227;"/>
   </g>
   <g id="text_7">
    <!-- alphaStandard -->
    <defs>
     <path d="M 18.109375 8.203125 
L 18.109375 -20.796875 
L 9.078125 -20.796875 
L 9.078125 54.6875 
L 18.109375 54.6875 
L 18.109375 46.390625 
Q 20.953125 51.265625 25.265625 53.625 
Q 29.59375 56 35.59375 56 
Q 45.5625 56 51.78125 48.09375 
Q 58.015625 40.1875 58.015625 27.296875 
Q 58.015625 14.40625 51.78125 6.484375 
Q 45.5625 -1.421875 35.59375 -1.421875 
Q 29.59375 -1.421875 25.265625 0.953125 
Q 20.953125 3.328125 18.109375 8.203125 
z
M 48.6875 27.296875 
Q 48.6875 37.203125 44.609375 42.84375 
Q 40.53125 48.484375 33.40625 48.484375 
Q 26.265625 48.484375 22.1875 42.84375 
Q 18.109375 37.203125 18.109375 27.296875 
Q 18.109375 17.390625 22.1875 11.75 
Q 26.265625 6.109375 33.40625 6.109375 
Q 40.53125 6.109375 44.609375 11.75 
Q 48.6875 17.390625 48.6875 27.296875 
z
" id="DejaVuSans-112"/>
     <path d="M 54.890625 33.015625 
L 54.890625 0 
L 45.90625 0 
L 45.90625 32.71875 
Q 45.90625 40.484375 42.875 44.328125 
Q 39.84375 48.1875 33.796875 48.1875 
Q 26.515625 48.1875 22.3125 43.546875 
Q 18.109375 38.921875 18.109375 30.90625 
L 18.109375 0 
L 9.078125 0 
L 9.078125 75.984375 
L 18.109375 75.984375 
L 18.109375 46.1875 
Q 21.34375 51.125 25.703125 53.5625 
Q 30.078125 56 35.796875 56 
Q 45.21875 56 50.046875 50.171875 
Q 54.890625 44.34375 54.890625 33.015625 
z
" id="DejaVuSans-104"/>
     <path d="M 53.515625 70.515625 
L 53.515625 60.890625 
Q 47.90625 63.578125 42.921875 64.890625 
Q 37.9375 66.21875 33.296875 66.21875 
Q 25.25 66.21875 20.875 63.09375 
Q 16.5 59.96875 16.5 54.203125 
Q 16.5 49.359375 19.40625 46.890625 
Q 22.3125 44.4375 30.421875 42.921875 
L 36.375 41.703125 
Q 47.40625 39.59375 52.65625 34.296875 
Q 57.90625 29 57.90625 20.125 
Q 57.90625 9.515625 50.796875 4.046875 
Q 43.703125 -1.421875 29.984375 -1.421875 
Q 24.8125 -1.421875 18.96875 -0.25 
Q 13.140625 0.921875 6.890625 3.21875 
L 6.890625 13.375 
Q 12.890625 10.015625 18.65625 8.296875 
Q 24.421875 6.59375 29.984375 6.59375 
Q 38.421875 6.59375 43.015625 9.90625 
Q 47.609375 13.234375 47.609375 19.390625 
Q 47.609375 24.75 44.3125 27.78125 
Q 41.015625 30.8125 33.5 32.328125 
L 27.484375 33.5 
Q 16.453125 35.6875 11.515625 40.375 
Q 6.59375 45.0625 6.59375 53.421875 
Q 6.59375 63.09375 13.40625 68.65625 
Q 20.21875 74.21875 32.171875 74.21875 
Q 37.3125 74.21875 42.625 73.28125 
Q 47.953125 72.359375 53.515625 70.515625 
z
" id="DejaVuSans-83"/>
     <path d="M 45.40625 46.390625 
L 45.40625 75.984375 
L 54.390625 75.984375 
L 54.390625 0 
L 45.40625 0 
L 45.40625 8.203125 
Q 42.578125 3.328125 38.25 0.953125 
Q 33.9375 -1.421875 27.875 -1.421875 
Q 17.96875 -1.421875 11.734375 6.484375 
Q 5.515625 14.40625 5.515625 27.296875 
Q 5.515625 40.1875 11.734375 48.09375 
Q 17.96875 56 27.875 56 
Q 33.9375 56 38.25 53.625 
Q 42.578125 51.265625 45.40625 46.390625 
z
M 14.796875 27.296875 
Q 14.796875 17.390625 18.875 11.75 
Q 22.953125 6.109375 30.078125 6.109375 
Q 37.203125 6.109375 41.296875 11.75 
Q 45.40625 17.390625 45.40625 27.296875 
Q 45.40625 37.203125 41.296875 42.84375 
Q 37.203125 48.484375 30.078125 48.484375 
Q 22.953125 48.484375 18.875 42.84375 
Q 14.796875 37.203125 14.796875 27.296875 
z
" id="DejaVuSans-100"/>
    </defs>
    <g transform="translate(449.523812 59.279219)scale(0.088 -0.088)">
     <use xlink:href="#DejaVuSans-97"/>
     <use x="61.279297" xlink:href="#DejaVuSans-108"/>
     <use x="89.0625" xlink:href="#DejaVuSans-112"/>
     <use x="152.539062" xlink:href="#DejaVuSans-104"/>
     <use x="215.917969" xlink:href="#DejaVuSans-97"/>
     <use x="277.197266" xlink:href="#DejaVuSans-83"/>
     <use x="340.673828" xlink:href="#DejaVuSans-116"/>
     <use x="379.882812" xlink:href="#DejaVuSans-97"/>
     <use x="441.162109" xlink:href="#DejaVuSans-110"/>
     <use x="504.541016" xlink:href="#DejaVuSans-100"/>
     <use x="568.017578" xlink:href="#DejaVuSans-97"/>
     <use x="629.296875" xlink:href="#DejaVuSans-114"/>
     <use x="670.394531" xlink:href="#DejaVuSans-100"/>
    </g>
   </g>
   <g id="patch_6">
    <path clip-path="url(#pa8d9cb852f)" d="M 430.683812 82.610969 
L 446.523812 82.610969 
L 446.523812 66.770969 
L 430.683812 66.770969 
z
" style="fill:#f2f2f2;"/>
   </g>
   <g id="patch_7">
    <path clip-path="url(#pa8d9cb852f)" d="M 432.663813 78.650969 
L 444.543813 78.650969 
L 444.543813 70.730969 
L 432.663813 70.730969 
z
" style="fill:#482576;stroke:#333333;stroke-linecap:square;stroke-linejoin:miter;stroke-width:0.5;"/>
   </g>
   <g id="line2d_16">
    <path clip-path="url(#pa8d9cb852f)" d="M 432.663813 74.690969 
L 444.543813 74.690969 
" style="fill:none;stroke:#333333;stroke-width:0.886227;"/>
   </g>
   <g id="line2d_17">
    <path clip-path="url(#pa8d9cb852f)" d="M 438.603813 70.730969 
L 438.603813 68.354969 
" style="fill:none;stroke:#333333;stroke-width:0.886227;"/>
   </g>
   <g id="line2d_18">
    <path clip-path="url(#pa8d9cb852f)" d="M 438.603813 78.650969 
L 438.603813 81.026969 
" style="fill:none;stroke:#333333;stroke-width:0.886227;"/>
   </g>
   <g id="text_8">
    <!-- alphaEMKT1 -->
    <defs>
     <path d="M 9.8125 72.90625 
L 55.90625 72.90625 
L 55.90625 64.59375 
L 19.671875 64.59375 
L 19.671875 43.015625 
L 54.390625 43.015625 
L 54.390625 34.71875 
L 19.671875 34.71875 
L 19.671875 8.296875 
L 56.78125 8.296875 
L 56.78125 0 
L 9.8125 0 
z
" id="DejaVuSans-69"/>
     <path d="M 9.8125 72.90625 
L 24.515625 72.90625 
L 43.109375 23.296875 
L 61.8125 72.90625 
L 76.515625 72.90625 
L 76.515625 0 
L 66.890625 0 
L 66.890625 64.015625 
L 48.09375 14.015625 
L 38.1875 14.015625 
L 19.390625 64.015625 
L 19.390625 0 
L 9.8125 0 
z
" id="DejaVuSans-77"/>
     <path d="M 9.8125 72.90625 
L 19.671875 72.90625 
L 19.671875 42.09375 
L 52.390625 72.90625 
L 65.09375 72.90625 
L 28.90625 38.921875 
L 67.671875 0 
L 54.6875 0 
L 19.671875 35.109375 
L 19.671875 0 
L 9.8125 0 
z
" id="DejaVuSans-75"/>
     <path d="M -0.296875 72.90625 
L 61.375 72.90625 
L 61.375 64.59375 
L 35.5 64.59375 
L 35.5 0 
L 25.59375 0 
L 25.59375 64.59375 
L -0.296875 64.59375 
z
" id="DejaVuSans-84"/>
     <path d="M 12.40625 8.296875 
L 28.515625 8.296875 
L 28.515625 63.921875 
L 10.984375 60.40625 
L 10.984375 69.390625 
L 28.421875 72.90625 
L 38.28125 72.90625 
L 38.28125 8.296875 
L 54.390625 8.296875 
L 54.390625 0 
L 12.40625 0 
z
" id="DejaVuSans-49"/>
    </defs>
    <g transform="translate(449.523812 77.119219)scale(0.088 -0.088)">
     <use xlink:href="#DejaVuSans-97"/>
     <use x="61.279297" xlink:href="#DejaVuSans-108"/>
     <use x="89.0625" xlink:href="#DejaVuSans-112"/>
     <use x="152.539062" xlink:href="#DejaVuSans-104"/>
     <use x="215.917969" xlink:href="#DejaVuSans-97"/>
     <use x="277.197266" xlink:href="#DejaVuSans-69"/>
     <use x="340.380859" xlink:href="#DejaVuSans-77"/>
     <use x="426.660156" xlink:href="#DejaVuSans-75"/>
     <use x="492.126953" xlink:href="#DejaVuSans-84"/>
     <use x="553.210938" xlink:href="#DejaVuSans-49"/>
    </g>
   </g>
   <g id="patch_8">
    <path clip-path="url(#pc67f66531c)" d="M 430.683812 100.450969 
L 446.523812 100.450969 
L 446.523812 84.610969 
L 430.683812 84.610969 
z
" style="fill:#f2f2f2;"/>
   </g>
   <g id="patch_9">
    <path clip-path="url(#pc67f66531c)" d="M 432.663813 96.490969 
L 444.543813 96.490969 
L 444.543813 88.570969 
L 432.663813 88.570969 
z
" style="fill:#414487;stroke:#333333;stroke-linecap:square;stroke-linejoin:miter;stroke-width:0.5;"/>
   </g>
   <g id="line2d_19">
    <path clip-path="url(#pc67f66531c)" d="M 432.663813 92.530969 
L 444.543813 92.530969 
" style="fill:none;stroke:#333333;stroke-width:0.886227;"/>
   </g>
   <g id="line2d_20">
    <path clip-path="url(#pc67f66531c)" d="M 438.603813 88.570969 
L 438.603813 86.194969 
" style="fill:none;stroke:#333333;stroke-width:0.886227;"/>
   </g>
   <g id="line2d_21">
    <path clip-path="url(#pc67f66531c)" d="M 438.603813 96.490969 
L 438.603813 98.866969 
" style="fill:none;stroke:#333333;stroke-width:0.886227;"/>
   </g>
   <g id="text_9">
    <!-- alphaEMKT2 -->
    <g transform="translate(449.523812 94.959219)scale(0.088 -0.088)">
     <use xlink:href="#DejaVuSans-97"/>
     <use x="61.279297" xlink:href="#DejaVuSans-108"/>
     <use x="89.0625" xlink:href="#DejaVuSans-112"/>
     <use x="152.539062" xlink:href="#DejaVuSans-104"/>
     <use x="215.917969" xlink:href="#DejaVuSans-97"/>
     <use x="277.197266" xlink:href="#DejaVuSans-69"/>
     <use x="340.380859" xlink:href="#DejaVuSans-77"/>
     <use x="426.660156" xlink:href="#DejaVuSans-75"/>
     <use x="492.126953" xlink:href="#DejaVuSans-84"/>
     <use x="553.210938" xlink:href="#DejaVuSans-50"/>
    </g>
   </g>
   <g id="patch_10">
    <path clip-path="url(#p4324f028f0)" d="M 430.683812 118.290969 
L 446.523812 118.290969 
L 446.523812 102.450969 
L 430.683812 102.450969 
z
" style="fill:#f2f2f2;"/>
   </g>
   <g id="patch_11">
    <path clip-path="url(#p4324f028f0)" d="M 432.663813 114.330969 
L 444.543813 114.330969 
L 444.543813 106.410969 
L 432.663813 106.410969 
z
" style="fill:#355f8d;stroke:#333333;stroke-linecap:square;stroke-linejoin:miter;stroke-width:0.5;"/>
   </g>
   <g id="line2d_22">
    <path clip-path="url(#p4324f028f0)" d="M 432.663813 110.370969 
L 444.543813 110.370969 
" style="fill:none;stroke:#333333;stroke-width:0.886227;"/>
   </g>
   <g id="line2d_23">
    <path clip-path="url(#p4324f028f0)" d="M 438.603813 106.410969 
L 438.603813 104.034969 
" style="fill:none;stroke:#333333;stroke-width:0.886227;"/>
   </g>
   <g id="line2d_24">
    <path clip-path="url(#p4324f028f0)" d="M 438.603813 114.330969 
L 438.603813 116.706969 
" style="fill:none;stroke:#333333;stroke-width:0.886227;"/>
   </g>
   <g id="text_10">
    <!-- alphaFWW1 -->
    <defs>
     <path d="M 9.8125 72.90625 
L 51.703125 72.90625 
L 51.703125 64.59375 
L 19.671875 64.59375 
L 19.671875 43.109375 
L 48.578125 43.109375 
L 48.578125 34.8125 
L 19.671875 34.8125 
L 19.671875 0 
L 9.8125 0 
z
" id="DejaVuSans-70"/>
     <path d="M 3.328125 72.90625 
L 13.28125 72.90625 
L 28.609375 11.28125 
L 43.890625 72.90625 
L 54.984375 72.90625 
L 70.3125 11.28125 
L 85.59375 72.90625 
L 95.609375 72.90625 
L 77.296875 0 
L 64.890625 0 
L 49.515625 63.28125 
L 33.984375 0 
L 21.578125 0 
z
" id="DejaVuSans-87"/>
    </defs>
    <g transform="translate(449.523812 112.799219)scale(0.088 -0.088)">
     <use xlink:href="#DejaVuSans-97"/>
     <use x="61.279297" xlink:href="#DejaVuSans-108"/>
     <use x="89.0625" xlink:href="#DejaVuSans-112"/>
     <use x="152.539062" xlink:href="#DejaVuSans-104"/>
     <use x="215.917969" xlink:href="#DejaVuSans-97"/>
     <use x="277.197266" xlink:href="#DejaVuSans-70"/>
     <use x="334.716797" xlink:href="#DejaVuSans-87"/>
     <use x="433.59375" xlink:href="#DejaVuSans-87"/>
     <use x="532.470703" xlink:href="#DejaVuSans-49"/>
    </g>
   </g>
   <g id="patch_12">
    <path clip-path="url(#pd4861ecfdb)" d="M 430.683812 136.130969 
L 446.523812 136.130969 
L 446.523812 120.290969 
L 430.683812 120.290969 
z
" style="fill:#f2f2f2;"/>
   </g>
   <g id="patch_13">
    <path clip-path="url(#pd4861ecfdb)" d="M 432.663813 132.170969 
L 444.543813 132.170969 
L 444.543813 124.250969 
L 432.663813 124.250969 
z
" style="fill:#2a788e;stroke:#333333;stroke-linecap:square;stroke-linejoin:miter;stroke-width:0.5;"/>
   </g>
   <g id="line2d_25">
    <path clip-path="url(#pd4861ecfdb)" d="M 432.663813 128.210969 
L 444.543813 128.210969 
" style="fill:none;stroke:#333333;stroke-width:0.886227;"/>
   </g>
   <g id="line2d_26">
    <path clip-path="url(#pd4861ecfdb)" d="M 438.603813 124.250969 
L 438.603813 121.874969 
" style="fill:none;stroke:#333333;stroke-width:0.886227;"/>
   </g>
   <g id="line2d_27">
    <path clip-path="url(#pd4861ecfdb)" d="M 438.603813 132.170969 
L 438.603813 134.546969 
" style="fill:none;stroke:#333333;stroke-width:0.886227;"/>
   </g>
   <g id="text_11">
    <!-- alphaFWW2 -->
    <g transform="translate(449.523812 130.639219)scale(0.088 -0.088)">
     <use xlink:href="#DejaVuSans-97"/>
     <use x="61.279297" xlink:href="#DejaVuSans-108"/>
     <use x="89.0625" xlink:href="#DejaVuSans-112"/>
     <use x="152.539062" xlink:href="#DejaVuSans-104"/>
     <use x="215.917969" xlink:href="#DejaVuSans-97"/>
     <use x="277.197266" xlink:href="#DejaVuSans-70"/>
     <use x="334.716797" xlink:href="#DejaVuSans-87"/>
     <use x="433.59375" xlink:href="#DejaVuSans-87"/>
     <use x="532.470703" xlink:href="#DejaVuSans-50"/>
    </g>
   </g>
   <g id="patch_14">
    <path clip-path="url(#p673b3572b2)" d="M 430.683812 153.970969 
L 446.523812 153.970969 
L 446.523812 138.130969 
L 430.683812 138.130969 
z
" style="fill:#f2f2f2;"/>
   </g>
   <g id="patch_15">
    <path clip-path="url(#p673b3572b2)" d="M 432.663813 150.010969 
L 444.543813 150.010969 
L 444.543813 142.090969 
L 432.663813 142.090969 
z
" style="fill:#21918c;stroke:#333333;stroke-linecap:square;stroke-linejoin:miter;stroke-width:0.5;"/>
   </g>
   <g id="line2d_28">
    <path clip-path="url(#p673b3572b2)" d="M 432.663813 146.050969 
L 444.543813 146.050969 
" style="fill:none;stroke:#333333;stroke-width:0.886227;"/>
   </g>
   <g id="line2d_29">
    <path clip-path="url(#p673b3572b2)" d="M 438.603813 142.090969 
L 438.603813 139.714969 
" style="fill:none;stroke:#333333;stroke-width:0.886227;"/>
   </g>
   <g id="line2d_30">
    <path clip-path="url(#p673b3572b2)" d="M 438.603813 150.010969 
L 438.603813 152.386969 
" style="fill:none;stroke:#333333;stroke-width:0.886227;"/>
   </g>
   <g id="text_12">
    <!-- alphaIMP1 -->
    <defs>
     <path d="M 9.8125 72.90625 
L 19.671875 72.90625 
L 19.671875 0 
L 9.8125 0 
z
" id="DejaVuSans-73"/>
     <path d="M 19.671875 64.796875 
L 19.671875 37.40625 
L 32.078125 37.40625 
Q 38.96875 37.40625 42.71875 40.96875 
Q 46.484375 44.53125 46.484375 51.125 
Q 46.484375 57.671875 42.71875 61.234375 
Q 38.96875 64.796875 32.078125 64.796875 
z
M 9.8125 72.90625 
L 32.078125 72.90625 
Q 44.34375 72.90625 50.609375 67.359375 
Q 56.890625 61.8125 56.890625 51.125 
Q 56.890625 40.328125 50.609375 34.8125 
Q 44.34375 29.296875 32.078125 29.296875 
L 19.671875 29.296875 
L 19.671875 0 
L 9.8125 0 
z
" id="DejaVuSans-80"/>
    </defs>
    <g transform="translate(449.523812 148.479219)scale(0.088 -0.088)">
     <use xlink:href="#DejaVuSans-97"/>
     <use x="61.279297" xlink:href="#DejaVuSans-108"/>
     <use x="89.0625" xlink:href="#DejaVuSans-112"/>
     <use x="152.539062" xlink:href="#DejaVuSans-104"/>
     <use x="215.917969" xlink:href="#DejaVuSans-97"/>
     <use x="277.197266" xlink:href="#DejaVuSans-73"/>
     <use x="306.689453" xlink:href="#DejaVuSans-77"/>
     <use x="392.96875" xlink:href="#DejaVuSans-80"/>
     <use x="453.271484" xlink:href="#DejaVuSans-49"/>
    </g>
   </g>
   <g id="patch_16">
    <path clip-path="url(#p5dd5526046)" d="M 430.683812 171.810969 
L 446.523812 171.810969 
L 446.523812 155.970969 
L 430.683812 155.970969 
z
" style="fill:#f2f2f2;"/>
   </g>
   <g id="patch_17">
    <path clip-path="url(#p5dd5526046)" d="M 432.663813 167.850969 
L 444.543813 167.850969 
L 444.543813 159.930969 
L 432.663813 159.930969 
z
" style="fill:#22a884;stroke:#333333;stroke-linecap:square;stroke-linejoin:miter;stroke-width:0.5;"/>
   </g>
   <g id="line2d_31">
    <path clip-path="url(#p5dd5526046)" d="M 432.663813 163.890969 
L 444.543813 163.890969 
" style="fill:none;stroke:#333333;stroke-width:0.886227;"/>
   </g>
   <g id="line2d_32">
    <path clip-path="url(#p5dd5526046)" d="M 438.603813 159.930969 
L 438.603813 157.554969 
" style="fill:none;stroke:#333333;stroke-width:0.886227;"/>
   </g>
   <g id="line2d_33">
    <path clip-path="url(#p5dd5526046)" d="M 438.603813 167.850969 
L 438.603813 170.226969 
" style="fill:none;stroke:#333333;stroke-width:0.886227;"/>
   </g>
   <g id="text_13">
    <!-- alphaIMP2 -->
    <g transform="translate(449.523812 166.319219)scale(0.088 -0.088)">
     <use xlink:href="#DejaVuSans-97"/>
     <use x="61.279297" xlink:href="#DejaVuSans-108"/>
     <use x="89.0625" xlink:href="#DejaVuSans-112"/>
     <use x="152.539062" xlink:href="#DejaVuSans-104"/>
     <use x="215.917969" xlink:href="#DejaVuSans-97"/>
     <use x="277.197266" xlink:href="#DejaVuSans-73"/>
     <use x="306.689453" xlink:href="#DejaVuSans-77"/>
     <use x="392.96875" xlink:href="#DejaVuSans-80"/>
     <use x="453.271484" xlink:href="#DejaVuSans-50"/>
    </g>
   </g>
   <g id="patch_18">
    <path clip-path="url(#p6f3fccb36c)" d="M 430.683812 189.650969 
L 446.523812 189.650969 
L 446.523812 173.810969 
L 430.683812 173.810969 
z
" style="fill:#f2f2f2;"/>
   </g>
   <g id="patch_19">
    <path clip-path="url(#p6f3fccb36c)" d="M 432.663813 185.690969 
L 444.543813 185.690969 
L 444.543813 177.770969 
L 432.663813 177.770969 
z
" style="fill:#42be71;stroke:#333333;stroke-linecap:square;stroke-linejoin:miter;stroke-width:0.5;"/>
   </g>
   <g id="line2d_34">
    <path clip-path="url(#p6f3fccb36c)" d="M 432.663813 181.730969 
L 444.543813 181.730969 
" style="fill:none;stroke:#333333;stroke-width:0.886227;"/>
   </g>
   <g id="line2d_35">
    <path clip-path="url(#p6f3fccb36c)" d="M 438.603813 177.770969 
L 438.603813 175.394969 
" style="fill:none;stroke:#333333;stroke-width:0.886227;"/>
   </g>
   <g id="line2d_36">
    <path clip-path="url(#p6f3fccb36c)" d="M 438.603813 185.690969 
L 438.603813 188.066969 
" style="fill:none;stroke:#333333;stroke-width:0.886227;"/>
   </g>
   <g id="text_14">
    <!-- alphaAsymptotic1 -->
    <defs>
     <path d="M 34.1875 63.1875 
L 20.796875 26.90625 
L 47.609375 26.90625 
z
M 28.609375 72.90625 
L 39.796875 72.90625 
L 67.578125 0 
L 57.328125 0 
L 50.6875 18.703125 
L 17.828125 18.703125 
L 11.1875 0 
L 0.78125 0 
z
" id="DejaVuSans-65"/>
     <path d="M 32.171875 -5.078125 
Q 28.375 -14.84375 24.75 -17.8125 
Q 21.140625 -20.796875 15.09375 -20.796875 
L 7.90625 -20.796875 
L 7.90625 -13.28125 
L 13.1875 -13.28125 
Q 16.890625 -13.28125 18.9375 -11.515625 
Q 21 -9.765625 23.484375 -3.21875 
L 25.09375 0.875 
L 2.984375 54.6875 
L 12.5 54.6875 
L 29.59375 11.921875 
L 46.6875 54.6875 
L 56.203125 54.6875 
z
" id="DejaVuSans-121"/>
     <path d="M 48.78125 52.59375 
L 48.78125 44.1875 
Q 44.96875 46.296875 41.140625 47.34375 
Q 37.3125 48.390625 33.40625 48.390625 
Q 24.65625 48.390625 19.8125 42.84375 
Q 14.984375 37.3125 14.984375 27.296875 
Q 14.984375 17.28125 19.8125 11.734375 
Q 24.65625 6.203125 33.40625 6.203125 
Q 37.3125 6.203125 41.140625 7.25 
Q 44.96875 8.296875 48.78125 10.40625 
L 48.78125 2.09375 
Q 45.015625 0.34375 40.984375 -0.53125 
Q 36.96875 -1.421875 32.421875 -1.421875 
Q 20.0625 -1.421875 12.78125 6.34375 
Q 5.515625 14.109375 5.515625 27.296875 
Q 5.515625 40.671875 12.859375 48.328125 
Q 20.21875 56 33.015625 56 
Q 37.15625 56 41.109375 55.140625 
Q 45.0625 54.296875 48.78125 52.59375 
z
" id="DejaVuSans-99"/>
    </defs>
    <g transform="translate(449.523812 184.159219)scale(0.088 -0.088)">
     <use xlink:href="#DejaVuSans-97"/>
     <use x="61.279297" xlink:href="#DejaVuSans-108"/>
     <use x="89.0625" xlink:href="#DejaVuSans-112"/>
     <use x="152.539062" xlink:href="#DejaVuSans-104"/>
     <use x="215.917969" xlink:href="#DejaVuSans-97"/>
     <use x="277.197266" xlink:href="#DejaVuSans-65"/>
     <use x="345.605469" xlink:href="#DejaVuSans-115"/>
     <use x="397.705078" xlink:href="#DejaVuSans-121"/>
     <use x="456.884766" xlink:href="#DejaVuSans-109"/>
     <use x="554.296875" xlink:href="#DejaVuSans-112"/>
     <use x="617.773438" xlink:href="#DejaVuSans-116"/>
     <use x="656.982422" xlink:href="#DejaVuSans-111"/>
     <use x="718.164062" xlink:href="#DejaVuSans-116"/>
     <use x="757.373047" xlink:href="#DejaVuSans-105"/>
     <use x="785.15625" xlink:href="#DejaVuSans-99"/>
     <use x="840.136719" xlink:href="#DejaVuSans-49"/>
    </g>
   </g>
   <g id="patch_20">
    <path clip-path="url(#pbd6233d57f)" d="M 430.683812 207.490969 
L 446.523812 207.490969 
L 446.523812 191.650969 
L 430.683812 191.650969 
z
" style="fill:#f2f2f2;"/>
   </g>
   <g id="patch_21">
    <path clip-path="url(#pbd6233d57f)" d="M 432.663813 203.530969 
L 444.543813 203.530969 
L 444.543813 195.610969 
L 432.663813 195.610969 
z
" style="fill:#7ad151;stroke:#333333;stroke-linecap:square;stroke-linejoin:miter;stroke-width:0.5;"/>
   </g>
   <g id="line2d_37">
    <path clip-path="url(#pbd6233d57f)" d="M 432.663813 199.570969 
L 444.543813 199.570969 
" style="fill:none;stroke:#333333;stroke-width:0.886227;"/>
   </g>
   <g id="line2d_38">
    <path clip-path="url(#pbd6233d57f)" d="M 438.603813 195.610969 
L 438.603813 193.234969 
" style="fill:none;stroke:#333333;stroke-width:0.886227;"/>
   </g>
   <g id="line2d_39">
    <path clip-path="url(#pbd6233d57f)" d="M 438.603813 203.530969 
L 438.603813 205.906969 
" style="fill:none;stroke:#333333;stroke-width:0.886227;"/>
   </g>
   <g id="text_15">
    <!-- alphaAsymptotic2 -->
    <g transform="translate(449.523812 201.999219)scale(0.088 -0.088)">
     <use xlink:href="#DejaVuSans-97"/>
     <use x="61.279297" xlink:href="#DejaVuSans-108"/>
     <use x="89.0625" xlink:href="#DejaVuSans-112"/>
     <use x="152.539062" xlink:href="#DejaVuSans-104"/>
     <use x="215.917969" xlink:href="#DejaVuSans-97"/>
     <use x="277.197266" xlink:href="#DejaVuSans-65"/>
     <use x="345.605469" xlink:href="#DejaVuSans-115"/>
     <use x="397.705078" xlink:href="#DejaVuSans-121"/>
     <use x="456.884766" xlink:href="#DejaVuSans-109"/>
     <use x="554.296875" xlink:href="#DejaVuSans-112"/>
     <use x="617.773438" xlink:href="#DejaVuSans-116"/>
     <use x="656.982422" xlink:href="#DejaVuSans-111"/>
     <use x="718.164062" xlink:href="#DejaVuSans-116"/>
     <use x="757.373047" xlink:href="#DejaVuSans-105"/>
     <use x="785.15625" xlink:href="#DejaVuSans-99"/>
     <use x="840.136719" xlink:href="#DejaVuSans-50"/>
    </g>
   </g>
   <g id="patch_22">
    <path clip-path="url(#pbab30dd506)" d="M 430.683812 225.330969 
L 446.523812 225.330969 
L 446.523812 209.490969 
L 430.683812 209.490969 
z
" style="fill:#f2f2f2;"/>
   </g>
   <g id="patch_23">
    <path clip-path="url(#pbab30dd506)" d="M 432.663813 221.370969 
L 444.543813 221.370969 
L 444.543813 213.450969 
L 432.663813 213.450969 
z
" style="fill:#bddf26;stroke:#333333;stroke-linecap:square;stroke-linejoin:miter;stroke-width:0.5;"/>
   </g>
   <g id="line2d_40">
    <path clip-path="url(#pbab30dd506)" d="M 432.663813 217.410969 
L 444.543813 217.410969 
" style="fill:none;stroke:#333333;stroke-width:0.886227;"/>
   </g>
   <g id="line2d_41">
    <path clip-path="url(#pbab30dd506)" d="M 438.603813 213.450969 
L 438.603813 211.074969 
" style="fill:none;stroke:#333333;stroke-width:0.886227;"/>
   </g>
   <g id="line2d_42">
    <path clip-path="url(#pbab30dd506)" d="M 438.603813 221.370969 
L 438.603813 223.746969 
" style="fill:none;stroke:#333333;stroke-width:0.886227;"/>
   </g>
   <g id="text_16">
    <!-- grapes -->
    <defs>
     <path d="M 45.40625 27.984375 
Q 45.40625 37.75 41.375 43.109375 
Q 37.359375 48.484375 30.078125 48.484375 
Q 22.859375 48.484375 18.828125 43.109375 
Q 14.796875 37.75 14.796875 27.984375 
Q 14.796875 18.265625 18.828125 12.890625 
Q 22.859375 7.515625 30.078125 7.515625 
Q 37.359375 7.515625 41.375 12.890625 
Q 45.40625 18.265625 45.40625 27.984375 
z
M 54.390625 6.78125 
Q 54.390625 -7.171875 48.1875 -13.984375 
Q 42 -20.796875 29.203125 -20.796875 
Q 24.46875 -20.796875 20.265625 -20.09375 
Q 16.0625 -19.390625 12.109375 -17.921875 
L 12.109375 -9.1875 
Q 16.0625 -11.328125 19.921875 -12.34375 
Q 23.78125 -13.375 27.78125 -13.375 
Q 36.625 -13.375 41.015625 -8.765625 
Q 45.40625 -4.15625 45.40625 5.171875 
L 45.40625 9.625 
Q 42.625 4.78125 38.28125 2.390625 
Q 33.9375 0 27.875 0 
Q 17.828125 0 11.671875 7.65625 
Q 5.515625 15.328125 5.515625 27.984375 
Q 5.515625 40.671875 11.671875 48.328125 
Q 17.828125 56 27.875 56 
Q 33.9375 56 38.28125 53.609375 
Q 42.625 51.21875 45.40625 46.390625 
L 45.40625 54.6875 
L 54.390625 54.6875 
z
" id="DejaVuSans-103"/>
    </defs>
    <g transform="translate(449.523812 219.839219)scale(0.088 -0.088)">
     <use xlink:href="#DejaVuSans-103"/>
     <use x="63.476562" xlink:href="#DejaVuSans-114"/>
     <use x="104.589844" xlink:href="#DejaVuSans-97"/>
     <use x="165.869141" xlink:href="#DejaVuSans-112"/>
     <use x="229.345703" xlink:href="#DejaVuSans-101"/>
     <use x="290.869141" xlink:href="#DejaVuSans-115"/>
    </g>
   </g>
   <g id="patch_24">
    <path clip-path="url(#p75a0494358)" d="M 430.683812 243.170969 
L 446.523812 243.170969 
L 446.523812 227.330969 
L 430.683812 227.330969 
z
" style="fill:#f2f2f2;"/>
   </g>
   <g id="patch_25">
    <path clip-path="url(#p75a0494358)" d="M 432.663813 239.210969 
L 444.543813 239.210969 
L 444.543813 231.290969 
L 432.663813 231.290969 
z
" style="fill:#fde725;stroke:#333333;stroke-linecap:square;stroke-linejoin:miter;stroke-width:0.5;"/>
   </g>
   <g id="line2d_43">
    <path clip-path="url(#p75a0494358)" d="M 432.663813 235.250969 
L 444.543813 235.250969 
" style="fill:none;stroke:#333333;stroke-width:0.886227;"/>
   </g>
   <g id="line2d_44">
    <path clip-path="url(#p75a0494358)" d="M 438.603813 231.290969 
L 438.603813 228.914969 
" style="fill:none;stroke:#333333;stroke-width:0.886227;"/>
   </g>
   <g id="line2d_45">
    <path clip-path="url(#p75a0494358)" d="M 438.603813 239.210969 
L 438.603813 241.586969 
" style="fill:none;stroke:#333333;stroke-width:0.886227;"/>
   </g>
   <g id="text_17">
    <!-- trueAlpha -->
    <g transform="translate(449.523812 237.679219)scale(0.088 -0.088)">
     <use xlink:href="#DejaVuSans-116"/>
     <use x="39.208984" xlink:href="#DejaVuSans-114"/>
     <use x="80.322266" xlink:href="#DejaVuSans-117"/>
     <use x="143.701172" xlink:href="#DejaVuSans-101"/>
     <use x="205.224609" xlink:href="#DejaVuSans-65"/>
     <use x="273.632812" xlink:href="#DejaVuSans-108"/>
     <use x="301.416016" xlink:href="#DejaVuSans-112"/>
     <use x="364.892578" xlink:href="#DejaVuSans-104"/>
     <use x="428.271484" xlink:href="#DejaVuSans-97"/>
    </g>
   </g>
  </g>
 </g>
 <defs>
  <clipPath id="pda9d9859a6">
   <rect height="266.112" width="357.12" x="54.163813" y="7.2"/>
  </clipPath>
  <clipPath id="p6075c54a26">
   <path d="M 430.683812 64.770969 
L 430.683812 48.930969 
L 446.523812 48.930969 
L 446.523812 64.770969 
"/>
  </clipPath>
  <clipPath id="pa8d9cb852f">
   <path d="M 430.683812 82.610969 
L 430.683812 66.770969 
L 446.523812 66.770969 
L 446.523812 82.610969 
"/>
  </clipPath>
  <clipPath id="pc67f66531c">
   <path d="M 430.683812 100.450969 
L 430.683812 84.610969 
L 446.523812 84.610969 
L 446.523812 100.450969 
"/>
  </clipPath>
  <clipPath id="p4324f028f0">
   <path d="M 430.683812 118.290969 
L 430.683812 102.450969 
L 446.523812 102.450969 
L 446.523812 118.290969 
"/>
  </clipPath>
  <clipPath id="pd4861ecfdb">
   <path d="M 430.683812 136.130969 
L 430.683812 120.290969 
L 446.523812 120.290969 
L 446.523812 136.130969 
"/>
  </clipPath>
  <clipPath id="p673b3572b2">
   <path d="M 430.683812 153.970969 
L 430.683812 138.130969 
L 446.523812 138.130969 
L 446.523812 153.970969 
"/>
  </clipPath>
  <clipPath id="p5dd5526046">
   <path d="M 430.683812 171.810969 
L 430.683812 155.970969 
L 446.523812 155.970969 
L 446.523812 171.810969 
"/>
  </clipPath>
  <clipPath id="p6f3fccb36c">
   <path d="M 430.683812 189.650969 
L 430.683812 173.810969 
L 446.523812 173.810969 
L 446.523812 189.650969 
"/>
  </clipPath>
  <clipPath id="pbd6233d57f">
   <path d="M 430.683812 207.490969 
L 430.683812 191.650969 
L 446.523812 191.650969 
L 446.523812 207.490969 
"/>
  </clipPath>
  <clipPath id="pbab30dd506">
   <path d="M 430.683812 225.330969 
L 430.683812 209.490969 
L 446.523812 209.490969 
L 446.523812 225.330969 
"/>
  </clipPath>
  <clipPath id="p75a0494358">
   <path d="M 430.683812 243.170969 
L 430.683812 227.330969 
L 446.523812 227.330969 
L 446.523812 243.170969 
"/>
  </clipPath>
 </defs>
</svg>
