<?xml version="1.0" encoding="utf-8" standalone="no"?>
<!DOCTYPE svg PUBLIC "-//W3C//DTD SVG 1.1//EN"
  "http://www.w3.org/Graphics/SVG/1.1/DTD/svg11.dtd">
<!-- Created with matplotlib (https://matplotlib.org/) -->
<svg height="309.269437pt" version="1.1" viewBox="0 0 542.856187 309.269437" width="542.856187pt" xmlns="http://www.w3.org/2000/svg" xmlns:xlink="http://www.w3.org/1999/xlink">
 <defs>
  <style type="text/css">
*{stroke-linecap:butt;stroke-linejoin:round;}
  </style>
 </defs>
 <g id="figure_1">
  <g id="patch_1">
   <path d="M 0 309.269437 
L 542.856187 309.269437 
L 542.856187 0 
L 0 0 
z
" style="fill:#ffffff;stroke:#ffffff;stroke-linejoin:miter;"/>
  </g>
  <g id="axes_1">
   <g id="patch_2">
    <path d="M 48.564813 273.312 
L 405.684813 273.312 
L 405.684813 7.2 
L 48.564813 7.2 
z
" style="fill:#ebebeb;"/>
   </g>
   <g id="matplotlib.axis_1">
    <g id="xtick_1">
     <g id="line2d_1">
      <path clip-path="url(#p6c31e963d2)" d="M 227.124813 273.312 
L 227.124813 7.2 
" style="fill:none;stroke:#ffffff;"/>
     </g>
     <g id="line2d_2">
      <path d="M 227.124813 273.312 
" style="fill:none;stroke:#333333;stroke-width:1.5;"/>
      <defs>
       <path d="M 0 0 
L 0 2.75 
" id="mca0e7b727a" style="stroke:#333333;"/>
      </defs>
      <g>
       <use style="fill:#333333;stroke:#333333;" x="227.124813" xlink:href="#mca0e7b727a" y="273.312"/>
      </g>
     </g>
     <g id="text_1">
      <!-- genes_14k -->
      <defs>
       <path d="M 45.40625 27.984375 
Q 45.40625 37.75 41.375 43.109375 
Q 37.359375 48.484375 30.078125 48.484375 
Q 22.859375 48.484375 18.828125 43.109375 
Q 14.796875 37.75 14.796875 27.984375 
Q 14.796875 18.265625 18.828125 12.890625 
Q 22.859375 7.515625 30.078125 7.515625 
Q 37.359375 7.515625 41.375 12.890625 
Q 45.40625 18.265625 45.40625 27.984375 
z
M 54.390625 6.78125 
Q 54.390625 -7.171875 48.1875 -13.984375 
Q 42 -20.796875 29.203125 -20.796875 
Q 24.46875 -20.796875 20.265625 -20.09375 
Q 16.0625 -19.390625 12.109375 -17.921875 
L 12.109375 -9.1875 
Q 16.0625 -11.328125 19.921875 -12.34375 
Q 23.78125 -13.375 27.78125 -13.375 
Q 36.625 -13.375 41.015625 -8.765625 
Q 45.40625 -4.15625 45.40625 5.171875 
L 45.40625 9.625 
Q 42.625 4.78125 38.28125 2.390625 
Q 33.9375 0 27.875 0 
Q 17.828125 0 11.671875 7.65625 
Q 5.515625 15.328125 5.515625 27.984375 
Q 5.515625 40.671875 11.671875 48.328125 
Q 17.828125 56 27.875 56 
Q 33.9375 56 38.28125 53.609375 
Q 42.625 51.21875 45.40625 46.390625 
L 45.40625 54.6875 
L 54.390625 54.6875 
z
" id="DejaVuSans-103"/>
       <path d="M 56.203125 29.59375 
L 56.203125 25.203125 
L 14.890625 25.203125 
Q 15.484375 15.921875 20.484375 11.0625 
Q 25.484375 6.203125 34.421875 6.203125 
Q 39.59375 6.203125 44.453125 7.46875 
Q 49.3125 8.734375 54.109375 11.28125 
L 54.109375 2.78125 
Q 49.265625 0.734375 44.1875 -0.34375 
Q 39.109375 -1.421875 33.890625 -1.421875 
Q 20.796875 -1.421875 13.15625 6.1875 
Q 5.515625 13.8125 5.515625 26.8125 
Q 5.515625 40.234375 12.765625 48.109375 
Q 20.015625 56 32.328125 56 
Q 43.359375 56 49.78125 48.890625 
Q 56.203125 41.796875 56.203125 29.59375 
z
M 47.21875 32.234375 
Q 47.125 39.59375 43.09375 43.984375 
Q 39.0625 48.390625 32.421875 48.390625 
Q 24.90625 48.390625 20.390625 44.140625 
Q 15.875 39.890625 15.1875 32.171875 
z
" id="DejaVuSans-101"/>
       <path d="M 54.890625 33.015625 
L 54.890625 0 
L 45.90625 0 
L 45.90625 32.71875 
Q 45.90625 40.484375 42.875 44.328125 
Q 39.84375 48.1875 33.796875 48.1875 
Q 26.515625 48.1875 22.3125 43.546875 
Q 18.109375 38.921875 18.109375 30.90625 
L 18.109375 0 
L 9.078125 0 
L 9.078125 54.6875 
L 18.109375 54.6875 
L 18.109375 46.1875 
Q 21.34375 51.125 25.703125 53.5625 
Q 30.078125 56 35.796875 56 
Q 45.21875 56 50.046875 50.171875 
Q 54.890625 44.34375 54.890625 33.015625 
z
" id="DejaVuSans-110"/>
       <path d="M 44.28125 53.078125 
L 44.28125 44.578125 
Q 40.484375 46.53125 36.375 47.5 
Q 32.28125 48.484375 27.875 48.484375 
Q 21.1875 48.484375 17.84375 46.4375 
Q 14.5 44.390625 14.5 40.28125 
Q 14.5 37.15625 16.890625 35.375 
Q 19.28125 33.59375 26.515625 31.984375 
L 29.59375 31.296875 
Q 39.15625 29.25 43.1875 25.515625 
Q 47.21875 21.78125 47.21875 15.09375 
Q 47.21875 7.46875 41.1875 3.015625 
Q 35.15625 -1.421875 24.609375 -1.421875 
Q 20.21875 -1.421875 15.453125 -0.5625 
Q 10.6875 0.296875 5.421875 2 
L 5.421875 11.28125 
Q 10.40625 8.6875 15.234375 7.390625 
Q 20.0625 6.109375 24.8125 6.109375 
Q 31.15625 6.109375 34.5625 8.28125 
Q 37.984375 10.453125 37.984375 14.40625 
Q 37.984375 18.0625 35.515625 20.015625 
Q 33.0625 21.96875 24.703125 23.78125 
L 21.578125 24.515625 
Q 13.234375 26.265625 9.515625 29.90625 
Q 5.8125 33.546875 5.8125 39.890625 
Q 5.8125 47.609375 11.28125 51.796875 
Q 16.75 56 26.8125 56 
Q 31.78125 56 36.171875 55.265625 
Q 40.578125 54.546875 44.28125 53.078125 
z
" id="DejaVuSans-115"/>
       <path d="M 50.984375 -16.609375 
L 50.984375 -23.578125 
L -0.984375 -23.578125 
L -0.984375 -16.609375 
z
" id="DejaVuSans-95"/>
       <path d="M 12.40625 8.296875 
L 28.515625 8.296875 
L 28.515625 63.921875 
L 10.984375 60.40625 
L 10.984375 69.390625 
L 28.421875 72.90625 
L 38.28125 72.90625 
L 38.28125 8.296875 
L 54.390625 8.296875 
L 54.390625 0 
L 12.40625 0 
z
" id="DejaVuSans-49"/>
       <path d="M 37.796875 64.3125 
L 12.890625 25.390625 
L 37.796875 25.390625 
z
M 35.203125 72.90625 
L 47.609375 72.90625 
L 47.609375 25.390625 
L 58.015625 25.390625 
L 58.015625 17.1875 
L 47.609375 17.1875 
L 47.609375 0 
L 37.796875 0 
L 37.796875 17.1875 
L 4.890625 17.1875 
L 4.890625 26.703125 
z
" id="DejaVuSans-52"/>
       <path d="M 9.078125 75.984375 
L 18.109375 75.984375 
L 18.109375 31.109375 
L 44.921875 54.6875 
L 56.390625 54.6875 
L 27.390625 29.109375 
L 57.625 0 
L 45.90625 0 
L 18.109375 26.703125 
L 18.109375 0 
L 9.078125 0 
z
" id="DejaVuSans-107"/>
      </defs>
      <g style="fill:#4d4d4d;" transform="translate(203.48925 284.948625)scale(0.088 -0.088)">
       <use xlink:href="#DejaVuSans-103"/>
       <use x="63.476562" xlink:href="#DejaVuSans-101"/>
       <use x="125" xlink:href="#DejaVuSans-110"/>
       <use x="188.378906" xlink:href="#DejaVuSans-101"/>
       <use x="249.902344" xlink:href="#DejaVuSans-115"/>
       <use x="302.001953" xlink:href="#DejaVuSans-95"/>
       <use x="352.001953" xlink:href="#DejaVuSans-49"/>
       <use x="415.625" xlink:href="#DejaVuSans-52"/>
       <use x="479.248047" xlink:href="#DejaVuSans-107"/>
      </g>
     </g>
    </g>
    <g id="text_2">
     <!-- simulation -->
     <defs>
      <path d="M 9.421875 54.6875 
L 18.40625 54.6875 
L 18.40625 0 
L 9.421875 0 
z
M 9.421875 75.984375 
L 18.40625 75.984375 
L 18.40625 64.59375 
L 9.421875 64.59375 
z
" id="DejaVuSans-105"/>
      <path d="M 52 44.1875 
Q 55.375 50.25 60.0625 53.125 
Q 64.75 56 71.09375 56 
Q 79.640625 56 84.28125 50.015625 
Q 88.921875 44.046875 88.921875 33.015625 
L 88.921875 0 
L 79.890625 0 
L 79.890625 32.71875 
Q 79.890625 40.578125 77.09375 44.375 
Q 74.3125 48.1875 68.609375 48.1875 
Q 61.625 48.1875 57.5625 43.546875 
Q 53.515625 38.921875 53.515625 30.90625 
L 53.515625 0 
L 44.484375 0 
L 44.484375 32.71875 
Q 44.484375 40.625 41.703125 44.40625 
Q 38.921875 48.1875 33.109375 48.1875 
Q 26.21875 48.1875 22.15625 43.53125 
Q 18.109375 38.875 18.109375 30.90625 
L 18.109375 0 
L 9.078125 0 
L 9.078125 54.6875 
L 18.109375 54.6875 
L 18.109375 46.1875 
Q 21.1875 51.21875 25.484375 53.609375 
Q 29.78125 56 35.6875 56 
Q 41.65625 56 45.828125 52.96875 
Q 50 49.953125 52 44.1875 
z
" id="DejaVuSans-109"/>
      <path d="M 8.5 21.578125 
L 8.5 54.6875 
L 17.484375 54.6875 
L 17.484375 21.921875 
Q 17.484375 14.15625 20.5 10.265625 
Q 23.53125 6.390625 29.59375 6.390625 
Q 36.859375 6.390625 41.078125 11.03125 
Q 45.3125 15.671875 45.3125 23.6875 
L 45.3125 54.6875 
L 54.296875 54.6875 
L 54.296875 0 
L 45.3125 0 
L 45.3125 8.40625 
Q 42.046875 3.421875 37.71875 1 
Q 33.40625 -1.421875 27.6875 -1.421875 
Q 18.265625 -1.421875 13.375 4.4375 
Q 8.5 10.296875 8.5 21.578125 
z
M 31.109375 56 
z
" id="DejaVuSans-117"/>
      <path d="M 9.421875 75.984375 
L 18.40625 75.984375 
L 18.40625 0 
L 9.421875 0 
z
" id="DejaVuSans-108"/>
      <path d="M 34.28125 27.484375 
Q 23.390625 27.484375 19.1875 25 
Q 14.984375 22.515625 14.984375 16.5 
Q 14.984375 11.71875 18.140625 8.90625 
Q 21.296875 6.109375 26.703125 6.109375 
Q 34.1875 6.109375 38.703125 11.40625 
Q 43.21875 16.703125 43.21875 25.484375 
L 43.21875 27.484375 
z
M 52.203125 31.203125 
L 52.203125 0 
L 43.21875 0 
L 43.21875 8.296875 
Q 40.140625 3.328125 35.546875 0.953125 
Q 30.953125 -1.421875 24.3125 -1.421875 
Q 15.921875 -1.421875 10.953125 3.296875 
Q 6 8.015625 6 15.921875 
Q 6 25.140625 12.171875 29.828125 
Q 18.359375 34.515625 30.609375 34.515625 
L 43.21875 34.515625 
L 43.21875 35.40625 
Q 43.21875 41.609375 39.140625 45 
Q 35.0625 48.390625 27.6875 48.390625 
Q 23 48.390625 18.546875 47.265625 
Q 14.109375 46.140625 10.015625 43.890625 
L 10.015625 52.203125 
Q 14.9375 54.109375 19.578125 55.046875 
Q 24.21875 56 28.609375 56 
Q 40.484375 56 46.34375 49.84375 
Q 52.203125 43.703125 52.203125 31.203125 
z
" id="DejaVuSans-97"/>
      <path d="M 18.3125 70.21875 
L 18.3125 54.6875 
L 36.8125 54.6875 
L 36.8125 47.703125 
L 18.3125 47.703125 
L 18.3125 18.015625 
Q 18.3125 11.328125 20.140625 9.421875 
Q 21.96875 7.515625 27.59375 7.515625 
L 36.8125 7.515625 
L 36.8125 0 
L 27.59375 0 
Q 17.1875 0 13.234375 3.875 
Q 9.28125 7.765625 9.28125 18.015625 
L 9.28125 47.703125 
L 2.6875 47.703125 
L 2.6875 54.6875 
L 9.28125 54.6875 
L 9.28125 70.21875 
z
" id="DejaVuSans-116"/>
      <path d="M 30.609375 48.390625 
Q 23.390625 48.390625 19.1875 42.75 
Q 14.984375 37.109375 14.984375 27.296875 
Q 14.984375 17.484375 19.15625 11.84375 
Q 23.34375 6.203125 30.609375 6.203125 
Q 37.796875 6.203125 41.984375 11.859375 
Q 46.1875 17.53125 46.1875 27.296875 
Q 46.1875 37.015625 41.984375 42.703125 
Q 37.796875 48.390625 30.609375 48.390625 
z
M 30.609375 56 
Q 42.328125 56 49.015625 48.375 
Q 55.71875 40.765625 55.71875 27.296875 
Q 55.71875 13.875 49.015625 6.21875 
Q 42.328125 -1.421875 30.609375 -1.421875 
Q 18.84375 -1.421875 12.171875 6.21875 
Q 5.515625 13.875 5.515625 27.296875 
Q 5.515625 40.765625 12.171875 48.375 
Q 18.84375 56 30.609375 56 
z
" id="DejaVuSans-111"/>
     </defs>
     <g transform="translate(192.695203 299.781781)scale(0.11 -0.11)">
      <use xlink:href="#DejaVuSans-115"/>
      <use x="52.099609" xlink:href="#DejaVuSans-105"/>
      <use x="79.882812" xlink:href="#DejaVuSans-109"/>
      <use x="177.294922" xlink:href="#DejaVuSans-117"/>
      <use x="240.673828" xlink:href="#DejaVuSans-108"/>
      <use x="268.457031" xlink:href="#DejaVuSans-97"/>
      <use x="329.736328" xlink:href="#DejaVuSans-116"/>
      <use x="368.945312" xlink:href="#DejaVuSans-105"/>
      <use x="396.728516" xlink:href="#DejaVuSans-111"/>
      <use x="457.910156" xlink:href="#DejaVuSans-110"/>
     </g>
    </g>
   </g>
   <g id="matplotlib.axis_2">
    <g id="ytick_1">
     <g id="line2d_3">
      <path clip-path="url(#p6c31e963d2)" d="M 48.564813 232.33003 
L 405.684813 232.33003 
" style="fill:none;stroke:#ffffff;"/>
     </g>
     <g id="line2d_4">
      <path d="M 48.564813 232.33003 
" style="fill:none;stroke:#333333;stroke-width:1.5;"/>
      <defs>
       <path d="M 0 0 
L -2.75 0 
" id="me31e96c213" style="stroke:#333333;"/>
      </defs>
      <g>
       <use style="fill:#333333;stroke:#333333;" x="48.564813" xlink:href="#me31e96c213" y="232.33003"/>
      </g>
     </g>
     <g id="text_3">
      <!-- −0.2 -->
      <defs>
       <path d="M 10.59375 35.5 
L 73.1875 35.5 
L 73.1875 27.203125 
L 10.59375 27.203125 
z
" id="DejaVuSans-8722"/>
       <path d="M 31.78125 66.40625 
Q 24.171875 66.40625 20.328125 58.90625 
Q 16.5 51.421875 16.5 36.375 
Q 16.5 21.390625 20.328125 13.890625 
Q 24.171875 6.390625 31.78125 6.390625 
Q 39.453125 6.390625 43.28125 13.890625 
Q 47.125 21.390625 47.125 36.375 
Q 47.125 51.421875 43.28125 58.90625 
Q 39.453125 66.40625 31.78125 66.40625 
z
M 31.78125 74.21875 
Q 44.046875 74.21875 50.515625 64.515625 
Q 56.984375 54.828125 56.984375 36.375 
Q 56.984375 17.96875 50.515625 8.265625 
Q 44.046875 -1.421875 31.78125 -1.421875 
Q 19.53125 -1.421875 13.0625 8.265625 
Q 6.59375 17.96875 6.59375 36.375 
Q 6.59375 54.828125 13.0625 64.515625 
Q 19.53125 74.21875 31.78125 74.21875 
z
" id="DejaVuSans-48"/>
       <path d="M 10.6875 12.40625 
L 21 12.40625 
L 21 0 
L 10.6875 0 
z
" id="DejaVuSans-46"/>
       <path d="M 19.1875 8.296875 
L 53.609375 8.296875 
L 53.609375 0 
L 7.328125 0 
L 7.328125 8.296875 
Q 12.9375 14.109375 22.625 23.890625 
Q 32.328125 33.6875 34.8125 36.53125 
Q 39.546875 41.84375 41.421875 45.53125 
Q 43.3125 49.21875 43.3125 52.78125 
Q 43.3125 58.59375 39.234375 62.25 
Q 35.15625 65.921875 28.609375 65.921875 
Q 23.96875 65.921875 18.8125 64.3125 
Q 13.671875 62.703125 7.8125 59.421875 
L 7.8125 69.390625 
Q 13.765625 71.78125 18.9375 73 
Q 24.125 74.21875 28.421875 74.21875 
Q 39.75 74.21875 46.484375 68.546875 
Q 53.21875 62.890625 53.21875 53.421875 
Q 53.21875 48.921875 51.53125 44.890625 
Q 49.859375 40.875 45.40625 35.40625 
Q 44.1875 33.984375 37.640625 27.21875 
Q 31.109375 20.453125 19.1875 8.296875 
z
" id="DejaVuSans-50"/>
      </defs>
      <g style="fill:#4d4d4d;" transform="translate(22.245938 234.75828)scale(0.088 -0.088)">
       <use xlink:href="#DejaVuSans-8722"/>
       <use x="83.789062" xlink:href="#DejaVuSans-48"/>
       <use x="147.412109" xlink:href="#DejaVuSans-46"/>
       <use x="179.199219" xlink:href="#DejaVuSans-50"/>
      </g>
     </g>
    </g>
    <g id="ytick_2">
     <g id="line2d_5">
      <path clip-path="url(#p6c31e963d2)" d="M 48.564813 160.115104 
L 405.684813 160.115104 
" style="fill:none;stroke:#ffffff;"/>
     </g>
     <g id="line2d_6">
      <path d="M 48.564813 160.115104 
" style="fill:none;stroke:#333333;stroke-width:1.5;"/>
      <g>
       <use style="fill:#333333;stroke:#333333;" x="48.564813" xlink:href="#me31e96c213" y="160.115104"/>
      </g>
     </g>
     <g id="text_4">
      <!-- 0 -->
      <g style="fill:#4d4d4d;" transform="translate(38.015813 162.543354)scale(0.088 -0.088)">
       <use xlink:href="#DejaVuSans-48"/>
      </g>
     </g>
    </g>
    <g id="ytick_3">
     <g id="line2d_7">
      <path clip-path="url(#p6c31e963d2)" d="M 48.564813 87.900179 
L 405.684813 87.900179 
" style="fill:none;stroke:#ffffff;"/>
     </g>
     <g id="line2d_8">
      <path d="M 48.564813 87.900179 
" style="fill:none;stroke:#333333;stroke-width:1.5;"/>
      <g>
       <use style="fill:#333333;stroke:#333333;" x="48.564813" xlink:href="#me31e96c213" y="87.900179"/>
      </g>
     </g>
     <g id="text_5">
      <!-- 0.2 -->
      <g style="fill:#4d4d4d;" transform="translate(29.620063 90.328429)scale(0.088 -0.088)">
       <use xlink:href="#DejaVuSans-48"/>
       <use x="63.623047" xlink:href="#DejaVuSans-46"/>
       <use x="95.410156" xlink:href="#DejaVuSans-50"/>
      </g>
     </g>
    </g>
    <g id="ytick_4">
     <g id="line2d_9">
      <path clip-path="url(#p6c31e963d2)" d="M 48.564813 15.685254 
L 405.684813 15.685254 
" style="fill:none;stroke:#ffffff;"/>
     </g>
     <g id="line2d_10">
      <path d="M 48.564813 15.685254 
" style="fill:none;stroke:#333333;stroke-width:1.5;"/>
      <g>
       <use style="fill:#333333;stroke:#333333;" x="48.564813" xlink:href="#me31e96c213" y="15.685254"/>
      </g>
     </g>
     <g id="text_6">
      <!-- 0.4 -->
      <g style="fill:#4d4d4d;" transform="translate(29.620063 18.113504)scale(0.088 -0.088)">
       <use xlink:href="#DejaVuSans-48"/>
       <use x="63.623047" xlink:href="#DejaVuSans-46"/>
       <use x="95.410156" xlink:href="#DejaVuSans-52"/>
      </g>
     </g>
    </g>
    <g id="ytick_5">
     <g id="line2d_11">
      <path clip-path="url(#p6c31e963d2)" d="M 48.564813 268.437493 
L 405.684813 268.437493 
" style="fill:none;stroke:#ffffff;stroke-width:0.5;"/>
     </g>
    </g>
    <g id="ytick_6">
     <g id="line2d_12">
      <path clip-path="url(#p6c31e963d2)" d="M 48.564813 196.222567 
L 405.684813 196.222567 
" style="fill:none;stroke:#ffffff;stroke-width:0.5;"/>
     </g>
    </g>
    <g id="ytick_7">
     <g id="line2d_13">
      <path clip-path="url(#p6c31e963d2)" d="M 48.564813 124.007642 
L 405.684813 124.007642 
" style="fill:none;stroke:#ffffff;stroke-width:0.5;"/>
     </g>
    </g>
    <g id="ytick_8">
     <g id="line2d_14">
      <path clip-path="url(#p6c31e963d2)" d="M 48.564813 51.792716 
L 405.684813 51.792716 
" style="fill:none;stroke:#ffffff;stroke-width:0.5;"/>
     </g>
    </g>
    <g id="text_7">
     <!-- value -->
     <defs>
      <path d="M 2.984375 54.6875 
L 12.5 54.6875 
L 29.59375 8.796875 
L 46.6875 54.6875 
L 56.203125 54.6875 
L 35.6875 0 
L 23.484375 0 
z
" id="DejaVuSans-118"/>
     </defs>
     <g transform="translate(15.558281 153.551594)rotate(-90)scale(0.11 -0.11)">
      <use xlink:href="#DejaVuSans-118"/>
      <use x="59.179688" xlink:href="#DejaVuSans-97"/>
      <use x="120.458984" xlink:href="#DejaVuSans-108"/>
      <use x="148.242188" xlink:href="#DejaVuSans-117"/>
      <use x="211.621094" xlink:href="#DejaVuSans-101"/>
     </g>
    </g>
   </g>
   <g id="LineCollection_1">
    <path clip-path="url(#p6c31e963d2)" d="M 105.379358 248.939463 
L 105.379358 241.356896 
" style="fill:none;stroke:#333333;stroke-width:0.886227;"/>
    <path clip-path="url(#p6c31e963d2)" d="M 105.379358 253.994507 
L 105.379358 261.216 
" style="fill:none;stroke:#333333;stroke-width:0.886227;"/>
   </g>
   <g id="PolyCollection_1">
    <defs>
     <path d="M 94.422267 -60.329975 
L 94.422267 -60.329975 
L 116.336449 -60.329975 
L 116.336449 -55.27493 
L 94.422267 -55.27493 
z
" id="m4689c5fa99" style="stroke:#333333;stroke-width:0.886227;"/>
    </defs>
    <g clip-path="url(#p6c31e963d2)">
     <use style="fill:#440154;stroke:#333333;stroke-width:0.886227;" x="0" xlink:href="#m4689c5fa99" y="309.269437"/>
    </g>
   </g>
   <g id="LineCollection_2">
    <path clip-path="url(#p6c31e963d2)" d="M 94.422267 251.466985 
L 116.336449 251.466985 
" style="fill:none;stroke:#333333;stroke-width:1.772454;"/>
   </g>
   <g id="PathCollection_1">
    <path clip-path="url(#p6c31e963d2)" d="M 129.728449 199.800394 
C 130.198509 199.800394 130.64938 199.613637 130.981763 199.281254 
C 131.314146 198.948872 131.500903 198.498001 131.500903 198.02794 
C 131.500903 197.55788 131.314146 197.107009 130.981763 196.774626 
C 130.64938 196.442243 130.198509 196.255486 129.728449 196.255486 
C 129.258389 196.255486 128.807518 196.442243 128.475135 196.774626 
C 128.142752 197.107009 127.955995 197.55788 127.955995 198.02794 
C 127.955995 198.498001 128.142752 198.948872 128.475135 199.281254 
C 128.807518 199.613637 129.258389 199.800394 129.728449 199.800394 
z
" style="fill:#333333;stroke:#333333;stroke-width:0.886227;"/>
    <path clip-path="url(#p6c31e963d2)" d="M 129.728449 180.663439 
C 130.198509 180.663439 130.64938 180.476682 130.981763 180.144299 
C 131.314146 179.811916 131.500903 179.361045 131.500903 178.890985 
C 131.500903 178.420925 131.314146 177.970054 130.981763 177.637671 
C 130.64938 177.305288 130.198509 177.118531 129.728449 177.118531 
C 129.258389 177.118531 128.807518 177.305288 128.475135 177.637671 
C 128.142752 177.970054 127.955995 178.420925 127.955995 178.890985 
C 127.955995 179.361045 128.142752 179.811916 128.475135 180.144299 
C 128.807518 180.476682 129.258389 180.663439 129.728449 180.663439 
z
" style="fill:#333333;stroke:#333333;stroke-width:0.886227;"/>
   </g>
   <g id="LineCollection_3">
    <path clip-path="url(#p6c31e963d2)" d="M 129.728449 186.022209 
L 129.728449 179.974209 
" style="fill:none;stroke:#333333;stroke-width:0.886227;"/>
    <path clip-path="url(#p6c31e963d2)" d="M 129.728449 190.445373 
L 129.728449 195.500418 
" style="fill:none;stroke:#333333;stroke-width:0.886227;"/>
   </g>
   <g id="PolyCollection_2">
    <defs>
     <path d="M 118.771358 -123.247229 
L 118.771358 -123.247229 
L 140.68554 -123.247229 
L 140.68554 -118.824064 
L 118.771358 -118.824064 
z
" id="m12c80b58ad" style="stroke:#333333;stroke-width:0.886227;"/>
    </defs>
    <g clip-path="url(#p6c31e963d2)">
     <use style="fill:#482576;stroke:#333333;stroke-width:0.886227;" x="0" xlink:href="#m12c80b58ad" y="309.269437"/>
    </g>
   </g>
   <g id="LineCollection_4">
    <path clip-path="url(#p6c31e963d2)" d="M 118.771358 188.278925 
L 140.68554 188.278925 
" style="fill:none;stroke:#333333;stroke-width:1.772454;"/>
   </g>
   <g id="PathCollection_2">
    <defs>
     <path d="M 0 1.772454 
C 0.47006 1.772454 0.920931 1.585697 1.253314 1.253314 
C 1.585697 0.920931 1.772454 0.47006 1.772454 0 
C 1.772454 -0.47006 1.585697 -0.920931 1.253314 -1.253314 
C 0.920931 -1.585697 0.47006 -1.772454 0 -1.772454 
C -0.47006 -1.772454 -0.920931 -1.585697 -1.253314 -1.253314 
C -1.585697 -0.920931 -1.772454 -0.47006 -1.772454 0 
C -1.772454 0.47006 -1.585697 0.920931 -1.253314 1.253314 
C -0.920931 1.585697 -0.47006 1.772454 0 1.772454 
z
" id="m733167f5f7" style="stroke:#333333;stroke-width:0.886227;"/>
    </defs>
    <g clip-path="url(#p6c31e963d2)">
     <use style="fill:#333333;stroke:#333333;stroke-width:0.886227;" x="154.07754" xlink:href="#m733167f5f7" y="172.391642"/>
    </g>
   </g>
   <g id="LineCollection_5">
    <path clip-path="url(#p6c31e963d2)" d="M 154.07754 180.967164 
L 154.07754 175.641313 
" style="fill:none;stroke:#333333;stroke-width:0.886227;"/>
    <path clip-path="url(#p6c31e963d2)" d="M 154.07754 185.390328 
L 154.07754 191.528597 
" style="fill:none;stroke:#333333;stroke-width:0.886227;"/>
   </g>
   <g id="PolyCollection_3">
    <defs>
     <path d="M 143.120449 -128.302273 
L 143.120449 -128.302273 
L 165.034631 -128.302273 
L 165.034631 -123.879109 
L 143.120449 -123.879109 
z
" id="m7a021a55f9" style="stroke:#333333;stroke-width:0.886227;"/>
    </defs>
    <g clip-path="url(#p6c31e963d2)">
     <use style="fill:#414487;stroke:#333333;stroke-width:0.886227;" x="0" xlink:href="#m7a021a55f9" y="309.269437"/>
    </g>
   </g>
   <g id="LineCollection_6">
    <path clip-path="url(#p6c31e963d2)" d="M 143.120449 183.223881 
L 165.034631 183.223881 
" style="fill:none;stroke:#333333;stroke-width:1.772454;"/>
   </g>
   <g id="PathCollection_3">
    <path clip-path="url(#p6c31e963d2)" d="M 178.426631 178.858066 
C 178.896691 178.858066 179.347562 178.671309 179.679945 178.338926 
C 180.012328 178.006543 180.199085 177.555672 180.199085 177.085612 
C 180.199085 176.615552 180.012328 176.164681 179.679945 175.832298 
C 179.347562 175.499915 178.896691 175.313158 178.426631 175.313158 
C 177.95657 175.313158 177.505699 175.499915 177.173317 175.832298 
C 176.840934 176.164681 176.654177 176.615552 176.654177 177.085612 
C 176.654177 177.555672 176.840934 178.006543 177.173317 178.338926 
C 177.505699 178.671309 177.95657 178.858066 178.426631 178.858066 
z
" style="fill:#333333;stroke:#333333;stroke-width:0.886227;"/>
    <path clip-path="url(#p6c31e963d2)" d="M 178.426631 158.998961 
C 178.896691 158.998961 179.347562 158.812204 179.679945 158.479822 
C 180.012328 158.147439 180.199085 157.696568 180.199085 157.226507 
C 180.199085 156.756447 180.012328 156.305576 179.679945 155.973193 
C 179.347562 155.640811 178.896691 155.454054 178.426631 155.454054 
C 177.95657 155.454054 177.505699 155.640811 177.173317 155.973193 
C 176.840934 156.305576 176.654177 156.756447 176.654177 157.226507 
C 176.654177 157.696568 176.840934 158.147439 177.173317 158.479822 
C 177.505699 158.812204 177.95657 158.998961 178.426631 158.998961 
z
" style="fill:#333333;stroke:#333333;stroke-width:0.886227;"/>
   </g>
   <g id="LineCollection_7">
    <path clip-path="url(#p6c31e963d2)" d="M 178.426631 164.086925 
L 178.426631 157.948657 
" style="fill:none;stroke:#333333;stroke-width:0.886227;"/>
    <path clip-path="url(#p6c31e963d2)" d="M 178.426631 168.51009 
L 178.426631 173.113791 
" style="fill:none;stroke:#333333;stroke-width:0.886227;"/>
   </g>
   <g id="PolyCollection_4">
    <defs>
     <path d="M 167.46954 -145.182512 
L 167.46954 -145.182512 
L 189.383722 -145.182512 
L 189.383722 -140.759348 
L 167.46954 -140.759348 
z
" id="m349f7297d5" style="stroke:#333333;stroke-width:0.886227;"/>
    </defs>
    <g clip-path="url(#p6c31e963d2)">
     <use style="fill:#355f8d;stroke:#333333;stroke-width:0.886227;" x="0" xlink:href="#m349f7297d5" y="309.269437"/>
    </g>
   </g>
   <g id="LineCollection_8">
    <path clip-path="url(#p6c31e963d2)" d="M 167.46954 166.253373 
L 189.383722 166.253373 
" style="fill:none;stroke:#333333;stroke-width:1.772454;"/>
   </g>
   <g id="LineCollection_9">
    <path clip-path="url(#p6c31e963d2)" d="M 202.775722 91.149851 
L 202.775722 83.206209 
" style="fill:none;stroke:#333333;stroke-width:0.886227;"/>
    <path clip-path="url(#p6c31e963d2)" d="M 202.775722 97.017313 
L 202.775722 104.870687 
" style="fill:none;stroke:#333333;stroke-width:0.886227;"/>
   </g>
   <g id="PolyCollection_5">
    <defs>
     <path d="M 191.818631 -218.119587 
L 191.818631 -218.119587 
L 213.732812 -218.119587 
L 213.732812 -212.252124 
L 191.818631 -212.252124 
z
" id="mc87fbf7425" style="stroke:#333333;stroke-width:0.886227;"/>
    </defs>
    <g clip-path="url(#p6c31e963d2)">
     <use style="fill:#2a788e;stroke:#333333;stroke-width:0.886227;" x="0" xlink:href="#mc87fbf7425" y="309.269437"/>
    </g>
   </g>
   <g id="LineCollection_10">
    <path clip-path="url(#p6c31e963d2)" d="M 191.818631 94.399522 
L 213.732812 94.399522 
" style="fill:none;stroke:#333333;stroke-width:1.772454;"/>
   </g>
   <g id="PathCollection_4">
    <path clip-path="url(#p6c31e963d2)" d="M 227.124812 178.858066 
C 227.594873 178.858066 228.045744 178.671309 228.378127 178.338926 
C 228.710509 178.006543 228.897266 177.555672 228.897266 177.085612 
C 228.897266 176.615552 228.710509 176.164681 228.378127 175.832298 
C 228.045744 175.499915 227.594873 175.313158 227.124812 175.313158 
C 226.654752 175.313158 226.203881 175.499915 225.871498 175.832298 
C 225.539116 176.164681 225.352359 176.615552 225.352359 177.085612 
C 225.352359 177.555672 225.539116 178.006543 225.871498 178.338926 
C 226.203881 178.671309 226.654752 178.858066 227.124812 178.858066 
z
" style="fill:#333333;stroke:#333333;stroke-width:0.886227;"/>
    <path clip-path="url(#p6c31e963d2)" d="M 227.124812 158.998961 
C 227.594873 158.998961 228.045744 158.812204 228.378127 158.479822 
C 228.710509 158.147439 228.897266 157.696568 228.897266 157.226507 
C 228.897266 156.756447 228.710509 156.305576 228.378127 155.973193 
C 228.045744 155.640811 227.594873 155.454054 227.124812 155.454054 
C 226.654752 155.454054 226.203881 155.640811 225.871498 155.973193 
C 225.539116 156.305576 225.352359 156.756447 225.352359 157.226507 
C 225.352359 157.696568 225.539116 158.147439 225.871498 158.479822 
C 226.203881 158.812204 226.654752 158.998961 227.124812 158.998961 
z
" style="fill:#333333;stroke:#333333;stroke-width:0.886227;"/>
   </g>
   <g id="LineCollection_11">
    <path clip-path="url(#p6c31e963d2)" d="M 227.124812 164.086925 
L 227.124812 157.948657 
" style="fill:none;stroke:#333333;stroke-width:0.886227;"/>
    <path clip-path="url(#p6c31e963d2)" d="M 227.124812 168.51009 
L 227.124812 173.113791 
" style="fill:none;stroke:#333333;stroke-width:0.886227;"/>
   </g>
   <g id="PolyCollection_6">
    <defs>
     <path d="M 216.167722 -145.182512 
L 216.167722 -145.182512 
L 238.081903 -145.182512 
L 238.081903 -140.759348 
L 216.167722 -140.759348 
z
" id="m8a2ff7dee6" style="stroke:#333333;stroke-width:0.886227;"/>
    </defs>
    <g clip-path="url(#p6c31e963d2)">
     <use style="fill:#21918c;stroke:#333333;stroke-width:0.886227;" x="0" xlink:href="#m8a2ff7dee6" y="309.269437"/>
    </g>
   </g>
   <g id="LineCollection_12">
    <path clip-path="url(#p6c31e963d2)" d="M 216.167722 166.253373 
L 238.081903 166.253373 
" style="fill:none;stroke:#333333;stroke-width:1.772454;"/>
   </g>
   <g id="LineCollection_13">
    <path clip-path="url(#p6c31e963d2)" d="M 251.473903 91.149851 
L 251.473903 83.206209 
" style="fill:none;stroke:#333333;stroke-width:0.886227;"/>
    <path clip-path="url(#p6c31e963d2)" d="M 251.473903 97.017313 
L 251.473903 104.870687 
" style="fill:none;stroke:#333333;stroke-width:0.886227;"/>
   </g>
   <g id="PolyCollection_7">
    <defs>
     <path d="M 240.516812 -218.119587 
L 240.516812 -218.119587 
L 262.430994 -218.119587 
L 262.430994 -212.252124 
L 240.516812 -212.252124 
z
" id="ma78c93b9bb" style="stroke:#333333;stroke-width:0.886227;"/>
    </defs>
    <g clip-path="url(#p6c31e963d2)">
     <use style="fill:#22a884;stroke:#333333;stroke-width:0.886227;" x="0" xlink:href="#ma78c93b9bb" y="309.269437"/>
    </g>
   </g>
   <g id="LineCollection_14">
    <path clip-path="url(#p6c31e963d2)" d="M 240.516812 94.399522 
L 262.430994 94.399522 
" style="fill:none;stroke:#333333;stroke-width:1.772454;"/>
   </g>
   <g id="LineCollection_15">
    <path clip-path="url(#p6c31e963d2)" d="M 275.822994 58.201791 
L 275.822994 47.820896 
" style="fill:none;stroke:#333333;stroke-width:0.886227;"/>
    <path clip-path="url(#p6c31e963d2)" d="M 275.822994 71.381015 
L 275.822994 86.455881 
" style="fill:none;stroke:#333333;stroke-width:0.886227;"/>
   </g>
   <g id="PolyCollection_8">
    <defs>
     <path d="M 264.865903 -251.067646 
L 264.865903 -251.067646 
L 286.780085 -251.067646 
L 286.780085 -237.888423 
L 264.865903 -237.888423 
z
" id="m821e18e599" style="stroke:#333333;stroke-width:0.886227;"/>
    </defs>
    <g clip-path="url(#p6c31e963d2)">
     <use style="fill:#42be71;stroke:#333333;stroke-width:0.886227;" x="0" xlink:href="#m821e18e599" y="309.269437"/>
    </g>
   </g>
   <g id="LineCollection_16">
    <path clip-path="url(#p6c31e963d2)" d="M 264.865903 65.152478 
L 286.780085 65.152478 
" style="fill:none;stroke:#333333;stroke-width:1.772454;"/>
   </g>
   <g id="PathCollection_5">
    <path clip-path="url(#p6c31e963d2)" d="M 300.172085 85.700812 
C 300.642145 85.700812 301.093017 85.514055 301.425399 85.181672 
C 301.757782 84.84929 301.944539 84.398418 301.944539 83.928358 
C 301.944539 83.458298 301.757782 83.007427 301.425399 82.675044 
C 301.093017 82.342661 300.642145 82.155904 300.172085 82.155904 
C 299.702025 82.155904 299.251154 82.342661 298.918771 82.675044 
C 298.586388 83.007427 298.399631 83.458298 298.399631 83.928358 
C 298.399631 84.398418 298.586388 84.84929 298.918771 85.181672 
C 299.251154 85.514055 299.702025 85.700812 300.172085 85.700812 
z
" style="fill:#333333;stroke:#333333;stroke-width:0.886227;"/>
    <path clip-path="url(#p6c31e963d2)" d="M 300.172085 35.511439 
C 300.642145 35.511439 301.093017 35.324682 301.425399 34.992299 
C 301.757782 34.659916 301.944539 34.209045 301.944539 33.738985 
C 301.944539 33.268925 301.757782 32.818054 301.425399 32.485671 
C 301.093017 32.153288 300.642145 31.966531 300.172085 31.966531 
C 299.702025 31.966531 299.251154 32.153288 298.918771 32.485671 
C 298.586388 32.818054 298.399631 33.268925 298.399631 33.738985 
C 298.399631 34.209045 298.586388 34.659916 298.918771 34.992299 
C 299.251154 35.324682 299.702025 35.511439 300.172085 35.511439 
z
" style="fill:#333333;stroke:#333333;stroke-width:0.886227;"/>
   </g>
   <g id="LineCollection_17">
    <path clip-path="url(#p6c31e963d2)" d="M 300.172085 53.237015 
L 300.172085 37.710806 
" style="fill:none;stroke:#333333;stroke-width:0.886227;"/>
    <path clip-path="url(#p6c31e963d2)" d="M 300.172085 65.513552 
L 300.172085 77.06794 
" style="fill:none;stroke:#333333;stroke-width:0.886227;"/>
   </g>
   <g id="PolyCollection_9">
    <defs>
     <path d="M 289.214994 -256.032423 
L 289.214994 -256.032423 
L 311.129176 -256.032423 
L 311.129176 -243.755885 
L 289.214994 -243.755885 
z
" id="mef69f79794" style="stroke:#333333;stroke-width:0.886227;"/>
    </defs>
    <g clip-path="url(#p6c31e963d2)">
     <use style="fill:#7ad151;stroke:#333333;stroke-width:0.886227;" x="0" xlink:href="#mef69f79794" y="309.269437"/>
    </g>
   </g>
   <g id="LineCollection_18">
    <path clip-path="url(#p6c31e963d2)" d="M 289.214994 59.375284 
L 311.129176 59.375284 
" style="fill:none;stroke:#333333;stroke-width:1.772454;"/>
   </g>
   <g id="LineCollection_19">
    <path clip-path="url(#p6c31e963d2)" d="M 324.521176 24.351045 
L 324.521176 19.296 
" style="fill:none;stroke:#333333;stroke-width:0.886227;"/>
    <path clip-path="url(#p6c31e963d2)" d="M 324.521176 29.767164 
L 324.521176 36.266507 
" style="fill:none;stroke:#333333;stroke-width:0.886227;"/>
   </g>
   <g id="PolyCollection_10">
    <defs>
     <path d="M 313.564085 -284.918393 
L 313.564085 -284.918393 
L 335.478267 -284.918393 
L 335.478267 -279.502273 
L 313.564085 -279.502273 
z
" id="mcc45550ae1" style="stroke:#333333;stroke-width:0.886227;"/>
    </defs>
    <g clip-path="url(#p6c31e963d2)">
     <use style="fill:#bddf26;stroke:#333333;stroke-width:0.886227;" x="0" xlink:href="#mcc45550ae1" y="309.269437"/>
    </g>
   </g>
   <g id="LineCollection_20">
    <path clip-path="url(#p6c31e963d2)" d="M 313.564085 27.059104 
L 335.478267 27.059104 
" style="fill:none;stroke:#333333;stroke-width:1.772454;"/>
   </g>
   <g id="PathCollection_6">
    <path clip-path="url(#p6c31e963d2)" d="M 348.870267 35.150364 
C 349.340327 35.150364 349.791198 34.963607 350.123581 34.631225 
C 350.455964 34.298842 350.642721 33.847971 350.642721 33.37791 
C 350.642721 32.90785 350.455964 32.456979 350.123581 32.124596 
C 349.791198 31.792214 349.340327 31.605457 348.870267 31.605457 
C 348.400207 31.605457 347.949336 31.792214 347.616953 32.124596 
C 347.28457 32.456979 347.097813 32.90785 347.097813 33.37791 
C 347.097813 33.847971 347.28457 34.298842 347.616953 34.631225 
C 347.949336 34.963607 348.400207 35.150364 348.870267 35.150364 
z
" style="fill:#333333;stroke:#333333;stroke-width:0.886227;"/>
    <path clip-path="url(#p6c31e963d2)" d="M 348.870267 35.150364 
C 349.340327 35.150364 349.791198 34.963607 350.123581 34.631225 
C 350.455964 34.298842 350.642721 33.847971 350.642721 33.37791 
C 350.642721 32.90785 350.455964 32.456979 350.123581 32.124596 
C 349.791198 31.792214 349.340327 31.605457 348.870267 31.605457 
C 348.400207 31.605457 347.949336 31.792214 347.616953 32.124596 
C 347.28457 32.456979 347.097813 32.90785 347.097813 33.37791 
C 347.097813 33.847971 347.28457 34.298842 347.616953 34.631225 
C 347.949336 34.963607 348.400207 35.150364 348.870267 35.150364 
z
" style="fill:#333333;stroke:#333333;stroke-width:0.886227;"/>
    <path clip-path="url(#p6c31e963d2)" d="M 348.870267 35.150364 
C 349.340327 35.150364 349.791198 34.963607 350.123581 34.631225 
C 350.455964 34.298842 350.642721 33.847971 350.642721 33.37791 
C 350.642721 32.90785 350.455964 32.456979 350.123581 32.124596 
C 349.791198 31.792214 349.340327 31.605457 348.870267 31.605457 
C 348.400207 31.605457 347.949336 31.792214 347.616953 32.124596 
C 347.28457 32.456979 347.097813 32.90785 347.097813 33.37791 
C 347.097813 33.847971 347.28457 34.298842 347.616953 34.631225 
C 347.949336 34.963607 348.400207 35.150364 348.870267 35.150364 
z
" style="fill:#333333;stroke:#333333;stroke-width:0.886227;"/>
   </g>
   <g id="LineCollection_21">
    <path clip-path="url(#p6c31e963d2)" d="M 348.870267 32.294687 
L 348.870267 31.933612 
" style="fill:none;stroke:#333333;stroke-width:0.886227;"/>
    <path clip-path="url(#p6c31e963d2)" d="M 348.870267 32.655761 
L 348.870267 33.016836 
" style="fill:none;stroke:#333333;stroke-width:0.886227;"/>
   </g>
   <g id="PolyCollection_11">
    <defs>
     <path d="M 337.913176 -276.974751 
L 337.913176 -276.974751 
L 359.827358 -276.974751 
L 359.827358 -276.613676 
L 337.913176 -276.613676 
z
" id="m11167ddd4d" style="stroke:#333333;stroke-width:0.886227;"/>
    </defs>
    <g clip-path="url(#p6c31e963d2)">
     <use style="fill:#fde725;stroke:#333333;stroke-width:0.886227;" x="0" xlink:href="#m11167ddd4d" y="309.269437"/>
    </g>
   </g>
   <g id="LineCollection_22">
    <path clip-path="url(#p6c31e963d2)" d="M 337.913176 32.655761 
L 359.827358 32.655761 
" style="fill:none;stroke:#333333;stroke-width:1.772454;"/>
   </g>
   <g id="patch_3">
    <path d="M 412.884813 255.370969 
L 535.656187 255.370969 
L 535.656187 21.685031 
L 412.884813 21.685031 
z
" style="fill:#ffffff;"/>
   </g>
   <g id="text_8">
    <!-- variable -->
    <defs>
     <path d="M 41.109375 46.296875 
Q 39.59375 47.171875 37.8125 47.578125 
Q 36.03125 48 33.890625 48 
Q 26.265625 48 22.1875 43.046875 
Q 18.109375 38.09375 18.109375 28.8125 
L 18.109375 0 
L 9.078125 0 
L 9.078125 54.6875 
L 18.109375 54.6875 
L 18.109375 46.1875 
Q 20.953125 51.171875 25.484375 53.578125 
Q 30.03125 56 36.53125 56 
Q 37.453125 56 38.578125 55.875 
Q 39.703125 55.765625 41.0625 55.515625 
z
" id="DejaVuSans-114"/>
     <path d="M 48.6875 27.296875 
Q 48.6875 37.203125 44.609375 42.84375 
Q 40.53125 48.484375 33.40625 48.484375 
Q 26.265625 48.484375 22.1875 42.84375 
Q 18.109375 37.203125 18.109375 27.296875 
Q 18.109375 17.390625 22.1875 11.75 
Q 26.265625 6.109375 33.40625 6.109375 
Q 40.53125 6.109375 44.609375 11.75 
Q 48.6875 17.390625 48.6875 27.296875 
z
M 18.109375 46.390625 
Q 20.953125 51.265625 25.265625 53.625 
Q 29.59375 56 35.59375 56 
Q 45.5625 56 51.78125 48.09375 
Q 58.015625 40.1875 58.015625 27.296875 
Q 58.015625 14.40625 51.78125 6.484375 
Q 45.5625 -1.421875 35.59375 -1.421875 
Q 29.59375 -1.421875 25.265625 0.953125 
Q 20.953125 3.328125 18.109375 8.203125 
L 18.109375 0 
L 9.078125 0 
L 9.078125 75.984375 
L 18.109375 75.984375 
z
" id="DejaVuSans-98"/>
    </defs>
    <g transform="translate(425.084812 45.278625)scale(0.11 -0.11)">
     <use xlink:href="#DejaVuSans-118"/>
     <use x="59.179688" xlink:href="#DejaVuSans-97"/>
     <use x="120.458984" xlink:href="#DejaVuSans-114"/>
     <use x="161.572266" xlink:href="#DejaVuSans-105"/>
     <use x="189.355469" xlink:href="#DejaVuSans-97"/>
     <use x="250.634766" xlink:href="#DejaVuSans-98"/>
     <use x="314.111328" xlink:href="#DejaVuSans-108"/>
     <use x="341.894531" xlink:href="#DejaVuSans-101"/>
    </g>
   </g>
   <g id="patch_4">
    <path clip-path="url(#pe234064370)" d="M 425.084812 64.770969 
L 440.924812 64.770969 
L 440.924812 48.930969 
L 425.084812 48.930969 
z
" style="fill:#f2f2f2;"/>
   </g>
   <g id="patch_5">
    <path clip-path="url(#pe234064370)" d="M 427.064813 60.810969 
L 438.944813 60.810969 
L 438.944813 52.890969 
L 427.064813 52.890969 
z
" style="fill:#440154;stroke:#333333;stroke-linecap:square;stroke-linejoin:miter;stroke-width:0.5;"/>
   </g>
   <g id="line2d_15">
    <path clip-path="url(#pe234064370)" d="M 427.064813 56.850969 
L 438.944813 56.850969 
" style="fill:none;stroke:#333333;stroke-width:0.886227;"/>
   </g>
   <g id="line2d_16">
    <path clip-path="url(#pe234064370)" d="M 433.004813 52.890969 
L 433.004813 50.514969 
" style="fill:none;stroke:#333333;stroke-width:0.886227;"/>
   </g>
   <g id="line2d_17">
    <path clip-path="url(#pe234064370)" d="M 433.004813 60.810969 
L 433.004813 63.186969 
" style="fill:none;stroke:#333333;stroke-width:0.886227;"/>
   </g>
   <g id="text_9">
    <!-- alphaStandard -->
    <defs>
     <path d="M 18.109375 8.203125 
L 18.109375 -20.796875 
L 9.078125 -20.796875 
L 9.078125 54.6875 
L 18.109375 54.6875 
L 18.109375 46.390625 
Q 20.953125 51.265625 25.265625 53.625 
Q 29.59375 56 35.59375 56 
Q 45.5625 56 51.78125 48.09375 
Q 58.015625 40.1875 58.015625 27.296875 
Q 58.015625 14.40625 51.78125 6.484375 
Q 45.5625 -1.421875 35.59375 -1.421875 
Q 29.59375 -1.421875 25.265625 0.953125 
Q 20.953125 3.328125 18.109375 8.203125 
z
M 48.6875 27.296875 
Q 48.6875 37.203125 44.609375 42.84375 
Q 40.53125 48.484375 33.40625 48.484375 
Q 26.265625 48.484375 22.1875 42.84375 
Q 18.109375 37.203125 18.109375 27.296875 
Q 18.109375 17.390625 22.1875 11.75 
Q 26.265625 6.109375 33.40625 6.109375 
Q 40.53125 6.109375 44.609375 11.75 
Q 48.6875 17.390625 48.6875 27.296875 
z
" id="DejaVuSans-112"/>
     <path d="M 54.890625 33.015625 
L 54.890625 0 
L 45.90625 0 
L 45.90625 32.71875 
Q 45.90625 40.484375 42.875 44.328125 
Q 39.84375 48.1875 33.796875 48.1875 
Q 26.515625 48.1875 22.3125 43.546875 
Q 18.109375 38.921875 18.109375 30.90625 
L 18.109375 0 
L 9.078125 0 
L 9.078125 75.984375 
L 18.109375 75.984375 
L 18.109375 46.1875 
Q 21.34375 51.125 25.703125 53.5625 
Q 30.078125 56 35.796875 56 
Q 45.21875 56 50.046875 50.171875 
Q 54.890625 44.34375 54.890625 33.015625 
z
" id="DejaVuSans-104"/>
     <path d="M 53.515625 70.515625 
L 53.515625 60.890625 
Q 47.90625 63.578125 42.921875 64.890625 
Q 37.9375 66.21875 33.296875 66.21875 
Q 25.25 66.21875 20.875 63.09375 
Q 16.5 59.96875 16.5 54.203125 
Q 16.5 49.359375 19.40625 46.890625 
Q 22.3125 44.4375 30.421875 42.921875 
L 36.375 41.703125 
Q 47.40625 39.59375 52.65625 34.296875 
Q 57.90625 29 57.90625 20.125 
Q 57.90625 9.515625 50.796875 4.046875 
Q 43.703125 -1.421875 29.984375 -1.421875 
Q 24.8125 -1.421875 18.96875 -0.25 
Q 13.140625 0.921875 6.890625 3.21875 
L 6.890625 13.375 
Q 12.890625 10.015625 18.65625 8.296875 
Q 24.421875 6.59375 29.984375 6.59375 
Q 38.421875 6.59375 43.015625 9.90625 
Q 47.609375 13.234375 47.609375 19.390625 
Q 47.609375 24.75 44.3125 27.78125 
Q 41.015625 30.8125 33.5 32.328125 
L 27.484375 33.5 
Q 16.453125 35.6875 11.515625 40.375 
Q 6.59375 45.0625 6.59375 53.421875 
Q 6.59375 63.09375 13.40625 68.65625 
Q 20.21875 74.21875 32.171875 74.21875 
Q 37.3125 74.21875 42.625 73.28125 
Q 47.953125 72.359375 53.515625 70.515625 
z
" id="DejaVuSans-83"/>
     <path d="M 45.40625 46.390625 
L 45.40625 75.984375 
L 54.390625 75.984375 
L 54.390625 0 
L 45.40625 0 
L 45.40625 8.203125 
Q 42.578125 3.328125 38.25 0.953125 
Q 33.9375 -1.421875 27.875 -1.421875 
Q 17.96875 -1.421875 11.734375 6.484375 
Q 5.515625 14.40625 5.515625 27.296875 
Q 5.515625 40.1875 11.734375 48.09375 
Q 17.96875 56 27.875 56 
Q 33.9375 56 38.25 53.625 
Q 42.578125 51.265625 45.40625 46.390625 
z
M 14.796875 27.296875 
Q 14.796875 17.390625 18.875 11.75 
Q 22.953125 6.109375 30.078125 6.109375 
Q 37.203125 6.109375 41.296875 11.75 
Q 45.40625 17.390625 45.40625 27.296875 
Q 45.40625 37.203125 41.296875 42.84375 
Q 37.203125 48.484375 30.078125 48.484375 
Q 22.953125 48.484375 18.875 42.84375 
Q 14.796875 37.203125 14.796875 27.296875 
z
" id="DejaVuSans-100"/>
    </defs>
    <g transform="translate(443.924813 59.279219)scale(0.088 -0.088)">
     <use xlink:href="#DejaVuSans-97"/>
     <use x="61.279297" xlink:href="#DejaVuSans-108"/>
     <use x="89.0625" xlink:href="#DejaVuSans-112"/>
     <use x="152.539062" xlink:href="#DejaVuSans-104"/>
     <use x="215.917969" xlink:href="#DejaVuSans-97"/>
     <use x="277.197266" xlink:href="#DejaVuSans-83"/>
     <use x="340.673828" xlink:href="#DejaVuSans-116"/>
     <use x="379.882812" xlink:href="#DejaVuSans-97"/>
     <use x="441.162109" xlink:href="#DejaVuSans-110"/>
     <use x="504.541016" xlink:href="#DejaVuSans-100"/>
     <use x="568.017578" xlink:href="#DejaVuSans-97"/>
     <use x="629.296875" xlink:href="#DejaVuSans-114"/>
     <use x="670.394531" xlink:href="#DejaVuSans-100"/>
    </g>
   </g>
   <g id="patch_6">
    <path clip-path="url(#p0f82d8ac12)" d="M 425.084812 82.610969 
L 440.924812 82.610969 
L 440.924812 66.770969 
L 425.084812 66.770969 
z
" style="fill:#f2f2f2;"/>
   </g>
   <g id="patch_7">
    <path clip-path="url(#p0f82d8ac12)" d="M 427.064813 78.650969 
L 438.944813 78.650969 
L 438.944813 70.730969 
L 427.064813 70.730969 
z
" style="fill:#482576;stroke:#333333;stroke-linecap:square;stroke-linejoin:miter;stroke-width:0.5;"/>
   </g>
   <g id="line2d_18">
    <path clip-path="url(#p0f82d8ac12)" d="M 427.064813 74.690969 
L 438.944813 74.690969 
" style="fill:none;stroke:#333333;stroke-width:0.886227;"/>
   </g>
   <g id="line2d_19">
    <path clip-path="url(#p0f82d8ac12)" d="M 433.004813 70.730969 
L 433.004813 68.354969 
" style="fill:none;stroke:#333333;stroke-width:0.886227;"/>
   </g>
   <g id="line2d_20">
    <path clip-path="url(#p0f82d8ac12)" d="M 433.004813 78.650969 
L 433.004813 81.026969 
" style="fill:none;stroke:#333333;stroke-width:0.886227;"/>
   </g>
   <g id="text_10">
    <!-- alphaEMKT1 -->
    <defs>
     <path d="M 9.8125 72.90625 
L 55.90625 72.90625 
L 55.90625 64.59375 
L 19.671875 64.59375 
L 19.671875 43.015625 
L 54.390625 43.015625 
L 54.390625 34.71875 
L 19.671875 34.71875 
L 19.671875 8.296875 
L 56.78125 8.296875 
L 56.78125 0 
L 9.8125 0 
z
" id="DejaVuSans-69"/>
     <path d="M 9.8125 72.90625 
L 24.515625 72.90625 
L 43.109375 23.296875 
L 61.8125 72.90625 
L 76.515625 72.90625 
L 76.515625 0 
L 66.890625 0 
L 66.890625 64.015625 
L 48.09375 14.015625 
L 38.1875 14.015625 
L 19.390625 64.015625 
L 19.390625 0 
L 9.8125 0 
z
" id="DejaVuSans-77"/>
     <path d="M 9.8125 72.90625 
L 19.671875 72.90625 
L 19.671875 42.09375 
L 52.390625 72.90625 
L 65.09375 72.90625 
L 28.90625 38.921875 
L 67.671875 0 
L 54.6875 0 
L 19.671875 35.109375 
L 19.671875 0 
L 9.8125 0 
z
" id="DejaVuSans-75"/>
     <path d="M -0.296875 72.90625 
L 61.375 72.90625 
L 61.375 64.59375 
L 35.5 64.59375 
L 35.5 0 
L 25.59375 0 
L 25.59375 64.59375 
L -0.296875 64.59375 
z
" id="DejaVuSans-84"/>
    </defs>
    <g transform="translate(443.924813 77.119219)scale(0.088 -0.088)">
     <use xlink:href="#DejaVuSans-97"/>
     <use x="61.279297" xlink:href="#DejaVuSans-108"/>
     <use x="89.0625" xlink:href="#DejaVuSans-112"/>
     <use x="152.539062" xlink:href="#DejaVuSans-104"/>
     <use x="215.917969" xlink:href="#DejaVuSans-97"/>
     <use x="277.197266" xlink:href="#DejaVuSans-69"/>
     <use x="340.380859" xlink:href="#DejaVuSans-77"/>
     <use x="426.660156" xlink:href="#DejaVuSans-75"/>
     <use x="492.126953" xlink:href="#DejaVuSans-84"/>
     <use x="553.210938" xlink:href="#DejaVuSans-49"/>
    </g>
   </g>
   <g id="patch_8">
    <path clip-path="url(#p2ed0f5fb43)" d="M 425.084812 100.450969 
L 440.924812 100.450969 
L 440.924812 84.610969 
L 425.084812 84.610969 
z
" style="fill:#f2f2f2;"/>
   </g>
   <g id="patch_9">
    <path clip-path="url(#p2ed0f5fb43)" d="M 427.064813 96.490969 
L 438.944813 96.490969 
L 438.944813 88.570969 
L 427.064813 88.570969 
z
" style="fill:#414487;stroke:#333333;stroke-linecap:square;stroke-linejoin:miter;stroke-width:0.5;"/>
   </g>
   <g id="line2d_21">
    <path clip-path="url(#p2ed0f5fb43)" d="M 427.064813 92.530969 
L 438.944813 92.530969 
" style="fill:none;stroke:#333333;stroke-width:0.886227;"/>
   </g>
   <g id="line2d_22">
    <path clip-path="url(#p2ed0f5fb43)" d="M 433.004813 88.570969 
L 433.004813 86.194969 
" style="fill:none;stroke:#333333;stroke-width:0.886227;"/>
   </g>
   <g id="line2d_23">
    <path clip-path="url(#p2ed0f5fb43)" d="M 433.004813 96.490969 
L 433.004813 98.866969 
" style="fill:none;stroke:#333333;stroke-width:0.886227;"/>
   </g>
   <g id="text_11">
    <!-- alphaEMKT2 -->
    <g transform="translate(443.924813 94.959219)scale(0.088 -0.088)">
     <use xlink:href="#DejaVuSans-97"/>
     <use x="61.279297" xlink:href="#DejaVuSans-108"/>
     <use x="89.0625" xlink:href="#DejaVuSans-112"/>
     <use x="152.539062" xlink:href="#DejaVuSans-104"/>
     <use x="215.917969" xlink:href="#DejaVuSans-97"/>
     <use x="277.197266" xlink:href="#DejaVuSans-69"/>
     <use x="340.380859" xlink:href="#DejaVuSans-77"/>
     <use x="426.660156" xlink:href="#DejaVuSans-75"/>
     <use x="492.126953" xlink:href="#DejaVuSans-84"/>
     <use x="553.210938" xlink:href="#DejaVuSans-50"/>
    </g>
   </g>
   <g id="patch_10">
    <path clip-path="url(#p5ec9b547c0)" d="M 425.084812 118.290969 
L 440.924812 118.290969 
L 440.924812 102.450969 
L 425.084812 102.450969 
z
" style="fill:#f2f2f2;"/>
   </g>
   <g id="patch_11">
    <path clip-path="url(#p5ec9b547c0)" d="M 427.064813 114.330969 
L 438.944813 114.330969 
L 438.944813 106.410969 
L 427.064813 106.410969 
z
" style="fill:#355f8d;stroke:#333333;stroke-linecap:square;stroke-linejoin:miter;stroke-width:0.5;"/>
   </g>
   <g id="line2d_24">
    <path clip-path="url(#p5ec9b547c0)" d="M 427.064813 110.370969 
L 438.944813 110.370969 
" style="fill:none;stroke:#333333;stroke-width:0.886227;"/>
   </g>
   <g id="line2d_25">
    <path clip-path="url(#p5ec9b547c0)" d="M 433.004813 106.410969 
L 433.004813 104.034969 
" style="fill:none;stroke:#333333;stroke-width:0.886227;"/>
   </g>
   <g id="line2d_26">
    <path clip-path="url(#p5ec9b547c0)" d="M 433.004813 114.330969 
L 433.004813 116.706969 
" style="fill:none;stroke:#333333;stroke-width:0.886227;"/>
   </g>
   <g id="text_12">
    <!-- alphaFWW1 -->
    <defs>
     <path d="M 9.8125 72.90625 
L 51.703125 72.90625 
L 51.703125 64.59375 
L 19.671875 64.59375 
L 19.671875 43.109375 
L 48.578125 43.109375 
L 48.578125 34.8125 
L 19.671875 34.8125 
L 19.671875 0 
L 9.8125 0 
z
" id="DejaVuSans-70"/>
     <path d="M 3.328125 72.90625 
L 13.28125 72.90625 
L 28.609375 11.28125 
L 43.890625 72.90625 
L 54.984375 72.90625 
L 70.3125 11.28125 
L 85.59375 72.90625 
L 95.609375 72.90625 
L 77.296875 0 
L 64.890625 0 
L 49.515625 63.28125 
L 33.984375 0 
L 21.578125 0 
z
" id="DejaVuSans-87"/>
    </defs>
    <g transform="translate(443.924813 112.799219)scale(0.088 -0.088)">
     <use xlink:href="#DejaVuSans-97"/>
     <use x="61.279297" xlink:href="#DejaVuSans-108"/>
     <use x="89.0625" xlink:href="#DejaVuSans-112"/>
     <use x="152.539062" xlink:href="#DejaVuSans-104"/>
     <use x="215.917969" xlink:href="#DejaVuSans-97"/>
     <use x="277.197266" xlink:href="#DejaVuSans-70"/>
     <use x="334.716797" xlink:href="#DejaVuSans-87"/>
     <use x="433.59375" xlink:href="#DejaVuSans-87"/>
     <use x="532.470703" xlink:href="#DejaVuSans-49"/>
    </g>
   </g>
   <g id="patch_12">
    <path clip-path="url(#p2ebe050643)" d="M 425.084812 136.130969 
L 440.924812 136.130969 
L 440.924812 120.290969 
L 425.084812 120.290969 
z
" style="fill:#f2f2f2;"/>
   </g>
   <g id="patch_13">
    <path clip-path="url(#p2ebe050643)" d="M 427.064813 132.170969 
L 438.944813 132.170969 
L 438.944813 124.250969 
L 427.064813 124.250969 
z
" style="fill:#2a788e;stroke:#333333;stroke-linecap:square;stroke-linejoin:miter;stroke-width:0.5;"/>
   </g>
   <g id="line2d_27">
    <path clip-path="url(#p2ebe050643)" d="M 427.064813 128.210969 
L 438.944813 128.210969 
" style="fill:none;stroke:#333333;stroke-width:0.886227;"/>
   </g>
   <g id="line2d_28">
    <path clip-path="url(#p2ebe050643)" d="M 433.004813 124.250969 
L 433.004813 121.874969 
" style="fill:none;stroke:#333333;stroke-width:0.886227;"/>
   </g>
   <g id="line2d_29">
    <path clip-path="url(#p2ebe050643)" d="M 433.004813 132.170969 
L 433.004813 134.546969 
" style="fill:none;stroke:#333333;stroke-width:0.886227;"/>
   </g>
   <g id="text_13">
    <!-- alphaFWW2 -->
    <g transform="translate(443.924813 130.639219)scale(0.088 -0.088)">
     <use xlink:href="#DejaVuSans-97"/>
     <use x="61.279297" xlink:href="#DejaVuSans-108"/>
     <use x="89.0625" xlink:href="#DejaVuSans-112"/>
     <use x="152.539062" xlink:href="#DejaVuSans-104"/>
     <use x="215.917969" xlink:href="#DejaVuSans-97"/>
     <use x="277.197266" xlink:href="#DejaVuSans-70"/>
     <use x="334.716797" xlink:href="#DejaVuSans-87"/>
     <use x="433.59375" xlink:href="#DejaVuSans-87"/>
     <use x="532.470703" xlink:href="#DejaVuSans-50"/>
    </g>
   </g>
   <g id="patch_14">
    <path clip-path="url(#pbafa7d8c5e)" d="M 425.084812 153.970969 
L 440.924812 153.970969 
L 440.924812 138.130969 
L 425.084812 138.130969 
z
" style="fill:#f2f2f2;"/>
   </g>
   <g id="patch_15">
    <path clip-path="url(#pbafa7d8c5e)" d="M 427.064813 150.010969 
L 438.944813 150.010969 
L 438.944813 142.090969 
L 427.064813 142.090969 
z
" style="fill:#21918c;stroke:#333333;stroke-linecap:square;stroke-linejoin:miter;stroke-width:0.5;"/>
   </g>
   <g id="line2d_30">
    <path clip-path="url(#pbafa7d8c5e)" d="M 427.064813 146.050969 
L 438.944813 146.050969 
" style="fill:none;stroke:#333333;stroke-width:0.886227;"/>
   </g>
   <g id="line2d_31">
    <path clip-path="url(#pbafa7d8c5e)" d="M 433.004813 142.090969 
L 433.004813 139.714969 
" style="fill:none;stroke:#333333;stroke-width:0.886227;"/>
   </g>
   <g id="line2d_32">
    <path clip-path="url(#pbafa7d8c5e)" d="M 433.004813 150.010969 
L 433.004813 152.386969 
" style="fill:none;stroke:#333333;stroke-width:0.886227;"/>
   </g>
   <g id="text_14">
    <!-- alphaIMP1 -->
    <defs>
     <path d="M 9.8125 72.90625 
L 19.671875 72.90625 
L 19.671875 0 
L 9.8125 0 
z
" id="DejaVuSans-73"/>
     <path d="M 19.671875 64.796875 
L 19.671875 37.40625 
L 32.078125 37.40625 
Q 38.96875 37.40625 42.71875 40.96875 
Q 46.484375 44.53125 46.484375 51.125 
Q 46.484375 57.671875 42.71875 61.234375 
Q 38.96875 64.796875 32.078125 64.796875 
z
M 9.8125 72.90625 
L 32.078125 72.90625 
Q 44.34375 72.90625 50.609375 67.359375 
Q 56.890625 61.8125 56.890625 51.125 
Q 56.890625 40.328125 50.609375 34.8125 
Q 44.34375 29.296875 32.078125 29.296875 
L 19.671875 29.296875 
L 19.671875 0 
L 9.8125 0 
z
" id="DejaVuSans-80"/>
    </defs>
    <g transform="translate(443.924813 148.479219)scale(0.088 -0.088)">
     <use xlink:href="#DejaVuSans-97"/>
     <use x="61.279297" xlink:href="#DejaVuSans-108"/>
     <use x="89.0625" xlink:href="#DejaVuSans-112"/>
     <use x="152.539062" xlink:href="#DejaVuSans-104"/>
     <use x="215.917969" xlink:href="#DejaVuSans-97"/>
     <use x="277.197266" xlink:href="#DejaVuSans-73"/>
     <use x="306.689453" xlink:href="#DejaVuSans-77"/>
     <use x="392.96875" xlink:href="#DejaVuSans-80"/>
     <use x="453.271484" xlink:href="#DejaVuSans-49"/>
    </g>
   </g>
   <g id="patch_16">
    <path clip-path="url(#p017684e066)" d="M 425.084812 171.810969 
L 440.924812 171.810969 
L 440.924812 155.970969 
L 425.084812 155.970969 
z
" style="fill:#f2f2f2;"/>
   </g>
   <g id="patch_17">
    <path clip-path="url(#p017684e066)" d="M 427.064813 167.850969 
L 438.944813 167.850969 
L 438.944813 159.930969 
L 427.064813 159.930969 
z
" style="fill:#22a884;stroke:#333333;stroke-linecap:square;stroke-linejoin:miter;stroke-width:0.5;"/>
   </g>
   <g id="line2d_33">
    <path clip-path="url(#p017684e066)" d="M 427.064813 163.890969 
L 438.944813 163.890969 
" style="fill:none;stroke:#333333;stroke-width:0.886227;"/>
   </g>
   <g id="line2d_34">
    <path clip-path="url(#p017684e066)" d="M 433.004813 159.930969 
L 433.004813 157.554969 
" style="fill:none;stroke:#333333;stroke-width:0.886227;"/>
   </g>
   <g id="line2d_35">
    <path clip-path="url(#p017684e066)" d="M 433.004813 167.850969 
L 433.004813 170.226969 
" style="fill:none;stroke:#333333;stroke-width:0.886227;"/>
   </g>
   <g id="text_15">
    <!-- alphaIMP2 -->
    <g transform="translate(443.924813 166.319219)scale(0.088 -0.088)">
     <use xlink:href="#DejaVuSans-97"/>
     <use x="61.279297" xlink:href="#DejaVuSans-108"/>
     <use x="89.0625" xlink:href="#DejaVuSans-112"/>
     <use x="152.539062" xlink:href="#DejaVuSans-104"/>
     <use x="215.917969" xlink:href="#DejaVuSans-97"/>
     <use x="277.197266" xlink:href="#DejaVuSans-73"/>
     <use x="306.689453" xlink:href="#DejaVuSans-77"/>
     <use x="392.96875" xlink:href="#DejaVuSans-80"/>
     <use x="453.271484" xlink:href="#DejaVuSans-50"/>
    </g>
   </g>
   <g id="patch_18">
    <path clip-path="url(#pbb121b40ff)" d="M 425.084812 189.650969 
L 440.924812 189.650969 
L 440.924812 173.810969 
L 425.084812 173.810969 
z
" style="fill:#f2f2f2;"/>
   </g>
   <g id="patch_19">
    <path clip-path="url(#pbb121b40ff)" d="M 427.064813 185.690969 
L 438.944813 185.690969 
L 438.944813 177.770969 
L 427.064813 177.770969 
z
" style="fill:#42be71;stroke:#333333;stroke-linecap:square;stroke-linejoin:miter;stroke-width:0.5;"/>
   </g>
   <g id="line2d_36">
    <path clip-path="url(#pbb121b40ff)" d="M 427.064813 181.730969 
L 438.944813 181.730969 
" style="fill:none;stroke:#333333;stroke-width:0.886227;"/>
   </g>
   <g id="line2d_37">
    <path clip-path="url(#pbb121b40ff)" d="M 433.004813 177.770969 
L 433.004813 175.394969 
" style="fill:none;stroke:#333333;stroke-width:0.886227;"/>
   </g>
   <g id="line2d_38">
    <path clip-path="url(#pbb121b40ff)" d="M 433.004813 185.690969 
L 433.004813 188.066969 
" style="fill:none;stroke:#333333;stroke-width:0.886227;"/>
   </g>
   <g id="text_16">
    <!-- alphaAsymptotic1 -->
    <defs>
     <path d="M 34.1875 63.1875 
L 20.796875 26.90625 
L 47.609375 26.90625 
z
M 28.609375 72.90625 
L 39.796875 72.90625 
L 67.578125 0 
L 57.328125 0 
L 50.6875 18.703125 
L 17.828125 18.703125 
L 11.1875 0 
L 0.78125 0 
z
" id="DejaVuSans-65"/>
     <path d="M 32.171875 -5.078125 
Q 28.375 -14.84375 24.75 -17.8125 
Q 21.140625 -20.796875 15.09375 -20.796875 
L 7.90625 -20.796875 
L 7.90625 -13.28125 
L 13.1875 -13.28125 
Q 16.890625 -13.28125 18.9375 -11.515625 
Q 21 -9.765625 23.484375 -3.21875 
L 25.09375 0.875 
L 2.984375 54.6875 
L 12.5 54.6875 
L 29.59375 11.921875 
L 46.6875 54.6875 
L 56.203125 54.6875 
z
" id="DejaVuSans-121"/>
     <path d="M 48.78125 52.59375 
L 48.78125 44.1875 
Q 44.96875 46.296875 41.140625 47.34375 
Q 37.3125 48.390625 33.40625 48.390625 
Q 24.65625 48.390625 19.8125 42.84375 
Q 14.984375 37.3125 14.984375 27.296875 
Q 14.984375 17.28125 19.8125 11.734375 
Q 24.65625 6.203125 33.40625 6.203125 
Q 37.3125 6.203125 41.140625 7.25 
Q 44.96875 8.296875 48.78125 10.40625 
L 48.78125 2.09375 
Q 45.015625 0.34375 40.984375 -0.53125 
Q 36.96875 -1.421875 32.421875 -1.421875 
Q 20.0625 -1.421875 12.78125 6.34375 
Q 5.515625 14.109375 5.515625 27.296875 
Q 5.515625 40.671875 12.859375 48.328125 
Q 20.21875 56 33.015625 56 
Q 37.15625 56 41.109375 55.140625 
Q 45.0625 54.296875 48.78125 52.59375 
z
" id="DejaVuSans-99"/>
    </defs>
    <g transform="translate(443.924813 184.159219)scale(0.088 -0.088)">
     <use xlink:href="#DejaVuSans-97"/>
     <use x="61.279297" xlink:href="#DejaVuSans-108"/>
     <use x="89.0625" xlink:href="#DejaVuSans-112"/>
     <use x="152.539062" xlink:href="#DejaVuSans-104"/>
     <use x="215.917969" xlink:href="#DejaVuSans-97"/>
     <use x="277.197266" xlink:href="#DejaVuSans-65"/>
     <use x="345.605469" xlink:href="#DejaVuSans-115"/>
     <use x="397.705078" xlink:href="#DejaVuSans-121"/>
     <use x="456.884766" xlink:href="#DejaVuSans-109"/>
     <use x="554.296875" xlink:href="#DejaVuSans-112"/>
     <use x="617.773438" xlink:href="#DejaVuSans-116"/>
     <use x="656.982422" xlink:href="#DejaVuSans-111"/>
     <use x="718.164062" xlink:href="#DejaVuSans-116"/>
     <use x="757.373047" xlink:href="#DejaVuSans-105"/>
     <use x="785.15625" xlink:href="#DejaVuSans-99"/>
     <use x="840.136719" xlink:href="#DejaVuSans-49"/>
    </g>
   </g>
   <g id="patch_20">
    <path clip-path="url(#pddbe0c2c2d)" d="M 425.084812 207.490969 
L 440.924812 207.490969 
L 440.924812 191.650969 
L 425.084812 191.650969 
z
" style="fill:#f2f2f2;"/>
   </g>
   <g id="patch_21">
    <path clip-path="url(#pddbe0c2c2d)" d="M 427.064813 203.530969 
L 438.944813 203.530969 
L 438.944813 195.610969 
L 427.064813 195.610969 
z
" style="fill:#7ad151;stroke:#333333;stroke-linecap:square;stroke-linejoin:miter;stroke-width:0.5;"/>
   </g>
   <g id="line2d_39">
    <path clip-path="url(#pddbe0c2c2d)" d="M 427.064813 199.570969 
L 438.944813 199.570969 
" style="fill:none;stroke:#333333;stroke-width:0.886227;"/>
   </g>
   <g id="line2d_40">
    <path clip-path="url(#pddbe0c2c2d)" d="M 433.004813 195.610969 
L 433.004813 193.234969 
" style="fill:none;stroke:#333333;stroke-width:0.886227;"/>
   </g>
   <g id="line2d_41">
    <path clip-path="url(#pddbe0c2c2d)" d="M 433.004813 203.530969 
L 433.004813 205.906969 
" style="fill:none;stroke:#333333;stroke-width:0.886227;"/>
   </g>
   <g id="text_17">
    <!-- alphaAsymptotic2 -->
    <g transform="translate(443.924813 201.999219)scale(0.088 -0.088)">
     <use xlink:href="#DejaVuSans-97"/>
     <use x="61.279297" xlink:href="#DejaVuSans-108"/>
     <use x="89.0625" xlink:href="#DejaVuSans-112"/>
     <use x="152.539062" xlink:href="#DejaVuSans-104"/>
     <use x="215.917969" xlink:href="#DejaVuSans-97"/>
     <use x="277.197266" xlink:href="#DejaVuSans-65"/>
     <use x="345.605469" xlink:href="#DejaVuSans-115"/>
     <use x="397.705078" xlink:href="#DejaVuSans-121"/>
     <use x="456.884766" xlink:href="#DejaVuSans-109"/>
     <use x="554.296875" xlink:href="#DejaVuSans-112"/>
     <use x="617.773438" xlink:href="#DejaVuSans-116"/>
     <use x="656.982422" xlink:href="#DejaVuSans-111"/>
     <use x="718.164062" xlink:href="#DejaVuSans-116"/>
     <use x="757.373047" xlink:href="#DejaVuSans-105"/>
     <use x="785.15625" xlink:href="#DejaVuSans-99"/>
     <use x="840.136719" xlink:href="#DejaVuSans-50"/>
    </g>
   </g>
   <g id="patch_22">
    <path clip-path="url(#p3527af9401)" d="M 425.084812 225.330969 
L 440.924812 225.330969 
L 440.924812 209.490969 
L 425.084812 209.490969 
z
" style="fill:#f2f2f2;"/>
   </g>
   <g id="patch_23">
    <path clip-path="url(#p3527af9401)" d="M 427.064813 221.370969 
L 438.944813 221.370969 
L 438.944813 213.450969 
L 427.064813 213.450969 
z
" style="fill:#bddf26;stroke:#333333;stroke-linecap:square;stroke-linejoin:miter;stroke-width:0.5;"/>
   </g>
   <g id="line2d_42">
    <path clip-path="url(#p3527af9401)" d="M 427.064813 217.410969 
L 438.944813 217.410969 
" style="fill:none;stroke:#333333;stroke-width:0.886227;"/>
   </g>
   <g id="line2d_43">
    <path clip-path="url(#p3527af9401)" d="M 433.004813 213.450969 
L 433.004813 211.074969 
" style="fill:none;stroke:#333333;stroke-width:0.886227;"/>
   </g>
   <g id="line2d_44">
    <path clip-path="url(#p3527af9401)" d="M 433.004813 221.370969 
L 433.004813 223.746969 
" style="fill:none;stroke:#333333;stroke-width:0.886227;"/>
   </g>
   <g id="text_18">
    <!-- grapes -->
    <g transform="translate(443.924813 219.839219)scale(0.088 -0.088)">
     <use xlink:href="#DejaVuSans-103"/>
     <use x="63.476562" xlink:href="#DejaVuSans-114"/>
     <use x="104.589844" xlink:href="#DejaVuSans-97"/>
     <use x="165.869141" xlink:href="#DejaVuSans-112"/>
     <use x="229.345703" xlink:href="#DejaVuSans-101"/>
     <use x="290.869141" xlink:href="#DejaVuSans-115"/>
    </g>
   </g>
   <g id="patch_24">
    <path clip-path="url(#p00dc6cbd9c)" d="M 425.084812 243.170969 
L 440.924812 243.170969 
L 440.924812 227.330969 
L 425.084812 227.330969 
z
" style="fill:#f2f2f2;"/>
   </g>
   <g id="patch_25">
    <path clip-path="url(#p00dc6cbd9c)" d="M 427.064813 239.210969 
L 438.944813 239.210969 
L 438.944813 231.290969 
L 427.064813 231.290969 
z
" style="fill:#fde725;stroke:#333333;stroke-linecap:square;stroke-linejoin:miter;stroke-width:0.5;"/>
   </g>
   <g id="line2d_45">
    <path clip-path="url(#p00dc6cbd9c)" d="M 427.064813 235.250969 
L 438.944813 235.250969 
" style="fill:none;stroke:#333333;stroke-width:0.886227;"/>
   </g>
   <g id="line2d_46">
    <path clip-path="url(#p00dc6cbd9c)" d="M 433.004813 231.290969 
L 433.004813 228.914969 
" style="fill:none;stroke:#333333;stroke-width:0.886227;"/>
   </g>
   <g id="line2d_47">
    <path clip-path="url(#p00dc6cbd9c)" d="M 433.004813 239.210969 
L 433.004813 241.586969 
" style="fill:none;stroke:#333333;stroke-width:0.886227;"/>
   </g>
   <g id="text_19">
    <!-- trueAlpha -->
    <g transform="translate(443.924813 237.679219)scale(0.088 -0.088)">
     <use xlink:href="#DejaVuSans-116"/>
     <use x="39.208984" xlink:href="#DejaVuSans-114"/>
     <use x="80.322266" xlink:href="#DejaVuSans-117"/>
     <use x="143.701172" xlink:href="#DejaVuSans-101"/>
     <use x="205.224609" xlink:href="#DejaVuSans-65"/>
     <use x="273.632812" xlink:href="#DejaVuSans-108"/>
     <use x="301.416016" xlink:href="#DejaVuSans-112"/>
     <use x="364.892578" xlink:href="#DejaVuSans-104"/>
     <use x="428.271484" xlink:href="#DejaVuSans-97"/>
    </g>
   </g>
  </g>
 </g>
 <defs>
  <clipPath id="p6c31e963d2">
   <rect height="266.112" width="357.12" x="48.564813" y="7.2"/>
  </clipPath>
  <clipPath id="pe234064370">
   <path d="M 425.084812 64.770969 
L 425.084812 48.930969 
L 440.924812 48.930969 
L 440.924812 64.770969 
"/>
  </clipPath>
  <clipPath id="p0f82d8ac12">
   <path d="M 425.084812 82.610969 
L 425.084812 66.770969 
L 440.924812 66.770969 
L 440.924812 82.610969 
"/>
  </clipPath>
  <clipPath id="p2ed0f5fb43">
   <path d="M 425.084812 100.450969 
L 425.084812 84.610969 
L 440.924812 84.610969 
L 440.924812 100.450969 
"/>
  </clipPath>
  <clipPath id="p5ec9b547c0">
   <path d="M 425.084812 118.290969 
L 425.084812 102.450969 
L 440.924812 102.450969 
L 440.924812 118.290969 
"/>
  </clipPath>
  <clipPath id="p2ebe050643">
   <path d="M 425.084812 136.130969 
L 425.084812 120.290969 
L 440.924812 120.290969 
L 440.924812 136.130969 
"/>
  </clipPath>
  <clipPath id="pbafa7d8c5e">
   <path d="M 425.084812 153.970969 
L 425.084812 138.130969 
L 440.924812 138.130969 
L 440.924812 153.970969 
"/>
  </clipPath>
  <clipPath id="p017684e066">
   <path d="M 425.084812 171.810969 
L 425.084812 155.970969 
L 440.924812 155.970969 
L 440.924812 171.810969 
"/>
  </clipPath>
  <clipPath id="pbb121b40ff">
   <path d="M 425.084812 189.650969 
L 425.084812 173.810969 
L 440.924812 173.810969 
L 440.924812 189.650969 
"/>
  </clipPath>
  <clipPath id="pddbe0c2c2d">
   <path d="M 425.084812 207.490969 
L 425.084812 191.650969 
L 440.924812 191.650969 
L 440.924812 207.490969 
"/>
  </clipPath>
  <clipPath id="p3527af9401">
   <path d="M 425.084812 225.330969 
L 425.084812 209.490969 
L 440.924812 209.490969 
L 440.924812 225.330969 
"/>
  </clipPath>
  <clipPath id="p00dc6cbd9c">
   <path d="M 425.084812 243.170969 
L 425.084812 227.330969 
L 440.924812 227.330969 
L 440.924812 243.170969 
"/>
  </clipPath>
 </defs>
</svg>
