<?xml version="1.0" encoding="utf-8" standalone="no"?>
<!DOCTYPE svg PUBLIC "-//W3C//DTD SVG 1.1//EN"
  "http://www.w3.org/Graphics/SVG/1.1/DTD/svg11.dtd">
<!-- Created with matplotlib (https://matplotlib.org/) -->
<svg height="300.507937pt" version="1.1" viewBox="0 0 542.856187 300.507937" width="542.856187pt" xmlns="http://www.w3.org/2000/svg" xmlns:xlink="http://www.w3.org/1999/xlink">
 <defs>
  <style type="text/css">
*{stroke-linecap:butt;stroke-linejoin:round;}
  </style>
 </defs>
 <g id="figure_1">
  <g id="patch_1">
   <path d="M 0 300.507937 
L 542.856187 300.507937 
L 542.856187 -0 
L 0 -0 
z
" style="fill:#ffffff;stroke:#ffffff;stroke-linejoin:miter;"/>
  </g>
  <g id="axes_1">
   <g id="patch_2">
    <path d="M 48.564813 273.312 
L 405.684813 273.312 
L 405.684813 7.2 
L 48.564813 7.2 
z
" style="fill:#ebebeb;"/>
   </g>
   <g id="matplotlib.axis_1">
    <g id="xtick_1">
     <g id="line2d_1">
      <path clip-path="url(#p322aff8a4f)" d="M 227.124813 273.312 
L 227.124813 7.2 
" style="fill:none;stroke:#ffffff;"/>
     </g>
     <g id="line2d_2">
      <path d="M 227.124813 273.312 
" style="fill:none;stroke:#333333;stroke-width:1.5;"/>
      <defs>
       <path d="M 0 0 
L 0 2.75 
" id="me010d7d445" style="stroke:#333333;"/>
      </defs>
      <g>
       <use style="fill:#333333;stroke:#333333;" x="227.124813" xlink:href="#me010d7d445" y="273.312"/>
      </g>
     </g>
    </g>
    <g id="text_1">
     <!-- simulation -->
     <defs>
      <path d="M 44.28125 53.078125 
L 44.28125 44.578125 
Q 40.484375 46.53125 36.375 47.5 
Q 32.28125 48.484375 27.875 48.484375 
Q 21.1875 48.484375 17.84375 46.4375 
Q 14.5 44.390625 14.5 40.28125 
Q 14.5 37.15625 16.890625 35.375 
Q 19.28125 33.59375 26.515625 31.984375 
L 29.59375 31.296875 
Q 39.15625 29.25 43.1875 25.515625 
Q 47.21875 21.78125 47.21875 15.09375 
Q 47.21875 7.46875 41.1875 3.015625 
Q 35.15625 -1.421875 24.609375 -1.421875 
Q 20.21875 -1.421875 15.453125 -0.5625 
Q 10.6875 0.296875 5.421875 2 
L 5.421875 11.28125 
Q 10.40625 8.6875 15.234375 7.390625 
Q 20.0625 6.109375 24.8125 6.109375 
Q 31.15625 6.109375 34.5625 8.28125 
Q 37.984375 10.453125 37.984375 14.40625 
Q 37.984375 18.0625 35.515625 20.015625 
Q 33.0625 21.96875 24.703125 23.78125 
L 21.578125 24.515625 
Q 13.234375 26.265625 9.515625 29.90625 
Q 5.8125 33.546875 5.8125 39.890625 
Q 5.8125 47.609375 11.28125 51.796875 
Q 16.75 56 26.8125 56 
Q 31.78125 56 36.171875 55.265625 
Q 40.578125 54.546875 44.28125 53.078125 
z
" id="DejaVuSans-115"/>
      <path d="M 9.421875 54.6875 
L 18.40625 54.6875 
L 18.40625 0 
L 9.421875 0 
z
M 9.421875 75.984375 
L 18.40625 75.984375 
L 18.40625 64.59375 
L 9.421875 64.59375 
z
" id="DejaVuSans-105"/>
      <path d="M 52 44.1875 
Q 55.375 50.25 60.0625 53.125 
Q 64.75 56 71.09375 56 
Q 79.640625 56 84.28125 50.015625 
Q 88.921875 44.046875 88.921875 33.015625 
L 88.921875 0 
L 79.890625 0 
L 79.890625 32.71875 
Q 79.890625 40.578125 77.09375 44.375 
Q 74.3125 48.1875 68.609375 48.1875 
Q 61.625 48.1875 57.5625 43.546875 
Q 53.515625 38.921875 53.515625 30.90625 
L 53.515625 0 
L 44.484375 0 
L 44.484375 32.71875 
Q 44.484375 40.625 41.703125 44.40625 
Q 38.921875 48.1875 33.109375 48.1875 
Q 26.21875 48.1875 22.15625 43.53125 
Q 18.109375 38.875 18.109375 30.90625 
L 18.109375 0 
L 9.078125 0 
L 9.078125 54.6875 
L 18.109375 54.6875 
L 18.109375 46.1875 
Q 21.1875 51.21875 25.484375 53.609375 
Q 29.78125 56 35.6875 56 
Q 41.65625 56 45.828125 52.96875 
Q 50 49.953125 52 44.1875 
z
" id="DejaVuSans-109"/>
      <path d="M 8.5 21.578125 
L 8.5 54.6875 
L 17.484375 54.6875 
L 17.484375 21.921875 
Q 17.484375 14.15625 20.5 10.265625 
Q 23.53125 6.390625 29.59375 6.390625 
Q 36.859375 6.390625 41.078125 11.03125 
Q 45.3125 15.671875 45.3125 23.6875 
L 45.3125 54.6875 
L 54.296875 54.6875 
L 54.296875 0 
L 45.3125 0 
L 45.3125 8.40625 
Q 42.046875 3.421875 37.71875 1 
Q 33.40625 -1.421875 27.6875 -1.421875 
Q 18.265625 -1.421875 13.375 4.4375 
Q 8.5 10.296875 8.5 21.578125 
z
M 31.109375 56 
z
" id="DejaVuSans-117"/>
      <path d="M 9.421875 75.984375 
L 18.40625 75.984375 
L 18.40625 0 
L 9.421875 0 
z
" id="DejaVuSans-108"/>
      <path d="M 34.28125 27.484375 
Q 23.390625 27.484375 19.1875 25 
Q 14.984375 22.515625 14.984375 16.5 
Q 14.984375 11.71875 18.140625 8.90625 
Q 21.296875 6.109375 26.703125 6.109375 
Q 34.1875 6.109375 38.703125 11.40625 
Q 43.21875 16.703125 43.21875 25.484375 
L 43.21875 27.484375 
z
M 52.203125 31.203125 
L 52.203125 0 
L 43.21875 0 
L 43.21875 8.296875 
Q 40.140625 3.328125 35.546875 0.953125 
Q 30.953125 -1.421875 24.3125 -1.421875 
Q 15.921875 -1.421875 10.953125 3.296875 
Q 6 8.015625 6 15.921875 
Q 6 25.140625 12.171875 29.828125 
Q 18.359375 34.515625 30.609375 34.515625 
L 43.21875 34.515625 
L 43.21875 35.40625 
Q 43.21875 41.609375 39.140625 45 
Q 35.0625 48.390625 27.6875 48.390625 
Q 23 48.390625 18.546875 47.265625 
Q 14.109375 46.140625 10.015625 43.890625 
L 10.015625 52.203125 
Q 14.9375 54.109375 19.578125 55.046875 
Q 24.21875 56 28.609375 56 
Q 40.484375 56 46.34375 49.84375 
Q 52.203125 43.703125 52.203125 31.203125 
z
" id="DejaVuSans-97"/>
      <path d="M 18.3125 70.21875 
L 18.3125 54.6875 
L 36.8125 54.6875 
L 36.8125 47.703125 
L 18.3125 47.703125 
L 18.3125 18.015625 
Q 18.3125 11.328125 20.140625 9.421875 
Q 21.96875 7.515625 27.59375 7.515625 
L 36.8125 7.515625 
L 36.8125 0 
L 27.59375 0 
Q 17.1875 0 13.234375 3.875 
Q 9.28125 7.765625 9.28125 18.015625 
L 9.28125 47.703125 
L 2.6875 47.703125 
L 2.6875 54.6875 
L 9.28125 54.6875 
L 9.28125 70.21875 
z
" id="DejaVuSans-116"/>
      <path d="M 30.609375 48.390625 
Q 23.390625 48.390625 19.1875 42.75 
Q 14.984375 37.109375 14.984375 27.296875 
Q 14.984375 17.484375 19.15625 11.84375 
Q 23.34375 6.203125 30.609375 6.203125 
Q 37.796875 6.203125 41.984375 11.859375 
Q 46.1875 17.53125 46.1875 27.296875 
Q 46.1875 37.015625 41.984375 42.703125 
Q 37.796875 48.390625 30.609375 48.390625 
z
M 30.609375 56 
Q 42.328125 56 49.015625 48.375 
Q 55.71875 40.765625 55.71875 27.296875 
Q 55.71875 13.875 49.015625 6.21875 
Q 42.328125 -1.421875 30.609375 -1.421875 
Q 18.84375 -1.421875 12.171875 6.21875 
Q 5.515625 13.875 5.515625 27.296875 
Q 5.515625 40.765625 12.171875 48.375 
Q 18.84375 56 30.609375 56 
z
" id="DejaVuSans-111"/>
      <path d="M 54.890625 33.015625 
L 54.890625 0 
L 45.90625 0 
L 45.90625 32.71875 
Q 45.90625 40.484375 42.875 44.328125 
Q 39.84375 48.1875 33.796875 48.1875 
Q 26.515625 48.1875 22.3125 43.546875 
Q 18.109375 38.921875 18.109375 30.90625 
L 18.109375 0 
L 9.078125 0 
L 9.078125 54.6875 
L 18.109375 54.6875 
L 18.109375 46.1875 
Q 21.34375 51.125 25.703125 53.5625 
Q 30.078125 56 35.796875 56 
Q 45.21875 56 50.046875 50.171875 
Q 54.890625 44.34375 54.890625 33.015625 
z
" id="DejaVuSans-110"/>
     </defs>
     <g transform="translate(192.695203 291.020281)scale(0.11 -0.11)">
      <use xlink:href="#DejaVuSans-115"/>
      <use x="52.099609" xlink:href="#DejaVuSans-105"/>
      <use x="79.882812" xlink:href="#DejaVuSans-109"/>
      <use x="177.294922" xlink:href="#DejaVuSans-117"/>
      <use x="240.673828" xlink:href="#DejaVuSans-108"/>
      <use x="268.457031" xlink:href="#DejaVuSans-97"/>
      <use x="329.736328" xlink:href="#DejaVuSans-116"/>
      <use x="368.945312" xlink:href="#DejaVuSans-105"/>
      <use x="396.728516" xlink:href="#DejaVuSans-111"/>
      <use x="457.910156" xlink:href="#DejaVuSans-110"/>
     </g>
    </g>
   </g>
   <g id="matplotlib.axis_2">
    <g id="ytick_1">
     <g id="line2d_3">
      <path clip-path="url(#p322aff8a4f)" d="M 48.564813 239.465394 
L 405.684813 239.465394 
" style="fill:none;stroke:#ffffff;"/>
     </g>
     <g id="line2d_4">
      <path d="M 48.564813 239.465394 
" style="fill:none;stroke:#333333;stroke-width:1.5;"/>
      <defs>
       <path d="M 0 0 
L -2.75 0 
" id="m0390d3f3ce" style="stroke:#333333;"/>
      </defs>
      <g>
       <use style="fill:#333333;stroke:#333333;" x="48.564813" xlink:href="#m0390d3f3ce" y="239.465394"/>
      </g>
     </g>
     <g id="text_2">
      <!-- −0.2 -->
      <defs>
       <path d="M 10.59375 35.5 
L 73.1875 35.5 
L 73.1875 27.203125 
L 10.59375 27.203125 
z
" id="DejaVuSans-8722"/>
       <path d="M 31.78125 66.40625 
Q 24.171875 66.40625 20.328125 58.90625 
Q 16.5 51.421875 16.5 36.375 
Q 16.5 21.390625 20.328125 13.890625 
Q 24.171875 6.390625 31.78125 6.390625 
Q 39.453125 6.390625 43.28125 13.890625 
Q 47.125 21.390625 47.125 36.375 
Q 47.125 51.421875 43.28125 58.90625 
Q 39.453125 66.40625 31.78125 66.40625 
z
M 31.78125 74.21875 
Q 44.046875 74.21875 50.515625 64.515625 
Q 56.984375 54.828125 56.984375 36.375 
Q 56.984375 17.96875 50.515625 8.265625 
Q 44.046875 -1.421875 31.78125 -1.421875 
Q 19.53125 -1.421875 13.0625 8.265625 
Q 6.59375 17.96875 6.59375 36.375 
Q 6.59375 54.828125 13.0625 64.515625 
Q 19.53125 74.21875 31.78125 74.21875 
z
" id="DejaVuSans-48"/>
       <path d="M 10.6875 12.40625 
L 21 12.40625 
L 21 0 
L 10.6875 0 
z
" id="DejaVuSans-46"/>
       <path d="M 19.1875 8.296875 
L 53.609375 8.296875 
L 53.609375 0 
L 7.328125 0 
L 7.328125 8.296875 
Q 12.9375 14.109375 22.625 23.890625 
Q 32.328125 33.6875 34.8125 36.53125 
Q 39.546875 41.84375 41.421875 45.53125 
Q 43.3125 49.21875 43.3125 52.78125 
Q 43.3125 58.59375 39.234375 62.25 
Q 35.15625 65.921875 28.609375 65.921875 
Q 23.96875 65.921875 18.8125 64.3125 
Q 13.671875 62.703125 7.8125 59.421875 
L 7.8125 69.390625 
Q 13.765625 71.78125 18.9375 73 
Q 24.125 74.21875 28.421875 74.21875 
Q 39.75 74.21875 46.484375 68.546875 
Q 53.21875 62.890625 53.21875 53.421875 
Q 53.21875 48.921875 51.53125 44.890625 
Q 49.859375 40.875 45.40625 35.40625 
Q 44.1875 33.984375 37.640625 27.21875 
Q 31.109375 20.453125 19.1875 8.296875 
z
" id="DejaVuSans-50"/>
      </defs>
      <g style="fill:#4d4d4d;" transform="translate(22.245938 241.893644)scale(0.088 -0.088)">
       <use xlink:href="#DejaVuSans-8722"/>
       <use x="83.789062" xlink:href="#DejaVuSans-48"/>
       <use x="147.412109" xlink:href="#DejaVuSans-46"/>
       <use x="179.199219" xlink:href="#DejaVuSans-50"/>
      </g>
     </g>
    </g>
    <g id="ytick_2">
     <g id="line2d_5">
      <path clip-path="url(#p322aff8a4f)" d="M 48.564813 195.076404 
L 405.684813 195.076404 
" style="fill:none;stroke:#ffffff;"/>
     </g>
     <g id="line2d_6">
      <path d="M 48.564813 195.076404 
" style="fill:none;stroke:#333333;stroke-width:1.5;"/>
      <g>
       <use style="fill:#333333;stroke:#333333;" x="48.564813" xlink:href="#m0390d3f3ce" y="195.076404"/>
      </g>
     </g>
     <g id="text_3">
      <!-- −0.1 -->
      <defs>
       <path d="M 12.40625 8.296875 
L 28.515625 8.296875 
L 28.515625 63.921875 
L 10.984375 60.40625 
L 10.984375 69.390625 
L 28.421875 72.90625 
L 38.28125 72.90625 
L 38.28125 8.296875 
L 54.390625 8.296875 
L 54.390625 0 
L 12.40625 0 
z
" id="DejaVuSans-49"/>
      </defs>
      <g style="fill:#4d4d4d;" transform="translate(22.245938 197.504654)scale(0.088 -0.088)">
       <use xlink:href="#DejaVuSans-8722"/>
       <use x="83.789062" xlink:href="#DejaVuSans-48"/>
       <use x="147.412109" xlink:href="#DejaVuSans-46"/>
       <use x="179.199219" xlink:href="#DejaVuSans-49"/>
      </g>
     </g>
    </g>
    <g id="ytick_3">
     <g id="line2d_7">
      <path clip-path="url(#p322aff8a4f)" d="M 48.564813 150.687413 
L 405.684813 150.687413 
" style="fill:none;stroke:#ffffff;"/>
     </g>
     <g id="line2d_8">
      <path d="M 48.564813 150.687413 
" style="fill:none;stroke:#333333;stroke-width:1.5;"/>
      <g>
       <use style="fill:#333333;stroke:#333333;" x="48.564813" xlink:href="#m0390d3f3ce" y="150.687413"/>
      </g>
     </g>
     <g id="text_4">
      <!-- 0 -->
      <g style="fill:#4d4d4d;" transform="translate(38.015813 153.115663)scale(0.088 -0.088)">
       <use xlink:href="#DejaVuSans-48"/>
      </g>
     </g>
    </g>
    <g id="ytick_4">
     <g id="line2d_9">
      <path clip-path="url(#p322aff8a4f)" d="M 48.564813 106.298422 
L 405.684813 106.298422 
" style="fill:none;stroke:#ffffff;"/>
     </g>
     <g id="line2d_10">
      <path d="M 48.564813 106.298422 
" style="fill:none;stroke:#333333;stroke-width:1.5;"/>
      <g>
       <use style="fill:#333333;stroke:#333333;" x="48.564813" xlink:href="#m0390d3f3ce" y="106.298422"/>
      </g>
     </g>
     <g id="text_5">
      <!-- 0.1 -->
      <g style="fill:#4d4d4d;" transform="translate(29.620063 108.726672)scale(0.088 -0.088)">
       <use xlink:href="#DejaVuSans-48"/>
       <use x="63.623047" xlink:href="#DejaVuSans-46"/>
       <use x="95.410156" xlink:href="#DejaVuSans-49"/>
      </g>
     </g>
    </g>
    <g id="ytick_5">
     <g id="line2d_11">
      <path clip-path="url(#p322aff8a4f)" d="M 48.564813 61.909431 
L 405.684813 61.909431 
" style="fill:none;stroke:#ffffff;"/>
     </g>
     <g id="line2d_12">
      <path d="M 48.564813 61.909431 
" style="fill:none;stroke:#333333;stroke-width:1.5;"/>
      <g>
       <use style="fill:#333333;stroke:#333333;" x="48.564813" xlink:href="#m0390d3f3ce" y="61.909431"/>
      </g>
     </g>
     <g id="text_6">
      <!-- 0.2 -->
      <g style="fill:#4d4d4d;" transform="translate(29.620063 64.337681)scale(0.088 -0.088)">
       <use xlink:href="#DejaVuSans-48"/>
       <use x="63.623047" xlink:href="#DejaVuSans-46"/>
       <use x="95.410156" xlink:href="#DejaVuSans-50"/>
      </g>
     </g>
    </g>
    <g id="ytick_6">
     <g id="line2d_13">
      <path clip-path="url(#p322aff8a4f)" d="M 48.564813 17.52044 
L 405.684813 17.52044 
" style="fill:none;stroke:#ffffff;"/>
     </g>
     <g id="line2d_14">
      <path d="M 48.564813 17.52044 
" style="fill:none;stroke:#333333;stroke-width:1.5;"/>
      <g>
       <use style="fill:#333333;stroke:#333333;" x="48.564813" xlink:href="#m0390d3f3ce" y="17.52044"/>
      </g>
     </g>
     <g id="text_7">
      <!-- 0.3 -->
      <defs>
       <path d="M 40.578125 39.3125 
Q 47.65625 37.796875 51.625 33 
Q 55.609375 28.21875 55.609375 21.1875 
Q 55.609375 10.40625 48.1875 4.484375 
Q 40.765625 -1.421875 27.09375 -1.421875 
Q 22.515625 -1.421875 17.65625 -0.515625 
Q 12.796875 0.390625 7.625 2.203125 
L 7.625 11.71875 
Q 11.71875 9.328125 16.59375 8.109375 
Q 21.484375 6.890625 26.8125 6.890625 
Q 36.078125 6.890625 40.9375 10.546875 
Q 45.796875 14.203125 45.796875 21.1875 
Q 45.796875 27.640625 41.28125 31.265625 
Q 36.765625 34.90625 28.71875 34.90625 
L 20.21875 34.90625 
L 20.21875 43.015625 
L 29.109375 43.015625 
Q 36.375 43.015625 40.234375 45.921875 
Q 44.09375 48.828125 44.09375 54.296875 
Q 44.09375 59.90625 40.109375 62.90625 
Q 36.140625 65.921875 28.71875 65.921875 
Q 24.65625 65.921875 20.015625 65.03125 
Q 15.375 64.15625 9.8125 62.3125 
L 9.8125 71.09375 
Q 15.4375 72.65625 20.34375 73.4375 
Q 25.25 74.21875 29.59375 74.21875 
Q 40.828125 74.21875 47.359375 69.109375 
Q 53.90625 64.015625 53.90625 55.328125 
Q 53.90625 49.265625 50.4375 45.09375 
Q 46.96875 40.921875 40.578125 39.3125 
z
" id="DejaVuSans-51"/>
      </defs>
      <g style="fill:#4d4d4d;" transform="translate(29.620063 19.94869)scale(0.088 -0.088)">
       <use xlink:href="#DejaVuSans-48"/>
       <use x="63.623047" xlink:href="#DejaVuSans-46"/>
       <use x="95.410156" xlink:href="#DejaVuSans-51"/>
      </g>
     </g>
    </g>
    <g id="ytick_7">
     <g id="line2d_15">
      <path clip-path="url(#p322aff8a4f)" d="M 48.564813 261.65989 
L 405.684813 261.65989 
" style="fill:none;stroke:#ffffff;stroke-width:0.5;"/>
     </g>
    </g>
    <g id="ytick_8">
     <g id="line2d_16">
      <path clip-path="url(#p322aff8a4f)" d="M 48.564813 217.270899 
L 405.684813 217.270899 
" style="fill:none;stroke:#ffffff;stroke-width:0.5;"/>
     </g>
    </g>
    <g id="ytick_9">
     <g id="line2d_17">
      <path clip-path="url(#p322aff8a4f)" d="M 48.564813 172.881908 
L 405.684813 172.881908 
" style="fill:none;stroke:#ffffff;stroke-width:0.5;"/>
     </g>
    </g>
    <g id="ytick_10">
     <g id="line2d_18">
      <path clip-path="url(#p322aff8a4f)" d="M 48.564813 128.492917 
L 405.684813 128.492917 
" style="fill:none;stroke:#ffffff;stroke-width:0.5;"/>
     </g>
    </g>
    <g id="ytick_11">
     <g id="line2d_19">
      <path clip-path="url(#p322aff8a4f)" d="M 48.564813 84.103927 
L 405.684813 84.103927 
" style="fill:none;stroke:#ffffff;stroke-width:0.5;"/>
     </g>
    </g>
    <g id="ytick_12">
     <g id="line2d_20">
      <path clip-path="url(#p322aff8a4f)" d="M 48.564813 39.714936 
L 405.684813 39.714936 
" style="fill:none;stroke:#ffffff;stroke-width:0.5;"/>
     </g>
    </g>
    <g id="text_8">
     <!-- value -->
     <defs>
      <path d="M 2.984375 54.6875 
L 12.5 54.6875 
L 29.59375 8.796875 
L 46.6875 54.6875 
L 56.203125 54.6875 
L 35.6875 0 
L 23.484375 0 
z
" id="DejaVuSans-118"/>
      <path d="M 56.203125 29.59375 
L 56.203125 25.203125 
L 14.890625 25.203125 
Q 15.484375 15.921875 20.484375 11.0625 
Q 25.484375 6.203125 34.421875 6.203125 
Q 39.59375 6.203125 44.453125 7.46875 
Q 49.3125 8.734375 54.109375 11.28125 
L 54.109375 2.78125 
Q 49.265625 0.734375 44.1875 -0.34375 
Q 39.109375 -1.421875 33.890625 -1.421875 
Q 20.796875 -1.421875 13.15625 6.1875 
Q 5.515625 13.8125 5.515625 26.8125 
Q 5.515625 40.234375 12.765625 48.109375 
Q 20.015625 56 32.328125 56 
Q 43.359375 56 49.78125 48.890625 
Q 56.203125 41.796875 56.203125 29.59375 
z
M 47.21875 32.234375 
Q 47.125 39.59375 43.09375 43.984375 
Q 39.0625 48.390625 32.421875 48.390625 
Q 24.90625 48.390625 20.390625 44.140625 
Q 15.875 39.890625 15.1875 32.171875 
z
" id="DejaVuSans-101"/>
     </defs>
     <g transform="translate(15.558281 153.551594)rotate(-90)scale(0.11 -0.11)">
      <use xlink:href="#DejaVuSans-118"/>
      <use x="59.179688" xlink:href="#DejaVuSans-97"/>
      <use x="120.458984" xlink:href="#DejaVuSans-108"/>
      <use x="148.242188" xlink:href="#DejaVuSans-117"/>
      <use x="211.621094" xlink:href="#DejaVuSans-101"/>
     </g>
    </g>
   </g>
   <g id="LineCollection_1">
    <path clip-path="url(#p322aff8a4f)" d="M 105.379358 242.905541 
L 105.379358 232.363156 
" style="fill:none;stroke:#333333;stroke-width:0.886227;"/>
    <path clip-path="url(#p322aff8a4f)" d="M 105.379358 252.338202 
L 105.379358 261.216 
" style="fill:none;stroke:#333333;stroke-width:0.886227;"/>
   </g>
   <g id="PolyCollection_1">
    <defs>
     <path d="M 94.422267 -57.602396 
L 94.422267 -57.602396 
L 116.336449 -57.602396 
L 116.336449 -48.169736 
L 94.422267 -48.169736 
z
" id="mdfe5a501c5" style="stroke:#333333;stroke-width:0.886227;"/>
    </defs>
    <g clip-path="url(#p322aff8a4f)">
     <use style="fill:#440154;stroke:#333333;stroke-width:0.886227;" x="0" xlink:href="#mdfe5a501c5" y="300.507937"/>
    </g>
   </g>
   <g id="LineCollection_2">
    <path clip-path="url(#p322aff8a4f)" d="M 94.422267 247.455413 
L 116.336449 247.455413 
" style="fill:none;stroke:#333333;stroke-width:1.772454;"/>
   </g>
   <g id="LineCollection_3">
    <path clip-path="url(#p322aff8a4f)" d="M 129.728449 190.082642 
L 129.728449 180.428037 
" style="fill:none;stroke:#333333;stroke-width:0.886227;"/>
    <path clip-path="url(#p322aff8a4f)" d="M 129.728449 198.183633 
L 129.728449 209.280881 
" style="fill:none;stroke:#333333;stroke-width:0.886227;"/>
   </g>
   <g id="PolyCollection_2">
    <defs>
     <path d="M 118.771358 -110.425295 
L 118.771358 -110.425295 
L 140.68554 -110.425295 
L 140.68554 -102.324304 
L 118.771358 -102.324304 
z
" id="m602d49b406" style="stroke:#333333;stroke-width:0.886227;"/>
    </defs>
    <g clip-path="url(#p322aff8a4f)">
     <use style="fill:#482576;stroke:#333333;stroke-width:0.886227;" x="0" xlink:href="#m602d49b406" y="300.507937"/>
    </g>
   </g>
   <g id="LineCollection_4">
    <path clip-path="url(#p322aff8a4f)" d="M 118.771358 193.078899 
L 140.68554 193.078899 
" style="fill:none;stroke:#333333;stroke-width:1.772454;"/>
   </g>
   <g id="PathCollection_1">
    <defs>
     <path d="M 0 1.772454 
C 0.47006 1.772454 0.920931 1.585697 1.253314 1.253314 
C 1.585697 0.920931 1.772454 0.47006 1.772454 0 
C 1.772454 -0.47006 1.585697 -0.920931 1.253314 -1.253314 
C 0.920931 -1.585697 0.47006 -1.772454 0 -1.772454 
C -0.47006 -1.772454 -0.920931 -1.585697 -1.253314 -1.253314 
C -1.585697 -0.920931 -1.772454 -0.47006 -1.772454 0 
C -1.772454 0.47006 -1.585697 0.920931 -1.253314 1.253314 
C -0.920931 1.585697 -0.47006 1.772454 0 1.772454 
z
" id="m5106b4c29b" style="stroke:#333333;stroke-width:0.886227;"/>
    </defs>
    <g clip-path="url(#p322aff8a4f)">
     <use style="fill:#333333;stroke:#333333;stroke-width:0.886227;" x="154.07754" xlink:href="#m5106b4c29b" y="171.550239"/>
    </g>
   </g>
   <g id="LineCollection_5">
    <path clip-path="url(#p322aff8a4f)" d="M 154.07754 184.312073 
L 154.07754 173.325798 
" style="fill:none;stroke:#333333;stroke-width:0.886227;"/>
    <path clip-path="url(#p322aff8a4f)" d="M 154.07754 192.524037 
L 154.07754 203.510312 
" style="fill:none;stroke:#333333;stroke-width:0.886227;"/>
   </g>
   <g id="PolyCollection_3">
    <defs>
     <path d="M 143.120449 -116.195864 
L 143.120449 -116.195864 
L 165.034631 -116.195864 
L 165.034631 -107.983901 
L 143.120449 -107.983901 
z
" id="m3d65d3d0af" style="stroke:#333333;stroke-width:0.886227;"/>
    </defs>
    <g clip-path="url(#p322aff8a4f)">
     <use style="fill:#414487;stroke:#333333;stroke-width:0.886227;" x="0" xlink:href="#m3d65d3d0af" y="300.507937"/>
    </g>
   </g>
   <g id="LineCollection_6">
    <path clip-path="url(#p322aff8a4f)" d="M 143.120449 189.305835 
L 165.034631 189.305835 
" style="fill:none;stroke:#333333;stroke-width:1.772454;"/>
   </g>
   <g id="PathCollection_2">
    <g clip-path="url(#p322aff8a4f)">
     <use style="fill:#333333;stroke:#333333;stroke-width:0.886227;" x="178.426631" xlink:href="#m5106b4c29b" y="191.081394"/>
    </g>
   </g>
   <g id="LineCollection_7">
    <path clip-path="url(#p322aff8a4f)" d="M 178.426631 171.994128 
L 178.426631 163.11633 
" style="fill:none;stroke:#333333;stroke-width:0.886227;"/>
    <path clip-path="url(#p322aff8a4f)" d="M 178.426631 179.429284 
L 178.426631 188.418055 
" style="fill:none;stroke:#333333;stroke-width:0.886227;"/>
   </g>
   <g id="PolyCollection_4">
    <defs>
     <path d="M 167.46954 -128.513809 
L 167.46954 -128.513809 
L 189.383722 -128.513809 
L 189.383722 -121.078653 
L 167.46954 -121.078653 
z
" id="me1c099ddce" style="stroke:#333333;stroke-width:0.886227;"/>
    </defs>
    <g clip-path="url(#p322aff8a4f)">
     <use style="fill:#355f8d;stroke:#333333;stroke-width:0.886227;" x="0" xlink:href="#me1c099ddce" y="300.507937"/>
    </g>
   </g>
   <g id="LineCollection_8">
    <path clip-path="url(#p322aff8a4f)" d="M 167.46954 175.101358 
L 189.383722 175.101358 
" style="fill:none;stroke:#333333;stroke-width:1.772454;"/>
   </g>
   <g id="PathCollection_3">
    <g clip-path="url(#p322aff8a4f)">
     <use style="fill:#333333;stroke:#333333;stroke-width:0.886227;" x="202.775722" xlink:href="#m5106b4c29b" y="91.206165"/>
    </g>
   </g>
   <g id="LineCollection_9">
    <path clip-path="url(#p322aff8a4f)" d="M 202.775722 108.184954 
L 202.775722 94.757284 
" style="fill:none;stroke:#333333;stroke-width:0.886227;"/>
    <path clip-path="url(#p322aff8a4f)" d="M 202.775722 117.83956 
L 202.775722 130.268477 
" style="fill:none;stroke:#333333;stroke-width:0.886227;"/>
   </g>
   <g id="PolyCollection_5">
    <defs>
     <path d="M 191.818631 -192.322983 
L 191.818631 -192.322983 
L 213.732812 -192.322983 
L 213.732812 -182.668378 
L 191.818631 -182.668378 
z
" id="md3da91c07a" style="stroke:#333333;stroke-width:0.886227;"/>
    </defs>
    <g clip-path="url(#p322aff8a4f)">
     <use style="fill:#2a788e;stroke:#333333;stroke-width:0.886227;" x="0" xlink:href="#md3da91c07a" y="300.507937"/>
    </g>
   </g>
   <g id="LineCollection_10">
    <path clip-path="url(#p322aff8a4f)" d="M 191.818631 113.84455 
L 213.732812 113.84455 
" style="fill:none;stroke:#333333;stroke-width:1.772454;"/>
   </g>
   <g id="PathCollection_4">
    <g clip-path="url(#p322aff8a4f)">
     <use style="fill:#333333;stroke:#333333;stroke-width:0.886227;" x="227.124812" xlink:href="#m5106b4c29b" y="191.081394"/>
    </g>
   </g>
   <g id="LineCollection_11">
    <path clip-path="url(#p322aff8a4f)" d="M 227.124812 171.994128 
L 227.124812 163.11633 
" style="fill:none;stroke:#333333;stroke-width:0.886227;"/>
    <path clip-path="url(#p322aff8a4f)" d="M 227.124812 179.429284 
L 227.124812 188.418055 
" style="fill:none;stroke:#333333;stroke-width:0.886227;"/>
   </g>
   <g id="PolyCollection_6">
    <defs>
     <path d="M 216.167722 -128.513809 
L 216.167722 -128.513809 
L 238.081903 -128.513809 
L 238.081903 -121.078653 
L 216.167722 -121.078653 
z
" id="m2feee93b1e" style="stroke:#333333;stroke-width:0.886227;"/>
    </defs>
    <g clip-path="url(#p322aff8a4f)">
     <use style="fill:#21918c;stroke:#333333;stroke-width:0.886227;" x="0" xlink:href="#m2feee93b1e" y="300.507937"/>
    </g>
   </g>
   <g id="LineCollection_12">
    <path clip-path="url(#p322aff8a4f)" d="M 216.167722 175.101358 
L 238.081903 175.101358 
" style="fill:none;stroke:#333333;stroke-width:1.772454;"/>
   </g>
   <g id="PathCollection_5">
    <g clip-path="url(#p322aff8a4f)">
     <use style="fill:#333333;stroke:#333333;stroke-width:0.886227;" x="251.473903" xlink:href="#m5106b4c29b" y="91.206165"/>
    </g>
   </g>
   <g id="LineCollection_13">
    <path clip-path="url(#p322aff8a4f)" d="M 251.473903 108.184954 
L 251.473903 94.757284 
" style="fill:none;stroke:#333333;stroke-width:0.886227;"/>
    <path clip-path="url(#p322aff8a4f)" d="M 251.473903 117.83956 
L 251.473903 130.268477 
" style="fill:none;stroke:#333333;stroke-width:0.886227;"/>
   </g>
   <g id="PolyCollection_7">
    <defs>
     <path d="M 240.516812 -192.322983 
L 240.516812 -192.322983 
L 262.430994 -192.322983 
L 262.430994 -182.668378 
L 240.516812 -182.668378 
z
" id="m7a4d82a9e9" style="stroke:#333333;stroke-width:0.886227;"/>
    </defs>
    <g clip-path="url(#p322aff8a4f)">
     <use style="fill:#22a884;stroke:#333333;stroke-width:0.886227;" x="0" xlink:href="#m7a4d82a9e9" y="300.507937"/>
    </g>
   </g>
   <g id="LineCollection_14">
    <path clip-path="url(#p322aff8a4f)" d="M 240.516812 113.84455 
L 262.430994 113.84455 
" style="fill:none;stroke:#333333;stroke-width:1.772454;"/>
   </g>
   <g id="PathCollection_6">
    <g clip-path="url(#p322aff8a4f)">
     <use style="fill:#333333;stroke:#333333;stroke-width:0.886227;" x="275.822994" xlink:href="#m5106b4c29b" y="31.281028"/>
    </g>
   </g>
   <g id="LineCollection_15">
    <path clip-path="url(#p322aff8a4f)" d="M 275.822994 65.90444 
L 275.822994 43.266055 
" style="fill:none;stroke:#333333;stroke-width:0.886227;"/>
    <path clip-path="url(#p322aff8a4f)" d="M 275.822994 88.764771 
L 275.822994 111.625101 
" style="fill:none;stroke:#333333;stroke-width:0.886227;"/>
   </g>
   <g id="PolyCollection_8">
    <defs>
     <path d="M 264.865903 -234.603497 
L 264.865903 -234.603497 
L 286.780085 -234.603497 
L 286.780085 -211.743167 
L 264.865903 -211.743167 
z
" id="m4da1616377" style="stroke:#333333;stroke-width:0.886227;"/>
    </defs>
    <g clip-path="url(#p322aff8a4f)">
     <use style="fill:#42be71;stroke:#333333;stroke-width:0.886227;" x="0" xlink:href="#m4da1616377" y="300.507937"/>
    </g>
   </g>
   <g id="LineCollection_16">
    <path clip-path="url(#p322aff8a4f)" d="M 264.865903 77.001688 
L 286.780085 77.001688 
" style="fill:none;stroke:#333333;stroke-width:1.772454;"/>
   </g>
   <g id="LineCollection_17">
    <path clip-path="url(#p322aff8a4f)" d="M 300.172085 54.25233 
L 300.172085 27.286018 
" style="fill:none;stroke:#333333;stroke-width:0.886227;"/>
    <path clip-path="url(#p322aff8a4f)" d="M 300.172085 78.999193 
L 300.172085 104.966752 
" style="fill:none;stroke:#333333;stroke-width:0.886227;"/>
   </g>
   <g id="PolyCollection_9">
    <defs>
     <path d="M 289.214994 -246.255607 
L 289.214994 -246.255607 
L 311.129176 -246.255607 
L 311.129176 -221.508745 
L 289.214994 -221.508745 
z
" id="mc97de90fb6" style="stroke:#333333;stroke-width:0.886227;"/>
    </defs>
    <g clip-path="url(#p322aff8a4f)">
     <use style="fill:#7ad151;stroke:#333333;stroke-width:0.886227;" x="0" xlink:href="#mc97de90fb6" y="300.507937"/>
    </g>
   </g>
   <g id="LineCollection_18">
    <path clip-path="url(#p322aff8a4f)" d="M 289.214994 70.565284 
L 311.129176 70.565284 
" style="fill:none;stroke:#333333;stroke-width:1.772454;"/>
   </g>
   <g id="PathCollection_7">
    <g clip-path="url(#p322aff8a4f)">
     <use style="fill:#333333;stroke:#333333;stroke-width:0.886227;" x="324.521176" xlink:href="#m5106b4c29b" y="56.138862"/>
    </g>
   </g>
   <g id="LineCollection_19">
    <path clip-path="url(#p322aff8a4f)" d="M 324.521176 32.057835 
L 324.521176 19.296 
" style="fill:none;stroke:#333333;stroke-width:0.886227;"/>
    <path clip-path="url(#p322aff8a4f)" d="M 324.521176 40.602716 
L 324.521176 50.368294 
" style="fill:none;stroke:#333333;stroke-width:0.886227;"/>
   </g>
   <g id="PolyCollection_10">
    <defs>
     <path d="M 313.564085 -268.450103 
L 313.564085 -268.450103 
L 335.478267 -268.450103 
L 335.478267 -259.905222 
L 313.564085 -259.905222 
z
" id="m4c395329b2" style="stroke:#333333;stroke-width:0.886227;"/>
    </defs>
    <g clip-path="url(#p322aff8a4f)">
     <use style="fill:#bddf26;stroke:#333333;stroke-width:0.886227;" x="0" xlink:href="#m4c395329b2" y="300.507937"/>
    </g>
   </g>
   <g id="LineCollection_20">
    <path clip-path="url(#p322aff8a4f)" d="M 313.564085 37.051596 
L 335.478267 37.051596 
" style="fill:none;stroke:#333333;stroke-width:1.772454;"/>
   </g>
   <g id="PathCollection_8">
    <path clip-path="url(#p322aff8a4f)" d="M 348.870267 57.911316 
C 349.340327 57.911316 349.791198 57.724559 350.123581 57.392177 
C 350.455964 57.059794 350.642721 56.608923 350.642721 56.138862 
C 350.642721 55.668802 350.455964 55.217931 350.123581 54.885548 
C 349.791198 54.553165 349.340327 54.366409 348.870267 54.366409 
C 348.400207 54.366409 347.949336 54.553165 347.616953 54.885548 
C 347.28457 55.217931 347.097813 55.668802 347.097813 56.138862 
C 347.097813 56.608923 347.28457 57.059794 347.616953 57.392177 
C 347.949336 57.724559 348.400207 57.911316 348.870267 57.911316 
z
" style="fill:#333333;stroke:#333333;stroke-width:0.886227;"/>
    <path clip-path="url(#p322aff8a4f)" d="M 348.870267 57.911316 
C 349.340327 57.911316 349.791198 57.724559 350.123581 57.392177 
C 350.455964 57.059794 350.642721 56.608923 350.642721 56.138862 
C 350.642721 55.668802 350.455964 55.217931 350.123581 54.885548 
C 349.791198 54.553165 349.340327 54.366409 348.870267 54.366409 
C 348.400207 54.366409 347.949336 54.553165 347.616953 54.885548 
C 347.28457 55.217931 347.097813 55.668802 347.097813 56.138862 
C 347.097813 56.608923 347.28457 57.059794 347.616953 57.392177 
C 347.949336 57.724559 348.400207 57.911316 348.870267 57.911316 
z
" style="fill:#333333;stroke:#333333;stroke-width:0.886227;"/>
    <path clip-path="url(#p322aff8a4f)" d="M 348.870267 57.911316 
C 349.340327 57.911316 349.791198 57.724559 350.123581 57.392177 
C 350.455964 57.059794 350.642721 56.608923 350.642721 56.138862 
C 350.642721 55.668802 350.455964 55.217931 350.123581 54.885548 
C 349.791198 54.553165 349.340327 54.366409 348.870267 54.366409 
C 348.400207 54.366409 347.949336 54.553165 347.616953 54.885548 
C 347.28457 55.217931 347.097813 55.668802 347.097813 56.138862 
C 347.097813 56.608923 347.28457 57.059794 347.616953 57.392177 
C 347.949336 57.724559 348.400207 57.911316 348.870267 57.911316 
z
" style="fill:#333333;stroke:#333333;stroke-width:0.886227;"/>
    <path clip-path="url(#p322aff8a4f)" d="M 348.870267 57.911316 
C 349.340327 57.911316 349.791198 57.724559 350.123581 57.392177 
C 350.455964 57.059794 350.642721 56.608923 350.642721 56.138862 
C 350.642721 55.668802 350.455964 55.217931 350.123581 54.885548 
C 349.791198 54.553165 349.340327 54.366409 348.870267 54.366409 
C 348.400207 54.366409 347.949336 54.553165 347.616953 54.885548 
C 347.28457 55.217931 347.097813 55.668802 347.097813 56.138862 
C 347.097813 56.608923 347.28457 57.059794 347.616953 57.392177 
C 347.949336 57.724559 348.400207 57.911316 348.870267 57.911316 
z
" style="fill:#333333;stroke:#333333;stroke-width:0.886227;"/>
   </g>
   <g id="LineCollection_21">
    <path clip-path="url(#p322aff8a4f)" d="M 348.870267 57.026642 
L 348.870267 56.582752 
" style="fill:none;stroke:#333333;stroke-width:0.886227;"/>
    <path clip-path="url(#p322aff8a4f)" d="M 348.870267 57.470532 
L 348.870267 57.914422 
" style="fill:none;stroke:#333333;stroke-width:0.886227;"/>
   </g>
   <g id="PolyCollection_11">
    <defs>
     <path d="M 337.913176 -243.481295 
L 337.913176 -243.481295 
L 359.827358 -243.481295 
L 359.827358 -243.037405 
L 337.913176 -243.037405 
z
" id="m12662f2eb5" style="stroke:#333333;stroke-width:0.886227;"/>
    </defs>
    <g clip-path="url(#p322aff8a4f)">
     <use style="fill:#fde725;stroke:#333333;stroke-width:0.886227;" x="0" xlink:href="#m12662f2eb5" y="300.507937"/>
    </g>
   </g>
   <g id="LineCollection_22">
    <path clip-path="url(#p322aff8a4f)" d="M 337.913176 57.026642 
L 359.827358 57.026642 
" style="fill:none;stroke:#333333;stroke-width:1.772454;"/>
   </g>
   <g id="patch_3">
    <path d="M 412.884813 255.370969 
L 535.656187 255.370969 
L 535.656187 21.685031 
L 412.884813 21.685031 
z
" style="fill:#ffffff;"/>
   </g>
   <g id="text_9">
    <!-- variable -->
    <defs>
     <path d="M 41.109375 46.296875 
Q 39.59375 47.171875 37.8125 47.578125 
Q 36.03125 48 33.890625 48 
Q 26.265625 48 22.1875 43.046875 
Q 18.109375 38.09375 18.109375 28.8125 
L 18.109375 0 
L 9.078125 0 
L 9.078125 54.6875 
L 18.109375 54.6875 
L 18.109375 46.1875 
Q 20.953125 51.171875 25.484375 53.578125 
Q 30.03125 56 36.53125 56 
Q 37.453125 56 38.578125 55.875 
Q 39.703125 55.765625 41.0625 55.515625 
z
" id="DejaVuSans-114"/>
     <path d="M 48.6875 27.296875 
Q 48.6875 37.203125 44.609375 42.84375 
Q 40.53125 48.484375 33.40625 48.484375 
Q 26.265625 48.484375 22.1875 42.84375 
Q 18.109375 37.203125 18.109375 27.296875 
Q 18.109375 17.390625 22.1875 11.75 
Q 26.265625 6.109375 33.40625 6.109375 
Q 40.53125 6.109375 44.609375 11.75 
Q 48.6875 17.390625 48.6875 27.296875 
z
M 18.109375 46.390625 
Q 20.953125 51.265625 25.265625 53.625 
Q 29.59375 56 35.59375 56 
Q 45.5625 56 51.78125 48.09375 
Q 58.015625 40.1875 58.015625 27.296875 
Q 58.015625 14.40625 51.78125 6.484375 
Q 45.5625 -1.421875 35.59375 -1.421875 
Q 29.59375 -1.421875 25.265625 0.953125 
Q 20.953125 3.328125 18.109375 8.203125 
L 18.109375 0 
L 9.078125 0 
L 9.078125 75.984375 
L 18.109375 75.984375 
z
" id="DejaVuSans-98"/>
    </defs>
    <g transform="translate(425.084812 45.278625)scale(0.11 -0.11)">
     <use xlink:href="#DejaVuSans-118"/>
     <use x="59.179688" xlink:href="#DejaVuSans-97"/>
     <use x="120.458984" xlink:href="#DejaVuSans-114"/>
     <use x="161.572266" xlink:href="#DejaVuSans-105"/>
     <use x="189.355469" xlink:href="#DejaVuSans-97"/>
     <use x="250.634766" xlink:href="#DejaVuSans-98"/>
     <use x="314.111328" xlink:href="#DejaVuSans-108"/>
     <use x="341.894531" xlink:href="#DejaVuSans-101"/>
    </g>
   </g>
   <g id="patch_4">
    <path clip-path="url(#pe6e0718dde)" d="M 425.084812 64.770969 
L 440.924812 64.770969 
L 440.924812 48.930969 
L 425.084812 48.930969 
z
" style="fill:#f2f2f2;"/>
   </g>
   <g id="patch_5">
    <path clip-path="url(#pe6e0718dde)" d="M 427.064813 60.810969 
L 438.944813 60.810969 
L 438.944813 52.890969 
L 427.064813 52.890969 
z
" style="fill:#440154;stroke:#333333;stroke-linecap:square;stroke-linejoin:miter;stroke-width:0.5;"/>
   </g>
   <g id="line2d_21">
    <path clip-path="url(#pe6e0718dde)" d="M 427.064813 56.850969 
L 438.944813 56.850969 
" style="fill:none;stroke:#333333;stroke-width:0.886227;"/>
   </g>
   <g id="line2d_22">
    <path clip-path="url(#pe6e0718dde)" d="M 433.004813 52.890969 
L 433.004813 50.514969 
" style="fill:none;stroke:#333333;stroke-width:0.886227;"/>
   </g>
   <g id="line2d_23">
    <path clip-path="url(#pe6e0718dde)" d="M 433.004813 60.810969 
L 433.004813 63.186969 
" style="fill:none;stroke:#333333;stroke-width:0.886227;"/>
   </g>
   <g id="text_10">
    <!-- alphaStandard -->
    <defs>
     <path d="M 18.109375 8.203125 
L 18.109375 -20.796875 
L 9.078125 -20.796875 
L 9.078125 54.6875 
L 18.109375 54.6875 
L 18.109375 46.390625 
Q 20.953125 51.265625 25.265625 53.625 
Q 29.59375 56 35.59375 56 
Q 45.5625 56 51.78125 48.09375 
Q 58.015625 40.1875 58.015625 27.296875 
Q 58.015625 14.40625 51.78125 6.484375 
Q 45.5625 -1.421875 35.59375 -1.421875 
Q 29.59375 -1.421875 25.265625 0.953125 
Q 20.953125 3.328125 18.109375 8.203125 
z
M 48.6875 27.296875 
Q 48.6875 37.203125 44.609375 42.84375 
Q 40.53125 48.484375 33.40625 48.484375 
Q 26.265625 48.484375 22.1875 42.84375 
Q 18.109375 37.203125 18.109375 27.296875 
Q 18.109375 17.390625 22.1875 11.75 
Q 26.265625 6.109375 33.40625 6.109375 
Q 40.53125 6.109375 44.609375 11.75 
Q 48.6875 17.390625 48.6875 27.296875 
z
" id="DejaVuSans-112"/>
     <path d="M 54.890625 33.015625 
L 54.890625 0 
L 45.90625 0 
L 45.90625 32.71875 
Q 45.90625 40.484375 42.875 44.328125 
Q 39.84375 48.1875 33.796875 48.1875 
Q 26.515625 48.1875 22.3125 43.546875 
Q 18.109375 38.921875 18.109375 30.90625 
L 18.109375 0 
L 9.078125 0 
L 9.078125 75.984375 
L 18.109375 75.984375 
L 18.109375 46.1875 
Q 21.34375 51.125 25.703125 53.5625 
Q 30.078125 56 35.796875 56 
Q 45.21875 56 50.046875 50.171875 
Q 54.890625 44.34375 54.890625 33.015625 
z
" id="DejaVuSans-104"/>
     <path d="M 53.515625 70.515625 
L 53.515625 60.890625 
Q 47.90625 63.578125 42.921875 64.890625 
Q 37.9375 66.21875 33.296875 66.21875 
Q 25.25 66.21875 20.875 63.09375 
Q 16.5 59.96875 16.5 54.203125 
Q 16.5 49.359375 19.40625 46.890625 
Q 22.3125 44.4375 30.421875 42.921875 
L 36.375 41.703125 
Q 47.40625 39.59375 52.65625 34.296875 
Q 57.90625 29 57.90625 20.125 
Q 57.90625 9.515625 50.796875 4.046875 
Q 43.703125 -1.421875 29.984375 -1.421875 
Q 24.8125 -1.421875 18.96875 -0.25 
Q 13.140625 0.921875 6.890625 3.21875 
L 6.890625 13.375 
Q 12.890625 10.015625 18.65625 8.296875 
Q 24.421875 6.59375 29.984375 6.59375 
Q 38.421875 6.59375 43.015625 9.90625 
Q 47.609375 13.234375 47.609375 19.390625 
Q 47.609375 24.75 44.3125 27.78125 
Q 41.015625 30.8125 33.5 32.328125 
L 27.484375 33.5 
Q 16.453125 35.6875 11.515625 40.375 
Q 6.59375 45.0625 6.59375 53.421875 
Q 6.59375 63.09375 13.40625 68.65625 
Q 20.21875 74.21875 32.171875 74.21875 
Q 37.3125 74.21875 42.625 73.28125 
Q 47.953125 72.359375 53.515625 70.515625 
z
" id="DejaVuSans-83"/>
     <path d="M 45.40625 46.390625 
L 45.40625 75.984375 
L 54.390625 75.984375 
L 54.390625 0 
L 45.40625 0 
L 45.40625 8.203125 
Q 42.578125 3.328125 38.25 0.953125 
Q 33.9375 -1.421875 27.875 -1.421875 
Q 17.96875 -1.421875 11.734375 6.484375 
Q 5.515625 14.40625 5.515625 27.296875 
Q 5.515625 40.1875 11.734375 48.09375 
Q 17.96875 56 27.875 56 
Q 33.9375 56 38.25 53.625 
Q 42.578125 51.265625 45.40625 46.390625 
z
M 14.796875 27.296875 
Q 14.796875 17.390625 18.875 11.75 
Q 22.953125 6.109375 30.078125 6.109375 
Q 37.203125 6.109375 41.296875 11.75 
Q 45.40625 17.390625 45.40625 27.296875 
Q 45.40625 37.203125 41.296875 42.84375 
Q 37.203125 48.484375 30.078125 48.484375 
Q 22.953125 48.484375 18.875 42.84375 
Q 14.796875 37.203125 14.796875 27.296875 
z
" id="DejaVuSans-100"/>
    </defs>
    <g transform="translate(443.924813 59.279219)scale(0.088 -0.088)">
     <use xlink:href="#DejaVuSans-97"/>
     <use x="61.279297" xlink:href="#DejaVuSans-108"/>
     <use x="89.0625" xlink:href="#DejaVuSans-112"/>
     <use x="152.539062" xlink:href="#DejaVuSans-104"/>
     <use x="215.917969" xlink:href="#DejaVuSans-97"/>
     <use x="277.197266" xlink:href="#DejaVuSans-83"/>
     <use x="340.673828" xlink:href="#DejaVuSans-116"/>
     <use x="379.882812" xlink:href="#DejaVuSans-97"/>
     <use x="441.162109" xlink:href="#DejaVuSans-110"/>
     <use x="504.541016" xlink:href="#DejaVuSans-100"/>
     <use x="568.017578" xlink:href="#DejaVuSans-97"/>
     <use x="629.296875" xlink:href="#DejaVuSans-114"/>
     <use x="670.394531" xlink:href="#DejaVuSans-100"/>
    </g>
   </g>
   <g id="patch_6">
    <path clip-path="url(#p8c67c6f399)" d="M 425.084812 82.610969 
L 440.924812 82.610969 
L 440.924812 66.770969 
L 425.084812 66.770969 
z
" style="fill:#f2f2f2;"/>
   </g>
   <g id="patch_7">
    <path clip-path="url(#p8c67c6f399)" d="M 427.064813 78.650969 
L 438.944813 78.650969 
L 438.944813 70.730969 
L 427.064813 70.730969 
z
" style="fill:#482576;stroke:#333333;stroke-linecap:square;stroke-linejoin:miter;stroke-width:0.5;"/>
   </g>
   <g id="line2d_24">
    <path clip-path="url(#p8c67c6f399)" d="M 427.064813 74.690969 
L 438.944813 74.690969 
" style="fill:none;stroke:#333333;stroke-width:0.886227;"/>
   </g>
   <g id="line2d_25">
    <path clip-path="url(#p8c67c6f399)" d="M 433.004813 70.730969 
L 433.004813 68.354969 
" style="fill:none;stroke:#333333;stroke-width:0.886227;"/>
   </g>
   <g id="line2d_26">
    <path clip-path="url(#p8c67c6f399)" d="M 433.004813 78.650969 
L 433.004813 81.026969 
" style="fill:none;stroke:#333333;stroke-width:0.886227;"/>
   </g>
   <g id="text_11">
    <!-- alphaEMKT1 -->
    <defs>
     <path d="M 9.8125 72.90625 
L 55.90625 72.90625 
L 55.90625 64.59375 
L 19.671875 64.59375 
L 19.671875 43.015625 
L 54.390625 43.015625 
L 54.390625 34.71875 
L 19.671875 34.71875 
L 19.671875 8.296875 
L 56.78125 8.296875 
L 56.78125 0 
L 9.8125 0 
z
" id="DejaVuSans-69"/>
     <path d="M 9.8125 72.90625 
L 24.515625 72.90625 
L 43.109375 23.296875 
L 61.8125 72.90625 
L 76.515625 72.90625 
L 76.515625 0 
L 66.890625 0 
L 66.890625 64.015625 
L 48.09375 14.015625 
L 38.1875 14.015625 
L 19.390625 64.015625 
L 19.390625 0 
L 9.8125 0 
z
" id="DejaVuSans-77"/>
     <path d="M 9.8125 72.90625 
L 19.671875 72.90625 
L 19.671875 42.09375 
L 52.390625 72.90625 
L 65.09375 72.90625 
L 28.90625 38.921875 
L 67.671875 0 
L 54.6875 0 
L 19.671875 35.109375 
L 19.671875 0 
L 9.8125 0 
z
" id="DejaVuSans-75"/>
     <path d="M -0.296875 72.90625 
L 61.375 72.90625 
L 61.375 64.59375 
L 35.5 64.59375 
L 35.5 0 
L 25.59375 0 
L 25.59375 64.59375 
L -0.296875 64.59375 
z
" id="DejaVuSans-84"/>
    </defs>
    <g transform="translate(443.924813 77.119219)scale(0.088 -0.088)">
     <use xlink:href="#DejaVuSans-97"/>
     <use x="61.279297" xlink:href="#DejaVuSans-108"/>
     <use x="89.0625" xlink:href="#DejaVuSans-112"/>
     <use x="152.539062" xlink:href="#DejaVuSans-104"/>
     <use x="215.917969" xlink:href="#DejaVuSans-97"/>
     <use x="277.197266" xlink:href="#DejaVuSans-69"/>
     <use x="340.380859" xlink:href="#DejaVuSans-77"/>
     <use x="426.660156" xlink:href="#DejaVuSans-75"/>
     <use x="492.126953" xlink:href="#DejaVuSans-84"/>
     <use x="553.210938" xlink:href="#DejaVuSans-49"/>
    </g>
   </g>
   <g id="patch_8">
    <path clip-path="url(#pdc227911a9)" d="M 425.084812 100.450969 
L 440.924812 100.450969 
L 440.924812 84.610969 
L 425.084812 84.610969 
z
" style="fill:#f2f2f2;"/>
   </g>
   <g id="patch_9">
    <path clip-path="url(#pdc227911a9)" d="M 427.064813 96.490969 
L 438.944813 96.490969 
L 438.944813 88.570969 
L 427.064813 88.570969 
z
" style="fill:#414487;stroke:#333333;stroke-linecap:square;stroke-linejoin:miter;stroke-width:0.5;"/>
   </g>
   <g id="line2d_27">
    <path clip-path="url(#pdc227911a9)" d="M 427.064813 92.530969 
L 438.944813 92.530969 
" style="fill:none;stroke:#333333;stroke-width:0.886227;"/>
   </g>
   <g id="line2d_28">
    <path clip-path="url(#pdc227911a9)" d="M 433.004813 88.570969 
L 433.004813 86.194969 
" style="fill:none;stroke:#333333;stroke-width:0.886227;"/>
   </g>
   <g id="line2d_29">
    <path clip-path="url(#pdc227911a9)" d="M 433.004813 96.490969 
L 433.004813 98.866969 
" style="fill:none;stroke:#333333;stroke-width:0.886227;"/>
   </g>
   <g id="text_12">
    <!-- alphaEMKT2 -->
    <g transform="translate(443.924813 94.959219)scale(0.088 -0.088)">
     <use xlink:href="#DejaVuSans-97"/>
     <use x="61.279297" xlink:href="#DejaVuSans-108"/>
     <use x="89.0625" xlink:href="#DejaVuSans-112"/>
     <use x="152.539062" xlink:href="#DejaVuSans-104"/>
     <use x="215.917969" xlink:href="#DejaVuSans-97"/>
     <use x="277.197266" xlink:href="#DejaVuSans-69"/>
     <use x="340.380859" xlink:href="#DejaVuSans-77"/>
     <use x="426.660156" xlink:href="#DejaVuSans-75"/>
     <use x="492.126953" xlink:href="#DejaVuSans-84"/>
     <use x="553.210938" xlink:href="#DejaVuSans-50"/>
    </g>
   </g>
   <g id="patch_10">
    <path clip-path="url(#p4d615b216e)" d="M 425.084812 118.290969 
L 440.924812 118.290969 
L 440.924812 102.450969 
L 425.084812 102.450969 
z
" style="fill:#f2f2f2;"/>
   </g>
   <g id="patch_11">
    <path clip-path="url(#p4d615b216e)" d="M 427.064813 114.330969 
L 438.944813 114.330969 
L 438.944813 106.410969 
L 427.064813 106.410969 
z
" style="fill:#355f8d;stroke:#333333;stroke-linecap:square;stroke-linejoin:miter;stroke-width:0.5;"/>
   </g>
   <g id="line2d_30">
    <path clip-path="url(#p4d615b216e)" d="M 427.064813 110.370969 
L 438.944813 110.370969 
" style="fill:none;stroke:#333333;stroke-width:0.886227;"/>
   </g>
   <g id="line2d_31">
    <path clip-path="url(#p4d615b216e)" d="M 433.004813 106.410969 
L 433.004813 104.034969 
" style="fill:none;stroke:#333333;stroke-width:0.886227;"/>
   </g>
   <g id="line2d_32">
    <path clip-path="url(#p4d615b216e)" d="M 433.004813 114.330969 
L 433.004813 116.706969 
" style="fill:none;stroke:#333333;stroke-width:0.886227;"/>
   </g>
   <g id="text_13">
    <!-- alphaFWW1 -->
    <defs>
     <path d="M 9.8125 72.90625 
L 51.703125 72.90625 
L 51.703125 64.59375 
L 19.671875 64.59375 
L 19.671875 43.109375 
L 48.578125 43.109375 
L 48.578125 34.8125 
L 19.671875 34.8125 
L 19.671875 0 
L 9.8125 0 
z
" id="DejaVuSans-70"/>
     <path d="M 3.328125 72.90625 
L 13.28125 72.90625 
L 28.609375 11.28125 
L 43.890625 72.90625 
L 54.984375 72.90625 
L 70.3125 11.28125 
L 85.59375 72.90625 
L 95.609375 72.90625 
L 77.296875 0 
L 64.890625 0 
L 49.515625 63.28125 
L 33.984375 0 
L 21.578125 0 
z
" id="DejaVuSans-87"/>
    </defs>
    <g transform="translate(443.924813 112.799219)scale(0.088 -0.088)">
     <use xlink:href="#DejaVuSans-97"/>
     <use x="61.279297" xlink:href="#DejaVuSans-108"/>
     <use x="89.0625" xlink:href="#DejaVuSans-112"/>
     <use x="152.539062" xlink:href="#DejaVuSans-104"/>
     <use x="215.917969" xlink:href="#DejaVuSans-97"/>
     <use x="277.197266" xlink:href="#DejaVuSans-70"/>
     <use x="334.716797" xlink:href="#DejaVuSans-87"/>
     <use x="433.59375" xlink:href="#DejaVuSans-87"/>
     <use x="532.470703" xlink:href="#DejaVuSans-49"/>
    </g>
   </g>
   <g id="patch_12">
    <path clip-path="url(#p609cbd9014)" d="M 425.084812 136.130969 
L 440.924812 136.130969 
L 440.924812 120.290969 
L 425.084812 120.290969 
z
" style="fill:#f2f2f2;"/>
   </g>
   <g id="patch_13">
    <path clip-path="url(#p609cbd9014)" d="M 427.064813 132.170969 
L 438.944813 132.170969 
L 438.944813 124.250969 
L 427.064813 124.250969 
z
" style="fill:#2a788e;stroke:#333333;stroke-linecap:square;stroke-linejoin:miter;stroke-width:0.5;"/>
   </g>
   <g id="line2d_33">
    <path clip-path="url(#p609cbd9014)" d="M 427.064813 128.210969 
L 438.944813 128.210969 
" style="fill:none;stroke:#333333;stroke-width:0.886227;"/>
   </g>
   <g id="line2d_34">
    <path clip-path="url(#p609cbd9014)" d="M 433.004813 124.250969 
L 433.004813 121.874969 
" style="fill:none;stroke:#333333;stroke-width:0.886227;"/>
   </g>
   <g id="line2d_35">
    <path clip-path="url(#p609cbd9014)" d="M 433.004813 132.170969 
L 433.004813 134.546969 
" style="fill:none;stroke:#333333;stroke-width:0.886227;"/>
   </g>
   <g id="text_14">
    <!-- alphaFWW2 -->
    <g transform="translate(443.924813 130.639219)scale(0.088 -0.088)">
     <use xlink:href="#DejaVuSans-97"/>
     <use x="61.279297" xlink:href="#DejaVuSans-108"/>
     <use x="89.0625" xlink:href="#DejaVuSans-112"/>
     <use x="152.539062" xlink:href="#DejaVuSans-104"/>
     <use x="215.917969" xlink:href="#DejaVuSans-97"/>
     <use x="277.197266" xlink:href="#DejaVuSans-70"/>
     <use x="334.716797" xlink:href="#DejaVuSans-87"/>
     <use x="433.59375" xlink:href="#DejaVuSans-87"/>
     <use x="532.470703" xlink:href="#DejaVuSans-50"/>
    </g>
   </g>
   <g id="patch_14">
    <path clip-path="url(#p281d50d387)" d="M 425.084812 153.970969 
L 440.924812 153.970969 
L 440.924812 138.130969 
L 425.084812 138.130969 
z
" style="fill:#f2f2f2;"/>
   </g>
   <g id="patch_15">
    <path clip-path="url(#p281d50d387)" d="M 427.064813 150.010969 
L 438.944813 150.010969 
L 438.944813 142.090969 
L 427.064813 142.090969 
z
" style="fill:#21918c;stroke:#333333;stroke-linecap:square;stroke-linejoin:miter;stroke-width:0.5;"/>
   </g>
   <g id="line2d_36">
    <path clip-path="url(#p281d50d387)" d="M 427.064813 146.050969 
L 438.944813 146.050969 
" style="fill:none;stroke:#333333;stroke-width:0.886227;"/>
   </g>
   <g id="line2d_37">
    <path clip-path="url(#p281d50d387)" d="M 433.004813 142.090969 
L 433.004813 139.714969 
" style="fill:none;stroke:#333333;stroke-width:0.886227;"/>
   </g>
   <g id="line2d_38">
    <path clip-path="url(#p281d50d387)" d="M 433.004813 150.010969 
L 433.004813 152.386969 
" style="fill:none;stroke:#333333;stroke-width:0.886227;"/>
   </g>
   <g id="text_15">
    <!-- alphaIMP1 -->
    <defs>
     <path d="M 9.8125 72.90625 
L 19.671875 72.90625 
L 19.671875 0 
L 9.8125 0 
z
" id="DejaVuSans-73"/>
     <path d="M 19.671875 64.796875 
L 19.671875 37.40625 
L 32.078125 37.40625 
Q 38.96875 37.40625 42.71875 40.96875 
Q 46.484375 44.53125 46.484375 51.125 
Q 46.484375 57.671875 42.71875 61.234375 
Q 38.96875 64.796875 32.078125 64.796875 
z
M 9.8125 72.90625 
L 32.078125 72.90625 
Q 44.34375 72.90625 50.609375 67.359375 
Q 56.890625 61.8125 56.890625 51.125 
Q 56.890625 40.328125 50.609375 34.8125 
Q 44.34375 29.296875 32.078125 29.296875 
L 19.671875 29.296875 
L 19.671875 0 
L 9.8125 0 
z
" id="DejaVuSans-80"/>
    </defs>
    <g transform="translate(443.924813 148.479219)scale(0.088 -0.088)">
     <use xlink:href="#DejaVuSans-97"/>
     <use x="61.279297" xlink:href="#DejaVuSans-108"/>
     <use x="89.0625" xlink:href="#DejaVuSans-112"/>
     <use x="152.539062" xlink:href="#DejaVuSans-104"/>
     <use x="215.917969" xlink:href="#DejaVuSans-97"/>
     <use x="277.197266" xlink:href="#DejaVuSans-73"/>
     <use x="306.689453" xlink:href="#DejaVuSans-77"/>
     <use x="392.96875" xlink:href="#DejaVuSans-80"/>
     <use x="453.271484" xlink:href="#DejaVuSans-49"/>
    </g>
   </g>
   <g id="patch_16">
    <path clip-path="url(#p0307b3b8cd)" d="M 425.084812 171.810969 
L 440.924812 171.810969 
L 440.924812 155.970969 
L 425.084812 155.970969 
z
" style="fill:#f2f2f2;"/>
   </g>
   <g id="patch_17">
    <path clip-path="url(#p0307b3b8cd)" d="M 427.064813 167.850969 
L 438.944813 167.850969 
L 438.944813 159.930969 
L 427.064813 159.930969 
z
" style="fill:#22a884;stroke:#333333;stroke-linecap:square;stroke-linejoin:miter;stroke-width:0.5;"/>
   </g>
   <g id="line2d_39">
    <path clip-path="url(#p0307b3b8cd)" d="M 427.064813 163.890969 
L 438.944813 163.890969 
" style="fill:none;stroke:#333333;stroke-width:0.886227;"/>
   </g>
   <g id="line2d_40">
    <path clip-path="url(#p0307b3b8cd)" d="M 433.004813 159.930969 
L 433.004813 157.554969 
" style="fill:none;stroke:#333333;stroke-width:0.886227;"/>
   </g>
   <g id="line2d_41">
    <path clip-path="url(#p0307b3b8cd)" d="M 433.004813 167.850969 
L 433.004813 170.226969 
" style="fill:none;stroke:#333333;stroke-width:0.886227;"/>
   </g>
   <g id="text_16">
    <!-- alphaIMP2 -->
    <g transform="translate(443.924813 166.319219)scale(0.088 -0.088)">
     <use xlink:href="#DejaVuSans-97"/>
     <use x="61.279297" xlink:href="#DejaVuSans-108"/>
     <use x="89.0625" xlink:href="#DejaVuSans-112"/>
     <use x="152.539062" xlink:href="#DejaVuSans-104"/>
     <use x="215.917969" xlink:href="#DejaVuSans-97"/>
     <use x="277.197266" xlink:href="#DejaVuSans-73"/>
     <use x="306.689453" xlink:href="#DejaVuSans-77"/>
     <use x="392.96875" xlink:href="#DejaVuSans-80"/>
     <use x="453.271484" xlink:href="#DejaVuSans-50"/>
    </g>
   </g>
   <g id="patch_18">
    <path clip-path="url(#pe62faf0307)" d="M 425.084812 189.650969 
L 440.924812 189.650969 
L 440.924812 173.810969 
L 425.084812 173.810969 
z
" style="fill:#f2f2f2;"/>
   </g>
   <g id="patch_19">
    <path clip-path="url(#pe62faf0307)" d="M 427.064813 185.690969 
L 438.944813 185.690969 
L 438.944813 177.770969 
L 427.064813 177.770969 
z
" style="fill:#42be71;stroke:#333333;stroke-linecap:square;stroke-linejoin:miter;stroke-width:0.5;"/>
   </g>
   <g id="line2d_42">
    <path clip-path="url(#pe62faf0307)" d="M 427.064813 181.730969 
L 438.944813 181.730969 
" style="fill:none;stroke:#333333;stroke-width:0.886227;"/>
   </g>
   <g id="line2d_43">
    <path clip-path="url(#pe62faf0307)" d="M 433.004813 177.770969 
L 433.004813 175.394969 
" style="fill:none;stroke:#333333;stroke-width:0.886227;"/>
   </g>
   <g id="line2d_44">
    <path clip-path="url(#pe62faf0307)" d="M 433.004813 185.690969 
L 433.004813 188.066969 
" style="fill:none;stroke:#333333;stroke-width:0.886227;"/>
   </g>
   <g id="text_17">
    <!-- alphaAsymptotic1 -->
    <defs>
     <path d="M 34.1875 63.1875 
L 20.796875 26.90625 
L 47.609375 26.90625 
z
M 28.609375 72.90625 
L 39.796875 72.90625 
L 67.578125 0 
L 57.328125 0 
L 50.6875 18.703125 
L 17.828125 18.703125 
L 11.1875 0 
L 0.78125 0 
z
" id="DejaVuSans-65"/>
     <path d="M 32.171875 -5.078125 
Q 28.375 -14.84375 24.75 -17.8125 
Q 21.140625 -20.796875 15.09375 -20.796875 
L 7.90625 -20.796875 
L 7.90625 -13.28125 
L 13.1875 -13.28125 
Q 16.890625 -13.28125 18.9375 -11.515625 
Q 21 -9.765625 23.484375 -3.21875 
L 25.09375 0.875 
L 2.984375 54.6875 
L 12.5 54.6875 
L 29.59375 11.921875 
L 46.6875 54.6875 
L 56.203125 54.6875 
z
" id="DejaVuSans-121"/>
     <path d="M 48.78125 52.59375 
L 48.78125 44.1875 
Q 44.96875 46.296875 41.140625 47.34375 
Q 37.3125 48.390625 33.40625 48.390625 
Q 24.65625 48.390625 19.8125 42.84375 
Q 14.984375 37.3125 14.984375 27.296875 
Q 14.984375 17.28125 19.8125 11.734375 
Q 24.65625 6.203125 33.40625 6.203125 
Q 37.3125 6.203125 41.140625 7.25 
Q 44.96875 8.296875 48.78125 10.40625 
L 48.78125 2.09375 
Q 45.015625 0.34375 40.984375 -0.53125 
Q 36.96875 -1.421875 32.421875 -1.421875 
Q 20.0625 -1.421875 12.78125 6.34375 
Q 5.515625 14.109375 5.515625 27.296875 
Q 5.515625 40.671875 12.859375 48.328125 
Q 20.21875 56 33.015625 56 
Q 37.15625 56 41.109375 55.140625 
Q 45.0625 54.296875 48.78125 52.59375 
z
" id="DejaVuSans-99"/>
    </defs>
    <g transform="translate(443.924813 184.159219)scale(0.088 -0.088)">
     <use xlink:href="#DejaVuSans-97"/>
     <use x="61.279297" xlink:href="#DejaVuSans-108"/>
     <use x="89.0625" xlink:href="#DejaVuSans-112"/>
     <use x="152.539062" xlink:href="#DejaVuSans-104"/>
     <use x="215.917969" xlink:href="#DejaVuSans-97"/>
     <use x="277.197266" xlink:href="#DejaVuSans-65"/>
     <use x="345.605469" xlink:href="#DejaVuSans-115"/>
     <use x="397.705078" xlink:href="#DejaVuSans-121"/>
     <use x="456.884766" xlink:href="#DejaVuSans-109"/>
     <use x="554.296875" xlink:href="#DejaVuSans-112"/>
     <use x="617.773438" xlink:href="#DejaVuSans-116"/>
     <use x="656.982422" xlink:href="#DejaVuSans-111"/>
     <use x="718.164062" xlink:href="#DejaVuSans-116"/>
     <use x="757.373047" xlink:href="#DejaVuSans-105"/>
     <use x="785.15625" xlink:href="#DejaVuSans-99"/>
     <use x="840.136719" xlink:href="#DejaVuSans-49"/>
    </g>
   </g>
   <g id="patch_20">
    <path clip-path="url(#pa479935d07)" d="M 425.084812 207.490969 
L 440.924812 207.490969 
L 440.924812 191.650969 
L 425.084812 191.650969 
z
" style="fill:#f2f2f2;"/>
   </g>
   <g id="patch_21">
    <path clip-path="url(#pa479935d07)" d="M 427.064813 203.530969 
L 438.944813 203.530969 
L 438.944813 195.610969 
L 427.064813 195.610969 
z
" style="fill:#7ad151;stroke:#333333;stroke-linecap:square;stroke-linejoin:miter;stroke-width:0.5;"/>
   </g>
   <g id="line2d_45">
    <path clip-path="url(#pa479935d07)" d="M 427.064813 199.570969 
L 438.944813 199.570969 
" style="fill:none;stroke:#333333;stroke-width:0.886227;"/>
   </g>
   <g id="line2d_46">
    <path clip-path="url(#pa479935d07)" d="M 433.004813 195.610969 
L 433.004813 193.234969 
" style="fill:none;stroke:#333333;stroke-width:0.886227;"/>
   </g>
   <g id="line2d_47">
    <path clip-path="url(#pa479935d07)" d="M 433.004813 203.530969 
L 433.004813 205.906969 
" style="fill:none;stroke:#333333;stroke-width:0.886227;"/>
   </g>
   <g id="text_18">
    <!-- alphaAsymptotic2 -->
    <g transform="translate(443.924813 201.999219)scale(0.088 -0.088)">
     <use xlink:href="#DejaVuSans-97"/>
     <use x="61.279297" xlink:href="#DejaVuSans-108"/>
     <use x="89.0625" xlink:href="#DejaVuSans-112"/>
     <use x="152.539062" xlink:href="#DejaVuSans-104"/>
     <use x="215.917969" xlink:href="#DejaVuSans-97"/>
     <use x="277.197266" xlink:href="#DejaVuSans-65"/>
     <use x="345.605469" xlink:href="#DejaVuSans-115"/>
     <use x="397.705078" xlink:href="#DejaVuSans-121"/>
     <use x="456.884766" xlink:href="#DejaVuSans-109"/>
     <use x="554.296875" xlink:href="#DejaVuSans-112"/>
     <use x="617.773438" xlink:href="#DejaVuSans-116"/>
     <use x="656.982422" xlink:href="#DejaVuSans-111"/>
     <use x="718.164062" xlink:href="#DejaVuSans-116"/>
     <use x="757.373047" xlink:href="#DejaVuSans-105"/>
     <use x="785.15625" xlink:href="#DejaVuSans-99"/>
     <use x="840.136719" xlink:href="#DejaVuSans-50"/>
    </g>
   </g>
   <g id="patch_22">
    <path clip-path="url(#pcf5aa4e168)" d="M 425.084812 225.330969 
L 440.924812 225.330969 
L 440.924812 209.490969 
L 425.084812 209.490969 
z
" style="fill:#f2f2f2;"/>
   </g>
   <g id="patch_23">
    <path clip-path="url(#pcf5aa4e168)" d="M 427.064813 221.370969 
L 438.944813 221.370969 
L 438.944813 213.450969 
L 427.064813 213.450969 
z
" style="fill:#bddf26;stroke:#333333;stroke-linecap:square;stroke-linejoin:miter;stroke-width:0.5;"/>
   </g>
   <g id="line2d_48">
    <path clip-path="url(#pcf5aa4e168)" d="M 427.064813 217.410969 
L 438.944813 217.410969 
" style="fill:none;stroke:#333333;stroke-width:0.886227;"/>
   </g>
   <g id="line2d_49">
    <path clip-path="url(#pcf5aa4e168)" d="M 433.004813 213.450969 
L 433.004813 211.074969 
" style="fill:none;stroke:#333333;stroke-width:0.886227;"/>
   </g>
   <g id="line2d_50">
    <path clip-path="url(#pcf5aa4e168)" d="M 433.004813 221.370969 
L 433.004813 223.746969 
" style="fill:none;stroke:#333333;stroke-width:0.886227;"/>
   </g>
   <g id="text_19">
    <!-- grapes -->
    <defs>
     <path d="M 45.40625 27.984375 
Q 45.40625 37.75 41.375 43.109375 
Q 37.359375 48.484375 30.078125 48.484375 
Q 22.859375 48.484375 18.828125 43.109375 
Q 14.796875 37.75 14.796875 27.984375 
Q 14.796875 18.265625 18.828125 12.890625 
Q 22.859375 7.515625 30.078125 7.515625 
Q 37.359375 7.515625 41.375 12.890625 
Q 45.40625 18.265625 45.40625 27.984375 
z
M 54.390625 6.78125 
Q 54.390625 -7.171875 48.1875 -13.984375 
Q 42 -20.796875 29.203125 -20.796875 
Q 24.46875 -20.796875 20.265625 -20.09375 
Q 16.0625 -19.390625 12.109375 -17.921875 
L 12.109375 -9.1875 
Q 16.0625 -11.328125 19.921875 -12.34375 
Q 23.78125 -13.375 27.78125 -13.375 
Q 36.625 -13.375 41.015625 -8.765625 
Q 45.40625 -4.15625 45.40625 5.171875 
L 45.40625 9.625 
Q 42.625 4.78125 38.28125 2.390625 
Q 33.9375 0 27.875 0 
Q 17.828125 0 11.671875 7.65625 
Q 5.515625 15.328125 5.515625 27.984375 
Q 5.515625 40.671875 11.671875 48.328125 
Q 17.828125 56 27.875 56 
Q 33.9375 56 38.28125 53.609375 
Q 42.625 51.21875 45.40625 46.390625 
L 45.40625 54.6875 
L 54.390625 54.6875 
z
" id="DejaVuSans-103"/>
    </defs>
    <g transform="translate(443.924813 219.839219)scale(0.088 -0.088)">
     <use xlink:href="#DejaVuSans-103"/>
     <use x="63.476562" xlink:href="#DejaVuSans-114"/>
     <use x="104.589844" xlink:href="#DejaVuSans-97"/>
     <use x="165.869141" xlink:href="#DejaVuSans-112"/>
     <use x="229.345703" xlink:href="#DejaVuSans-101"/>
     <use x="290.869141" xlink:href="#DejaVuSans-115"/>
    </g>
   </g>
   <g id="patch_24">
    <path clip-path="url(#pbe70596a39)" d="M 425.084812 243.170969 
L 440.924812 243.170969 
L 440.924812 227.330969 
L 425.084812 227.330969 
z
" style="fill:#f2f2f2;"/>
   </g>
   <g id="patch_25">
    <path clip-path="url(#pbe70596a39)" d="M 427.064813 239.210969 
L 438.944813 239.210969 
L 438.944813 231.290969 
L 427.064813 231.290969 
z
" style="fill:#fde725;stroke:#333333;stroke-linecap:square;stroke-linejoin:miter;stroke-width:0.5;"/>
   </g>
   <g id="line2d_51">
    <path clip-path="url(#pbe70596a39)" d="M 427.064813 235.250969 
L 438.944813 235.250969 
" style="fill:none;stroke:#333333;stroke-width:0.886227;"/>
   </g>
   <g id="line2d_52">
    <path clip-path="url(#pbe70596a39)" d="M 433.004813 231.290969 
L 433.004813 228.914969 
" style="fill:none;stroke:#333333;stroke-width:0.886227;"/>
   </g>
   <g id="line2d_53">
    <path clip-path="url(#pbe70596a39)" d="M 433.004813 239.210969 
L 433.004813 241.586969 
" style="fill:none;stroke:#333333;stroke-width:0.886227;"/>
   </g>
   <g id="text_20">
    <!-- trueAlpha -->
    <g transform="translate(443.924813 237.679219)scale(0.088 -0.088)">
     <use xlink:href="#DejaVuSans-116"/>
     <use x="39.208984" xlink:href="#DejaVuSans-114"/>
     <use x="80.322266" xlink:href="#DejaVuSans-117"/>
     <use x="143.701172" xlink:href="#DejaVuSans-101"/>
     <use x="205.224609" xlink:href="#DejaVuSans-65"/>
     <use x="273.632812" xlink:href="#DejaVuSans-108"/>
     <use x="301.416016" xlink:href="#DejaVuSans-112"/>
     <use x="364.892578" xlink:href="#DejaVuSans-104"/>
     <use x="428.271484" xlink:href="#DejaVuSans-97"/>
    </g>
   </g>
  </g>
 </g>
 <defs>
  <clipPath id="p322aff8a4f">
   <rect height="266.112" width="357.12" x="48.564813" y="7.2"/>
  </clipPath>
  <clipPath id="pe6e0718dde">
   <path d="M 425.084812 64.770969 
L 425.084812 48.930969 
L 440.924812 48.930969 
L 440.924812 64.770969 
"/>
  </clipPath>
  <clipPath id="p8c67c6f399">
   <path d="M 425.084812 82.610969 
L 425.084812 66.770969 
L 440.924812 66.770969 
L 440.924812 82.610969 
"/>
  </clipPath>
  <clipPath id="pdc227911a9">
   <path d="M 425.084812 100.450969 
L 425.084812 84.610969 
L 440.924812 84.610969 
L 440.924812 100.450969 
"/>
  </clipPath>
  <clipPath id="p4d615b216e">
   <path d="M 425.084812 118.290969 
L 425.084812 102.450969 
L 440.924812 102.450969 
L 440.924812 118.290969 
"/>
  </clipPath>
  <clipPath id="p609cbd9014">
   <path d="M 425.084812 136.130969 
L 425.084812 120.290969 
L 440.924812 120.290969 
L 440.924812 136.130969 
"/>
  </clipPath>
  <clipPath id="p281d50d387">
   <path d="M 425.084812 153.970969 
L 425.084812 138.130969 
L 440.924812 138.130969 
L 440.924812 153.970969 
"/>
  </clipPath>
  <clipPath id="p0307b3b8cd">
   <path d="M 425.084812 171.810969 
L 425.084812 155.970969 
L 440.924812 155.970969 
L 440.924812 171.810969 
"/>
  </clipPath>
  <clipPath id="pe62faf0307">
   <path d="M 425.084812 189.650969 
L 425.084812 173.810969 
L 440.924812 173.810969 
L 440.924812 189.650969 
"/>
  </clipPath>
  <clipPath id="pa479935d07">
   <path d="M 425.084812 207.490969 
L 425.084812 191.650969 
L 440.924812 191.650969 
L 440.924812 207.490969 
"/>
  </clipPath>
  <clipPath id="pcf5aa4e168">
   <path d="M 425.084812 225.330969 
L 425.084812 209.490969 
L 440.924812 209.490969 
L 440.924812 225.330969 
"/>
  </clipPath>
  <clipPath id="pbe70596a39">
   <path d="M 425.084812 243.170969 
L 425.084812 227.330969 
L 440.924812 227.330969 
L 440.924812 243.170969 
"/>
  </clipPath>
 </defs>
</svg>
