<?xml version="1.0" encoding="UTF-8" standalone="no"?>
<svg
   xmlns:dc="http://purl.org/dc/elements/1.1/"
   xmlns:cc="http://creativecommons.org/ns#"
   xmlns:rdf="http://www.w3.org/1999/02/22-rdf-syntax-ns#"
   xmlns:svg="http://www.w3.org/2000/svg"
   xmlns="http://www.w3.org/2000/svg"
   xmlns:sodipodi="http://sodipodi.sourceforge.net/DTD/sodipodi-0.dtd"
   xmlns:inkscape="http://www.inkscape.org/namespaces/inkscape"
   version="1.1"
   id="svg2"
   xml:space="preserve"
   width="518.12042"
   height="456.45865"
   viewBox="0 0 518.12042 456.45865"
   sodipodi:docname="weakly_alpha.svg"
   inkscape:version="1.0.2 (e86c870879, 2021-01-15)"><metadata
     id="metadata8"><rdf:RDF><cc:Work
         rdf:about=""><dc:format>image/svg+xml</dc:format><dc:type
           rdf:resource="http://purl.org/dc/dcmitype/StillImage" /><dc:title></dc:title></cc:Work></rdf:RDF></metadata><defs
     id="defs6"><clipPath
       clipPathUnits="userSpaceOnUse"
       id="clipPath22"><path
         d="m 54.14375,69.680625 h 176.04 V 335.79263 h -176.04 z"
         id="path20" /></clipPath><clipPath
       clipPathUnits="userSpaceOnUse"
       id="clipPath40"><path
         d="m 54.14375,69.680625 h 176.04 V 335.79263 h -176.04 z"
         id="path38" /></clipPath><clipPath
       clipPathUnits="userSpaceOnUse"
       id="clipPath58"><path
         d="m 54.14375,69.680625 h 176.04 V 335.79263 h -176.04 z"
         id="path56" /></clipPath><clipPath
       clipPathUnits="userSpaceOnUse"
       id="clipPath76"><path
         d="m 54.14375,69.680625 h 176.04 V 335.79263 h -176.04 z"
         id="path74" /></clipPath><clipPath
       clipPathUnits="userSpaceOnUse"
       id="clipPath94"><path
         d="m 54.14375,69.680625 h 176.04 V 335.79263 h -176.04 z"
         id="path92" /></clipPath><clipPath
       clipPathUnits="userSpaceOnUse"
       id="clipPath112"><path
         d="m 54.14375,69.680625 h 176.04 V 335.79263 h -176.04 z"
         id="path110" /></clipPath><clipPath
       clipPathUnits="userSpaceOnUse"
       id="clipPath128"><path
         d="m 54.14375,69.680625 h 176.04 V 335.79263 h -176.04 z"
         id="path126" /></clipPath><clipPath
       clipPathUnits="userSpaceOnUse"
       id="clipPath150"><path
         d="M -1021,-463 H 1794 V 1233 H -1021 Z"
         id="path148" /></clipPath><clipPath
       clipPathUnits="userSpaceOnUse"
       id="clipPath160"><path
         d="m 54.14375,69.680625 h 176.04 V 335.79263 h -176.04 z"
         id="path158" /></clipPath><clipPath
       clipPathUnits="userSpaceOnUse"
       id="clipPath182"><path
         d="M -1021,-463 H 1794 V 1233 H -1021 Z"
         id="path180" /></clipPath><clipPath
       clipPathUnits="userSpaceOnUse"
       id="clipPath192"><path
         d="m 54.14375,69.680625 h 176.04 V 335.79263 h -176.04 z"
         id="path190" /></clipPath><clipPath
       clipPathUnits="userSpaceOnUse"
       id="clipPath210"><path
         d="m 54.14375,69.680625 h 176.04 V 335.79263 h -176.04 z"
         id="path208" /></clipPath><clipPath
       clipPathUnits="userSpaceOnUse"
       id="clipPath228"><path
         d="m 54.14375,69.680625 h 176.04 V 335.79263 h -176.04 z"
         id="path226" /></clipPath><clipPath
       clipPathUnits="userSpaceOnUse"
       id="clipPath246"><path
         d="m 54.14375,69.680625 h 176.04 V 335.79263 h -176.04 z"
         id="path244" /></clipPath><clipPath
       clipPathUnits="userSpaceOnUse"
       id="clipPath270"><path
         d="M -1021,-463 H 1794 V 1233 H -1021 Z"
         id="path268" /></clipPath><clipPath
       clipPathUnits="userSpaceOnUse"
       id="clipPath280"><path
         d="m 54.14375,69.680625 h 176.04 V 335.79263 h -176.04 z"
         id="path278" /></clipPath><clipPath
       clipPathUnits="userSpaceOnUse"
       id="clipPath290"><path
         d="m 54.14375,69.680625 h 176.04 V 335.79263 h -176.04 z"
         id="path288" /></clipPath><clipPath
       clipPathUnits="userSpaceOnUse"
       id="clipPath314"><path
         d="M 96.931875,19.4 V 35.24 H 112.77187 V 19.4"
         id="path312" /></clipPath><clipPath
       clipPathUnits="userSpaceOnUse"
       id="clipPath332"><path
         d="m 187.35,19.4 v 15.84 h 15.84 V 19.4"
         id="path330" /></clipPath><clipPath
       clipPathUnits="userSpaceOnUse"
       id="clipPath352"><path
         d="m 235.22375,69.680625 h 176.04 V 335.79263 h -176.04 z"
         id="path350" /></clipPath><clipPath
       clipPathUnits="userSpaceOnUse"
       id="clipPath370"><path
         d="m 235.22375,69.680625 h 176.04 V 335.79263 h -176.04 z"
         id="path368" /></clipPath><clipPath
       clipPathUnits="userSpaceOnUse"
       id="clipPath388"><path
         d="m 235.22375,69.680625 h 176.04 V 335.79263 h -176.04 z"
         id="path386" /></clipPath><clipPath
       clipPathUnits="userSpaceOnUse"
       id="clipPath406"><path
         d="m 235.22375,69.680625 h 176.04 V 335.79263 h -176.04 z"
         id="path404" /></clipPath><clipPath
       clipPathUnits="userSpaceOnUse"
       id="clipPath424"><path
         d="m 235.22375,69.680625 h 176.04 V 335.79263 h -176.04 z"
         id="path422" /></clipPath><clipPath
       clipPathUnits="userSpaceOnUse"
       id="clipPath442"><path
         d="m 235.22375,69.680625 h 176.04 V 335.79263 h -176.04 z"
         id="path440" /></clipPath><clipPath
       clipPathUnits="userSpaceOnUse"
       id="clipPath464"><path
         d="m 235.22375,69.680625 h 176.04 V 335.79263 h -176.04 z"
         id="path462" /></clipPath><clipPath
       clipPathUnits="userSpaceOnUse"
       id="clipPath474"><path
         d="m 235.22375,69.680625 h 176.04 V 335.79263 h -176.04 z"
         id="path472" /></clipPath><clipPath
       clipPathUnits="userSpaceOnUse"
       id="clipPath484"><path
         d="m 235.22375,69.680625 h 176.04 V 335.79263 h -176.04 z"
         id="path482" /></clipPath><clipPath
       clipPathUnits="userSpaceOnUse"
       id="clipPath498"><path
         d="m 235.22375,69.680625 h 176.04 V 335.79263 h -176.04 z"
         id="path496" /></clipPath><clipPath
       clipPathUnits="userSpaceOnUse"
       id="clipPath516"><path
         d="m 235.22375,69.680625 h 176.04 V 335.79263 h -176.04 z"
         id="path514" /></clipPath><clipPath
       clipPathUnits="userSpaceOnUse"
       id="clipPath526"><path
         d="m 235.22375,69.680625 h 176.04 V 335.79263 h -176.04 z"
         id="path524" /></clipPath></defs><sodipodi:namedview
     pagecolor="#ffffff"
     bordercolor="#666666"
     borderopacity="1"
     objecttolerance="10"
     gridtolerance="10"
     guidetolerance="10"
     inkscape:pageopacity="0"
     inkscape:pageshadow="2"
     inkscape:window-width="1920"
     inkscape:window-height="1016"
     id="namedview4"
     showgrid="false"
     inkscape:zoom="1.3061856"
     inkscape:cx="248.98814"
     inkscape:cy="206.58367"
     inkscape:window-x="0"
     inkscape:window-y="27"
     inkscape:window-maximized="1"
     inkscape:current-layer="g10" /><g
     id="g10"
     inkscape:groupmode="layer"
     inkscape:label="weakly_alpha"
     transform="matrix(1.3333333,0,0,-1.3333333,-30.897899,467.45681)"><path
       d="M 0,0 H 418.46375 V 357.29262 H 0 Z"
       style="fill:#ffffff;fill-opacity:1;fill-rule:nonzero;stroke:#ffffff;stroke-width:1;stroke-linecap:butt;stroke-linejoin:miter;stroke-miterlimit:10;stroke-dasharray:none;stroke-opacity:1"
       id="path12" /><path
       d="m 54.14375,69.680625 h 176.04 V 335.79262 h -176.04 z"
       style="fill:#ffffff;fill-opacity:1;fill-rule:nonzero;stroke:#7f7f7f;stroke-width:1;stroke-linecap:butt;stroke-linejoin:miter;stroke-miterlimit:10;stroke-dasharray:none;stroke-opacity:1"
       id="path14" /><g
       id="g16"><g
         id="g18"
         clip-path="url(#clipPath22)"><path
           d="M 57.934085,69.680625 V 335.79262"
           style="fill:none;stroke:#e5e5e5;stroke-width:0.8;stroke-linecap:butt;stroke-linejoin:round;stroke-miterlimit:10;stroke-dasharray:none;stroke-opacity:1"
           id="path24" /></g></g><g
       id="g26"><path
         d="m 57.934085,69.680625 v -2.75"
         style="fill:#333333;fill-opacity:1;fill-rule:nonzero;stroke:#333333;stroke-width:1;stroke-linecap:butt;stroke-linejoin:round;stroke-miterlimit:10;stroke-dasharray:none;stroke-opacity:1"
         id="path28" /><text
         transform="matrix(1,0,0,-1,55.13721,58.043125)"
         style="font-variant:normal;font-weight:normal;font-size:8.8px;font-family:'DejaVu Sans';-inkscape-font-specification:DejaVuSans;writing-mode:lr-tb;fill:#4d4d4d;fill-opacity:1;fill-rule:nonzero;stroke:none"
         id="text32"><tspan
           x="0"
           y="0"
           id="tspan30">0</tspan></text></g><g
       id="g34"><g
         id="g36"
         clip-path="url(#clipPath40)"><path
           d="M 100.04892,69.680625 V 335.79262"
           style="fill:none;stroke:#e5e5e5;stroke-width:0.8;stroke-linecap:butt;stroke-linejoin:round;stroke-miterlimit:10;stroke-dasharray:none;stroke-opacity:1"
           id="path42" /></g></g><g
       id="g44"><path
         d="m 100.04892,69.680625 v -2.75"
         style="fill:#333333;fill-opacity:1;fill-rule:nonzero;stroke:#333333;stroke-width:1;stroke-linecap:butt;stroke-linejoin:round;stroke-miterlimit:10;stroke-dasharray:none;stroke-opacity:1"
         id="path46" /><text
         transform="matrix(1,0,0,-1,90.259855,58.043125)"
         style="font-variant:normal;font-weight:normal;font-size:8.8px;font-family:'DejaVu Sans';-inkscape-font-specification:DejaVuSans;writing-mode:lr-tb;fill:#4d4d4d;fill-opacity:1;fill-rule:nonzero;stroke:none"
         id="text50"><tspan
           x="0 5.5967999 8.3951998 13.992"
           y="0"
           sodipodi:role="line"
           id="tspan48">0.25</tspan></text></g><g
       id="g52"><g
         id="g54"
         clip-path="url(#clipPath58)"><path
           d="M 142.16375,69.680625 V 335.79262"
           style="fill:none;stroke:#e5e5e5;stroke-width:0.8;stroke-linecap:butt;stroke-linejoin:round;stroke-miterlimit:10;stroke-dasharray:none;stroke-opacity:1"
           id="path60" /></g></g><g
       id="g62"><path
         d="m 142.16375,69.680625 v -2.75"
         style="fill:#333333;fill-opacity:1;fill-rule:nonzero;stroke:#333333;stroke-width:1;stroke-linecap:butt;stroke-linejoin:round;stroke-miterlimit:10;stroke-dasharray:none;stroke-opacity:1"
         id="path64" /><text
         transform="matrix(1,0,0,-1,132.37469,58.043125)"
         style="font-variant:normal;font-weight:normal;font-size:8.8px;font-family:'DejaVu Sans';-inkscape-font-specification:DejaVuSans;writing-mode:lr-tb;fill:#4d4d4d;fill-opacity:1;fill-rule:nonzero;stroke:none"
         id="text68"><tspan
           x="0 5.5967999 8.3951998 13.992"
           y="0"
           sodipodi:role="line"
           id="tspan66">0.50</tspan></text></g><g
       id="g70"><g
         id="g72"
         clip-path="url(#clipPath76)"><path
           d="M 184.27858,69.680625 V 335.79262"
           style="fill:none;stroke:#e5e5e5;stroke-width:0.8;stroke-linecap:butt;stroke-linejoin:round;stroke-miterlimit:10;stroke-dasharray:none;stroke-opacity:1"
           id="path78" /></g></g><g
       id="g80"><path
         d="m 184.27858,69.680625 v -2.75"
         style="fill:#333333;fill-opacity:1;fill-rule:nonzero;stroke:#333333;stroke-width:1;stroke-linecap:butt;stroke-linejoin:round;stroke-miterlimit:10;stroke-dasharray:none;stroke-opacity:1"
         id="path82" /><text
         transform="matrix(1,0,0,-1,174.48952,58.043125)"
         style="font-variant:normal;font-weight:normal;font-size:8.8px;font-family:'DejaVu Sans';-inkscape-font-specification:DejaVuSans;writing-mode:lr-tb;fill:#4d4d4d;fill-opacity:1;fill-rule:nonzero;stroke:none"
         id="text86"><tspan
           x="0 5.5967999 8.3951998 13.992"
           y="0"
           sodipodi:role="line"
           id="tspan84">0.75</tspan></text></g><g
       id="g88"><g
         id="g90"
         clip-path="url(#clipPath94)"><path
           d="M 226.39341,69.680625 V 335.79262"
           style="fill:none;stroke:#e5e5e5;stroke-width:0.8;stroke-linecap:butt;stroke-linejoin:round;stroke-miterlimit:10;stroke-dasharray:none;stroke-opacity:1"
           id="path96" /></g></g><g
       id="g98"><path
         d="m 226.39341,69.680625 v -2.75"
         style="fill:#333333;fill-opacity:1;fill-rule:nonzero;stroke:#333333;stroke-width:1;stroke-linecap:butt;stroke-linejoin:round;stroke-miterlimit:10;stroke-dasharray:none;stroke-opacity:1"
         id="path100" /><text
         transform="matrix(1,0,0,-1,223.59654,58.043125)"
         style="font-variant:normal;font-weight:normal;font-size:8.8px;font-family:'DejaVu Sans';-inkscape-font-specification:DejaVuSans;writing-mode:lr-tb;fill:#4d4d4d;fill-opacity:1;fill-rule:nonzero;stroke:none"
         id="text104"><tspan
           x="0"
           y="0"
           id="tspan102">1</tspan></text></g><g
       id="g106"><g
         id="g108"
         clip-path="url(#clipPath112)"><path
           d="M 78.991501,69.680625 V 335.79262"
           style="fill:none;stroke:#fafafa;stroke-width:1;stroke-linecap:butt;stroke-linejoin:round;stroke-miterlimit:10;stroke-dasharray:none;stroke-opacity:1"
           id="path114" /><path
           d="M 121.10633,69.680625 V 335.79262"
           style="fill:none;stroke:#fafafa;stroke-width:1;stroke-linecap:butt;stroke-linejoin:round;stroke-miterlimit:10;stroke-dasharray:none;stroke-opacity:1"
           id="path116" /><path
           d="M 163.22117,69.680625 V 335.79262"
           style="fill:none;stroke:#fafafa;stroke-width:1;stroke-linecap:butt;stroke-linejoin:round;stroke-miterlimit:10;stroke-dasharray:none;stroke-opacity:1"
           id="path118" /><path
           d="M 205.336,69.680625 V 335.79262"
           style="fill:none;stroke:#fafafa;stroke-width:1;stroke-linecap:butt;stroke-linejoin:round;stroke-miterlimit:10;stroke-dasharray:none;stroke-opacity:1"
           id="path120" /></g></g><g
       id="g122"><g
         id="g124"
         clip-path="url(#clipPath128)"><path
           d="m 54.14375,117.87035 h 176.04"
           style="fill:none;stroke:#e5e5e5;stroke-width:0.8;stroke-linecap:butt;stroke-linejoin:round;stroke-miterlimit:10;stroke-dasharray:none;stroke-opacity:1"
           id="path130" /></g></g><g
       id="g132"><path
         d="m 54.14375,117.87035 h -2.75"
         style="fill:#333333;fill-opacity:1;fill-rule:nonzero;stroke:#333333;stroke-width:1;stroke-linecap:butt;stroke-linejoin:round;stroke-miterlimit:10;stroke-dasharray:none;stroke-opacity:1"
         id="path134" /><g
         id="g136"
         transform="translate(22.240625,115.44067)"><text
           transform="matrix(1,0,0,-1,7.3708191,0)"
           style="font-variant:normal;font-weight:normal;font-size:8.8px;font-family:'DejaVu Sans';-inkscape-font-specification:DejaVuSans;writing-mode:lr-tb;fill:#4d4d4d;fill-opacity:1;fill-rule:nonzero;stroke:none"
           id="text140"><tspan
             x="0 5.5967999 8.3951998 13.992"
             y="0"
             sodipodi:role="line"
             id="tspan138">0.50</tspan></text><g
           id="g142"
           transform="scale(0.0088)"><g
             id="g144"><g
               id="g146"
               clip-path="url(#clipPath150)"><path
                 d="M 106,355 H 732 V 272 H 106 v 83"
                 style="fill:#4d4d4d;fill-opacity:1;fill-rule:nonzero;stroke:none"
                 id="path152" /></g></g></g></g></g><g
       id="g154"><g
         id="g156"
         clip-path="url(#clipPath160)"><path
           d="m 54.14375,171.05141 h 176.04"
           style="fill:none;stroke:#e5e5e5;stroke-width:0.8;stroke-linecap:butt;stroke-linejoin:round;stroke-miterlimit:10;stroke-dasharray:none;stroke-opacity:1"
           id="path162" /></g></g><g
       id="g164"><path
         d="m 54.14375,171.05141 h -2.75"
         style="fill:#333333;fill-opacity:1;fill-rule:nonzero;stroke:#333333;stroke-width:1;stroke-linecap:butt;stroke-linejoin:round;stroke-miterlimit:10;stroke-dasharray:none;stroke-opacity:1"
         id="path166" /><g
         id="g168"
         transform="translate(22.240625,168.62172)"><text
           transform="matrix(1,0,0,-1,7.3708191,0)"
           style="font-variant:normal;font-weight:normal;font-size:8.8px;font-family:'DejaVu Sans';-inkscape-font-specification:DejaVuSans;writing-mode:lr-tb;fill:#4d4d4d;fill-opacity:1;fill-rule:nonzero;stroke:none"
           id="text172"><tspan
             x="0 5.5967999 8.3951998 13.992"
             y="0"
             sodipodi:role="line"
             id="tspan170">0.25</tspan></text><g
           id="g174"
           transform="scale(0.0088)"><g
             id="g176"><g
               id="g178"
               clip-path="url(#clipPath182)"><path
                 d="M 106,355 H 732 V 272 H 106 v 83"
                 style="fill:#4d4d4d;fill-opacity:1;fill-rule:nonzero;stroke:none"
                 id="path184" /></g></g></g></g></g><g
       id="g186"><g
         id="g188"
         clip-path="url(#clipPath192)"><path
           d="m 54.14375,224.23246 h 176.04"
           style="fill:none;stroke:#e5e5e5;stroke-width:0.8;stroke-linecap:butt;stroke-linejoin:round;stroke-miterlimit:10;stroke-dasharray:none;stroke-opacity:1"
           id="path194" /></g></g><g
       id="g196"><path
         d="m 54.14375,224.23246 h -2.75"
         style="fill:#333333;fill-opacity:1;fill-rule:nonzero;stroke:#333333;stroke-width:1;stroke-linecap:butt;stroke-linejoin:round;stroke-miterlimit:10;stroke-dasharray:none;stroke-opacity:1"
         id="path198" /><text
         transform="matrix(1,0,0,-1,43.6,221.80277)"
         style="font-variant:normal;font-weight:normal;font-size:8.8px;font-family:'DejaVu Sans';-inkscape-font-specification:DejaVuSans;writing-mode:lr-tb;fill:#4d4d4d;fill-opacity:1;fill-rule:nonzero;stroke:none"
         id="text202"><tspan
           x="0"
           y="0"
           id="tspan200">0</tspan></text></g><g
       id="g204"><g
         id="g206"
         clip-path="url(#clipPath210)"><path
           d="m 54.14375,277.41351 h 176.04"
           style="fill:none;stroke:#e5e5e5;stroke-width:0.8;stroke-linecap:butt;stroke-linejoin:round;stroke-miterlimit:10;stroke-dasharray:none;stroke-opacity:1"
           id="path212" /></g></g><g
       id="g214"><path
         d="m 54.14375,277.41351 h -2.75"
         style="fill:#333333;fill-opacity:1;fill-rule:nonzero;stroke:#333333;stroke-width:1;stroke-linecap:butt;stroke-linejoin:round;stroke-miterlimit:10;stroke-dasharray:none;stroke-opacity:1"
         id="path216" /><text
         transform="matrix(1,0,0,-1,29.615625,274.98382)"
         style="font-variant:normal;font-weight:normal;font-size:8.8px;font-family:'DejaVu Sans';-inkscape-font-specification:DejaVuSans;writing-mode:lr-tb;fill:#4d4d4d;fill-opacity:1;fill-rule:nonzero;stroke:none"
         id="text220"><tspan
           x="0 5.5967999 8.3951998 13.992"
           y="0"
           sodipodi:role="line"
           id="tspan218">0.25</tspan></text></g><g
       id="g222"><g
         id="g224"
         clip-path="url(#clipPath228)"><path
           d="m 54.14375,330.59456 h 176.04"
           style="fill:none;stroke:#e5e5e5;stroke-width:0.8;stroke-linecap:butt;stroke-linejoin:round;stroke-miterlimit:10;stroke-dasharray:none;stroke-opacity:1"
           id="path230" /></g></g><g
       id="g232"><path
         d="m 54.14375,330.59456 h -2.75"
         style="fill:#333333;fill-opacity:1;fill-rule:nonzero;stroke:#333333;stroke-width:1;stroke-linecap:butt;stroke-linejoin:round;stroke-miterlimit:10;stroke-dasharray:none;stroke-opacity:1"
         id="path234" /><text
         transform="matrix(1,0,0,-1,29.615625,328.16487)"
         style="font-variant:normal;font-weight:normal;font-size:8.8px;font-family:'DejaVu Sans';-inkscape-font-specification:DejaVuSans;writing-mode:lr-tb;fill:#4d4d4d;fill-opacity:1;fill-rule:nonzero;stroke:none"
         id="text238"><tspan
           x="0 5.5967999 8.3951998 13.992"
           y="0"
           sodipodi:role="line"
           id="tspan236">0.50</tspan></text></g><g
       id="g240"><g
         id="g242"
         clip-path="url(#clipPath246)"><path
           d="m 54.14375,91.279828 h 176.04"
           style="fill:none;stroke:#fafafa;stroke-width:1;stroke-linecap:butt;stroke-linejoin:round;stroke-miterlimit:10;stroke-dasharray:none;stroke-opacity:1"
           id="path248" /><path
           d="m 54.14375,144.46088 h 176.04"
           style="fill:none;stroke:#fafafa;stroke-width:1;stroke-linecap:butt;stroke-linejoin:round;stroke-miterlimit:10;stroke-dasharray:none;stroke-opacity:1"
           id="path250" /><path
           d="m 54.14375,197.64193 h 176.04"
           style="fill:none;stroke:#fafafa;stroke-width:1;stroke-linecap:butt;stroke-linejoin:round;stroke-miterlimit:10;stroke-dasharray:none;stroke-opacity:1"
           id="path252" /><path
           d="m 54.14375,250.82298 h 176.04"
           style="fill:none;stroke:#fafafa;stroke-width:1;stroke-linecap:butt;stroke-linejoin:round;stroke-miterlimit:10;stroke-dasharray:none;stroke-opacity:1"
           id="path254" /><path
           d="m 54.14375,304.00403 h 176.04"
           style="fill:none;stroke:#fafafa;stroke-width:1;stroke-linecap:butt;stroke-linejoin:round;stroke-miterlimit:10;stroke-dasharray:none;stroke-opacity:1"
           id="path256" /></g></g><g
       id="g258"><g
         id="g260"
         transform="rotate(90,-92.640125,108.1995)"><g
           id="g262"
           transform="scale(0.011)"><g
             id="g264"><g
               id="g266"
               clip-path="url(#clipPath270)"><path
                 d="m 413,254 -21,113 c -15,77 -51,116 -109,116 -44,0 -76,-18 -95,-54 -26,-45 -38,-97 -38,-156 0,-72 12,-125 37,-159 24,-35 56,-52 96,-52 43,0 76,34 100,104 l 30,88 m 50,150 49,143 h 80 L 492,250 511,144 c 3,-16 10,-31 22,-44 13,-16 25,-24 35,-24 h 43 V 0 H 558 C 527,0 498,13 471,41 457,55 448,76 442,104 427,68 404,36 374,8 360,-4 329,-11 283,-11 206,-11 149,13 112,62 74,113 55,183 55,273 c 0,96 20,166 62,211 46,50 101,75 166,75 101,0 161,-52 180,-155"
                 style="fill:#000000;fill-opacity:1;fill-rule:nonzero;stroke:none"
                 id="path272" /></g></g></g></g></g><g
       id="g274"><g
         id="g276"
         clip-path="url(#clipPath280)"><path
           d="m 62.145568,184.2966 4.211483,48.45826 4.211484,15.14605 4.211483,8.49945 4.211483,6.56552 4.211483,4.45459 4.211484,2.37408 4.211483,1.85852 4.211483,5.05399 4.211486,1.76126 4.21148,1.6269 4.21148,1.73724 4.21149,3.22964 4.21148,1.81585 4.21148,0.35823 4.21149,1.88031 4.21148,1.66973 4.21148,-0.23307 4.21149,0.39603 4.21148,0.89998 4.21148,0.56803 4.21149,0.95735 4.21148,-0.48486 4.21148,-0.48908 4.21149,-1.56343 4.21148,2.12175 4.21148,0.51047 4.21149,0.35995 4.21148,-1.85595 4.21148,0.89576 4.21149,-1.13519 4.21148,-0.25865 4.21148,2.07306 4.21149,-4.28108 4.21148,1.56595 4.21148,4.6205 4.21148,-0.268 4.21149,-7.90411 4.21148,16.27988"
           style="fill:none;stroke:#000000;stroke-width:0.886227;stroke-linecap:butt;stroke-linejoin:round;stroke-miterlimit:10;stroke-dasharray:none;stroke-opacity:1"
           id="path282" /></g></g><g
       id="g284"><g
         id="g286"
         clip-path="url(#clipPath290)"><path
           d="m 62.145568,189.23516 4.211483,48.90377 4.211484,15.54773 4.211483,8.74827 4.211483,6.86114 4.211483,4.82009 4.211484,2.70992 4.211483,2.18788 4.211483,5.33827 4.211486,2.16702 4.21148,2.18544 4.21148,1.98741 4.21149,3.5618 4.21148,2.06142 4.21148,0.59511 4.21149,2.19715 4.21148,2.15144 4.21148,0.46322 4.21149,0.88337 4.21148,1.49831 4.21148,0.69951 4.21149,1.26226 4.21148,0.0795 4.21148,0.57162 4.21149,-0.59291 4.21148,2.73473 4.21148,1.02803 4.21149,1.26953 4.21148,-1.73672 4.21148,1.88205 4.21149,0.32946 4.21148,1.13425 4.21148,3.5902 4.21149,-2.40356 4.21148,0.72786 4.21148,2.25209 4.21148,1.14856 4.21149,-6.69858 4.21148,12.31478"
           style="fill:none;stroke:#ab2710;stroke-width:0.886227;stroke-linecap:butt;stroke-linejoin:round;stroke-miterlimit:10;stroke-dasharray:none;stroke-opacity:1"
           id="path292" /></g></g><path
       d="m 54.14375,335.79262 h 176.04 v 14.3 h -176.04 z"
       style="fill:#cccccc;fill-opacity:1;fill-rule:nonzero;stroke:#7f7f7f;stroke-width:1;stroke-linecap:butt;stroke-linejoin:miter;stroke-miterlimit:10;stroke-dasharray:none;stroke-opacity:1"
       id="path296" /><path
       d="M 85.543904,8.2486149 H 369.96766 V 54.003688 H 85.543904 Z"
       style="fill:#ffffff;fill-opacity:1;fill-rule:nonzero;stroke:none;stroke-width:0.909773"
       id="path302" /><text
       transform="scale(1,-1)"
       style="font-variant:normal;font-weight:normal;font-size:11px;font-family:'DejaVu Sans';-inkscape-font-specification:DejaVuSans;writing-mode:lr-tb;fill:#000000;fill-opacity:1;fill-rule:nonzero;stroke:none"
       id="text306"
       x="96.931877"
       y="-38.882187"><tspan
         x="96.931877 103.91688 110.24187"
         y="-38.882187"
         sodipodi:role="line"
         id="tspan304">SFS</tspan></text><g
       id="g308"><g
         id="g310"
         clip-path="url(#clipPath314)"><path
           d="M 96.931875,19.4 H 112.77187 V 35.24 H 96.931875 Z"
           style="fill:#f2f2f2;fill-opacity:1;fill-rule:nonzero;stroke:#cccccc;stroke-width:1;stroke-linecap:butt;stroke-linejoin:miter;stroke-miterlimit:10;stroke-dasharray:none;stroke-opacity:1"
           id="path316" /><path
           d="M 96.931875,27.32 H 112.77187"
           style="fill:none;stroke:#000000;stroke-width:0.886227;stroke-linecap:butt;stroke-linejoin:round;stroke-miterlimit:10;stroke-dasharray:none;stroke-opacity:1"
           id="path318" /></g></g><g
       id="g320"><text
         transform="matrix(1,0,0,-1,115.77187,23.452812)"
         style="font-variant:normal;font-weight:normal;font-size:14px;font-family:'DejaVu Sans';-inkscape-font-specification:DejaVuSans;writing-mode:lr-tb;fill:#000000;fill-opacity:1;fill-rule:nonzero;stroke:none"
         id="text324"><tspan
           x="0 9.5760002 13.468 17.360001 21.812 30.393999 34.285999 38.178001 46.787998 50.68 59.290001"
           y="0"
           sodipodi:role="line"
           id="tspan322">All alleles</tspan></text></g><g
       id="g326"><g
         id="g328"
         clip-path="url(#clipPath332)"><path
           d="m 187.35,19.4 h 15.84 v 15.84 h -15.84 z"
           style="fill:#f2f2f2;fill-opacity:1;fill-rule:nonzero;stroke:#cccccc;stroke-width:1;stroke-linecap:butt;stroke-linejoin:miter;stroke-miterlimit:10;stroke-dasharray:none;stroke-opacity:1"
           id="path334" /><path
           d="m 187.35,27.32 h 15.84"
           style="fill:none;stroke:#ab2710;stroke-width:0.886227;stroke-linecap:butt;stroke-linejoin:round;stroke-miterlimit:10;stroke-dasharray:none;stroke-opacity:1"
           id="path336" /></g></g><g
       id="g338"><text
         transform="matrix(1,0,0,-1,206.19,23.452812)"
         style="font-variant:normal;font-weight:normal;font-size:14px;font-family:'DejaVu Sans';-inkscape-font-specification:DejaVuSans;writing-mode:lr-tb;fill:#000000;fill-opacity:1;fill-rule:nonzero;stroke:none"
         id="text342"><tspan
           x="0 10.472 19.082001 27.958 33.445999 39.200001 47.782001 51.674 56.125999 67.858002 72.309998 81.199997 89.809998 93.702003 102.312 107.8 116.41 122.164 126.056 134.62399 143.5"
           y="0"
           sodipodi:role="line"
           id="tspan340">Neutral + deleterious</tspan></text><path
         d="m 235.22375,69.680625 h 176.04 V 335.79262 h -176.04 z"
         style="fill:#ffffff;fill-opacity:1;fill-rule:nonzero;stroke:#7f7f7f;stroke-width:1;stroke-linecap:butt;stroke-linejoin:miter;stroke-miterlimit:10;stroke-dasharray:none;stroke-opacity:1"
         id="path344" /></g><g
       id="g346"><g
         id="g348"
         clip-path="url(#clipPath352)"><path
           d="M 239.01408,69.680625 V 335.79262"
           style="fill:none;stroke:#e5e5e5;stroke-width:0.8;stroke-linecap:square;stroke-linejoin:round;stroke-miterlimit:10;stroke-dasharray:none;stroke-opacity:1"
           id="path354" /></g></g><g
       id="g356"><path
         d="m 239.01408,69.680625 v -2.75"
         style="fill:#333333;fill-opacity:1;fill-rule:nonzero;stroke:#333333;stroke-width:1;stroke-linecap:butt;stroke-linejoin:round;stroke-miterlimit:10;stroke-dasharray:none;stroke-opacity:1"
         id="path358" /><text
         transform="matrix(1,0,0,-1,236.21721,58.043125)"
         style="font-variant:normal;font-weight:normal;font-size:8.8px;font-family:'DejaVu Sans';-inkscape-font-specification:DejaVuSans;writing-mode:lr-tb;fill:#4d4d4d;fill-opacity:1;fill-rule:nonzero;stroke:none"
         id="text362"><tspan
           x="0"
           y="0"
           id="tspan360">0</tspan></text></g><g
       id="g364"><g
         id="g366"
         clip-path="url(#clipPath370)"><path
           d="M 281.12892,69.680625 V 335.79262"
           style="fill:none;stroke:#e5e5e5;stroke-width:0.8;stroke-linecap:square;stroke-linejoin:round;stroke-miterlimit:10;stroke-dasharray:none;stroke-opacity:1"
           id="path372" /></g></g><g
       id="g374"><path
         d="m 281.12892,69.680625 v -2.75"
         style="fill:#333333;fill-opacity:1;fill-rule:nonzero;stroke:#333333;stroke-width:1;stroke-linecap:butt;stroke-linejoin:round;stroke-miterlimit:10;stroke-dasharray:none;stroke-opacity:1"
         id="path376" /><text
         transform="matrix(1,0,0,-1,271.33985,58.043125)"
         style="font-variant:normal;font-weight:normal;font-size:8.8px;font-family:'DejaVu Sans';-inkscape-font-specification:DejaVuSans;writing-mode:lr-tb;fill:#4d4d4d;fill-opacity:1;fill-rule:nonzero;stroke:none"
         id="text380"><tspan
           x="0 5.5967999 8.3951998 13.992"
           y="0"
           sodipodi:role="line"
           id="tspan378">0.25</tspan></text></g><g
       id="g382"><g
         id="g384"
         clip-path="url(#clipPath388)"><path
           d="M 323.24375,69.680625 V 335.79262"
           style="fill:none;stroke:#e5e5e5;stroke-width:0.8;stroke-linecap:square;stroke-linejoin:round;stroke-miterlimit:10;stroke-dasharray:none;stroke-opacity:1"
           id="path390" /></g></g><g
       id="g392"><path
         d="m 323.24375,69.680625 v -2.75"
         style="fill:#333333;fill-opacity:1;fill-rule:nonzero;stroke:#333333;stroke-width:1;stroke-linecap:butt;stroke-linejoin:round;stroke-miterlimit:10;stroke-dasharray:none;stroke-opacity:1"
         id="path394" /><text
         transform="matrix(1,0,0,-1,313.45469,58.043125)"
         style="font-variant:normal;font-weight:normal;font-size:8.8px;font-family:'DejaVu Sans';-inkscape-font-specification:DejaVuSans;writing-mode:lr-tb;fill:#4d4d4d;fill-opacity:1;fill-rule:nonzero;stroke:none"
         id="text398"><tspan
           x="0 5.5967999 8.3951998 13.992"
           y="0"
           sodipodi:role="line"
           id="tspan396">0.50</tspan></text></g><g
       id="g400"><g
         id="g402"
         clip-path="url(#clipPath406)"><path
           d="M 365.35858,69.680625 V 335.79262"
           style="fill:none;stroke:#e5e5e5;stroke-width:0.8;stroke-linecap:square;stroke-linejoin:round;stroke-miterlimit:10;stroke-dasharray:none;stroke-opacity:1"
           id="path408" /></g></g><g
       id="g410"><path
         d="m 365.35858,69.680625 v -2.75"
         style="fill:#333333;fill-opacity:1;fill-rule:nonzero;stroke:#333333;stroke-width:1;stroke-linecap:butt;stroke-linejoin:round;stroke-miterlimit:10;stroke-dasharray:none;stroke-opacity:1"
         id="path412" /><text
         transform="matrix(1,0,0,-1,355.56952,58.043125)"
         style="font-variant:normal;font-weight:normal;font-size:8.8px;font-family:'DejaVu Sans';-inkscape-font-specification:DejaVuSans;writing-mode:lr-tb;fill:#4d4d4d;fill-opacity:1;fill-rule:nonzero;stroke:none"
         id="text416"><tspan
           x="0 5.5967999 8.3951998 13.992"
           y="0"
           sodipodi:role="line"
           id="tspan414">0.75</tspan></text></g><g
       id="g418"><g
         id="g420"
         clip-path="url(#clipPath424)"><path
           d="M 407.47341,69.680625 V 335.79262"
           style="fill:none;stroke:#e5e5e5;stroke-width:0.8;stroke-linecap:square;stroke-linejoin:round;stroke-miterlimit:10;stroke-dasharray:none;stroke-opacity:1"
           id="path426" /></g></g><g
       id="g428"><path
         d="m 407.47341,69.680625 v -2.75"
         style="fill:#333333;fill-opacity:1;fill-rule:nonzero;stroke:#333333;stroke-width:1;stroke-linecap:butt;stroke-linejoin:round;stroke-miterlimit:10;stroke-dasharray:none;stroke-opacity:1"
         id="path430" /><text
         transform="matrix(1,0,0,-1,404.67654,58.043125)"
         style="font-variant:normal;font-weight:normal;font-size:8.8px;font-family:'DejaVu Sans';-inkscape-font-specification:DejaVuSans;writing-mode:lr-tb;fill:#4d4d4d;fill-opacity:1;fill-rule:nonzero;stroke:none"
         id="text434"><tspan
           x="0"
           y="0"
           id="tspan432">1</tspan></text></g><g
       id="g436"><g
         id="g438"
         clip-path="url(#clipPath442)"><path
           d="M 260.0715,69.680625 V 335.79262"
           style="fill:none;stroke:#fafafa;stroke-width:1;stroke-linecap:square;stroke-linejoin:round;stroke-miterlimit:10;stroke-dasharray:none;stroke-opacity:1"
           id="path444" /><path
           d="M 302.18633,69.680625 V 335.79262"
           style="fill:none;stroke:#fafafa;stroke-width:1;stroke-linecap:square;stroke-linejoin:round;stroke-miterlimit:10;stroke-dasharray:none;stroke-opacity:1"
           id="path446" /><path
           d="M 344.30117,69.680625 V 335.79262"
           style="fill:none;stroke:#fafafa;stroke-width:1;stroke-linecap:square;stroke-linejoin:round;stroke-miterlimit:10;stroke-dasharray:none;stroke-opacity:1"
           id="path448" /><path
           d="M 386.416,69.680625 V 335.79262"
           style="fill:none;stroke:#fafafa;stroke-width:1;stroke-linecap:square;stroke-linejoin:round;stroke-miterlimit:10;stroke-dasharray:none;stroke-opacity:1"
           id="path450" /></g></g><g
       id="g452"><text
         transform="matrix(1,0,0,-1,170.43594,43.455625)"
         style="font-variant:normal;font-weight:normal;font-size:11px;font-family:'DejaVu Sans';-inkscape-font-specification:DejaVuSans;writing-mode:lr-tb;fill:#000000;fill-opacity:1;fill-rule:nonzero;stroke:none"
         id="text456"><tspan
           x="0 8.4700003 15.235 19.756001 22.813999 29.326 36.091 43.076 46.574001 54.098 57.155998 60.214001 66.978996 70.037003 76.802002 80.300003 87.977997 94.709999 101.684 108.658"
           y="0"
           sodipodi:role="line"
           id="tspan454">Derived Allele Count</tspan></text></g><g
       id="g458"><g
         id="g460"
         clip-path="url(#clipPath464)"><path
           d="m 235.22375,117.87035 h 176.04"
           style="fill:none;stroke:#e5e5e5;stroke-width:0.8;stroke-linecap:square;stroke-linejoin:round;stroke-miterlimit:10;stroke-dasharray:none;stroke-opacity:1"
           id="path466" /></g></g><g
       id="g468"><g
         id="g470"
         clip-path="url(#clipPath474)"><path
           d="m 235.22375,171.05141 h 176.04"
           style="fill:none;stroke:#e5e5e5;stroke-width:0.8;stroke-linecap:square;stroke-linejoin:round;stroke-miterlimit:10;stroke-dasharray:none;stroke-opacity:1"
           id="path476" /></g></g><g
       id="g478"><g
         id="g480"
         clip-path="url(#clipPath484)"><path
           d="m 235.22375,224.23246 h 176.04"
           style="fill:none;stroke:#e5e5e5;stroke-width:0.8;stroke-linecap:square;stroke-linejoin:round;stroke-miterlimit:10;stroke-dasharray:none;stroke-opacity:1"
           id="path486" /><path
           d="m 235.22375,277.41351 h 176.04"
           style="fill:none;stroke:#e5e5e5;stroke-width:0.8;stroke-linecap:square;stroke-linejoin:round;stroke-miterlimit:10;stroke-dasharray:none;stroke-opacity:1"
           id="path488" /><path
           d="m 235.22375,330.59456 h 176.04"
           style="fill:none;stroke:#e5e5e5;stroke-width:0.8;stroke-linecap:square;stroke-linejoin:round;stroke-miterlimit:10;stroke-dasharray:none;stroke-opacity:1"
           id="path490" /></g></g><g
       id="g492"><g
         id="g494"
         clip-path="url(#clipPath498)"><path
           d="m 235.22375,91.279828 h 176.04"
           style="fill:none;stroke:#fafafa;stroke-width:1;stroke-linecap:square;stroke-linejoin:round;stroke-miterlimit:10;stroke-dasharray:none;stroke-opacity:1"
           id="path500" /><path
           d="m 235.22375,144.46088 h 176.04"
           style="fill:none;stroke:#fafafa;stroke-width:1;stroke-linecap:square;stroke-linejoin:round;stroke-miterlimit:10;stroke-dasharray:none;stroke-opacity:1"
           id="path502" /><path
           d="m 235.22375,197.64193 h 176.04"
           style="fill:none;stroke:#fafafa;stroke-width:1;stroke-linecap:square;stroke-linejoin:round;stroke-miterlimit:10;stroke-dasharray:none;stroke-opacity:1"
           id="path504" /><path
           d="m 235.22375,250.82298 h 176.04"
           style="fill:none;stroke:#fafafa;stroke-width:1;stroke-linecap:square;stroke-linejoin:round;stroke-miterlimit:10;stroke-dasharray:none;stroke-opacity:1"
           id="path506" /><path
           d="m 235.22375,304.00403 h 176.04"
           style="fill:none;stroke:#fafafa;stroke-width:1;stroke-linecap:square;stroke-linejoin:round;stroke-miterlimit:10;stroke-dasharray:none;stroke-opacity:1"
           id="path508" /></g></g><g
       id="g510"><g
         id="g512"
         clip-path="url(#clipPath516)"><path
           d="m 243.22557,81.776625 4.21148,70.486325 4.21148,18.98228 4.21149,16.7278 4.21148,8.6799 4.21148,7.2936 4.21149,4.72889 4.21148,5.51327 4.21148,1.94157 4.21149,1.9102 4.21148,2.91739 4.21148,4.24254 4.21149,1.9955 4.21148,-0.51428 4.21148,-1.20818 4.21149,1.32323 4.21148,2.54116 4.21148,4.01344 4.21149,0.78919 4.21148,-3.08396 4.21148,2.09999 4.21149,4.07953 4.21148,4.30865 4.21148,3.913 4.21149,3.52889 4.21148,-5.10952 4.21148,1.24431 4.21149,-4.02418 4.21148,3.89667 4.21148,3.9815 4.21149,-3.18621 4.21148,-1.80242 4.21148,-7.75226 4.21149,5.32112 4.21148,-6.37408 4.21148,-14.03956 4.21148,6.38854 4.21149,-7.40506 4.21148,-41.19987"
           style="fill:none;stroke:#000000;stroke-width:0.886227;stroke-linecap:butt;stroke-linejoin:round;stroke-miterlimit:10;stroke-dasharray:none;stroke-opacity:1"
           id="path518" /></g></g><g
       id="g520"><g
         id="g522"
         clip-path="url(#clipPath526)"><path
           d="m 243.22557,86.508979 4.21148,70.761721 4.21148,19.0383 4.21149,16.66679 4.21148,8.91981 4.21148,7.61226 4.21149,4.77848 4.21148,5.3302 4.21148,1.9117 4.21149,1.90619 4.21148,2.91275 4.21148,3.8769 4.21149,2.15109 4.21148,-0.47582 4.21148,-1.34581 4.21149,1.07902 4.21148,2.2422 4.21148,4.09864 4.21149,0.63546 4.21148,-2.94671 4.21148,2.16596 4.21149,3.81119 4.21148,3.93448 4.21148,3.8659 4.21149,3.48754 4.21148,-5.0828 4.21148,1.59321 4.21149,-4.09419 4.21148,4.28997 4.21148,3.83294 4.21149,-3.39736 4.21148,-1.13434 4.21148,-6.85393 4.21149,4.96364 4.21148,-6.4095 4.21148,-15.89603 4.21148,5.31484 4.21149,-6.25316 4.21148,-44.87498"
           style="fill:none;stroke:#ab2710;stroke-width:0.886227;stroke-linecap:butt;stroke-linejoin:round;stroke-miterlimit:10;stroke-dasharray:none;stroke-opacity:1"
           id="path528" /></g></g><g
       id="g530"><path
         d="m 235.22375,335.79262 h 176.04 v 14.3 h -176.04 z"
         style="fill:#cccccc;fill-opacity:1;fill-rule:nonzero;stroke:#7f7f7f;stroke-width:1;stroke-linecap:butt;stroke-linejoin:miter;stroke-miterlimit:10;stroke-dasharray:none;stroke-opacity:1"
         id="path532" /></g><text
       xml:space="preserve"
       style="font-size:9.92337px;line-height:1.25;font-family:sans-serif;letter-spacing:0px;stroke-width:0.248084"
       x="246.10747"
       y="-340.37698"
       id="text43511"
       transform="scale(1,-1)"><tspan
         sodipodi:role="line"
         id="tspan43509"
         style="font-style:normal;font-variant:normal;font-weight:normal;font-stretch:normal;font-family:Arimo;-inkscape-font-specification:Arimo;stroke-width:0.248084"
         x="246.10747"
         y="-340.37698">Baseline + weak adaptation + BGS</tspan></text><text
       xml:space="preserve"
       style="font-size:10.1893px;line-height:1.25;font-family:sans-serif;letter-spacing:0px;stroke-width:0.254732"
       x="79.622444"
       y="-340.30823"
       id="text43511-7"
       transform="scale(1,-1)"><tspan
         sodipodi:role="line"
         id="tspan43509-0"
         style="font-style:normal;font-variant:normal;font-weight:normal;font-stretch:normal;font-family:Arimo;-inkscape-font-specification:Arimo;stroke-width:0.254732"
         x="79.622444"
         y="-340.30823">Baseline + weak adaptation</tspan></text></g></svg>
